<?xml version="1.0" encoding="utf-8"?>
<!-- Generator: Adobe Illustrator 21.0.2, SVG Export Plug-In . SVG Version: 6.00 Build 0)  -->
<svg version="1.1" id="Слой_1" xmlns="http://www.w3.org/2000/svg" xmlns:xlink="http://www.w3.org/1999/xlink" x="0px" y="0px"
	 width="59.4px" height="28.5px" viewBox="0 0 59.4 28.5" style="enable-background:new 0 0 59.4 28.5;" xml:space="preserve">
<style type="text/css">
	.st0{fill:#FFFFFF;}
</style>
<path class="st0" d="M59.4,20.8c0-4.3-3.5-7.7-7.7-7.7c-0.4,0-0.7,0-1.1,0.1c0.3-1,0.5-2,0.5-3.1C51.1,4.5,46.5,0,41,0
	c-2.8,0-5.4,1.2-7.2,3.1C31.3,1.1,28.3,0,24.9,0c-6.3,0-11.6,4.1-13.5,9.7c-0.6-0.1-1.3-0.2-1.9-0.2C4.3,9.5,0,13.8,0,19
	c0,4.8,3.6,8.8,8.3,9.4v0.1h45.1v-0.2C56.8,27.5,59.4,24.4,59.4,20.8z"/>
</svg>
