<?xml version="1.0" encoding="utf-8"?>
<!-- Generator: Adobe Illustrator 21.0.2, SVG Export Plug-In . SVG Version: 6.00 Build 0)  -->
<svg version="1.1" id="Слой_1" xmlns="http://www.w3.org/2000/svg" xmlns:xlink="http://www.w3.org/1999/xlink" x="0px" y="0px"
	 width="26px" height="11px" viewBox="0 0 26 11" style="enable-background:new 0 0 26 11;" xml:space="preserve">
<style type="text/css">
	.st0{fill:#FFFFFF;}
</style>
<path class="st0" d="M23,4c-0.6,0-1.1,0.2-1.6,0.6c-1-0.2-2.2-0.4-3.4-0.5C17.7,2.9,16.5,2,15,2c-0.8,0-1.6,0.3-2.1,0.7
	C12.5,1.2,11.2,0,9.5,0C8.1,0,6.9,0.8,6.3,2.1C6.1,2,5.8,2,5.5,2C2.5,2,0,4,0,6.5c0,1.7,1.2,3.3,3,4V11h20c1.7,0,3-1.6,3-3.5
	S24.7,4,23,4z"/>
</svg>
