<?xml version="1.0" encoding="utf-8"?>
<!-- Generator: Adobe Illustrator 21.0.2, SVG Export Plug-In . SVG Version: 6.00 Build 0)  -->
<svg version="1.1" id="Слой_1" xmlns="http://www.w3.org/2000/svg" xmlns:xlink="http://www.w3.org/1999/xlink" x="0px" y="0px"
	 width="136.7px" height="136.7px" viewBox="0 0 136.7 136.7" style="enable-background:new 0 0 136.7 136.7;" xml:space="preserve"
	>
<style type="text/css">
	.st0{clip-path:url(#SVGID_2_);fill:url(#SVGID_3_);}
	.st1{fill:none;stroke:#BB9C58;stroke-width:1.4173;stroke-miterlimit:22.9256;}
	.st2{clip-path:url(#SVGID_5_);fill:url(#SVGID_6_);}
	.st3{clip-path:url(#SVGID_8_);fill:url(#SVGID_9_);}
	.st4{clip-path:url(#SVGID_11_);fill:url(#SVGID_12_);}
	.st5{clip-path:url(#SVGID_14_);fill:url(#SVGID_15_);}
	.st6{clip-path:url(#SVGID_17_);fill:url(#SVGID_18_);}
	.st7{clip-path:url(#SVGID_20_);fill:url(#SVGID_21_);}
	.st8{clip-path:url(#SVGID_23_);fill:url(#SVGID_24_);}
	.st9{clip-path:url(#SVGID_26_);fill:url(#SVGID_27_);}
	.st10{clip-path:url(#SVGID_29_);fill:url(#SVGID_30_);}
	.st11{clip-path:url(#SVGID_32_);fill:url(#SVGID_33_);}
	.st12{clip-path:url(#SVGID_35_);fill:url(#SVGID_36_);}
	.st13{clip-path:url(#SVGID_38_);fill:url(#SVGID_39_);}
	.st14{clip-path:url(#SVGID_41_);fill:url(#SVGID_42_);}
	.st15{clip-path:url(#SVGID_44_);fill:url(#SVGID_45_);}
	.st16{clip-path:url(#SVGID_47_);fill:url(#SVGID_48_);}
	.st17{clip-path:url(#SVGID_50_);fill:url(#SVGID_51_);}
	.st18{clip-path:url(#SVGID_53_);fill:url(#SVGID_54_);}
	.st19{clip-path:url(#SVGID_56_);fill:url(#SVGID_57_);}
	.st20{clip-path:url(#SVGID_59_);fill:url(#SVGID_60_);}
	.st21{fill:#A48644;}
	.st22{clip-path:url(#SVGID_62_);fill:url(#SVGID_63_);}
	.st23{clip-path:url(#SVGID_65_);fill:url(#SVGID_66_);}
	.st24{clip-path:url(#SVGID_68_);fill:url(#SVGID_69_);}
	.st25{clip-path:url(#SVGID_71_);fill:url(#SVGID_72_);}
	.st26{clip-path:url(#SVGID_74_);fill:url(#SVGID_75_);}
	.st27{clip-path:url(#SVGID_77_);fill:url(#SVGID_78_);}
	.st28{clip-path:url(#SVGID_80_);fill:url(#SVGID_81_);}
	.st29{clip-path:url(#SVGID_83_);fill:url(#SVGID_84_);}
	.st30{clip-path:url(#SVGID_86_);fill:url(#SVGID_87_);}
	.st31{clip-path:url(#SVGID_89_);fill:url(#SVGID_90_);}
	.st32{clip-path:url(#SVGID_92_);fill:url(#SVGID_93_);}
	.st33{clip-path:url(#SVGID_95_);fill:url(#SVGID_96_);}
	.st34{clip-path:url(#SVGID_98_);fill:url(#SVGID_99_);}
	.st35{clip-path:url(#SVGID_101_);fill:url(#SVGID_102_);}
</style>
<g>
	<defs>
		<path id="SVGID_1_" d="M102.2,126.9c-32.3,18.7-73.7,7.6-92.4-24.8C-8.9,69.8,2.2,28.5,34.5,9.8c32.3-18.7,73.7-7.6,92.4,24.8
			C145.6,66.9,134.5,108.2,102.2,126.9"/>
	</defs>
	<clipPath id="SVGID_2_">
		<use xlink:href="#SVGID_1_"  style="overflow:visible;"/>
	</clipPath>
	
		<linearGradient id="SVGID_3_" gradientUnits="userSpaceOnUse" x1="-228.5338" y1="487.9914" x2="-227.8338" y2="487.9914" gradientTransform="matrix(-161.2056 93.3329 -93.0944 -160.7938 8713.6387 99831.0859)">
		<stop  offset="0" style="stop-color:#D7B56D"/>
		<stop  offset="0.5" style="stop-color:#FFF7B2"/>
		<stop  offset="1" style="stop-color:#D7B56D"/>
	</linearGradient>
	<polygon class="st0" points="106.8,-75.9 -75.9,29.9 29.9,212.6 212.6,106.8 	"/>
</g>
<ellipse transform="matrix(0.866 -0.5 0.5 0.866 -25.0183 43.3331)" class="st1" cx="68.4" cy="68.4" rx="67.6" ry="67.6"/>
<g>
	<defs>
		<path id="SVGID_4_" d="M51.3,131.9C16.3,122.5-4.6,86.4,4.8,51.3C14.2,16.3,50.3-4.6,85.4,4.8c35.1,9.4,55.9,45.5,46.5,80.5
			C122.5,120.4,86.4,141.3,51.3,131.9"/>
	</defs>
	<clipPath id="SVGID_5_">
		<use xlink:href="#SVGID_4_"  style="overflow:visible;"/>
	</clipPath>
	
		<linearGradient id="SVGID_6_" gradientUnits="userSpaceOnUse" x1="-227.9989" y1="488.7411" x2="-227.2189" y2="488.7411" gradientTransform="matrix(-156.6888 -41.7808 41.8326 -156.8827 -56040.1289 67233.8594)">
		<stop  offset="0" style="stop-color:#D7B56D"/>
		<stop  offset="0.5" style="stop-color:#FFF7B2"/>
		<stop  offset="1" style="stop-color:#D7B56D"/>
	</linearGradient>
	<polygon class="st2" points="177.6,5.1 5.1,-40.9 -40.9,131.6 131.6,177.6 	"/>
</g>
<g>
	<defs>
		<path id="SVGID_7_" d="M51.8,130.1C17.7,121-2.5,85.9,6.6,51.8C15.7,17.7,50.8-2.5,84.9,6.6c34.1,9.1,54.3,44.2,45.2,78.3
			C121,119,85.9,139.2,51.8,130.1"/>
	</defs>
	<clipPath id="SVGID_8_">
		<use xlink:href="#SVGID_7_"  style="overflow:visible;"/>
	</clipPath>
	
		<linearGradient id="SVGID_9_" gradientUnits="userSpaceOnUse" x1="-228.8495" y1="486.566" x2="-228.0896" y2="486.566" gradientTransform="matrix(1.3303 129.4024 -130.3213 1.3397 63782.1992 28981.1152)">
		<stop  offset="0" style="stop-color:#AE4A84"/>
		<stop  offset="1" style="stop-color:#8C3467"/>
	</linearGradient>
	<polygon class="st3" points="-4,-2.5 -2.5,140.7 140.7,139.2 139.2,-4 	"/>
</g>
<g>
	<defs>
		<path id="SVGID_10_" d="M93.3,111.6c-11.9,6.9-25.5,8.3-37.9,5c-12.3-3.3-23.4-11.3-30.3-23.3c-6.9-11.9-8.3-25.5-5-37.9
			C23.4,43.1,31.5,32,43.4,25.1h0c11.9-6.9,25.5-8.3,37.9-5c12.3,3.3,23.4,11.3,30.3,23.3v0c6.9,11.9,8.3,25.5,5,37.9
			C113.3,93.6,105.2,104.7,93.3,111.6"/>
	</defs>
	<clipPath id="SVGID_11_">
		<use xlink:href="#SVGID_10_"  style="overflow:visible;"/>
	</clipPath>
	
		<linearGradient id="SVGID_12_" gradientUnits="userSpaceOnUse" x1="-226.4106" y1="485.8006" x2="-225.4505" y2="485.8006" gradientTransform="matrix(101.0814 -0.1211 0.1199 100.119 22848.0352 -48596.8945)">
		<stop  offset="0" style="stop-color:#D7B56D"/>
		<stop  offset="0.5" style="stop-color:#FFF7B2"/>
		<stop  offset="1" style="stop-color:#D7B56D"/>
	</linearGradient>
	<polygon class="st4" points="16.8,120 120,119.9 119.9,16.7 16.7,16.8 	"/>
</g>
<g>
	<defs>
		<path id="SVGID_13_" d="M109.6,92.2c-2-3.2-4.3-6.2-7-8.9c-3-3-6.3-5.6-10-7.7h0c-3.7-2.1-7.6-3.7-11.7-4.8
			c-3.6-1-7.4-1.5-11.2-1.6c2,3.2,4.3,6.2,7,8.9c3,3,6.3,5.6,10,7.7h0c3.7,2.1,7.6,3.7,11.7,4.8C102,91.5,105.8,92,109.6,92.2"/>
	</defs>
	<clipPath id="SVGID_14_">
		<use xlink:href="#SVGID_13_"  style="overflow:visible;"/>
	</clipPath>
	
		<linearGradient id="SVGID_15_" gradientUnits="userSpaceOnUse" x1="-222.2869" y1="487.8808" x2="-221.9869" y2="487.8808" gradientTransform="matrix(21.3137 -36.233 41.7783 24.5756 -15558.5625 -19958.1426)">
		<stop  offset="0" style="stop-color:#B39656"/>
		<stop  offset="0.24" style="stop-color:#DEBF77"/>
		<stop  offset="0.5" style="stop-color:#FFF7B2"/>
		<stop  offset="0.68" style="stop-color:#E1C47C"/>
		<stop  offset="1" style="stop-color:#B39555"/>
	</linearGradient>
	<polygon class="st5" points="99.3,109.6 119.6,75 79.9,51.7 59.6,86.2 	"/>
</g>
<g>
	<defs>
		<path id="SVGID_16_" d="M67,67.6c-2-3.2-4.3-6.2-7-8.9c-3-3-6.3-5.6-10-7.7h0c-3.7-2.1-7.6-3.7-11.7-4.8c-3.6-1-7.4-1.5-11.2-1.6
			c2,3.2,4.3,6.2,7,8.9c3,3,6.3,5.6,10,7.7h0c3.7,2.1,7.6,3.7,11.7,4.8C59.5,66.9,63.2,67.5,67,67.6"/>
	</defs>
	<clipPath id="SVGID_17_">
		<use xlink:href="#SVGID_16_"  style="overflow:visible;"/>
	</clipPath>
	
		<linearGradient id="SVGID_18_" gradientUnits="userSpaceOnUse" x1="-222.2869" y1="487.8808" x2="-221.9869" y2="487.8808" gradientTransform="matrix(21.3137 -36.233 41.7783 24.5756 -15601.1318 -19982.7188)">
		<stop  offset="0" style="stop-color:#B39656"/>
		<stop  offset="0.24" style="stop-color:#DEBF77"/>
		<stop  offset="0.5" style="stop-color:#FFF7B2"/>
		<stop  offset="0.68" style="stop-color:#E1C47C"/>
		<stop  offset="1" style="stop-color:#B39555"/>
	</linearGradient>
	<polygon class="st6" points="56.8,85 77.1,50.5 37.4,27.1 17.1,61.7 	"/>
</g>
<g>
	<defs>
		<path id="SVGID_19_" d="M109.6,93.7c-3.8,0.1-7.5,0.7-11.2,1.6c-4.1,1.1-8,2.7-11.7,4.8h0c-3.7,2.1-7,4.7-10,7.7
			c-2.7,2.7-5,5.6-7,8.9c7.8-0.2,15.6-2.3,22.9-6.5C99.8,106.1,105.5,100.3,109.6,93.7"/>
	</defs>
	<clipPath id="SVGID_20_">
		<use xlink:href="#SVGID_19_"  style="overflow:visible;"/>
	</clipPath>
	
		<linearGradient id="SVGID_21_" gradientUnits="userSpaceOnUse" x1="-225.3085" y1="491.5244" x2="-225.0285" y2="491.5244" gradientTransform="matrix(-21.8954 -36.4921 41.8287 -25.0974 -25400.3926 4224.2163)">
		<stop  offset="0" style="stop-color:#B39656"/>
		<stop  offset="0.24" style="stop-color:#DEBF77"/>
		<stop  offset="0.5" style="stop-color:#FFF7B2"/>
		<stop  offset="0.68" style="stop-color:#E1C47C"/>
		<stop  offset="1" style="stop-color:#B39555"/>
	</linearGradient>
	<polygon class="st7" points="119.7,110.6 99,76.1 59.5,99.8 80.3,134.3 	"/>
</g>
<g>
	<defs>
		<path id="SVGID_22_" d="M69.7,20c2,3.2,4.3,6.2,7,8.9c3,3,6.3,5.6,10,7.7h0c3.7,2.1,7.6,3.7,11.7,4.8c3.6,1,7.4,1.5,11.2,1.6
			c-6.7-10.9-17.1-18.3-28.7-21.4C77.2,20.6,73.5,20.1,69.7,20"/>
	</defs>
	<clipPath id="SVGID_23_">
		<use xlink:href="#SVGID_22_"  style="overflow:visible;"/>
	</clipPath>
	
		<linearGradient id="SVGID_24_" gradientUnits="userSpaceOnUse" x1="-222.2875" y1="487.8808" x2="-221.9875" y2="487.8808" gradientTransform="matrix(21.3161 -36.2372 41.7815 24.5775 -15559.5615 -20009.1563)">
		<stop  offset="0" style="stop-color:#B39656"/>
		<stop  offset="0.24" style="stop-color:#DEBF77"/>
		<stop  offset="0.5" style="stop-color:#FFF7B2"/>
		<stop  offset="0.68" style="stop-color:#E1C47C"/>
		<stop  offset="1" style="stop-color:#B39555"/>
	</linearGradient>
	<polygon class="st8" points="99.3,60.4 119.6,25.9 79.9,2.5 59.6,37.1 	"/>
</g>
<g>
	<defs>
		<path id="SVGID_25_" d="M27.1,43c3.8-0.1,7.5-0.7,11.2-1.6c4.1-1.1,8-2.7,11.7-4.8h0c3.7-2.1,7-4.7,10-7.7c2.7-2.7,5-5.6,7-8.9
			c-7.8,0.2-15.6,2.3-22.9,6.5l0,0C36.9,30.6,31.2,36.4,27.1,43"/>
	</defs>
	<clipPath id="SVGID_26_">
		<use xlink:href="#SVGID_25_"  style="overflow:visible;"/>
	</clipPath>
	
		<linearGradient id="SVGID_27_" gradientUnits="userSpaceOnUse" x1="-225.3085" y1="491.5243" x2="-225.0285" y2="491.5243" gradientTransform="matrix(-21.8953 -36.4919 41.8289 -25.0975 -25443.0566 4150.6055)">
		<stop  offset="0" style="stop-color:#B39656"/>
		<stop  offset="0.24" style="stop-color:#DEBF77"/>
		<stop  offset="0.5" style="stop-color:#FFF7B2"/>
		<stop  offset="0.68" style="stop-color:#E1C47C"/>
		<stop  offset="1" style="stop-color:#B39555"/>
	</linearGradient>
	<polygon class="st9" points="77.2,36.9 56.5,2.4 17,26.1 37.7,60.6 	"/>
</g>
<g>
	<defs>
		<path id="SVGID_28_" d="M67,116.7c-2-3.2-4.3-6.2-7-8.9c-3-3-6.3-5.6-10-7.7h0c-3.7-2.1-7.6-3.7-11.7-4.8c-3.6-1-7.4-1.5-11.2-1.6
			c6.7,10.9,17.1,18.3,28.7,21.4C59.5,116.1,63.2,116.6,67,116.7"/>
	</defs>
	<clipPath id="SVGID_29_">
		<use xlink:href="#SVGID_28_"  style="overflow:visible;"/>
	</clipPath>
	
		<linearGradient id="SVGID_30_" gradientUnits="userSpaceOnUse" x1="-222.2877" y1="487.8808" x2="-221.9877" y2="487.8808" gradientTransform="matrix(21.3171 -36.2389 41.7844 24.5792 -15603.3271 -19936.6465)">
		<stop  offset="0" style="stop-color:#B39656"/>
		<stop  offset="0.24" style="stop-color:#DEBF77"/>
		<stop  offset="0.5" style="stop-color:#FFF7B2"/>
		<stop  offset="0.68" style="stop-color:#E1C47C"/>
		<stop  offset="1" style="stop-color:#B39555"/>
	</linearGradient>
	<polygon class="st10" points="56.8,134.2 77.1,99.6 37.4,76.3 17.1,110.8 	"/>
</g>
<g>
	<defs>
		<path id="SVGID_31_" d="M64,60.8c-0.5-1.4-0.9-2.7-1.3-4.1c-1.1-4.2-1.7-8.5-1.7-12.9c0-4.4,0.6-8.7,1.7-12.9
			c0.4-1.4,0.8-2.8,1.3-4.1c-0.9,1.1-1.9,2.2-2.9,3.2c-3.1,3.1-6.5,5.7-10.3,7.9l0,0c-3.8,2.2-7.8,3.9-12,5
			c-1.4,0.4-2.8,0.7-4.2,0.9c1.4,0.3,2.8,0.6,4.2,0.9c4.2,1.1,8.2,2.8,12,5l0,0c3.8,2.2,7.3,4.9,10.3,7.9
			C62.1,58.7,63.1,59.7,64,60.8"/>
	</defs>
	<clipPath id="SVGID_32_">
		<use xlink:href="#SVGID_31_"  style="overflow:visible;"/>
	</clipPath>
	
		<linearGradient id="SVGID_33_" gradientUnits="userSpaceOnUse" x1="-231.7419" y1="492.4502" x2="-230.8219" y2="492.4502" gradientTransform="matrix(-30.2928 0.3883 -0.4431 -34.5702 -6738.584 17157.6777)">
		<stop  offset="0" style="stop-color:#B39656"/>
		<stop  offset="0.24" style="stop-color:#DEBF77"/>
		<stop  offset="0.5" style="stop-color:#FFF7B2"/>
		<stop  offset="0.68" style="stop-color:#E1C47C"/>
		<stop  offset="1" style="stop-color:#B39555"/>
	</linearGradient>
	<polygon class="st11" points="64,26.3 34,26.7 34.5,61.2 64.5,60.8 	"/>
</g>
<g>
	<defs>
		<path id="SVGID_34_" d="M68.4,20.7c-1.8,3.3-3.2,6.9-4.2,10.5c-1.1,4.1-1.6,8.3-1.6,12.5c0,4.3,0.6,8.5,1.6,12.5
			c1,3.6,2.4,7.2,4.2,10.5c1.8-3.3,3.2-6.9,4.2-10.5c1.1-4.1,1.6-8.3,1.6-12.5s-0.6-8.5-1.6-12.5C71.6,27.6,70.2,24.1,68.4,20.7"/>
	</defs>
	<clipPath id="SVGID_35_">
		<use xlink:href="#SVGID_34_"  style="overflow:visible;"/>
	</clipPath>
	
		<linearGradient id="SVGID_36_" gradientUnits="userSpaceOnUse" x1="-237.7435" y1="491.2025" x2="-236.8235" y2="491.2025" gradientTransform="matrix(-12.3529 0.1583 -0.5932 -46.2763 -2571.3767 22812.3906)">
		<stop  offset="0" style="stop-color:#B39656"/>
		<stop  offset="0.24" style="stop-color:#DEBF77"/>
		<stop  offset="0.5" style="stop-color:#FFF7B2"/>
		<stop  offset="0.68" style="stop-color:#E1C47C"/>
		<stop  offset="1" style="stop-color:#B39555"/>
	</linearGradient>
	<polygon class="st12" points="74.2,20.6 61.9,20.8 62.5,66.9 74.8,66.8 	"/>
</g>
<g>
	<defs>
		<path id="SVGID_37_" d="M72.7,60.8c0.9-1.1,1.9-2.2,2.9-3.2c3.1-3.1,6.5-5.7,10.3-7.9c3.8-2.2,7.8-3.9,12-5
			c1.4-0.4,2.8-0.7,4.2-0.9c-1.4-0.3-2.8-0.6-4.2-0.9c-4.2-1.1-8.2-2.8-12-5l0,0c-3.8-2.2-7.3-4.9-10.3-7.9c-1-1-2-2.1-2.9-3.2
			c0.5,1.4,0.9,2.7,1.3,4.1c1.1,4.2,1.7,8.5,1.7,12.9c0,4.4-0.6,8.7-1.7,12.9C73.6,58.1,73.2,59.5,72.7,60.8"/>
	</defs>
	<clipPath id="SVGID_38_">
		<use xlink:href="#SVGID_37_"  style="overflow:visible;"/>
	</clipPath>
	
		<linearGradient id="SVGID_39_" gradientUnits="userSpaceOnUse" x1="-231.7418" y1="492.4495" x2="-230.8218" y2="492.4495" gradientTransform="matrix(-30.2939 0.3883 -0.4432 -34.5753 -6700.5708 17160.166)">
		<stop  offset="0" style="stop-color:#B39656"/>
		<stop  offset="0.24" style="stop-color:#DEBF77"/>
		<stop  offset="0.5" style="stop-color:#FFF7B2"/>
		<stop  offset="0.68" style="stop-color:#E1C47C"/>
		<stop  offset="1" style="stop-color:#B39555"/>
	</linearGradient>
	<polygon class="st13" points="102.2,26.3 72.2,26.7 72.7,61.2 102.7,60.8 	"/>
</g>
<g>
	<defs>
		<path id="SVGID_40_" d="M69.7,67.6c3.8-0.1,7.5-0.7,11.2-1.6c4.1-1.1,8-2.7,11.7-4.8l0,0c3.7-2.1,7-4.7,10-7.7
			c2.7-2.7,5-5.6,7-8.9c-3.8,0.1-7.5,0.7-11.2,1.6c-4.1,1.1-8,2.7-11.7,4.8c-3.7,2.1-7,4.7-10,7.7C74,61.4,71.7,64.3,69.7,67.6"/>
	</defs>
	<clipPath id="SVGID_41_">
		<use xlink:href="#SVGID_40_"  style="overflow:visible;"/>
	</clipPath>
	
		<linearGradient id="SVGID_42_" gradientUnits="userSpaceOnUse" x1="-225.3078" y1="491.5258" x2="-225.0278" y2="491.5258" gradientTransform="matrix(-21.8877 -36.4792 41.8138 -25.0885 -25391.4141 4173.6465)">
		<stop  offset="0" style="stop-color:#B39656"/>
		<stop  offset="0.24" style="stop-color:#DEBF77"/>
		<stop  offset="0.5" style="stop-color:#FFF7B2"/>
		<stop  offset="0.68" style="stop-color:#E1C47C"/>
		<stop  offset="1" style="stop-color:#B39555"/>
	</linearGradient>
	<polygon class="st14" points="119.7,61.5 99,27 59.5,50.6 80.3,85.2 	"/>
</g>
<g>
	<defs>
		<path id="SVGID_43_" d="M110.9,45.3c-2.1,3.4-4.5,6.4-7.3,9.2c-3.1,3.1-6.5,5.7-10.3,7.9h0c-3.8,2.2-7.8,3.9-12,5
			c-1.4,0.4-2.8,0.7-4.2,0.9c1.4,0.3,2.8,0.6,4.2,0.9c4.2,1.1,8.2,2.8,12,5l0,0c3.8,2.2,7.3,4.9,10.3,7.9c2.8,2.8,5.2,5.8,7.3,9.2
			c1.8-3.3,3.2-6.9,4.2-10.5C118.2,69.3,117,56.6,110.9,45.3"/>
	</defs>
	<clipPath id="SVGID_44_">
		<use xlink:href="#SVGID_43_"  style="overflow:visible;"/>
	</clipPath>
	
		<linearGradient id="SVGID_45_" gradientUnits="userSpaceOnUse" x1="-230.6741" y1="491.1677" x2="-229.7741" y2="491.1677" gradientTransform="matrix(-40.7152 0.5219 -0.5988 -46.7159 -8982.4287 23133.8711)">
		<stop  offset="0" style="stop-color:#B39656"/>
		<stop  offset="0.24" style="stop-color:#DEBF77"/>
		<stop  offset="0.5" style="stop-color:#FFF7B2"/>
		<stop  offset="0.68" style="stop-color:#E1C47C"/>
		<stop  offset="1" style="stop-color:#B39555"/>
	</linearGradient>
	<polygon class="st15" points="118.2,44.8 76.4,45.3 77,91.9 118.8,91.4 	"/>
</g>
<g>
	<defs>
		<path id="SVGID_46_" d="M72.7,75.9c0.5,1.4,0.9,2.7,1.3,4.1c1.1,4.2,1.7,8.5,1.7,12.9c0,4.4-0.6,8.7-1.7,12.9
			c-0.4,1.4-0.8,2.8-1.3,4.1c0.9-1.1,1.9-2.2,2.9-3.2c3.1-3.1,6.5-5.7,10.3-7.9l0,0c3.8-2.2,7.8-3.9,12-5c1.4-0.4,2.8-0.7,4.2-0.9
			c-1.4-0.3-2.8-0.6-4.2-0.9c-4.2-1.1-8.2-2.8-12-5l0,0c-3.8-2.2-7.3-4.9-10.3-7.9C74.6,78,73.6,77,72.7,75.9"/>
	</defs>
	<clipPath id="SVGID_47_">
		<use xlink:href="#SVGID_46_"  style="overflow:visible;"/>
	</clipPath>
	
		<linearGradient id="SVGID_48_" gradientUnits="userSpaceOnUse" x1="-231.7421" y1="492.45" x2="-230.8221" y2="492.45" gradientTransform="matrix(-30.2919 0.3883 -0.4431 -34.5719 -6700.145 17207.6582)">
		<stop  offset="0" style="stop-color:#B39656"/>
		<stop  offset="0.24" style="stop-color:#DEBF77"/>
		<stop  offset="0.5" style="stop-color:#FFF7B2"/>
		<stop  offset="0.68" style="stop-color:#E1C47C"/>
		<stop  offset="1" style="stop-color:#B39555"/>
	</linearGradient>
	<polygon class="st16" points="102.2,75.5 72.3,75.9 72.7,110.4 102.7,110 	"/>
</g>
<g>
	<defs>
		<path id="SVGID_49_" d="M68.4,69.9c-1.8,3.3-3.2,6.9-4.2,10.5c-1.1,4.1-1.6,8.3-1.6,12.5s0.6,8.5,1.6,12.5c1,3.6,2.4,7.2,4.2,10.5
			c1.8-3.3,3.2-6.9,4.2-10.5c1.1-4.1,1.6-8.3,1.6-12.5c0-4.3-0.6-8.5-1.6-12.5C71.6,76.8,70.2,73.2,68.4,69.9"/>
	</defs>
	<clipPath id="SVGID_50_">
		<use xlink:href="#SVGID_49_"  style="overflow:visible;"/>
	</clipPath>
	
		<linearGradient id="SVGID_51_" gradientUnits="userSpaceOnUse" x1="-237.7435" y1="491.2025" x2="-236.8235" y2="491.2025" gradientTransform="matrix(-12.3529 0.1583 -0.5932 -46.2769 -2571.376 22861.8223)">
		<stop  offset="0" style="stop-color:#B39656"/>
		<stop  offset="0.24" style="stop-color:#DEBF77"/>
		<stop  offset="0.5" style="stop-color:#FFF7B2"/>
		<stop  offset="0.68" style="stop-color:#E1C47C"/>
		<stop  offset="1" style="stop-color:#B39555"/>
	</linearGradient>
	<polygon class="st17" points="74.2,69.8 61.9,69.9 62.5,116.1 74.8,115.9 	"/>
</g>
<g>
	<defs>
		<path id="SVGID_52_" d="M25.8,91.4c2.1-3.4,4.5-6.4,7.3-9.2c3.1-3.1,6.5-5.7,10.3-7.9c3.8-2.2,7.8-3.9,12-5
			c1.4-0.4,2.8-0.7,4.2-0.9c-1.4-0.3-2.8-0.6-4.2-0.9c-4.2-1.1-8.2-2.8-12-5l0,0c-3.8-2.2-7.3-4.9-10.3-7.9
			c-2.8-2.8-5.2-5.8-7.3-9.2c-1.8,3.3-3.2,6.9-4.2,10.5C18.5,67.4,19.7,80.1,25.8,91.4"/>
	</defs>
	<clipPath id="SVGID_53_">
		<use xlink:href="#SVGID_52_"  style="overflow:visible;"/>
	</clipPath>
	
		<linearGradient id="SVGID_54_" gradientUnits="userSpaceOnUse" x1="-230.6742" y1="491.1681" x2="-229.7742" y2="491.1681" gradientTransform="matrix(-40.7141 0.5219 -0.5988 -46.7159 -9039.2432 23133.8613)">
		<stop  offset="0" style="stop-color:#B39656"/>
		<stop  offset="0.24" style="stop-color:#DEBF77"/>
		<stop  offset="0.5" style="stop-color:#FFF7B2"/>
		<stop  offset="0.68" style="stop-color:#E1C47C"/>
		<stop  offset="1" style="stop-color:#B39555"/>
	</linearGradient>
	<polygon class="st18" points="59.7,44.8 17.9,45.3 18.5,91.9 60.3,91.4 	"/>
</g>
<g>
	<defs>
		<path id="SVGID_55_" d="M27.1,92.2c3.8-0.1,7.5-0.7,11.2-1.6c4.1-1.1,8-2.7,11.7-4.8l0,0c3.7-2.1,7-4.7,10-7.7
			c2.7-2.7,5-5.6,7-8.9c-3.8,0.1-7.5,0.7-11.2,1.6c-4.1,1.1-8,2.7-11.7,4.8c-3.7,2.1-7,4.7-10,7.7C31.5,86,29.1,88.9,27.1,92.2"/>
	</defs>
	<clipPath id="SVGID_56_">
		<use xlink:href="#SVGID_55_"  style="overflow:visible;"/>
	</clipPath>
	
		<linearGradient id="SVGID_57_" gradientUnits="userSpaceOnUse" x1="-225.3079" y1="491.5258" x2="-225.0279" y2="491.5258" gradientTransform="matrix(-21.8878 -36.4795 41.8141 -25.0886 -25434.1328 4198.2388)">
		<stop  offset="0" style="stop-color:#B39656"/>
		<stop  offset="0.24" style="stop-color:#DEBF77"/>
		<stop  offset="0.5" style="stop-color:#FFF7B2"/>
		<stop  offset="0.68" style="stop-color:#E1C47C"/>
		<stop  offset="1" style="stop-color:#B39555"/>
	</linearGradient>
	<polygon class="st19" points="77.2,86.1 56.4,51.5 17,75.2 37.7,109.7 	"/>
</g>
<g>
	<defs>
		<path id="SVGID_58_" d="M64,75.9c-0.9,1.1-1.9,2.2-2.9,3.2c-3.1,3.1-6.5,5.7-10.3,7.9h0c-3.8,2.2-7.8,3.9-12,5
			c-1.4,0.4-2.8,0.7-4.3,0.9c1.4,0.3,2.9,0.6,4.3,0.9c4.2,1.1,8.2,2.8,12,5l0,0c3.8,2.2,7.3,4.9,10.3,7.9c1,1,2,2.1,2.9,3.2
			c-0.5-1.4-0.9-2.7-1.3-4.1c-1.1-4.2-1.7-8.5-1.7-12.9s0.6-8.7,1.7-12.9C63.1,78.6,63.5,77.2,64,75.9"/>
	</defs>
	<clipPath id="SVGID_59_">
		<use xlink:href="#SVGID_58_"  style="overflow:visible;"/>
	</clipPath>
	
		<linearGradient id="SVGID_60_" gradientUnits="userSpaceOnUse" x1="-231.7414" y1="492.4494" x2="-230.8214" y2="492.4494" gradientTransform="matrix(-30.297 0.3883 -0.4432 -34.5761 -6739.5112 17209.7441)">
		<stop  offset="0" style="stop-color:#B39656"/>
		<stop  offset="0.24" style="stop-color:#DEBF77"/>
		<stop  offset="0.5" style="stop-color:#FFF7B2"/>
		<stop  offset="0.68" style="stop-color:#E1C47C"/>
		<stop  offset="1" style="stop-color:#B39555"/>
	</linearGradient>
	<polygon class="st20" points="64,75.5 34,75.9 34.5,110.4 64.5,110 	"/>
</g>
<path class="st21" d="M109.6,92.2c-2-3.2-4.3-6.2-7-8.9c-3-3-6.3-5.6-10-7.7h0c-3.7-2.1-7.6-3.7-11.7-4.8c-3.6-1-7.4-1.5-11.2-1.6
	c2,3.2,4.3,6.2,7,8.9c3,3,6.3,5.6,10,7.7h0c3.7,2.1,7.6,3.7,11.7,4.8C102,91.5,105.8,92,109.6,92.2 M67,67.6c-2-3.2-4.3-6.2-7-8.9
	c-3-3-6.3-5.6-10-7.7h0c-3.7-2.1-7.6-3.7-11.7-4.8c-3.6-1-7.4-1.5-11.2-1.6c2,3.2,4.3,6.2,7,8.9c3,3,6.3,5.6,10,7.7h0
	c3.7,2.1,7.6,3.7,11.7,4.8C59.5,66.9,63.2,67.5,67,67.6z M109.6,93.7c-3.8,0.1-7.5,0.7-11.2,1.6c-4.1,1.1-8,2.7-11.7,4.8h0
	c-3.7,2.1-7,4.7-10,7.7c-2.7,2.7-5,5.6-7,8.9c7.8-0.2,15.6-2.3,22.9-6.5C99.8,106.1,105.5,100.3,109.6,93.7z M69.7,20
	c2,3.2,4.3,6.2,7,8.9c3,3,6.3,5.6,10,7.7h0c3.7,2.1,7.6,3.7,11.7,4.8c3.6,1,7.4,1.5,11.2,1.6c-6.7-10.9-17.1-18.3-28.7-21.4
	C77.2,20.6,73.5,20.1,69.7,20z M27.1,43c3.8-0.1,7.5-0.7,11.2-1.6c4.1-1.1,8-2.7,11.7-4.8h0c3.7-2.1,7-4.7,10-7.7
	c2.7-2.7,5-5.6,7-8.9c-7.8,0.2-15.6,2.3-22.9,6.5l0,0C36.9,30.6,31.2,36.4,27.1,43z M67,116.7c-2-3.2-4.3-6.2-7-8.9
	c-3-3-6.3-5.6-10-7.7h0c-3.7-2.1-7.6-3.7-11.7-4.8c-3.6-1-7.4-1.5-11.2-1.6c6.7,10.9,17.1,18.3,28.7,21.4
	C59.5,116.1,63.2,116.6,67,116.7z M64,60.8c-0.5-1.4-0.9-2.7-1.3-4.1c-1.1-4.2-1.7-8.5-1.7-12.9c0-4.4,0.6-8.7,1.7-12.9
	c0.4-1.4,0.8-2.8,1.3-4.1c-0.9,1.1-1.9,2.2-2.9,3.2c-3.1,3.1-6.5,5.7-10.3,7.9l0,0c-3.8,2.2-7.8,3.9-12,5c-1.4,0.4-2.8,0.7-4.2,0.9
	c1.4,0.3,2.8,0.6,4.2,0.9c4.2,1.1,8.2,2.8,12,5l0,0c3.8,2.2,7.3,4.9,10.3,7.9C62.1,58.7,63.1,59.7,64,60.8z M68.4,20.7
	c-1.8,3.3-3.2,6.9-4.2,10.5c-1.1,4.1-1.6,8.3-1.6,12.5c0,4.3,0.6,8.5,1.6,12.5c1,3.6,2.4,7.2,4.2,10.5c1.8-3.3,3.2-6.9,4.2-10.5
	c1.1-4.1,1.6-8.3,1.6-12.5s-0.6-8.5-1.6-12.5C71.6,27.6,70.2,24.1,68.4,20.7z M72.7,60.8c0.9-1.1,1.9-2.2,2.9-3.2
	c3.1-3.1,6.5-5.7,10.3-7.9c3.8-2.2,7.8-3.9,12-5c1.4-0.4,2.8-0.7,4.2-0.9c-1.4-0.3-2.8-0.6-4.2-0.9c-4.2-1.1-8.2-2.8-12-5l0,0
	c-3.8-2.2-7.3-4.9-10.3-7.9c-1-1-2-2.1-2.9-3.2c0.5,1.4,0.9,2.7,1.3,4.1c1.1,4.2,1.7,8.5,1.7,12.9c0,4.4-0.6,8.7-1.7,12.9
	C73.6,58.1,73.2,59.5,72.7,60.8z M69.7,67.6c3.8-0.1,7.5-0.7,11.2-1.6c4.1-1.1,8-2.7,11.7-4.8l0,0c3.7-2.1,7-4.7,10-7.7
	c2.7-2.7,5-5.6,7-8.9c-3.8,0.1-7.5,0.7-11.2,1.6c-4.1,1.1-8,2.7-11.7,4.8c-3.7,2.1-7,4.7-10,7.7C74,61.4,71.7,64.3,69.7,67.6z
	 M110.9,45.3c-2.1,3.4-4.5,6.4-7.3,9.2c-3.1,3.1-6.5,5.7-10.3,7.9h0c-3.8,2.2-7.8,3.9-12,5c-1.4,0.4-2.8,0.7-4.2,0.9
	c1.4,0.3,2.8,0.6,4.2,0.9c4.2,1.1,8.2,2.8,12,5l0,0c3.8,2.2,7.3,4.9,10.3,7.9c2.8,2.8,5.2,5.8,7.3,9.2c1.8-3.3,3.2-6.9,4.2-10.5
	C118.2,69.3,117,56.6,110.9,45.3z M72.7,75.9c0.5,1.4,0.9,2.7,1.3,4.1c1.1,4.2,1.7,8.5,1.7,12.9c0,4.4-0.6,8.7-1.7,12.9
	c-0.4,1.4-0.8,2.8-1.3,4.1c0.9-1.1,1.9-2.2,2.9-3.2c3.1-3.1,6.5-5.7,10.3-7.9l0,0c3.8-2.2,7.8-3.9,12-5c1.4-0.4,2.8-0.7,4.2-0.9
	c-1.4-0.3-2.8-0.6-4.2-0.9c-4.2-1.1-8.2-2.8-12-5l0,0c-3.8-2.2-7.3-4.9-10.3-7.9C74.6,78,73.6,77,72.7,75.9z M68.4,69.9
	c-1.8,3.3-3.2,6.9-4.2,10.5c-1.1,4.1-1.6,8.3-1.6,12.5s0.6,8.5,1.6,12.5c1,3.6,2.4,7.2,4.2,10.5c1.8-3.3,3.2-6.9,4.2-10.5
	c1.1-4.1,1.6-8.3,1.6-12.5c0-4.3-0.6-8.5-1.6-12.5C71.6,76.8,70.2,73.2,68.4,69.9z M25.8,91.4c2.1-3.4,4.5-6.4,7.3-9.2
	c3.1-3.1,6.5-5.7,10.3-7.9c3.8-2.2,7.8-3.9,12-5c1.4-0.4,2.8-0.7,4.2-0.9c-1.4-0.3-2.8-0.6-4.2-0.9c-4.2-1.1-8.2-2.8-12-5l0,0
	c-3.8-2.2-7.3-4.9-10.3-7.9c-2.8-2.8-5.2-5.8-7.3-9.2c-1.8,3.3-3.2,6.9-4.2,10.5C18.5,67.4,19.7,80.1,25.8,91.4z M27.1,92.2
	c3.8-0.1,7.5-0.7,11.2-1.6c4.1-1.1,8-2.7,11.7-4.8l0,0c3.7-2.1,7-4.7,10-7.7c2.7-2.7,5-5.6,7-8.9c-3.8,0.1-7.5,0.7-11.2,1.6
	c-4.1,1.1-8,2.7-11.7,4.8c-3.7,2.1-7,4.7-10,7.7C31.5,86,29.1,88.9,27.1,92.2z M64,75.9c-0.9,1.1-1.9,2.2-2.9,3.2
	c-3.1,3.1-6.5,5.7-10.3,7.9h0c-3.8,2.2-7.8,3.9-12,5c-1.4,0.4-2.8,0.7-4.3,0.9c1.4,0.3,2.9,0.6,4.3,0.9c4.2,1.1,8.2,2.8,12,5l0,0
	c3.8,2.2,7.3,4.9,10.3,7.9c1,1,2,2.1,2.9,3.2c-0.5-1.4-0.9-2.7-1.3-4.1c-1.1-4.2-1.7-8.5-1.7-12.9s0.6-8.7,1.7-12.9
	C63.1,78.6,63.5,77.2,64,75.9z M93.3,111.6c-11.9,6.9-25.5,8.3-37.9,5c-12.3-3.3-23.4-11.3-30.3-23.3c-6.9-11.9-8.3-25.5-5-37.9
	C23.4,43.1,31.5,32,43.4,25.1h0c11.9-6.9,25.5-8.3,37.9-5c12.3,3.3,23.4,11.3,30.3,23.3v0c6.9,11.9,8.3,25.5,5,37.9
	C113.3,93.6,105.2,104.7,93.3,111.6z"/>
<g>
	<defs>
		<path id="SVGID_61_" d="M64.3,124c0,0.6,0.2,1.2,1,1.1c0.7-0.1,0.9-0.7,1.1-1l0.9,0c-0.2,1.7-1.3,4-3.3,3.5
			C61.8,127,62.4,123.9,64.3,124 M69.3,124.1l0.9,0c0.2,0.4,0.4,0.9,1.1,1c0.3,0,0.6-0.1,0.8-0.3c0.2-0.2,0.2-0.5,0.2-0.8
			c0.9,0,1.7,0.8,1.7,1.7c0,1.1-0.6,1.7-1.5,1.9c-1.1,0.3-1.9-0.4-2.4-1C69.9,126.1,69.4,125,69.3,124.1z M67.6,122.5
			c-0.1-0.1-0.2-0.5-0.2-0.6c-0.3-1-0.7-2,0.3-3.1c0.1-0.1,0.3-0.3,0.4-0.4c0.1-0.1,0.2-0.4,0.3-0.5c0.2,0.2,0.1,0.3,0.7,0.9
			c0.7,0.7,0.7,1.6,0.4,2.5l-0.3,1.3L67.6,122.5z M69.5,122.5c0.2-0.8,0.7-1.9,1.8-2c1.3,0,1.5,1.6,0.6,2l-0.1-0.2
			c-0.1-0.3-0.2-0.6-0.7-0.6c-0.5,0.1-0.5,0.5-0.7,0.7L69.5,122.5z M64.9,122.5c-0.4-0.1-0.7-0.7-0.6-1.3c0.3-0.9,2.1-1.4,2.9,1.3
			l-0.9,0c-0.1-0.4-0.3-0.7-0.7-0.7c-0.2,0-0.5,0.1-0.6,0.2C64.9,122.1,65,122.3,64.9,122.5z M65.9,123.6c-0.1-0.1-0.1-0.1-0.1-0.2
			c0-0.5,0.4-0.4,0.7-0.4c0.7,0,4.1-0.1,4.3,0.1c0.1,0.1,0.2,0.4,0.1,0.5c-0.1,0.1-0.4,0.1-0.7,0.1
			C69.5,123.7,66.1,123.7,65.9,123.6z M67.6,12.6l1.5,0c0.1-0.9,0.3-1.6,0.6-2.3c0.6-1.4,1.3-2.8-0.3-4.2c-0.6-0.5-0.8-0.8-1-1.6
			c0-0.2,0-0.2-0.1-0.3c-0.3,0.2,0.1,0.7-1.1,1.9c-0.5,0.5-1,1.1-1,1.9c0,0.8,0.4,1.6,0.7,2.3C67.2,11,67.5,11.7,67.6,12.6z
			 M64.3,12.7c0-0.6,0.2-1.2,1-1.1c0.7,0.1,0.9,0.7,1.1,1l0.9,0c-0.2-1.7-1.3-4-3.3-3.5C61.8,9.7,62.4,12.8,64.3,12.7z M69.3,12.6
			l0.9,0c0.2-0.4,0.4-0.9,1.1-1c0.3,0,0.6,0.1,0.8,0.3c0.2,0.2,0.2,0.5,0.2,0.8c0.9,0,1.7-0.8,1.7-1.7c0-1.1-0.6-1.7-1.5-1.9
			c-1.1-0.3-1.9,0.4-2.4,1C69.9,10.6,69.4,11.7,69.3,12.6z M67.6,14.2c-0.1,0.1-0.2,0.5-0.2,0.6c-0.3,1-0.7,2,0.3,3.1
			c0.1,0.1,0.3,0.3,0.4,0.4c0.1,0.1,0.2,0.4,0.3,0.5c0.2-0.2,0.1-0.3,0.7-0.9c0.7-0.7,0.7-1.6,0.4-2.5l-0.3-1.3L67.6,14.2z
			 M69.5,14.2c0.2,0.8,0.7,1.9,1.8,2c1.3,0,1.5-1.6,0.6-2l-0.1,0.2c-0.1,0.3-0.2,0.6-0.7,0.6c-0.5-0.1-0.5-0.5-0.7-0.7L69.5,14.2z
			 M64.9,14.2c-0.4,0.1-0.7,0.7-0.6,1.3c0.3,0.9,2.1,1.4,2.9-1.3l-0.9,0c-0.1,0.4-0.3,0.7-0.7,0.7c-0.2,0-0.5-0.1-0.6-0.2
			C64.9,14.6,65,14.4,64.9,14.2z M65.9,13.1c-0.1,0.1-0.1,0.1-0.1,0.2c0,0.5,0.4,0.4,0.7,0.4c0.7,0,4.1,0.1,4.3-0.1
			c0.1-0.1,0.2-0.4,0.1-0.5C70.7,13,70.4,13,70.2,13C69.5,13,66.1,13,65.9,13.1z M67.6,124.1l1.5,0c0.1,0.9,0.3,1.6,0.6,2.3
			c0.6,1.4,1.3,2.8-0.3,4.2c-0.6,0.5-0.8,0.8-1,1.6c0,0.2,0,0.2-0.1,0.3c-0.3-0.2,0.1-0.7-1.1-1.9c-0.5-0.5-1-1.1-1-1.9
			c0-0.8,0.4-1.6,0.7-2.3C67.2,125.7,67.5,125,67.6,124.1z"/>
	</defs>
	<clipPath id="SVGID_62_">
		<use xlink:href="#SVGID_61_"  style="overflow:visible;"/>
	</clipPath>
	
		<linearGradient id="SVGID_63_" gradientUnits="userSpaceOnUse" x1="-235.1868" y1="488.8425" x2="-234.2668" y2="488.8425" gradientTransform="matrix(-16.5209 0.2118 -1.6501 -128.7402 -3002.8337 63051.7148)">
		<stop  offset="0" style="stop-color:#B39656"/>
		<stop  offset="0.24" style="stop-color:#DEBF77"/>
		<stop  offset="0.5" style="stop-color:#FFF7B2"/>
		<stop  offset="0.68" style="stop-color:#E1C47C"/>
		<stop  offset="1" style="stop-color:#B39555"/>
	</linearGradient>
	<polygon class="st22" points="74.1,4 60.1,4.2 61.8,132.7 75.8,132.5 	"/>
</g>
<g>
	<defs>
		<path id="SVGID_64_" d="M78.9,123.1c0.2,0.6,0.5,1.1,1.2,0.8c0.7-0.2,0.7-0.9,0.8-1.2l0.9-0.3c0.3,1.7-0.2,4.2-2.3,4.2
			C77.2,126.7,77,123.5,78.9,123.1 M83.7,122l0.9-0.2c0.3,0.3,0.6,0.8,1.3,0.7c0.3-0.1,0.6-0.3,0.7-0.5c0.1-0.3,0.1-0.5,0-0.9
			c0.9-0.3,1.9,0.3,2.1,1.2c0.3,1-0.2,1.9-0.9,2.3c-1,0.5-2,0.1-2.5-0.3C84.8,123.8,84,122.8,83.7,122z M81.7,120.9
			c-0.2-0.1-0.3-0.4-0.4-0.6c-0.5-0.9-1.2-1.7-0.5-3c0.1-0.2,0.2-0.3,0.3-0.5c0.1-0.2,0.1-0.4,0.2-0.5c0.2,0.1,0.2,0.3,0.9,0.7
			c0.9,0.5,1.1,1.3,1.1,2.3l0,1.3L81.7,120.9z M83.4,120.4c0-0.9,0.2-2.1,1.2-2.4c1.2-0.4,1.9,1.2,1,1.8l-0.1-0.2
			c-0.1-0.3-0.3-0.6-0.8-0.4c-0.5,0.2-0.4,0.6-0.5,0.9L83.4,120.4z M79,121.6c-0.4,0-0.9-0.5-0.9-1.1c0.1-0.9,1.7-1.9,3.1,0.5
			l-0.8,0.2c-0.2-0.3-0.5-0.6-0.9-0.5c-0.2,0-0.4,0.2-0.5,0.3C79,121.2,79.1,121.4,79,121.6z M80.3,122.4c-0.1,0-0.1,0-0.2-0.2
			c-0.2-0.4,0.3-0.5,0.6-0.6c0.7-0.2,4-1.1,4.2-1.1c0.2,0.1,0.3,0.3,0.2,0.5c-0.1,0.2-0.4,0.2-0.6,0.3
			C83.8,121.5,80.5,122.4,80.3,122.4z M53.2,14.7l1.5-0.4c-0.2-0.9-0.1-1.6,0-2.4c0.2-1.5,0.6-3-1.4-4c-0.7-0.4-1-0.6-1.4-1.3
			c-0.1-0.2-0.1-0.2-0.2-0.2c-0.2,0.3,0.3,0.7-0.5,2.1c-0.4,0.6-0.7,1.3-0.5,2.1c0.2,0.8,0.8,1.5,1.2,2
			C52.4,13.2,52.9,13.8,53.2,14.7z M50.1,15.6c-0.2-0.6-0.1-1.2,0.6-1.3c0.7-0.1,1,0.4,1.3,0.7l0.9-0.2c-0.6-1.6-2.3-3.5-4.1-2.5
			C46.8,13.4,48.3,16.2,50.1,15.6z M54.9,14.2l0.9-0.2c0.1-0.4,0.1-1,0.8-1.2c0.3-0.1,0.6,0,0.8,0.1c0.3,0.2,0.3,0.4,0.4,0.8
			c0.9-0.2,1.4-1.2,1.2-2.1c-0.2-1-1.1-1.5-1.9-1.5c-1.2,0-1.8,0.9-2,1.6C54.8,12.2,54.7,13.4,54.9,14.2z M53.6,16.2
			c-0.1,0.1,0,0.5,0,0.7c0,1.1-0.2,2.1,1.1,2.9c0.2,0.1,0.3,0.2,0.5,0.3c0.1,0.1,0.2,0.3,0.4,0.4c0.1-0.2,0-0.3,0.4-1.1
			c0.5-0.9,0.3-1.7-0.2-2.5l-0.6-1.1L53.6,16.2z M55.4,15.7c0.4,0.8,1.2,1.7,2.2,1.4c1.3-0.3,1-2,0-2.1l0,0.2c0,0.3,0,0.6-0.5,0.7
			c-0.5,0.1-0.6-0.3-0.9-0.5L55.4,15.7z M51,16.9c-0.4,0.2-0.5,0.9-0.2,1.4c0.5,0.8,2.4,0.8,2.5-2l-0.8,0.2c0,0.4-0.1,0.8-0.5,0.9
			c-0.2,0.1-0.5,0.1-0.6,0C51.1,17.3,51.1,17.1,51,16.9z M51.7,15.6c-0.1,0.1-0.1,0.1-0.1,0.3c0.1,0.5,0.5,0.3,0.8,0.2
			c0.7-0.2,4-1,4.1-1.2c0.1-0.1,0.1-0.4-0.1-0.5c-0.2-0.1-0.4,0-0.7,0.1C55.1,14.6,51.8,15.4,51.7,15.6z M82.1,122.4l1.4-0.4
			c0.3,0.9,0.7,1.4,1.2,2.1c0.9,1.2,2,2.3,0.8,4.2c-0.4,0.7-0.5,1-0.5,1.8c0,0.2,0,0.2,0,0.3c-0.3-0.1-0.1-0.7-1.5-1.5
			c-0.6-0.3-1.2-0.8-1.5-1.6c-0.2-0.8,0-1.7,0.1-2.4C82.1,124.1,82.2,123.3,82.1,122.4z"/>
	</defs>
	<clipPath id="SVGID_65_">
		<use xlink:href="#SVGID_64_"  style="overflow:visible;"/>
	</clipPath>
	
		<linearGradient id="SVGID_66_" gradientUnits="userSpaceOnUse" x1="-229.5149" y1="488.5313" x2="-229.2949" y2="488.5313" gradientTransform="matrix(-70.4407 19.8456 -35.4407 -125.7945 1222.8082 66075.4453)">
		<stop  offset="0" style="stop-color:#B39656"/>
		<stop  offset="0.24" style="stop-color:#DEBF77"/>
		<stop  offset="0.5" style="stop-color:#FFF7B2"/>
		<stop  offset="0.68" style="stop-color:#E1C47C"/>
		<stop  offset="1" style="stop-color:#B39555"/>
	</linearGradient>
	<polygon class="st23" points="85.9,-4.7 14.4,15.5 49.9,141.4 121.4,121.2 	"/>
</g>
<g>
	<defs>
		<path id="SVGID_67_" d="M92.7,118.5c0.3,0.6,0.7,0.9,1.4,0.5c0.6-0.4,0.4-1,0.5-1.4l0.8-0.5c0.7,1.6,0.9,4.1-1.1,4.7
			C92,122.5,91,119.4,92.7,118.5 M97.1,116.2l0.8-0.5c0.4,0.2,0.8,0.6,1.5,0.3c0.3-0.1,0.5-0.4,0.5-0.6c0.1-0.3-0.1-0.5-0.2-0.8
			c0.8-0.5,1.9-0.2,2.4,0.6c0.6,0.9,0.3,1.8-0.3,2.4c-0.8,0.8-1.9,0.6-2.5,0.3C98.5,117.6,97.6,116.9,97.1,116.2z M94.8,115.6
			c-0.2,0-0.4-0.3-0.5-0.5c-0.8-0.8-1.6-1.4-1.3-2.8c0-0.2,0.1-0.4,0.1-0.6c0-0.2-0.1-0.4,0-0.6c0.3,0.1,0.2,0.2,1,0.5
			c1,0.3,1.4,1,1.6,1.9l0.4,1.2L94.8,115.6z M96.4,114.7c-0.2-0.8-0.3-2,0.6-2.6c1.1-0.7,2.1,0.7,1.5,1.4l-0.1-0.1
			c-0.2-0.2-0.5-0.5-0.9-0.1c-0.4,0.3-0.2,0.7-0.3,1L96.4,114.7z M92.4,117c-0.4,0.1-1-0.2-1.1-0.8c-0.2-0.9,1.1-2.3,3.1-0.4
			l-0.8,0.4c-0.3-0.3-0.6-0.4-1-0.3c-0.2,0.1-0.4,0.3-0.4,0.4C92.3,116.6,92.4,116.8,92.4,117z M93.9,117.4c-0.1,0-0.2,0-0.2-0.1
			c-0.3-0.4,0.2-0.6,0.5-0.7c0.6-0.3,3.5-2.1,3.7-2.1c0.2,0,0.4,0.2,0.3,0.4c0,0.2-0.3,0.3-0.5,0.4C97,115.7,94.1,117.4,93.9,117.4z
			 M39.8,20.4l1.3-0.7c-0.4-0.8-0.5-1.5-0.6-2.3c-0.2-1.5-0.2-3-2.4-3.5c-0.8-0.2-1.1-0.3-1.6-0.9c-0.1-0.1-0.1-0.1-0.2-0.2
			c-0.2,0.3,0.4,0.6,0,2.1c-0.2,0.7-0.3,1.4,0.1,2.2c0.4,0.7,1.1,1.2,1.7,1.6C38.7,19.2,39.3,19.7,39.8,20.4z M37.1,22.2
			c-0.3-0.6-0.4-1.1,0.3-1.5c0.6-0.3,1.1,0.1,1.4,0.3l0.8-0.5c-1-1.4-3.2-2.8-4.6-1.4C33.3,20.8,35.5,23.2,37.1,22.2z M41.3,19.6
			l0.8-0.5c0-0.4-0.1-1,0.5-1.4c0.3-0.2,0.6-0.2,0.8-0.1c0.3,0.1,0.4,0.3,0.6,0.6c0.8-0.4,1.1-1.5,0.7-2.3c-0.5-0.9-1.4-1.2-2.3-0.9
			c-1.1,0.3-1.5,1.3-1.5,2C40.8,17.6,41,18.8,41.3,19.6z M40.6,21.8c-0.1,0.2,0.1,0.5,0.1,0.7c0.3,1,0.4,2.1,1.8,2.5
			c0.2,0.1,0.4,0.1,0.6,0.2c0.2,0.1,0.3,0.2,0.5,0.3c0.1-0.3-0.1-0.3,0.1-1.1c0.2-1-0.2-1.7-0.9-2.3L41.9,21L40.6,21.8z M42.2,20.9
			c0.6,0.6,1.6,1.3,2.5,0.8c1.1-0.6,0.5-2.2-0.5-2l0,0.2c0.1,0.3,0.2,0.6-0.3,0.8c-0.5,0.2-0.7-0.1-1-0.3L42.2,20.9z M38.3,23.2
			c-0.3,0.3-0.3,1,0.2,1.4c0.7,0.6,2.6,0.1,1.9-2.5l-0.8,0.4c0.1,0.4,0.1,0.8-0.3,1c-0.2,0.1-0.4,0.2-0.6,0.1
			C38.5,23.5,38.4,23.3,38.3,23.2z M38.6,21.7c0,0.1-0.1,0.1,0,0.3c0.2,0.4,0.6,0.1,0.8,0c0.6-0.4,3.6-2,3.7-2.2
			c0.1-0.1,0-0.4-0.2-0.5c-0.2-0.1-0.4,0.1-0.6,0.2C41.7,19.9,38.7,21.5,38.6,21.7z M95.6,117.1l1.3-0.8c0.5,0.8,1.1,1.2,1.7,1.7
			c1.2,0.9,2.5,1.7,1.9,3.8c-0.2,0.8-0.3,1.1,0,1.9c0,0.2,0.1,0.2,0,0.3c-0.3,0-0.3-0.7-1.8-1.1c-0.7-0.2-1.4-0.4-1.9-1.2
			c-0.4-0.7-0.5-1.6-0.6-2.3C96.1,118.6,96,117.8,95.6,117.1z"/>
	</defs>
	<clipPath id="SVGID_68_">
		<use xlink:href="#SVGID_67_"  style="overflow:visible;"/>
	</clipPath>
	
		<linearGradient id="SVGID_69_" gradientUnits="userSpaceOnUse" x1="-228.8989" y1="488.1718" x2="-228.7589" y2="488.1718" gradientTransform="matrix(-99.1269 58.9377 -66.6786 -112.1464 9935.8242 68301.4766)">
		<stop  offset="0" style="stop-color:#B39656"/>
		<stop  offset="0.24" style="stop-color:#DEBF77"/>
		<stop  offset="0.5" style="stop-color:#FFF7B2"/>
		<stop  offset="0.68" style="stop-color:#E1C47C"/>
		<stop  offset="1" style="stop-color:#B39555"/>
	</linearGradient>
	<polygon class="st24" points="84.5,-17.6 -15.5,41.8 51.4,154.3 151.4,94.9 	"/>
</g>
<g>
	<defs>
		<path id="SVGID_70_" d="M104.9,110.5c0.4,0.5,1,0.7,1.5,0.1c0.5-0.5,0.1-1.1,0.1-1.5l0.7-0.7c1.1,1.3,1.9,3.8,0.2,4.8
			C105.2,114.5,103.4,111.8,104.9,110.5 M108.5,107.1l0.7-0.7c0.4,0.1,1,0.4,1.5-0.1c0.3-0.2,0.3-0.5,0.3-0.7c0-0.3-0.2-0.5-0.5-0.7
			c0.6-0.7,1.8-0.6,2.4,0c0.8,0.7,0.8,1.7,0.3,2.4c-0.6,1-1.7,1.1-2.4,1C110.3,108.1,109.1,107.6,108.5,107.1z M106.1,107.2
			c-0.2,0-0.4-0.2-0.6-0.3c-0.9-0.6-1.9-0.9-2-2.4c0-0.2,0-0.4,0-0.6c0-0.2-0.2-0.4-0.1-0.5c0.3,0,0.3,0.2,1.1,0.2
			c1,0,1.6,0.6,2,1.4l0.7,1.1L106.1,107.2z M107.4,105.9c-0.4-0.8-0.8-1.9-0.1-2.7c0.9-0.9,2.2,0.1,1.8,1l-0.2-0.1
			c-0.3-0.2-0.6-0.3-0.9,0.1c-0.3,0.4,0,0.7,0,1.1L107.4,105.9z M104.2,109.1c-0.4,0.2-1,0-1.3-0.5c-0.4-0.8,0.5-2.5,2.9-1.2
			l-0.6,0.6c-0.3-0.2-0.7-0.3-1,0c-0.2,0.1-0.3,0.4-0.3,0.5C104,108.8,104.1,108.9,104.2,109.1z M105.7,109.2c-0.1,0-0.1,0-0.3-0.1
			c-0.4-0.3,0-0.6,0.3-0.8c0.5-0.5,2.9-2.9,3.1-3c0.2,0,0.4,0.1,0.4,0.3c0,0.2-0.2,0.4-0.4,0.5C108.3,106.7,105.9,109.1,105.7,109.2
			z M28.4,29.4l1.1-1c-0.6-0.7-0.9-1.3-1.2-2.1c-0.6-1.4-1-2.9-3.2-2.8c-0.8,0-1.2,0-1.8-0.5C23.1,23,23.1,23,23,23
			c-0.1,0.3,0.6,0.5,0.6,2.1c0,0.7,0,1.5,0.6,2.1c0.6,0.6,1.4,0.9,2.1,1.1C27,28.6,27.7,28.9,28.4,29.4z M26.2,31.8
			c-0.5-0.4-0.7-1-0.1-1.5c0.5-0.5,1.1-0.1,1.5-0.1l0.7-0.7c-1.3-1.1-3.8-1.9-4.8-0.2C22.2,31.5,24.9,33.3,26.2,31.8z M29.6,28.2
			l0.7-0.7c-0.1-0.4-0.4-1,0.1-1.5c0.2-0.3,0.5-0.3,0.7-0.3c0.3,0,0.5,0.2,0.7,0.5c0.7-0.6,0.6-1.8,0-2.4c-0.7-0.8-1.7-0.8-2.4-0.3
			c-1,0.6-1.1,1.7-1,2.4C28.6,26.4,29.1,27.6,29.6,28.2z M29.5,30.6c0,0.2,0.2,0.4,0.3,0.6c0.6,0.9,0.9,1.9,2.4,2c0.2,0,0.4,0,0.6,0
			c0.2,0,0.4,0.2,0.5,0.1c0-0.3-0.2-0.3-0.2-1.1c0-1-0.6-1.6-1.4-2l-1.1-0.7L29.5,30.6z M30.8,29.3c0.8,0.4,1.9,0.8,2.7,0.1
			c0.9-0.9-0.1-2.2-1-1.8l0.1,0.2c0.2,0.3,0.3,0.6-0.1,0.9c-0.4,0.3-0.7,0-1.1,0L30.8,29.3z M27.6,32.5c-0.2,0.4,0,1,0.5,1.3
			c0.8,0.4,2.5-0.5,1.2-2.9l-0.6,0.6c0.2,0.3,0.3,0.7,0,1c-0.1,0.2-0.4,0.3-0.5,0.3C27.9,32.8,27.8,32.6,27.6,32.5z M27.5,31
			c0,0.1,0,0.1,0.1,0.3c0.3,0.4,0.6,0,0.8-0.3c0.5-0.5,2.9-2.9,3-3.1c0-0.2-0.1-0.4-0.3-0.4c-0.2,0-0.4,0.2-0.5,0.4
			C30,28.4,27.6,30.8,27.5,31z M107.3,108.3l1-1.1c0.7,0.6,1.3,0.9,2.1,1.2c1.4,0.6,2.9,1,2.8,3.2c0,0.8,0,1.2,0.5,1.8
			c0.1,0.1,0.1,0.2,0.1,0.3c-0.3,0.1-0.5-0.6-2.1-0.6c-0.7,0-1.5,0-2.1-0.6c-0.6-0.6-0.9-1.4-1.1-2.1
			C108.2,109.7,107.8,109,107.3,108.3z"/>
	</defs>
	<clipPath id="SVGID_71_">
		<use xlink:href="#SVGID_70_"  style="overflow:visible;"/>
	</clipPath>
	
		<linearGradient id="SVGID_72_" gradientUnits="userSpaceOnUse" x1="-228.8358" y1="487.7674" x2="-228.7158" y2="487.7674" gradientTransform="matrix(-89.7406 92.071 -92.0687 -89.7384 24446.0469 64903.3789)">
		<stop  offset="0" style="stop-color:#B39656"/>
		<stop  offset="0.24" style="stop-color:#DEBF77"/>
		<stop  offset="0.5" style="stop-color:#FFF7B2"/>
		<stop  offset="0.68" style="stop-color:#E1C47C"/>
		<stop  offset="1" style="stop-color:#B39555"/>
	</linearGradient>
	<polygon class="st25" points="66.8,-22.8 -23.6,69.9 69.1,160.3 159.5,67.6 	"/>
</g>
<g>
	<defs>
		<path id="SVGID_73_" d="M114.5,99.6c0.6,0.3,1.1,0.4,1.5-0.3c0.3-0.6-0.1-1.1-0.3-1.4l0.5-0.8c1.4,1,2.8,3.2,1.4,4.6
			C115.9,103.4,113.5,101.2,114.5,99.6 M117.1,95.4l0.5-0.8c0.4,0,1,0.1,1.4-0.5c0.2-0.3,0.2-0.6,0.1-0.8c-0.1-0.3-0.3-0.4-0.6-0.6
			c0.4-0.8,1.5-1.1,2.3-0.7c0.9,0.5,1.2,1.4,0.9,2.3c-0.3,1.1-1.3,1.5-2,1.5C119.1,95.9,117.9,95.8,117.1,95.4z M114.9,96.1
			c-0.2,0.1-0.5-0.1-0.7-0.1c-1-0.3-2.1-0.4-2.5-1.8c-0.1-0.2-0.1-0.4-0.2-0.6c-0.1-0.2-0.2-0.3-0.3-0.5c0.3-0.1,0.3,0.1,1.1-0.1
			c1-0.2,1.7,0.2,2.3,0.9l0.9,0.9L114.9,96.1z M115.8,94.5c-0.6-0.6-1.3-1.6-0.8-2.5c0.6-1.1,2.2-0.5,2,0.5l-0.2,0
			c-0.3-0.1-0.6-0.2-0.8,0.3c-0.2,0.5,0.1,0.7,0.3,1L115.8,94.5z M113.5,98.4c-0.3,0.3-1,0.3-1.4-0.2c-0.6-0.7-0.1-2.6,2.5-1.9
			l-0.4,0.8c-0.4-0.1-0.8-0.1-1,0.3c-0.1,0.2-0.2,0.4-0.1,0.6C113.2,98.2,113.4,98.3,113.5,98.4z M115,98.1c-0.1,0-0.1,0.1-0.3,0
			c-0.4-0.2-0.1-0.6,0-0.8c0.4-0.6,2-3.6,2.2-3.7c0.1-0.1,0.4,0,0.5,0.2c0.1,0.2-0.1,0.4-0.2,0.6C116.8,95,115.2,98,115,98.1z
			 M19.7,41.1l0.8-1.3c-0.8-0.5-1.2-1.1-1.7-1.7c-0.9-1.2-1.7-2.5-3.8-1.9c-0.8,0.2-1.1,0.3-1.9,0c-0.2,0-0.2-0.1-0.3,0
			c0,0.3,0.7,0.3,1.1,1.8c0.2,0.7,0.4,1.4,1.2,1.9c0.7,0.4,1.6,0.5,2.3,0.6C18.1,40.6,18.9,40.7,19.7,41.1z M18.2,44
			c-0.6-0.3-0.9-0.7-0.5-1.4c0.4-0.6,1-0.4,1.4-0.5l0.5-0.8c-1.6-0.7-4.1-0.9-4.7,1.1C14.2,44.7,17.3,45.7,18.2,44z M20.6,39.6
			l0.5-0.8c-0.2-0.4-0.6-0.8-0.3-1.5c0.1-0.3,0.4-0.5,0.6-0.5c0.3-0.1,0.5,0.1,0.8,0.2c0.5-0.8,0.2-1.9-0.6-2.4
			c-0.9-0.6-1.8-0.3-2.4,0.3c-0.8,0.8-0.6,1.9-0.3,2.5C19.1,38.2,19.8,39.1,20.6,39.6z M21.1,41.9c0,0.2,0.3,0.4,0.5,0.5
			c0.8,0.8,1.4,1.6,2.8,1.3c0.2,0,0.4-0.1,0.6-0.1c0.2,0,0.4,0.1,0.6,0c-0.1-0.3-0.2-0.2-0.5-1c-0.3-1-1-1.4-1.9-1.6l-1.2-0.4
			L21.1,41.9z M22,40.3c0.8,0.2,2,0.3,2.6-0.6c0.7-1.1-0.7-2.1-1.4-1.5l0.1,0.1c0.2,0.2,0.5,0.5,0.1,0.9c-0.3,0.4-0.7,0.2-1,0.3
			L22,40.3z M19.7,44.3c-0.1,0.4,0.2,1,0.8,1.1c0.9,0.2,2.3-1.1,0.4-3.1L20.4,43c0.3,0.3,0.4,0.6,0.3,1c-0.1,0.2-0.3,0.4-0.4,0.4
			C20.1,44.4,19.9,44.3,19.7,44.3z M19.3,42.8c0,0.1,0,0.2,0.1,0.2c0.4,0.3,0.6-0.2,0.7-0.5c0.3-0.6,2.1-3.5,2.1-3.7
			c0-0.2-0.2-0.4-0.4-0.3c-0.2,0-0.3,0.3-0.4,0.5C21,39.7,19.3,42.6,19.3,42.8z M116.3,96.9l0.7-1.3c0.8,0.4,1.5,0.5,2.3,0.6
			c1.5,0.2,3,0.2,3.5,2.4c0.2,0.8,0.3,1.1,0.9,1.6c0.1,0.1,0.1,0.1,0.2,0.2c-0.3,0.2-0.6-0.4-2.1,0c-0.7,0.2-1.4,0.3-2.2-0.1
			c-0.7-0.4-1.2-1.1-1.6-1.7C117.5,98,117,97.4,116.3,96.9z"/>
	</defs>
	<clipPath id="SVGID_74_">
		<use xlink:href="#SVGID_73_"  style="overflow:visible;"/>
	</clipPath>
	
		<linearGradient id="SVGID_75_" gradientUnits="userSpaceOnUse" x1="-229.0661" y1="487.3388" x2="-228.9261" y2="487.3388" gradientTransform="matrix(-55.6636 99.331 -113.761 -63.75 42761.9414 53882.6563)">
		<stop  offset="0" style="stop-color:#B39656"/>
		<stop  offset="0.24" style="stop-color:#DEBF77"/>
		<stop  offset="0.5" style="stop-color:#FFF7B2"/>
		<stop  offset="0.68" style="stop-color:#E1C47C"/>
		<stop  offset="1" style="stop-color:#B39555"/>
	</linearGradient>
	<polygon class="st26" points="39.3,-13.3 -16.7,86.8 97.4,150.8 153.5,50.7 	"/>
</g>
<g>
	<defs>
		<path id="SVGID_76_" d="M121.1,86.6c0.6,0.2,1.2,0.1,1.3-0.6c0.1-0.7-0.4-1-0.7-1.3l0.2-0.9c1.6,0.6,3.5,2.3,2.5,4.1
			C123.3,89.9,120.5,88.4,121.1,86.6 M122.5,81.8l0.2-0.9c0.4-0.1,1-0.2,1.2-0.8c0.1-0.3,0-0.6-0.1-0.8c-0.2-0.3-0.4-0.3-0.8-0.4
			c0.2-0.9,1.2-1.4,2.1-1.2c1,0.2,1.5,1.1,1.5,1.9c0,1.2-0.9,1.8-1.6,2C124.5,81.9,123.3,82,122.5,81.8z M120.5,83.1
			c-0.1,0.1-0.5,0-0.7,0c-1.1,0-2.1,0.2-2.9-1.1c-0.1-0.2-0.2-0.3-0.3-0.5c-0.1-0.1-0.3-0.2-0.4-0.4c0.2-0.1,0.3,0,1.1-0.4
			c0.9-0.5,1.7-0.3,2.5,0.2l1.1,0.6L120.5,83.1z M121,81.3c-0.8-0.4-1.7-1.2-1.4-2.2c0.3-1.3,2-1,2.1,0l-0.2,0c-0.3,0-0.6,0-0.7,0.5
			c-0.1,0.5,0.3,0.6,0.5,0.9L121,81.3z M119.8,85.7c-0.2,0.4-0.9,0.5-1.4,0.2c-0.8-0.5-0.8-2.4,2-2.5l-0.2,0.8
			c-0.4,0-0.8,0.1-0.9,0.5c-0.1,0.2-0.1,0.5,0,0.6C119.4,85.6,119.6,85.6,119.8,85.7z M121.1,85c-0.1,0.1-0.1,0.1-0.3,0.1
			c-0.5-0.1-0.3-0.5-0.2-0.8c0.2-0.7,1-4,1.2-4.1c0.1-0.1,0.4-0.1,0.5,0.1c0.1,0.2,0,0.4-0.1,0.7C122.1,81.6,121.3,84.9,121.1,85z
			 M14.3,54.6l0.4-1.4c-0.9-0.3-1.4-0.7-2.1-1.2c-1.2-0.9-2.3-2-4.2-0.8c-0.7,0.4-1,0.5-1.8,0.5c-0.2,0-0.2,0-0.3,0
			c0.1,0.3,0.7,0.1,1.5,1.5c0.3,0.6,0.8,1.2,1.6,1.5c0.8,0.2,1.7,0,2.4-0.1C12.6,54.6,13.4,54.5,14.3,54.6z M13.6,57.8
			c-0.6-0.2-1.1-0.5-0.8-1.2c0.2-0.7,0.9-0.7,1.2-0.8l0.3-0.9c-1.7-0.3-4.2,0.2-4.2,2.3C10,59.5,13.2,59.7,13.6,57.8z M14.7,53
			L15,52c-0.3-0.3-0.8-0.6-0.7-1.3c0.1-0.3,0.3-0.6,0.5-0.7c0.3-0.1,0.5-0.1,0.9,0c0.3-0.9-0.3-1.9-1.2-2.1c-1-0.3-1.9,0.2-2.3,0.9
			c-0.5,1-0.1,2,0.3,2.5C12.9,51.9,13.9,52.7,14.7,53z M15.8,55c0.1,0.2,0.4,0.3,0.6,0.4c0.9,0.5,1.7,1.2,3,0.5
			c0.2-0.1,0.3-0.2,0.5-0.3c0.2-0.1,0.4-0.1,0.5-0.2c-0.1-0.2-0.3-0.2-0.7-0.9c-0.5-0.9-1.3-1.1-2.3-1.1l-1.3,0L15.8,55z M16.3,53.3
			c0.9,0,2.1-0.2,2.4-1.2c0.4-1.2-1.2-1.9-1.8-1l0.2,0.1c0.3,0.1,0.6,0.3,0.4,0.8c-0.2,0.5-0.6,0.4-0.9,0.5L16.3,53.3z M15.1,57.7
			c0,0.4,0.5,0.9,1.1,0.9c0.9-0.1,1.9-1.7-0.5-3.1l-0.2,0.8c0.3,0.2,0.6,0.5,0.5,0.9c0,0.2-0.2,0.4-0.3,0.5
			C15.5,57.7,15.3,57.6,15.1,57.7z M14.3,56.4c0,0.1,0,0.1,0.2,0.2c0.4,0.2,0.5-0.3,0.6-0.6c0.2-0.7,1.1-4,1.1-4.2
			c-0.1-0.2-0.3-0.3-0.5-0.2c-0.2,0.1-0.2,0.4-0.3,0.6C15.2,52.9,14.3,56.2,14.3,56.4z M122,83.5l0.4-1.5c0.9,0.2,1.6,0.1,2.4,0
			c1.5-0.2,3-0.6,4,1.4c0.4,0.7,0.6,1,1.3,1.4c0.1,0.1,0.2,0.1,0.2,0.2c-0.3,0.2-0.7-0.3-2.1,0.5c-0.6,0.4-1.3,0.7-2.1,0.5
			c-0.8-0.2-1.5-0.8-2-1.2C123.5,84.3,122.9,83.8,122,83.5z"/>
	</defs>
	<clipPath id="SVGID_77_">
		<use xlink:href="#SVGID_76_"  style="overflow:visible;"/>
	</clipPath>
	
		<linearGradient id="SVGID_78_" gradientUnits="userSpaceOnUse" x1="-230.0559" y1="486.9286" x2="-229.8359" y2="486.9286" gradientTransform="matrix(-17.3687 68.3114 -126.4517 -32.1514 57647.5469 31431.6758)">
		<stop  offset="0" style="stop-color:#B39656"/>
		<stop  offset="0.24" style="stop-color:#DEBF77"/>
		<stop  offset="0.5" style="stop-color:#FFF7B2"/>
		<stop  offset="0.68" style="stop-color:#E1C47C"/>
		<stop  offset="1" style="stop-color:#B39555"/>
	</linearGradient>
	<polygon class="st27" points="13.9,18 -3.7,87.3 122.8,119.5 140.4,50.2 	"/>
</g>
<g>
	<defs>
		<path id="SVGID_79_" d="M124,72.4c0.6,0,1.2-0.2,1.1-1c-0.1-0.7-0.7-0.9-1-1.1l0-0.9c1.7,0.2,4,1.3,3.5,3.3
			C127,74.9,123.9,74.3,124,72.4 M124.1,67.4l0-0.9c0.4-0.2,0.9-0.4,1-1.1c0-0.3-0.1-0.6-0.3-0.8c-0.2-0.2-0.5-0.2-0.8-0.2
			c0-0.9,0.8-1.7,1.7-1.7c1.1,0,1.7,0.6,1.9,1.5c0.3,1.1-0.4,1.9-1,2.4C126.1,66.9,125,67.3,124.1,67.4z M122.5,69.1
			c-0.1,0.1-0.5,0.2-0.6,0.2c-1,0.3-2,0.7-3.1-0.3c-0.1-0.1-0.3-0.3-0.4-0.4c-0.1-0.1-0.4-0.2-0.5-0.3c0.2-0.2,0.3-0.1,0.9-0.7
			c0.7-0.7,1.6-0.7,2.5-0.4l1.3,0.3L122.5,69.1z M122.5,67.2c-0.8-0.2-1.9-0.7-2-1.8c0-1.3,1.6-1.5,2-0.6l-0.2,0.1
			c-0.3,0.1-0.6,0.2-0.6,0.7c0.1,0.5,0.5,0.5,0.7,0.7L122.5,67.2z M122.5,71.8c-0.1,0.4-0.7,0.7-1.3,0.6c-0.9-0.3-1.4-2.1,1.3-2.9
			l0,0.9c-0.4,0.1-0.7,0.3-0.7,0.7c0,0.2,0.1,0.5,0.2,0.6C122.1,71.8,122.3,71.7,122.5,71.8z M123.6,70.8c-0.1,0.1-0.1,0.1-0.2,0.1
			c-0.5,0-0.4-0.4-0.4-0.7c0-0.7-0.1-4.1,0.1-4.3c0.1-0.1,0.4-0.2,0.5-0.1c0.1,0.1,0.1,0.4,0.1,0.7
			C123.7,67.2,123.7,70.6,123.6,70.8z M12.6,69.1l0-1.5c-0.9-0.1-1.6-0.3-2.3-0.6c-1.4-0.6-2.8-1.3-4.2,0.3c-0.5,0.6-0.8,0.8-1.6,1
			c-0.2,0-0.2,0-0.3,0.1c0.2,0.3,0.7-0.1,1.9,1.1c0.5,0.5,1.1,1,1.9,1c0.8,0,1.6-0.4,2.3-0.7C11,69.5,11.7,69.2,12.6,69.1z
			 M12.7,72.4c-0.6,0-1.2-0.2-1.1-1c0.1-0.7,0.7-0.9,1-1.1l0-0.9c-1.7,0.2-4,1.3-3.5,3.3C9.7,74.9,12.8,74.3,12.7,72.4z M12.6,67.4
			l0-0.9c-0.4-0.2-0.9-0.4-1-1.1c0-0.3,0.1-0.6,0.3-0.8c0.2-0.2,0.5-0.2,0.8-0.2c0-0.9-0.8-1.7-1.7-1.7c-1.1,0-1.7,0.6-1.9,1.5
			c-0.3,1.1,0.4,1.9,1,2.4C10.6,66.9,11.7,67.3,12.6,67.4z M14.2,69.1c0.1,0.1,0.5,0.2,0.6,0.2c1,0.3,2,0.7,3.1-0.3
			c0.1-0.1,0.3-0.3,0.4-0.4c0.1-0.1,0.4-0.2,0.5-0.3c-0.2-0.2-0.3-0.1-0.9-0.7c-0.7-0.7-1.6-0.7-2.5-0.4l-1.3,0.3L14.2,69.1z
			 M14.2,67.2c0.8-0.2,1.9-0.7,2-1.8c0-1.3-1.6-1.5-2-0.6l0.2,0.1c0.3,0.1,0.6,0.2,0.6,0.7c-0.1,0.5-0.5,0.5-0.7,0.7L14.2,67.2z
			 M14.2,71.8c0.1,0.4,0.7,0.7,1.3,0.6c0.9-0.3,1.4-2.1-1.3-2.9l0,0.9c0.4,0.1,0.7,0.3,0.7,0.7c0,0.2-0.1,0.5-0.2,0.6
			C14.6,71.8,14.4,71.7,14.2,71.8z M13.1,70.8c0.1,0.1,0.1,0.1,0.2,0.1c0.5,0,0.4-0.4,0.4-0.7c0-0.7,0.1-4.1-0.1-4.3
			c-0.1-0.1-0.4-0.2-0.5-0.1C13,66,13,66.3,13,66.5C13,67.2,13,70.6,13.1,70.8z M124.1,69.1l0-1.5c0.9-0.1,1.6-0.3,2.3-0.6
			c1.4-0.6,2.8-1.3,4.2,0.3c0.5,0.6,0.8,0.8,1.6,1c0.2,0,0.2,0,0.3,0.1c-0.2,0.3-0.7-0.1-1.9,1.1c-0.5,0.5-1.1,1-1.9,1
			c-0.8,0-1.6-0.4-2.3-0.7C125.7,69.5,125,69.2,124.1,69.1z"/>
	</defs>
	<clipPath id="SVGID_80_">
		<use xlink:href="#SVGID_79_"  style="overflow:visible;"/>
	</clipPath>
	
		<linearGradient id="SVGID_81_" gradientUnits="userSpaceOnUse" x1="-237.9298" y1="486.5457" x2="-237.0098" y2="486.5457" gradientTransform="matrix(0.2118 16.5212 -128.7402 1.6501 62756.6055 3188.7129)">
		<stop  offset="0" style="stop-color:#B39656"/>
		<stop  offset="0.24" style="stop-color:#DEBF77"/>
		<stop  offset="0.5" style="stop-color:#FFF7B2"/>
		<stop  offset="0.68" style="stop-color:#E1C47C"/>
		<stop  offset="1" style="stop-color:#B39555"/>
	</linearGradient>
	<polygon class="st28" points="4,62.6 4.2,76.6 132.7,74.9 132.5,60.9 	"/>
</g>
<g>
	<defs>
		<path id="SVGID_82_" d="M50.1,121.1c-0.2,0.6-0.1,1.2,0.6,1.3c0.7,0.1,1-0.4,1.3-0.7L53,122c-0.6,1.6-2.3,3.5-4.1,2.5
			C46.8,123.3,48.3,120.5,50.1,121.1 M54.9,122.5l0.9,0.2c0.1,0.4,0.1,1,0.8,1.2c0.3,0.1,0.6,0,0.8-0.1c0.3-0.2,0.3-0.4,0.4-0.8
			c0.9,0.2,1.4,1.2,1.2,2.1c-0.2,1-1.1,1.5-1.9,1.5c-1.2,0-1.8-0.9-2-1.6C54.8,124.5,54.7,123.3,54.9,122.5z M53.6,120.5
			c-0.1-0.1,0-0.5,0-0.7c0-1.1-0.2-2.1,1.1-2.9c0.2-0.1,0.3-0.2,0.5-0.3c0.1-0.1,0.2-0.3,0.4-0.4c0.1,0.2,0,0.3,0.4,1.1
			c0.5,0.9,0.3,1.7-0.2,2.5l-0.6,1.1L53.6,120.5z M55.4,121c0.4-0.8,1.2-1.7,2.2-1.4c1.3,0.3,1,2,0,2.1l0-0.2c0-0.3,0-0.6-0.5-0.7
			c-0.5-0.1-0.6,0.3-0.9,0.5L55.4,121z M51,119.8c-0.4-0.2-0.5-0.9-0.2-1.4c0.5-0.8,2.4-0.8,2.5,2l-0.8-0.2c0-0.4-0.1-0.8-0.5-0.9
			c-0.2-0.1-0.5-0.1-0.6,0C51.1,119.4,51.1,119.6,51,119.8z M51.7,121.1c-0.1-0.1-0.1-0.1-0.1-0.3c0.1-0.5,0.5-0.3,0.8-0.2
			c0.7,0.2,4,1,4.1,1.2c0.1,0.1,0.1,0.4-0.1,0.5c-0.2,0.1-0.4,0-0.7-0.1C55.1,122.1,51.9,121.3,51.7,121.1z M82.1,14.3l1.4,0.4
			c0.3-0.9,0.7-1.4,1.2-2.1c0.9-1.2,2-2.3,0.8-4.2c-0.4-0.7-0.5-1-0.5-1.8c0-0.2,0-0.2,0-0.3c-0.3,0.1-0.1,0.7-1.5,1.5
			c-0.6,0.3-1.2,0.8-1.5,1.6c-0.2,0.8,0,1.7,0.1,2.4C82.1,12.6,82.2,13.4,82.1,14.3z M78.9,13.6c0.2-0.6,0.5-1.1,1.2-0.8
			c0.7,0.2,0.7,0.9,0.8,1.2l0.9,0.3c0.3-1.7-0.2-4.2-2.3-4.2C77.2,10,77,13.2,78.9,13.6z M83.7,14.7l0.9,0.2
			c0.3-0.3,0.6-0.8,1.3-0.7c0.3,0.1,0.6,0.3,0.7,0.5c0.1,0.3,0.1,0.5,0,0.9c0.9,0.3,1.9-0.3,2.1-1.2c0.3-1-0.2-1.9-0.9-2.3
			c-1-0.5-2-0.1-2.5,0.3C84.8,12.9,84,13.9,83.7,14.7z M81.7,15.8c-0.2,0.1-0.3,0.4-0.4,0.6c-0.5,0.9-1.2,1.7-0.5,3
			c0.1,0.2,0.2,0.3,0.3,0.5c0.1,0.2,0.1,0.4,0.2,0.5c0.2-0.1,0.2-0.3,0.9-0.7c0.9-0.5,1.1-1.3,1.1-2.3l0-1.3L81.7,15.8z M83.4,16.3
			c0,0.9,0.2,2.1,1.2,2.4c1.2,0.4,1.9-1.2,1-1.8l-0.1,0.2c-0.1,0.3-0.3,0.6-0.8,0.4c-0.5-0.2-0.4-0.6-0.5-0.9L83.4,16.3z M79,15.1
			c-0.4,0-0.9,0.5-0.9,1.1c0.1,0.9,1.7,1.9,3.1-0.5l-0.8-0.2c-0.2,0.3-0.5,0.6-0.9,0.5c-0.2,0-0.4-0.2-0.5-0.3
			C79,15.5,79.1,15.3,79,15.1z M80.3,14.3c-0.1,0-0.1,0-0.2,0.2c-0.2,0.4,0.3,0.5,0.6,0.6c0.7,0.2,4,1.1,4.2,1.1
			c0.2-0.1,0.3-0.3,0.2-0.5c-0.1-0.2-0.4-0.2-0.6-0.3C83.8,15.2,80.5,14.3,80.3,14.3z M53.2,122l1.5,0.4c-0.2,0.9-0.1,1.6,0,2.4
			c0.2,1.5,0.6,3-1.4,4c-0.7,0.4-1,0.6-1.4,1.3c-0.1,0.1-0.1,0.2-0.2,0.2c-0.2-0.3,0.3-0.7-0.5-2.1c-0.4-0.6-0.7-1.3-0.5-2.1
			c0.2-0.8,0.8-1.5,1.2-2C52.4,123.5,52.9,122.9,53.2,122z"/>
	</defs>
	<clipPath id="SVGID_83_">
		<use xlink:href="#SVGID_82_"  style="overflow:visible;"/>
	</clipPath>
	
		<linearGradient id="SVGID_84_" gradientUnits="userSpaceOnUse" x1="-228.349" y1="489.028" x2="-228.129" y2="489.028" gradientTransform="matrix(-68.3108 -17.3686 32.1513 -126.4514 -31245.7031 57942.5547)">
		<stop  offset="0" style="stop-color:#B39656"/>
		<stop  offset="0.24" style="stop-color:#DEBF77"/>
		<stop  offset="0.5" style="stop-color:#FFF7B2"/>
		<stop  offset="0.68" style="stop-color:#E1C47C"/>
		<stop  offset="1" style="stop-color:#B39555"/>
	</linearGradient>
	<polygon class="st29" points="118.7,13.9 49.4,-3.7 17.2,122.8 86.5,140.4 	"/>
</g>
<g>
	<defs>
		<path id="SVGID_85_" d="M37.1,114.5c-0.3,0.6-0.4,1.1,0.3,1.5c0.6,0.3,1.1-0.1,1.4-0.3l0.8,0.5c-1,1.4-3.2,2.8-4.6,1.4
			C33.3,115.9,35.5,113.5,37.1,114.5 M41.3,117.1l0.8,0.5c0,0.4-0.1,1,0.5,1.4c0.3,0.2,0.6,0.2,0.8,0.1c0.3-0.1,0.4-0.3,0.6-0.6
			c0.8,0.4,1.1,1.5,0.7,2.3c-0.5,0.9-1.4,1.2-2.3,0.9c-1.1-0.3-1.5-1.3-1.5-2C40.8,119.1,41,117.9,41.3,117.1z M40.6,114.9
			c-0.1-0.2,0.1-0.5,0.1-0.7c0.3-1,0.4-2.1,1.8-2.5c0.2-0.1,0.4-0.1,0.6-0.2c0.2-0.1,0.3-0.2,0.5-0.3c0.1,0.3-0.1,0.3,0.1,1.1
			c0.2,1-0.2,1.7-0.9,2.3l-0.9,0.9L40.6,114.9z M42.2,115.8c0.6-0.6,1.6-1.3,2.5-0.8c1.1,0.6,0.5,2.2-0.5,2l0-0.2
			c0.1-0.3,0.2-0.6-0.3-0.8c-0.5-0.2-0.7,0.1-1,0.3L42.2,115.8z M38.3,113.5c-0.3-0.3-0.3-1,0.2-1.4c0.7-0.6,2.6-0.1,1.9,2.5
			l-0.8-0.4c0.1-0.4,0.1-0.8-0.3-1c-0.2-0.1-0.4-0.2-0.6-0.1C38.5,113.2,38.4,113.4,38.3,113.5z M38.6,115c0-0.1-0.1-0.1,0-0.3
			c0.2-0.4,0.6-0.1,0.8,0c0.6,0.4,3.6,2,3.7,2.2c0.1,0.1,0,0.4-0.2,0.5c-0.2,0.1-0.4-0.1-0.6-0.2C41.7,116.8,38.7,115.2,38.6,115z
			 M95.6,19.7l1.3,0.8c0.5-0.8,1.1-1.2,1.7-1.7c1.2-0.9,2.5-1.7,1.9-3.8c-0.2-0.8-0.3-1.1,0-1.9c0-0.2,0.1-0.2,0-0.3
			c-0.3,0-0.3,0.7-1.8,1.1c-0.7,0.2-1.4,0.4-1.9,1.2c-0.4,0.7-0.5,1.6-0.6,2.3C96.1,18.1,96,18.9,95.6,19.7z M92.7,18.2
			c0.3-0.6,0.7-0.9,1.4-0.5c0.6,0.4,0.4,1,0.5,1.4l0.8,0.5c0.7-1.6,0.9-4.1-1.1-4.7C92,14.2,91,17.3,92.7,18.2z M97.1,20.6l0.8,0.5
			c0.4-0.2,0.8-0.6,1.5-0.3c0.3,0.1,0.5,0.4,0.5,0.6c0.1,0.3-0.1,0.5-0.2,0.8c0.8,0.5,1.9,0.2,2.4-0.6c0.6-0.9,0.3-1.8-0.3-2.4
			c-0.8-0.8-1.9-0.6-2.5-0.3C98.5,19.1,97.6,19.8,97.1,20.6z M94.8,21.1c-0.2,0-0.4,0.3-0.5,0.5c-0.8,0.8-1.6,1.4-1.3,2.8
			c0,0.2,0.1,0.4,0.1,0.6c0,0.2-0.1,0.4,0,0.6c0.3-0.1,0.2-0.2,1-0.5c1-0.3,1.4-1,1.6-1.9l0.4-1.2L94.8,21.1z M96.4,22
			c-0.2,0.8-0.3,2,0.6,2.6c1.1,0.7,2.1-0.7,1.5-1.4l-0.1,0.1c-0.2,0.2-0.5,0.5-0.9,0.1c-0.4-0.3-0.2-0.7-0.3-1L96.4,22z M92.4,19.7
			c-0.4-0.1-1,0.2-1.1,0.8c-0.2,0.9,1.1,2.3,3.1,0.4l-0.8-0.4c-0.3,0.3-0.6,0.4-1,0.3c-0.2-0.1-0.4-0.3-0.4-0.4
			C92.3,20.1,92.4,19.9,92.4,19.7z M93.9,19.3c-0.1,0-0.2,0-0.2,0.1c-0.3,0.4,0.2,0.6,0.5,0.7c0.6,0.3,3.5,2.1,3.7,2.1
			c0.2,0,0.4-0.2,0.3-0.4c0-0.2-0.3-0.3-0.5-0.4C97,21,94.1,19.3,93.9,19.3z M39.8,116.3l1.3,0.7c-0.4,0.8-0.5,1.5-0.6,2.3
			c-0.2,1.5-0.2,3-2.4,3.5c-0.8,0.2-1.1,0.3-1.6,0.9c-0.1,0.1-0.1,0.1-0.2,0.2c-0.2-0.3,0.4-0.6,0-2.1c-0.2-0.7-0.3-1.4,0.1-2.2
			c0.4-0.7,1.1-1.2,1.7-1.6C38.7,117.5,39.3,117,39.8,116.3z"/>
	</defs>
	<clipPath id="SVGID_86_">
		<use xlink:href="#SVGID_85_"  style="overflow:visible;"/>
	</clipPath>
	
		<linearGradient id="SVGID_87_" gradientUnits="userSpaceOnUse" x1="-227.4229" y1="489.1289" x2="-227.2829" y2="489.1289" gradientTransform="matrix(-99.331 -55.6636 63.75 -113.761 -53696.8438 43057.0508)">
		<stop  offset="0" style="stop-color:#B39656"/>
		<stop  offset="0.24" style="stop-color:#DEBF77"/>
		<stop  offset="0.5" style="stop-color:#FFF7B2"/>
		<stop  offset="0.68" style="stop-color:#E1C47C"/>
		<stop  offset="1" style="stop-color:#B39555"/>
	</linearGradient>
	<polygon class="st30" points="150,39.3 49.9,-16.7 -14.1,97.4 86,153.5 	"/>
</g>
<g>
	<defs>
		<path id="SVGID_88_" d="M26.2,104.9c-0.5,0.4-0.7,1-0.1,1.5c0.5,0.5,1.1,0.1,1.5,0.1l0.7,0.7c-1.3,1.1-3.8,1.9-4.8,0.2
			C22.2,105.2,24.9,103.4,26.2,104.9 M29.6,108.5l0.7,0.7c-0.1,0.4-0.4,1,0.1,1.5c0.2,0.3,0.5,0.3,0.7,0.3c0.3,0,0.5-0.2,0.7-0.5
			c0.7,0.6,0.6,1.8,0,2.4c-0.7,0.8-1.7,0.8-2.4,0.3c-1-0.6-1.1-1.7-1-2.4C28.6,110.3,29.1,109.1,29.6,108.5z M29.5,106.1
			c0-0.2,0.2-0.4,0.3-0.6c0.6-0.9,0.9-1.9,2.4-2c0.2,0,0.4,0,0.6,0c0.2,0,0.4-0.2,0.5-0.1c0,0.3-0.2,0.3-0.2,1.1c0,1-0.6,1.6-1.4,2
			l-1.1,0.7L29.5,106.1z M30.8,107.4c0.8-0.4,1.9-0.8,2.7-0.1c0.9,0.9-0.1,2.2-1,1.8l0.1-0.2c0.2-0.3,0.3-0.6-0.1-0.9
			c-0.4-0.3-0.7,0-1.1,0L30.8,107.4z M27.6,104.2c-0.2-0.4,0-1,0.5-1.3c0.8-0.4,2.5,0.5,1.2,2.9l-0.6-0.6c0.2-0.3,0.3-0.7,0-1
			c-0.1-0.2-0.4-0.3-0.5-0.3C27.9,104,27.8,104.1,27.6,104.2z M27.5,105.7c0-0.1,0-0.1,0.1-0.3c0.3-0.4,0.6,0,0.8,0.3
			c0.5,0.5,2.9,2.9,3,3.1c0,0.2-0.1,0.4-0.3,0.4c-0.2,0-0.4-0.2-0.5-0.4C30,108.3,27.6,105.9,27.5,105.7z M107.3,28.4l1,1.1
			c0.7-0.6,1.3-0.9,2.1-1.2c1.4-0.6,2.9-1,2.8-3.2c0-0.8,0-1.2,0.5-1.8c0.1-0.1,0.1-0.2,0.1-0.3c-0.3-0.1-0.5,0.6-2.1,0.6
			c-0.7,0-1.5,0-2.1,0.6c-0.6,0.6-0.9,1.4-1.1,2.1C108.2,27,107.8,27.7,107.3,28.4z M104.9,26.2c0.4-0.5,1-0.7,1.5-0.1
			c0.5,0.5,0.1,1.1,0.1,1.5l0.7,0.7c1.1-1.3,1.9-3.8,0.2-4.8C105.2,22.2,103.4,24.9,104.9,26.2z M108.5,29.6l0.7,0.7
			c0.4-0.1,1-0.4,1.5,0.1c0.3,0.2,0.3,0.5,0.3,0.7c0,0.3-0.2,0.5-0.5,0.7c0.6,0.7,1.8,0.6,2.4,0c0.8-0.7,0.8-1.7,0.3-2.4
			c-0.6-1-1.7-1.1-2.4-1C110.3,28.6,109.1,29.1,108.5,29.6z M106.1,29.5c-0.2,0-0.4,0.2-0.6,0.3c-0.9,0.6-1.9,0.9-2,2.4
			c0,0.2,0,0.4,0,0.6c0,0.2-0.2,0.4-0.1,0.5c0.3,0,0.3-0.2,1.1-0.2c1,0,1.6-0.6,2-1.4l0.7-1.1L106.1,29.5z M107.4,30.8
			c-0.4,0.8-0.8,1.9-0.1,2.7c0.9,0.9,2.2-0.1,1.8-1l-0.2,0.1c-0.3,0.2-0.6,0.3-0.9-0.1c-0.3-0.4,0-0.7,0-1.1L107.4,30.8z
			 M104.2,27.6c-0.4-0.2-1,0-1.3,0.5c-0.4,0.8,0.5,2.5,2.9,1.2l-0.6-0.6c-0.3,0.2-0.7,0.3-1,0c-0.2-0.1-0.3-0.4-0.3-0.5
			C104,27.9,104.1,27.8,104.2,27.6z M105.7,27.5c-0.1,0-0.1,0-0.3,0.1c-0.4,0.3,0,0.6,0.3,0.8c0.5,0.5,2.9,2.9,3.1,3
			c0.2,0,0.4-0.1,0.4-0.3c0-0.2-0.2-0.4-0.4-0.5C108.3,30,105.9,27.6,105.7,27.5z M28.4,107.3l1.1,1c-0.6,0.7-0.9,1.3-1.2,2.1
			c-0.6,1.4-1,2.9-3.2,2.8c-0.8,0-1.2,0-1.8,0.5c-0.1,0.1-0.2,0.1-0.3,0.1c-0.1-0.3,0.6-0.5,0.6-2.1c0-0.7,0-1.5,0.6-2.1
			c0.6-0.6,1.4-0.9,2.1-1.1C27,108.2,27.7,107.8,28.4,107.3z"/>
	</defs>
	<clipPath id="SVGID_89_">
		<use xlink:href="#SVGID_88_"  style="overflow:visible;"/>
	</clipPath>
	
		<linearGradient id="SVGID_90_" gradientUnits="userSpaceOnUse" x1="-226.9602" y1="489.1445" x2="-226.8401" y2="489.1445" gradientTransform="matrix(-92.0708 -89.7404 89.7384 -92.0687 -64717.5195 24741.2031)">
		<stop  offset="0" style="stop-color:#B39656"/>
		<stop  offset="0.24" style="stop-color:#DEBF77"/>
		<stop  offset="0.5" style="stop-color:#FFF7B2"/>
		<stop  offset="0.68" style="stop-color:#E1C47C"/>
		<stop  offset="1" style="stop-color:#B39555"/>
	</linearGradient>
	<polygon class="st31" points="159.5,66.8 66.8,-23.6 -23.6,69.1 69.1,159.5 	"/>
</g>
<g>
	<defs>
		<path id="SVGID_91_" d="M18.2,92.7c-0.6,0.3-0.9,0.7-0.5,1.4c0.4,0.6,1,0.4,1.4,0.5l0.5,0.8c-1.6,0.7-4.1,0.9-4.7-1.1
			C14.2,92,17.3,91,18.2,92.7 M20.6,97.1l0.5,0.8c-0.2,0.4-0.6,0.8-0.3,1.5c0.1,0.3,0.4,0.5,0.6,0.5c0.3,0.1,0.5-0.1,0.8-0.2
			c0.5,0.8,0.2,1.9-0.6,2.4c-0.9,0.6-1.8,0.3-2.4-0.3c-0.8-0.8-0.6-1.9-0.3-2.5C19.1,98.5,19.8,97.6,20.6,97.1z M21.1,94.8
			c0-0.2,0.3-0.4,0.5-0.5c0.8-0.8,1.4-1.6,2.8-1.3c0.2,0,0.4,0.1,0.6,0.1c0.2,0,0.4-0.1,0.6,0c-0.1,0.3-0.2,0.2-0.5,1
			c-0.3,1-1,1.4-1.9,1.6l-1.2,0.4L21.1,94.8z M22,96.4c0.8-0.2,2-0.3,2.6,0.6c0.7,1.1-0.7,2.1-1.4,1.5l0.1-0.1
			c0.2-0.2,0.5-0.5,0.1-0.9c-0.3-0.4-0.7-0.2-1-0.3L22,96.4z M19.7,92.4c-0.1-0.4,0.2-1,0.8-1.1c0.9-0.2,2.3,1.1,0.4,3.1l-0.4-0.8
			c0.3-0.3,0.4-0.6,0.3-1c-0.1-0.2-0.3-0.4-0.4-0.4C20.1,92.3,19.9,92.4,19.7,92.4z M19.3,93.9c0-0.1,0-0.2,0.1-0.2
			c0.4-0.3,0.6,0.2,0.7,0.5c0.3,0.6,2.1,3.5,2.1,3.7c0,0.2-0.2,0.4-0.4,0.3c-0.2,0-0.3-0.3-0.4-0.5C21,97,19.3,94.1,19.3,93.9z
			 M116.3,39.8l0.7,1.3c0.8-0.4,1.5-0.5,2.3-0.6c1.5-0.2,3-0.2,3.5-2.4c0.2-0.8,0.3-1.1,0.9-1.6c0.1-0.1,0.1-0.1,0.2-0.2
			c-0.3-0.2-0.6,0.4-2.1,0c-0.7-0.2-1.4-0.3-2.2,0.1c-0.7,0.4-1.2,1.1-1.6,1.7C117.5,38.7,117,39.3,116.3,39.8z M114.5,37.1
			c0.6-0.3,1.1-0.4,1.5,0.3c0.3,0.6-0.1,1.1-0.3,1.4l0.5,0.8c1.4-1,2.8-3.2,1.4-4.6C115.9,33.3,113.5,35.5,114.5,37.1z M117.1,41.3
			l0.5,0.8c0.4,0,1-0.1,1.4,0.5c0.2,0.3,0.2,0.6,0.1,0.8c-0.1,0.3-0.3,0.4-0.6,0.6c0.4,0.8,1.5,1.1,2.3,0.7c0.9-0.5,1.2-1.4,0.9-2.3
			c-0.3-1.1-1.3-1.5-2-1.5C119.1,40.8,117.9,41,117.1,41.3z M114.9,40.6c-0.2-0.1-0.5,0.1-0.7,0.1c-1,0.3-2.1,0.4-2.5,1.8
			c-0.1,0.2-0.1,0.4-0.2,0.6c-0.1,0.2-0.2,0.3-0.3,0.5c0.3,0.1,0.3-0.1,1.1,0.1c1,0.2,1.7-0.2,2.3-0.9l0.9-0.9L114.9,40.6z
			 M115.8,42.2c-0.6,0.6-1.3,1.6-0.8,2.5c0.6,1.1,2.2,0.5,2-0.5l-0.2,0c-0.3,0.1-0.6,0.2-0.8-0.3c-0.2-0.5,0.1-0.7,0.3-1L115.8,42.2
			z M113.5,38.3c-0.3-0.3-1-0.3-1.4,0.2c-0.6,0.7-0.1,2.6,2.5,1.9l-0.4-0.8c-0.4,0.1-0.8,0.1-1-0.3c-0.1-0.2-0.2-0.4-0.1-0.6
			C113.2,38.5,113.4,38.4,113.5,38.3z M115,38.6c-0.1,0-0.1-0.1-0.3,0c-0.4,0.2-0.1,0.6,0,0.8c0.4,0.6,2,3.6,2.2,3.7
			c0.1,0.1,0.4,0,0.5-0.2c0.1-0.2-0.1-0.4-0.2-0.6C116.8,41.7,115.2,38.7,115,38.6z M19.7,95.6l0.8,1.3c-0.8,0.5-1.2,1.1-1.7,1.7
			c-0.9,1.2-1.7,2.5-3.8,1.9c-0.8-0.2-1.1-0.3-1.9,0c-0.2,0-0.2,0.1-0.3,0c0-0.3,0.7-0.3,1.1-1.8c0.2-0.7,0.4-1.4,1.2-1.9
			c0.7-0.4,1.6-0.5,2.3-0.6C18.1,96.1,18.9,96,19.7,95.6z"/>
	</defs>
	<clipPath id="SVGID_92_">
		<use xlink:href="#SVGID_91_"  style="overflow:visible;"/>
	</clipPath>
	
		<linearGradient id="SVGID_93_" gradientUnits="userSpaceOnUse" x1="-226.4817" y1="489.0042" x2="-226.3417" y2="489.0042" gradientTransform="matrix(-58.9378 -99.1271 112.1469 -66.6789 -68115.9375 10231.0225)">
		<stop  offset="0" style="stop-color:#B39656"/>
		<stop  offset="0.24" style="stop-color:#DEBF77"/>
		<stop  offset="0.5" style="stop-color:#FFF7B2"/>
		<stop  offset="0.68" style="stop-color:#E1C47C"/>
		<stop  offset="1" style="stop-color:#B39555"/>
	</linearGradient>
	<polygon class="st32" points="154.3,84.5 94.9,-15.5 -17.6,51.4 41.8,151.4 	"/>
</g>
<g>
	<defs>
		<path id="SVGID_94_" d="M13.6,78.9c-0.6,0.2-1.1,0.5-0.8,1.2c0.2,0.7,0.9,0.7,1.2,0.8l0.3,0.9c-1.7,0.3-4.2-0.2-4.2-2.3
			C10,77.2,13.2,77,13.6,78.9 M14.7,83.7l0.2,0.9c-0.3,0.3-0.8,0.6-0.7,1.3c0.1,0.3,0.3,0.6,0.5,0.7c0.3,0.1,0.5,0.1,0.9,0
			c0.3,0.9-0.3,1.9-1.2,2.1c-1,0.3-1.9-0.2-2.3-0.9c-0.5-1-0.1-2,0.3-2.5C12.9,84.8,13.9,84,14.7,83.7z M15.8,81.7
			c0.1-0.2,0.4-0.3,0.6-0.4c0.9-0.5,1.7-1.2,3-0.5c0.2,0.1,0.3,0.2,0.5,0.3c0.2,0.1,0.4,0.1,0.5,0.2c-0.1,0.2-0.3,0.2-0.7,0.9
			c-0.5,0.9-1.3,1.1-2.3,1.1l-1.3,0L15.8,81.7z M16.3,83.4c0.9,0,2.1,0.2,2.4,1.2c0.4,1.2-1.2,1.9-1.8,1l0.2-0.1
			c0.3-0.1,0.6-0.3,0.4-0.8c-0.2-0.5-0.6-0.4-0.9-0.5L16.3,83.4z M15.1,79c0-0.4,0.5-0.9,1.1-0.9c0.9,0.1,1.9,1.7-0.5,3.1l-0.2-0.8
			c0.3-0.2,0.6-0.5,0.5-0.9c0-0.2-0.2-0.4-0.3-0.5C15.5,79,15.3,79.1,15.1,79z M14.3,80.3c0-0.1,0-0.1,0.2-0.2
			c0.4-0.2,0.5,0.3,0.6,0.6c0.2,0.7,1.1,4,1.1,4.2c-0.1,0.2-0.3,0.3-0.5,0.2c-0.2-0.1-0.2-0.4-0.3-0.6
			C15.2,83.8,14.3,80.5,14.3,80.3z M122,53.2l0.4,1.5c0.9-0.2,1.6-0.1,2.4,0c1.5,0.2,3,0.6,4-1.4c0.4-0.7,0.6-1,1.3-1.4
			c0.2-0.1,0.2-0.1,0.2-0.2c-0.3-0.2-0.7,0.3-2.1-0.5c-0.6-0.4-1.3-0.7-2.1-0.5c-0.8,0.2-1.5,0.8-2,1.2
			C123.5,52.4,122.9,52.9,122,53.2z M121.1,50.1c0.6-0.2,1.2-0.1,1.3,0.6c0.1,0.7-0.4,1-0.7,1.3L122,53c1.6-0.6,3.5-2.3,2.5-4.1
			C123.3,46.8,120.5,48.3,121.1,50.1z M122.5,54.9l0.2,0.9c0.4,0.1,1,0.1,1.2,0.8c0.1,0.3,0,0.6-0.1,0.8c-0.2,0.3-0.4,0.3-0.8,0.4
			c0.2,0.9,1.2,1.4,2.1,1.2c1-0.2,1.5-1.1,1.5-1.9c0-1.2-0.9-1.8-1.6-2C124.5,54.8,123.3,54.7,122.5,54.9z M120.5,53.6
			c-0.1-0.1-0.5,0-0.7,0c-1.1,0-2.1-0.2-2.9,1.1c-0.1,0.2-0.2,0.3-0.3,0.5c-0.1,0.1-0.3,0.2-0.4,0.4c0.2,0.1,0.3,0,1.1,0.4
			c0.9,0.5,1.7,0.3,2.5-0.2l1.1-0.6L120.5,53.6z M121,55.4c-0.8,0.4-1.7,1.2-1.4,2.2c0.3,1.3,2,1,2.1,0l-0.2,0c-0.3,0-0.6,0-0.7-0.5
			c-0.1-0.5,0.3-0.6,0.5-0.9L121,55.4z M119.8,51c-0.2-0.4-0.9-0.5-1.4-0.2c-0.8,0.5-0.8,2.4,2,2.5l-0.2-0.8c-0.4,0-0.8-0.1-0.9-0.5
			c-0.1-0.2-0.1-0.5,0-0.6C119.4,51.1,119.6,51.1,119.8,51z M121.1,51.7c-0.1-0.1-0.1-0.1-0.3-0.1c-0.5,0.1-0.3,0.5-0.2,0.8
			c0.2,0.7,1,4,1.2,4.1c0.1,0.1,0.4,0.1,0.5-0.1c0.1-0.2,0-0.4-0.1-0.7C122.1,55.1,121.3,51.8,121.1,51.7z M14.3,82.1l0.4,1.4
			c-0.9,0.3-1.4,0.7-2.1,1.2c-1.2,0.9-2.3,2-4.2,0.8c-0.7-0.4-1-0.5-1.8-0.5c-0.2,0-0.2,0-0.3,0c0.1-0.3,0.7-0.1,1.5-1.5
			c0.3-0.6,0.8-1.2,1.6-1.5c0.8-0.2,1.7,0,2.4,0.1C12.6,82.1,13.4,82.2,14.3,82.1z"/>
	</defs>
	<clipPath id="SVGID_95_">
		<use xlink:href="#SVGID_94_"  style="overflow:visible;"/>
	</clipPath>
	
		<linearGradient id="SVGID_96_" gradientUnits="userSpaceOnUse" x1="-225.4515" y1="488.7819" x2="-225.2315" y2="488.7819" gradientTransform="matrix(-19.8454 -70.4401 125.7942 -35.4406 -65889.4688 1518.0023)">
		<stop  offset="0" style="stop-color:#B39656"/>
		<stop  offset="0.24" style="stop-color:#DEBF77"/>
		<stop  offset="0.5" style="stop-color:#FFF7B2"/>
		<stop  offset="0.68" style="stop-color:#E1C47C"/>
		<stop  offset="1" style="stop-color:#B39555"/>
	</linearGradient>
	<polygon class="st33" points="141.4,85.9 121.2,14.4 -4.7,49.9 15.5,121.4 	"/>
</g>
<g>
	<defs>
		<path id="SVGID_97_" d="M25.8,45.3c-1.8,3.3-3.2,6.9-4.2,10.5c-1.1,4.1-1.6,8.3-1.6,12.5c0,4.3,0.6,8.5,1.6,12.5
			c1,3.6,2.4,7.2,4.2,10.5c1.8-3.3,3.2-6.9,4.2-10.5c1.1-4.1,1.6-8.3,1.6-12.5s-0.6-8.5-1.6-12.5C29,52.2,27.6,48.7,25.8,45.3"/>
	</defs>
	<clipPath id="SVGID_98_">
		<use xlink:href="#SVGID_97_"  style="overflow:visible;"/>
	</clipPath>
	
		<linearGradient id="SVGID_99_" gradientUnits="userSpaceOnUse" x1="-237.743" y1="491.2025" x2="-236.823" y2="491.2025" gradientTransform="matrix(-12.3535 0.1583 -0.5932 -46.2763 -2614.0833 22836.9668)">
		<stop  offset="0" style="stop-color:#B39656"/>
		<stop  offset="0.24" style="stop-color:#DEBF77"/>
		<stop  offset="0.5" style="stop-color:#FFF7B2"/>
		<stop  offset="0.68" style="stop-color:#E1C47C"/>
		<stop  offset="1" style="stop-color:#B39555"/>
	</linearGradient>
	<polygon class="st34" points="31.6,45.2 19.4,45.3 20,91.5 32.2,91.4 	"/>
</g>
<g>
	<defs>
		<path id="SVGID_100_" d="M110.9,45.3c-1.8,3.3-3.2,6.9-4.2,10.5c-1.1,4.1-1.6,8.3-1.6,12.5c0,4.3,0.6,8.5,1.6,12.5
			c1,3.6,2.4,7.2,4.2,10.5c1.8-3.3,3.2-6.9,4.2-10.5c1.1-4.1,1.6-8.3,1.6-12.5s-0.6-8.5-1.6-12.5C114.1,52.2,112.7,48.7,110.9,45.3"
			/>
	</defs>
	<clipPath id="SVGID_101_">
		<use xlink:href="#SVGID_100_"  style="overflow:visible;"/>
	</clipPath>
	
		<linearGradient id="SVGID_102_" gradientUnits="userSpaceOnUse" x1="-237.7435" y1="491.2025" x2="-236.8235" y2="491.2025" gradientTransform="matrix(-12.3529 0.1583 -0.5932 -46.2763 -2528.7971 22836.9707)">
		<stop  offset="0" style="stop-color:#B39656"/>
		<stop  offset="0.24" style="stop-color:#DEBF77"/>
		<stop  offset="0.5" style="stop-color:#FFF7B2"/>
		<stop  offset="0.68" style="stop-color:#E1C47C"/>
		<stop  offset="1" style="stop-color:#B39555"/>
	</linearGradient>
	<polygon class="st35" points="116.8,45.2 104.5,45.3 105.1,91.5 117.3,91.4 	"/>
</g>
<path class="st21" d="M25.4,42.3c0.2,0.3,0.4,0.7,0.6,1v0c6.9,11.9,8.3,25.5,5,37.9c-1.2,4.6-3.1,9-5.6,13.1v-3.1
	c1.8-3.3,3.2-6.8,4.1-10.4c3.1-11.5,1.9-24.2-4.1-35.5V42.3z"/>
<path class="st21" d="M110.8,42.3c-0.2,0.3-0.4,0.7-0.6,1v0c-6.9,11.9-8.3,25.5-5,37.9c1.2,4.6,3.1,9,5.6,13.1v-3.1
	c-1.8-3.3-3.2-6.8-4.1-10.4c-3.1-11.5-1.9-24.2,4.1-35.5V42.3z"/>
</svg>
