<?xml version="1.0" encoding="utf-8"?>
<!-- Generator: Adobe Illustrator 21.0.2, SVG Export Plug-In . SVG Version: 6.00 Build 0)  -->
<svg version="1.1" id="Isolation_Mode" xmlns="http://www.w3.org/2000/svg" xmlns:xlink="http://www.w3.org/1999/xlink" x="0px"
	 y="0px" width="77.1px" height="192.6px" viewBox="0 0 77.1 192.6" style="enable-background:new 0 0 77.1 192.6;"
	 xml:space="preserve">
<style type="text/css">
	.st0{fill:#A4412E;}
	.st1{fill:#FEA376;}
	.st2{fill:#FA9569;}
	.st3{fill:#FC3232;}
	.st4{fill:#FF4A43;}
	.st5{fill:#F52F30;}
	.st6{fill:#FFB288;}
	.st7{fill:#F98C6D;}
	.st8{fill:#FFD0BE;}
	.st9{fill:#F9A17B;}
	.st10{fill:#432C26;}
	.st11{fill:#FFFFFF;}
	.st12{fill:#FDA17C;}
	.st13{fill:#FDA276;}
	.st14{fill:#F9F0ED;}
	.st15{fill:#FC8C26;}
	.st16{fill:#FC9E22;}
	.st17{fill:#FACA5C;}
	.st18{fill:#E84651;}
	.st19{fill:#F28163;}
	.st20{fill:#C72240;}
	.st21{fill:#D32B45;}
	.st22{fill:#C02342;}
	.st23{fill:#EA5C70;}
	.st24{fill:#FFFEFD;}
</style>
<g>
	<path class="st0" d="M6.3,80.9c0,0,0.8,7.9-1.6,13.4s-4.7,11-4.7,11s21.2,11.8,40.1,10.2c18.9-1.6,37-11,37-11s-3.1-7.1-4.7-12.6
		c-1.6-5.5-2.4-11-2.4-11H6.3z"/>
	<g>
		<polygon class="st1" points="22.8,112.3 29.9,109.2 29.9,102.1 44.8,102.9 44.8,109.2 50.3,112.3 37,121 		"/>
		<path class="st2" d="M29.9,106.1c1.8,0.9,4.5,1.5,7.5,1.5c3,0,5.7-0.6,7.5-1.5v-3.2l-14.9-0.8V106.1z"/>
		<path class="st3" d="M23.6,128.8c0,0-12.5,9.9-17.3,18.9c-5.5,10.2-5.5,29.9-5.5,29.9l1.6,7.9c0,0,13.4,7.9,33,7.1
			c19.7-0.8,37-6.3,37-6.3l0.8-5.5c0,0,1.6-25.9-6.3-37c-7.9-11-16.5-14.2-16.5-14.2L23.6,128.8z"/>
		<path class="st4" d="M55.8,157.9c-1.8-8.4-7.3-22.3-9.8-28.4L29.6,129l-3.7,0.6c0,0-9.4,13.4-10.2,29.9
			c-0.5,10.1,1.7,23.2,3.4,31.8c4.7,0.9,10.1,1.5,16.2,1.3c6-0.2,11.8-0.9,16.9-1.7C54.6,179.9,57.3,164.7,55.8,157.9z"/>
		<path class="st5" d="M20.4,110.8l2.4,19.7c0,0,6.3,2.4,14.2,2.4s12.6-3.1,12.6-3.1l2.4-18.9l-15.7,7.1L20.4,110.8z"/>
		<polygon class="st4" points="21.2,115.5 22,121 12.6,141.4 4.7,135.1 		"/>
		<path class="st6" d="M7.1,136.7L3.1,143c0,0-0.8,1.6,0,0.8c0.8-0.8,2.4-2.4,2.4-2.4c0.8,0-1.6,3.1-1.6,3.1s0,0.8,0.8,0
			s1.6-2.4,1.6-2.4s0.8-0.8,0.8,0s-1.6,3.1-1.6,3.1s0,0.8,0.8,0s1.6-2.4,1.6-2.4s0.8,0,0,0.8c-0.8,0.8-1.6,3.1-1.6,3.1s0,0.8,0.8,0
			c0.8-0.8,2.4-4.7,2.4-4.7s0-1.6,0.8-0.8c0.8,0.8,1.6,1.6,1.6,0.8s-0.8-1.6-0.8-1.6l-0.8-1.6L7.1,136.7z"/>
		<polygon class="st4" points="50.8,115.5 50,121 59.4,141.4 67.3,135.1 		"/>
		<path class="st6" d="M64.9,136.7l3.9,6.3c0,0,0.8,1.6,0,0.8c-0.8-0.8-2.4-2.4-2.4-2.4c-0.8,0,1.6,3.1,1.6,3.1s0,0.8-0.8,0
			s-1.6-2.4-1.6-2.4s-0.8-0.8-0.8,0s1.6,3.1,1.6,3.1s0,0.8-0.8,0c-0.8-0.8-1.6-2.4-1.6-2.4s-0.8,0,0,0.8c0.8,0.8,1.6,3.1,1.6,3.1
			s0,0.8-0.8,0c-0.8-0.8-2.4-4.7-2.4-4.7s0-1.6-0.8-0.8c-0.8,0.8-1.6,1.6-1.6,0.8s0.8-1.6,0.8-1.6l0.8-1.6L64.9,136.7z"/>
	</g>
	<g>
		<g>
			<ellipse class="st6" cx="37.3" cy="69.1" rx="31.1" ry="34.6"/>
			<circle class="st6" cx="5.5" cy="77" r="5.5"/>
			<path class="st7" d="M5.5,73.8c-1.1,0-2,0.5-2.6,1.4c0.5-0.4,1.1-0.6,1.8-0.6c1.7,0,3.1,1.4,3.1,3.1c0,0.7-0.2,1.3-0.6,1.8
				C8.1,79,8.6,78,8.6,77C8.6,75.2,7.2,73.8,5.5,73.8z"/>
			<circle class="st6" cx="69.2" cy="77" r="5.5"/>
			<path class="st7" d="M69.8,73.8c1.1,0,2,0.5,2.6,1.4c-0.5-0.4-1.1-0.6-1.8-0.6c-1.7,0-3.1,1.4-3.1,3.1c0,0.7,0.2,1.3,0.6,1.8
				C67.1,79,66.6,78,66.6,77C66.6,75.2,68,73.8,69.8,73.8z"/>
			<path class="st7" d="M37,81.7c-1.6,0-2.9-0.4-3.1-2c0,0.1,0,0.3,0,0.4c0,1.7,1.4,3.1,3.1,3.1s3.1-1.4,3.1-3.1c0-0.1,0-0.3,0-0.4
				C39.9,81.3,38.6,81.7,37,81.7z"/>
			<g>
				<ellipse class="st8" cx="37" cy="78.1" rx="1.6" ry="1.2"/>
				<ellipse class="st9" cx="22" cy="81.3" rx="3.9" ry="2"/>
				<ellipse class="st9" cx="51.9" cy="81.3" rx="3.9" ry="2"/>
				<path class="st10" d="M22.4,69.9c-3.3,0-5.9,1.9-5.9,4.2c0,0.2,0,0.3,0,0.5c0.3-1.8,2.1-3.3,4.5-3.7c-0.4,0.7-0.6,1.7-0.6,2.9
					c0,2.2,0.9,3.9,2,3.9c1.1,0,2-1.8,2-3.9c0-1.1-0.2-2.2-0.6-2.9c2.4,0.4,4.2,1.9,4.5,3.7c0-0.2,0-0.3,0-0.5
					C28.3,71.8,25.7,69.9,22.4,69.9z"/>
				<path class="st10" d="M51.5,69.9c-3.3,0-5.9,1.9-5.9,4.2c0,0.2,0,0.3,0,0.5c0.3-1.8,2.1-3.3,4.5-3.7c-0.4,0.7-0.6,1.7-0.6,2.9
					c0,2.2,0.9,3.9,2,3.9s2-1.8,2-3.9c0-1.1-0.2-2.2-0.6-2.9c2.4,0.4,4.2,1.9,4.5,3.7c0-0.2,0-0.3,0-0.5
					C57.4,71.8,54.8,69.9,51.5,69.9z"/>
				<path class="st11" d="M32.2,87.2c0,0,2.7,0.6,4.7,0.6c2,0,4.7-0.6,4.7-0.6S41,91.5,37,91.5S32.2,87.2,32.2,87.2z"/>
				<path class="st12" d="M35.4,93.5c0,0,0.9,0.2,1.6,0.2s1.6-0.2,1.6-0.2S38.3,95,37,95C35.6,95,35.4,93.5,35.4,93.5z"/>
			</g>
			<path class="st13" d="M8.6,69.9c0,0,21.2,0.8,25.9-4.7s14.2-18.9,14.2-18.9s0.8,13.4,4.7,15.7c3.9,2.4,14.2,6.3,14.2,6.3
				L55.8,52.6l-9.4-13.4l-22,22L8.6,69.9z"/>
			<path class="st0" d="M5.5,71.3c0,0,1.6-0.8,2.4,0c0.8,0.8,0.8-2.5,0.8-2.5s17.3,0,24.4-5.1c7.1-5.1,14.9-19.5,15.7-19.5
				s1.6,0.8,1.6,1.7s0.8,11,4.7,14.4c3.9,3.4,12.6,7.6,12.6,7.6v3.4h3.1c0,0,2.4-16.1-5.5-26.2S52.7,29.9,37.7,30.7s-22,5.1-25.9,11
				S5.5,57.8,5.5,62C5.5,66.2,5.5,71.3,5.5,71.3z"/>
			<path class="st14" d="M6.6,83.8c0.1-0.3,0.2-0.6,0.2-0.9c0-1.1-0.9-2-2-2s-2,0.9-2,2c0,0.3,0.1,0.6,0.2,0.9
				c-0.9,0.6-1.4,1.5-1.4,2.6c0,1.7,1.4,3.1,3.1,3.1s3.1-1.4,3.1-3.1C8.1,85.3,7.5,84.3,6.6,83.8z"/>
			<path class="st14" d="M71.1,83.8c0.1-0.3,0.2-0.6,0.2-0.9c0-1.1-0.9-2-2-2s-2,0.9-2,2c0,0.3,0.1,0.6,0.2,0.9
				c-0.9,0.6-1.4,1.5-1.4,2.6c0,1.7,1.4,3.1,3.1,3.1s3.1-1.4,3.1-3.1C72.5,85.3,72,84.3,71.1,83.8z"/>
		</g>
		<g>
			<polygon class="st15" points="23.4,34.6 20.3,4.1 29.6,24.3 38.3,4.6 39.4,4.6 48.1,24.3 57.4,4.1 54.3,35.1 			"/>
			<polygon class="st16" points="23.4,34.6 21.2,12.5 29.6,28.9 38.3,12.9 39.4,12.9 48.1,28.9 55.8,14 54.3,35.1 39.4,33.5 			"/>
			<path class="st17" d="M22.9,35.8c0.5,0.8,2.6,0.8,2.6,0.8S30.1,35,38.3,35s14.4,1.7,14.4,1.7s1.5,0,1.5-0.8s-1-1.2-1-1.2
				s-8.8-2.1-14.9-2.1s-13.9,1.7-13.9,1.7S22.3,35,22.9,35.8z"/>
			<circle class="st15" cx="38.8" cy="3.6" r="2.1"/>
			<path class="st15" d="M38.9,3.6h-0.2c-0.5,0-1-0.4-1-1V1c0-0.5,0.4-1,1-1l0.2,0c0.5,0,1,0.4,1,1v1.7C39.9,3.2,39.4,3.6,38.9,3.6z
				"/>
			<circle class="st15" cx="20.5" cy="4.4" r="1.3"/>
			<circle class="st15" cx="57.7" cy="4.4" r="1.3"/>
			<polygon class="st16" points="38.8,11.4 38.3,12.9 39.4,12.9 			"/>
			<path class="st17" d="M23.4,29.9c0,0-1,0.5-0.5,1c0.5,0.5,1,0,1,0s6.2-2.1,14.4-2.1c8.8,0,16,2.6,16,2.6s0.5,0,0.5-0.5s-1-1-1-1
				s-9.3-2.1-14.9-2.1C31.6,27.9,23.4,29.9,23.4,29.9z"/>
			<polygon class="st18" points="36.3,24.8 38.3,26.8 40.4,26.8 42.5,24.8 42.5,22.2 40.4,20.1 37.8,20.1 36.3,22.2 			"/>
			<polygon class="st19" points="37.8,24.1 38.8,25.2 39.9,25.2 40.9,24.1 40.9,22.8 39.9,21.8 38.6,21.8 37.8,22.8 			"/>
			<polygon class="st20" points="36.3,24.8 37.8,24.3 37.8,22.7 36.3,22.2 			"/>
			<polygon class="st21" points="39.9,25.3 40.4,26.8 42.5,24.8 40.9,24.3 			"/>
			<polygon class="st22" points="42.5,22.2 40.9,22.7 40.9,24.3 42.5,24.8 			"/>
			<polygon class="st23" points="37.8,20.1 38.8,21.7 39.9,21.7 40.4,20.1 			"/>
			<path class="st24" d="M35.8,22.3c0,0,1.7,0,1.7-0.8s-0.8,0.8,0,0.8c0.8,0-0.8,0-0.8,0.8C36.6,24,37.5,22.3,35.8,22.3z"/>
		</g>
	</g>
</g>
</svg>
