<?xml version="1.0" encoding="utf-8"?>
<!-- Generator: Adobe Illustrator 21.0.2, SVG Export Plug-In . SVG Version: 6.00 Build 0)  -->
<svg version="1.1" id="Слой_1" xmlns="http://www.w3.org/2000/svg" xmlns:xlink="http://www.w3.org/1999/xlink" x="0px" y="0px"
	 width="870px" height="327.7px" viewBox="0 0 870 327.7" style="enable-background:new 0 0 870 327.7;" xml:space="preserve">
<style type="text/css">
	.st0{fill:#53A1BC;}
	.st1{fill:#AFA590;}
	.st2{fill:#D7CDB3;}
	.st3{fill:#FF9800;}
	.st4{fill:#E5DECF;}
	.st5{fill:#546E7A;}
	.st6{fill:#686B7A;}
	.st7{fill:#554051;}
	.st8{fill:#311A39;}
	.st9{fill:#FDE1C5;}
	.st10{fill:#CD414E;}
	.st11{fill:#392720;}
	.st12{fill:#EDA69D;}
	.st13{fill:#EDA2A2;}
	.st14{fill:#C51C36;}
	.st15{fill:#B06B37;}
	.st16{fill:#E5ABA1;}
	.st17{fill:#2E2126;}
	.st18{fill:#EFBFB9;}
	.st19{fill:#FFC03F;}
	.st20{fill:#D8A481;}
	.st21{fill:#6D9738;}
	.st22{fill:#08B4BC;}
	.st23{fill:#A87F62;}
	.st24{fill:#74AA41;}
	.st25{fill:#6F9B3A;}
	.st26{fill:#9E7553;}
	.st27{fill:#BF8A6F;}
	.st28{opacity:0.63;}
	.st29{fill:#84624C;}
	.st30{fill:#E2BB9A;}
	.st31{fill:#EDC9AE;}
	.st32{fill:#DBA682;}
	.st33{fill:#BE8C71;}
	.st34{fill:#805B41;}
	.st35{fill:#684432;}
	.st36{fill:#A27353;}
	.st37{fill:#B18765;}
	.st38{fill:#CC9872;}
	.st39{fill:#BE8665;}
	.st40{fill:#80A41C;}
	.st41{fill:#81841F;}
	.st42{fill:#AF750A;}
	.st43{fill:#92B257;}
	.st44{fill:#82B41C;}
	.st45{fill:#737B12;}
	.st46{fill:#A67863;}
	.st47{fill:#976A53;}
	.st48{fill:#B4866E;}
	.st49{fill:#DFAC94;}
	.st50{fill:#D29D87;}
	.st51{fill:#BC8B73;}
	.st52{fill:#DDAB92;}
	.st53{fill:#FEBFA2;}
	.st54{fill:#D29B84;}
	.st55{fill:#A9735C;}
	.st56{fill:#B68871;}
	.st57{fill:#A4562D;}
	.st58{fill:#9E684E;}
	.st59{fill:#C9A08F;}
	.st60{fill:#E07253;}
	.st61{fill:#AD472C;}
	.st62{fill:#FDE8B9;}
	.st63{fill:#CC6145;}
	.st64{fill:#E26D4C;}
	.st65{fill:#8F391F;}
	.st66{fill:#AF5542;}
	.st67{fill:#994D31;}
	.st68{fill:#A74E3B;}
	.st69{fill:#BA6254;}
	.st70{fill:#702513;}
	.st71{fill:#FAD8B4;}
	.st72{fill:#9E5D2D;}
	.st73{fill:#B5B4B1;}
	.st74{fill:none;stroke:#AB7E60;stroke-width:2;stroke-linecap:round;stroke-miterlimit:10;}
	.st75{fill:#FFFFFF;}
	.st76{fill:#EFF2F4;}
	.st77{fill:#E5E5E5;}
	.st78{fill:#0304F5;}
	.st79{fill:#078E0D;}
	.st80{font-family:'TimesNewRomanPSMT';}
	.st81{font-size:5.2498px;}
	.st82{fill:#C28C67;}
	.st83{fill:#D2A480;}
	.st84{fill:#252A58;}
	.st85{font-size:6.485px;}
	.st86{font-size:33.6573px;}
</style>
<path class="st0" d="M598.7,202.4v-4.9h-23.6v-6v-1.1v-0.9h1.7c0.1-1.8,1.5-2.6,2-2.8h-3.7c0,0,3.8,0,3.8,0v-0.9h0.2l-4.1-1.1v-5.9
	h-21.8l-4.9-1.3v-29.6c0-1.7,0.3-1.4,1.4-2.5c0.1-0.1,0.1-0.1,0.1-0.2h0.1v-1h-1.7v-4.1h-7.8v-11.4h1.6v-1.9h-2.2
	c0,0-0.4-15-10.9-23.8c-4.1-2.6-6.9-3.7-9-4.3h0.2v-6.1h-2.6V84h0.9v-2H517c0-0.2,0.1-0.5,0.1-0.8c0-2-1.4-3.7-3.3-4.1v-7.4h2.7V68
	h-2.7v-2.9H512V68h-3v1.8h3v7.4c-1.9,0.4-3.3,2.1-3.3,4.1c0,0.3,0,0.5,0.1,0.8h-1.4v2h0.9v8.4h-2.6v6.1h0.2c-2.1,0.6-4.8,1.7-9,4.3
	c-10.5,8.7-10.9,23.8-10.9,23.8h-2.2v1.9h1.6v11.4h-7.8v4.1h-1.7v1h0.1c0,0.1,0.1,0.1,0.2,0.2c1.1,1.2,1.4,0.9,1.4,2.5
	c0,0,0,29.5,0,29.5l-5.2,1.4h-21.8v5.9l-4.1,1.1l0,0.9h4.1c0,0-4.1,0-4.1,0s2.4,0.7,2.4,2.8h1.7v0.9v1.1v6h-25.2v4.9H421v1.3
	c0,0,0,0.6,0,0.6c0.5,0.4,1.1,1.1,1.1,2.1c0,0,0,4.6,0,4.6H422v6.3v40.7v54.7h179.9v-54.7v-40.7v-6.3h-0.1v-4.6c0-1,0.6-1.7,1.1-2.1
	v-0.5c0,0,0-1.3,0-1.3H598.7z M569.9,197.5c0,0,0,4.9,0,4.9C569.9,202.4,569.9,197.5,569.9,197.5z"/>
<g>
	<g>
		<polygon class="st1" points="398.8,186.8 411.8,169.2 424.7,186.8 		"/>
		<polygon class="st1" points="410.2,176.8 411.8,136.5 413.4,176.8 		"/>
	</g>
	<rect x="410.9" y="124.4" class="st1" width="1.8" height="32.8"/>
	<rect x="394.3" y="186.3" class="st2" width="34.9" height="86.8"/>
	<g>
		<path class="st1" d="M429.3,204.6c0,9.5-7.8,17.3-17.5,17.3c-9.7,0-17.5-7.7-17.5-17.3c0-9.5,7.8-17.2,17.5-17.2
			C421.5,187.4,429.3,195.1,429.3,204.6z"/>
		<rect x="394.3" y="205" class="st1" width="35" height="16"/>
	</g>
	<rect x="348.3" y="162" class="st2" width="4.7" height="112.8"/>
	<g>
		<rect x="355.5" y="99.8" class="st3" width="6" height="3.9"/>
		<polygon class="st3" points="355.5,99.8 358.5,94.5 361.5,99.8 		"/>
		<rect x="358" y="93.7" class="st3" width="1.1" height="2.7"/>
	</g>
	<rect x="353" y="107.2" class="st4" width="42" height="165.9"/>
	<rect x="360.3" y="113.2" class="st2" width="27.4" height="159.9"/>
	<g>
		<g>
			<path class="st5" d="M371.3,127.2c0,3.9-1.6,7-3.5,7c-1.9,0-3.5-3.2-3.5-7c0-3.9,1.6-7,3.5-7
				C369.7,120.2,371.3,123.3,371.3,127.2z"/>
			<rect x="364.3" y="127.3" class="st5" width="7" height="29.5"/>
		</g>
		<g>
			<path class="st5" d="M383.8,127.2c0,3.9-1.6,7-3.5,7c-1.9,0-3.5-3.2-3.5-7c0-3.9,1.6-7,3.5-7
				C382.2,120.2,383.8,123.3,383.8,127.2z"/>
			<rect x="376.8" y="127.3" class="st5" width="7" height="29.5"/>
		</g>
	</g>
	<g>
		<path class="st1" d="M387.8,261.2c0,0.1,0,0.2,0,0.4c-0.1,4.5-1.6,8.6-4,11.5h-19.4c-2.4-3-3.9-7-4-11.5c0-0.1,0-0.2,0-0.4
			c0-9.3,6.8-16.8,13.7-19.9C381.4,244.8,387.8,251.9,387.8,261.2z"/>
		<rect x="360.4" y="261.5" class="st1" width="27.4" height="11.5"/>
	</g>
	<g>
		<path class="st1" d="M387.7,204.4c0,0.1,0,0.2,0,0.3c-0.1,3.8-1.6,7.1-4,9.6h-19.3c-2.4-2.5-3.9-5.9-4-9.6c0-0.1,0-0.2,0-0.3
			c0-7.8,6.8-14,13.7-16.6C381.3,190.7,387.7,196.7,387.7,204.4z"/>
		<rect x="360.3" y="204.7" class="st1" width="27.3" height="12.9"/>
	</g>
	<g>
		<path class="st1" d="M429.3,259.3c0,0.2,0,0.3,0,0.4c-0.1,5.7-2,10.9-5.1,14.7h-24.7c-3.1-3.8-5-8.9-5.1-14.7c0-0.1,0-0.3,0-0.4
			c0-11.8,8.7-21.4,17.4-25.3C421.1,238.4,429.3,247.5,429.3,259.3z"/>
		<rect x="394.4" y="259.8" class="st1" width="34.9" height="14.7"/>
	</g>
	<rect x="348.3" y="158.4" class="st4" width="4.7" height="3"/>
	<rect x="353" y="102.2" class="st4" width="42" height="2.1"/>
	<rect x="389.3" y="103.3" class="st4" width="5.7" height="7.7"/>
	<rect x="353" y="103.3" class="st4" width="8.5" height="7.7"/>
	<g>
		<rect x="378.7" y="169.9" class="st6" width="1.6" height="9.3"/>
	</g>
	<g>
		<rect x="402.2" y="163.5" class="st2" width="1.6" height="22.7"/>
		<rect x="405.6" y="163.5" class="st2" width="1.6" height="22.7"/>
	</g>
	<g>
		<rect x="409.6" y="163.5" class="st2" width="1.6" height="22.7"/>
		<rect x="413.1" y="163.5" class="st2" width="1.6" height="22.7"/>
	</g>
	<g>
		<rect x="417.1" y="163.5" class="st2" width="1.6" height="22.7"/>
		<rect x="420.5" y="163.5" class="st2" width="1.6" height="22.7"/>
	</g>
	<g>
		<rect x="367.7" y="169.9" class="st6" width="1.6" height="9.3"/>
	</g>
	<g>
		<g>
			<ellipse class="st5" cx="368" cy="206.1" rx="2.8" ry="3.3"/>
			<rect x="365.2" y="206.2" class="st5" width="5.6" height="12.2"/>
		</g>
		<g>
			<ellipse class="st5" cx="380.1" cy="206.1" rx="2.8" ry="3.3"/>
			<rect x="377.3" y="206.2" class="st5" width="5.6" height="12.2"/>
		</g>
	</g>
	<circle class="st3" cx="374" cy="195.8" r="4.1"/>
	<circle class="st5" cx="411.8" cy="204.5" r="12.4"/>
	<polygon class="st4" points="348.3,159.4 348.3,155.3 349.2,155.3 350.2,157.5 350.2,159.8 	"/>
	<rect x="395.1" y="162" class="st2" width="4.7" height="27.4"/>
	<rect x="424.6" y="162" class="st2" width="4.7" height="27.4"/>
	<rect x="348.3" y="183.2" class="st1" width="102.1" height="3"/>
	<rect x="471.3" y="162" class="st2" width="4.7" height="112.4"/>
	<g>
		<rect x="462.8" y="99.8" class="st3" width="6" height="3.9"/>
		<polygon class="st3" points="468.8,99.8 465.8,94.5 462.8,99.8 		"/>
		<rect x="465.3" y="93.8" class="st3" width="1.1" height="2.7"/>
	</g>
	<rect x="429.3" y="107.2" class="st4" width="42" height="165.9"/>
	<rect x="436.6" y="113.2" class="st2" width="27.4" height="159.9"/>
	<g>
		<g>
			<path class="st5" d="M453.1,127.2c0,3.9,1.6,7,3.5,7c1.9,0,3.5-3.2,3.5-7c0-3.9-1.6-7-3.5-7C454.6,120.2,453.1,123.3,453.1,127.2
				z"/>
			<rect x="453.1" y="127.4" class="st5" width="7" height="29.5"/>
		</g>
		<g>
			<path class="st5" d="M440.5,127.2c0,3.9,1.6,7,3.5,7c1.9,0,3.5-3.2,3.5-7c0-3.9-1.6-7-3.5-7C442.1,120.2,440.5,123.3,440.5,127.2
				z"/>
			<rect x="440.5" y="127.4" class="st5" width="7" height="29.5"/>
		</g>
	</g>
	<g>
		<path class="st1" d="M436.5,261.2c0,0.1,0,0.2,0,0.4c0.1,4.5,1.6,8.6,4,11.5H460c2.4-3,3.9-7,4-11.5c0-0.1,0-0.2,0-0.4
			c0-9.3-6.8-16.8-13.7-19.9C443,244.8,436.5,251.9,436.5,261.2z"/>
		<rect x="436.5" y="261.6" class="st1" width="27.4" height="11.5"/>
	</g>
	<g>
		<path class="st1" d="M436.7,204.5c0,0.1,0,0.2,0,0.3c0.1,3.8,1.6,7.1,4,9.6H460c2.4-2.5,3.9-5.9,4-9.6c0-0.1,0-0.2,0-0.3
			c0-7.8-6.8-14-13.7-16.6C443.1,190.8,436.7,196.7,436.7,204.5z"/>
		<rect x="436.7" y="204.8" class="st1" width="27.3" height="12.9"/>
	</g>
	<g>
		<rect x="446.7" y="257.8" class="st5" width="7.1" height="15.6"/>
	</g>
	<g>
		<rect x="370.4" y="257.8" class="st5" width="7.1" height="15.6"/>
	</g>
	<g>
		<rect x="407.3" y="254.5" class="st5" width="8.9" height="19.4"/>
	</g>
	<rect x="428.1" y="155.4" class="st4" width="44.5" height="3"/>
	<rect x="471.3" y="158.4" class="st4" width="4.7" height="3"/>
	<rect x="429.3" y="102.3" class="st4" width="42" height="2.1"/>
	<rect x="429.3" y="103.3" class="st4" width="5.7" height="7.7"/>
	<rect x="462.8" y="103.3" class="st4" width="8.5" height="7.7"/>
	<g>
		<g>
			<rect x="444" y="169.9" class="st6" width="1.6" height="9.3"/>
		</g>
		<g>
			<rect x="455" y="169.9" class="st6" width="1.6" height="9.3"/>
		</g>
	</g>
	<g>
		<g>
			<ellipse class="st5" cx="456.3" cy="206.2" rx="2.8" ry="3.3"/>
			<rect x="453.5" y="206.2" class="st5" width="5.6" height="12.2"/>
		</g>
		<g>
			<ellipse class="st5" cx="444.2" cy="206.2" rx="2.8" ry="3.3"/>
			<rect x="441.4" y="206.2" class="st5" width="5.6" height="12.2"/>
		</g>
	</g>
	<rect x="429.3" y="158.4" class="st3" width="42.2" height="5.1"/>
	<circle class="st3" cx="450.3" cy="195.8" r="4.1"/>
	<polygon class="st4" points="476,159.5 476,155.4 475.1,155.4 474.1,157.5 474.1,159.8 	"/>
	<rect x="471.3" y="161.2" class="st1" width="4.7" height="5.1"/>
	<rect x="348.3" y="161.2" class="st1" width="4.7" height="5.1"/>
	<rect x="429.3" y="183.3" class="st1" width="46.7" height="3"/>
	<rect x="351.7" y="155.3" class="st4" width="86" height="3"/>
	<rect x="353.9" y="158.4" class="st3" width="81.5" height="5.1"/>
	<rect x="348.3" y="217.6" class="st4" width="127.7" height="3"/>
	<rect x="348.3" y="220.7" class="st1" width="127.7" height="11.9"/>
</g>
<g>
	<rect x="776.2" y="208.3" class="st0" width="70.1" height="63.8"/>
	<path class="st0" d="M789.2,199.6l-11.4,0.1v-2h-1.6v-14.5l1.6-2.5v-4.1h-1.9c-0.2-0.8-1-1.4-1.9-1.4c-0.9,0-1.6,0.6-1.9,1.4h-3
		c-0.2-0.8-1-1.4-1.9-1.4s-1.6,0.6-1.9,1.4h-1.1c0.1-0.5,0.2-1,0.4-1.4h1.4v-3h-3.9v-3.9c0.1-0.2,0.1-0.4,0.2-0.5
		c1.3-4.5-1.2-6-2.3-6.5c-0.4-2.1-1.1-4.1-2.4-5.5c-0.1-0.1-0.1-0.1-0.2-0.2c2.7-1.8,3.7-5.9,3.7-5.9c-0.1-0.7-4.4,5-4.9,4
		c0.5-0.3,0.9-0.8,0.9-1.4c0-0.9-0.7-1.6-1.6-1.6c-0.9,0-1.6,0.7-1.6,1.6c0,0,0,0.1,0,0.1c-0.7-0.7-1.8-2.1-3.3-4.7
		c-1.7-2.7-0.2,1.2-0.1,2c0.1,0.8,0.3,5,1,6.1c0.2,0.3,0.6,0.6,1,0.8c-0.8,1.4-1.6,3-2.2,4.8c-4.4,1.7-1.9,7.6-1.6,8.1v2.9h-2.4v0.1
		l-36.7-17.4c1-1.2,3-1.9-0.4-3.3c-1.8-0.7-3.5-1.1-5-1.4v-2.3c0-1.2-0.4-2.4-1-4c1.9-1.5,3-4.7,2.2-4.7c-0.5,0-1.8-0.2-3.1-0.3
		c0.3-0.2,0.6-0.5,0.6-0.9c0-0.6-0.5-1.1-1.1-1.1c-0.5,0-0.9,0.4-1,0.8c-0.2-0.6-0.4-1.1-0.6-1.5c0.3-0.3,0.5-0.9,0.8-2
		c0.7-2.4-1.4-3.4-0.7-2.3c0.6,0.8,0.2,1.7-0.1,2.1c-0.1-0.5-0.5-0.9-1-0.9c-0.6,0-1.1,0.5-1.1,1.1c0,0.1,0,0.2,0.1,0.3
		c-0.3-0.4-0.4-0.9-0.3-1.7c0.2-1.2,0.6-2.4-0.3-0.8c-0.8,1.9-0.1,3.2,0.6,3.9c-0.2,0.4-0.4,1-0.7,1.5c-0.2-0.4-0.5-0.6-1-0.6
		c-0.6,0-1.1,0.5-1.1,1.1c0,0.4,0.2,0.7,0.5,0.9c-1.4,0.2-2.6,0.4-2.8,1c-0.2,0.8,1.4,2.8,2,3.7c-0.8,2.1-1.5,4-1.6,4.4v2.5
		c-1.2,0.3-2.6,0.6-3.9,1.2c-3.5,1.3-1.4,2.1-0.4,3.3l-36.7,17.4v-0.1h-2.4v-2.9c0.3-0.4,2.8-6.4-1.6-8.1c-0.6-1.7-1.4-3.4-2.2-4.8
		c0.4-0.2,0.7-0.5,1-0.8c0.8-1.1,0.9-5.3,1-6.1c0.1-0.8,1.6-4.7-0.1-2c-1.4,2.6-2.5,4-3.3,4.7c0,0,0-0.1,0-0.1
		c0-0.9-0.7-1.6-1.6-1.6c-0.9,0-1.6,0.7-1.6,1.6c0,0.6,0.4,1.2,0.9,1.4c-0.5,1-4.9-4.7-4.9-4c0,0,1,4.1,3.7,5.9
		c-0.1,0.1-0.1,0.1-0.2,0.2c-1.3,1.4-2,3.5-2.4,5.5c-1.1,0.5-3.6,2-2.3,6.5c0.1,0.2,0.1,0.4,0.2,0.5v3.9h-3.9v3h1.4
		c0.2,0.4,0.3,0.9,0.4,1.4h-1.1c-0.2-0.8-1-1.4-1.9-1.4c-0.9,0-1.6,0.6-1.9,1.4h-3c-0.2-0.8-1-1.4-1.9-1.4c-0.9,0-1.6,0.6-1.9,1.4
		h-1.9v4.1l1.6,2.5v14.5h-1.9v2l-11.2-0.1c-3.9,2.9-3.5,7.1-3.5,7.1v2.2h1.5v34.5h-0.1v2.7h0.1v27.3h183.1V246h0.1v-2.7h-0.1v-34.5
		h1.5v-2.2C792.6,206.6,793,202.5,789.2,199.6z"/>
</g>
<g>
	<g>
		
			<rect x="577" y="216.7" transform="matrix(-1 -4.485136e-11 4.485136e-11 -1 1259 491.3262)" class="st7" width="105" height="58"/>
		
			<rect x="577" y="214.7" transform="matrix(-1 -4.485136e-11 4.485136e-11 -1 1259 432.3262)" class="st8" width="105" height="3"/>
		
			<rect x="577" y="224.7" transform="matrix(-1 -4.485136e-11 4.485136e-11 -1 1259 452.3262)" class="st9" width="105" height="3"/>
		
			<rect x="577" y="236.7" transform="matrix(-1 -4.485136e-11 4.485136e-11 -1 1259 476.3262)" class="st10" width="105" height="3"/>
		<line class="st11" x1="577" y1="241.7" x2="682" y2="241.7"/>
		
			<rect x="577" y="234.7" transform="matrix(-1 -4.485136e-11 4.485136e-11 -1 1259 472.3262)" class="st12" width="105" height="3"/>
		
			<rect x="577" y="227.7" transform="matrix(-1 -4.485136e-11 4.485136e-11 -1 1259 462.3262)" class="st13" width="105" height="7"/>
		
			<rect x="577" y="222.7" transform="matrix(-1 -4.485136e-11 4.485136e-11 -1 1259 446.3262)" class="st8" width="105" height="1"/>
		<rect x="678" y="227.7" transform="matrix(-1 -4.365587e-11 4.365587e-11 -1 1359 462.3262)" class="st14" width="3" height="7"/>
		<rect x="674" y="227.7" transform="matrix(-1 -4.365587e-11 4.365587e-11 -1 1351 462.3262)" class="st14" width="3" height="7"/>
		<rect x="670" y="227.7" transform="matrix(-1 -4.668766e-11 4.668766e-11 -1 1343 462.3262)" class="st14" width="3" height="7"/>
		<rect x="666" y="227.7" transform="matrix(-1 -4.668766e-11 4.668766e-11 -1 1335 462.3262)" class="st14" width="3" height="7"/>
		<rect x="662" y="227.7" transform="matrix(-1 -4.668766e-11 4.668766e-11 -1 1327 462.3262)" class="st14" width="3" height="7"/>
		<rect x="658" y="227.7" transform="matrix(-1 -4.668766e-11 4.668766e-11 -1 1319 462.3262)" class="st14" width="3" height="7"/>
		<rect x="654" y="227.7" transform="matrix(-1 -4.668766e-11 4.668766e-11 -1 1311 462.3262)" class="st14" width="3" height="7"/>
		<rect x="650" y="227.7" transform="matrix(-1 -4.668766e-11 4.668766e-11 -1 1303 462.3262)" class="st14" width="3" height="7"/>
		<rect x="646" y="227.7" transform="matrix(-1 -4.608104e-11 4.608104e-11 -1 1295 462.3262)" class="st14" width="3" height="7"/>
		<rect x="642" y="227.7" transform="matrix(-1 -4.729385e-11 4.729385e-11 -1 1287 462.3262)" class="st14" width="3" height="7"/>
		<rect x="638" y="227.7" transform="matrix(-1 -4.608104e-11 4.608104e-11 -1 1279 462.3262)" class="st14" width="3" height="7"/>
		<rect x="634" y="227.7" transform="matrix(-1 -4.668766e-11 4.668766e-11 -1 1271 462.3262)" class="st14" width="3" height="7"/>
		<rect x="630" y="227.7" transform="matrix(-1 -4.668766e-11 4.668766e-11 -1 1263 462.3262)" class="st14" width="3" height="7"/>
		<rect x="626" y="227.7" transform="matrix(-1 -4.365587e-11 4.365587e-11 -1 1255 462.3262)" class="st14" width="3" height="7"/>
		<rect x="622" y="227.7" transform="matrix(-1 -4.365587e-11 4.365587e-11 -1 1247 462.3262)" class="st14" width="3" height="7"/>
		<rect x="618" y="227.7" transform="matrix(-1 -4.365587e-11 4.365587e-11 -1 1239 462.3262)" class="st14" width="3" height="7"/>
		<rect x="614" y="227.7" transform="matrix(-1 -4.365587e-11 4.365587e-11 -1 1231 462.3262)" class="st14" width="3" height="7"/>
		<rect x="610" y="227.7" transform="matrix(-1 -4.365587e-11 4.365587e-11 -1 1223 462.3262)" class="st14" width="3" height="7"/>
		<rect x="606" y="227.7" transform="matrix(-1 -4.365587e-11 4.365587e-11 -1 1215 462.3262)" class="st14" width="3" height="7"/>
		<rect x="602" y="227.7" transform="matrix(-1 -4.365587e-11 4.365587e-11 -1 1207 462.3262)" class="st14" width="3" height="7"/>
		<rect x="598" y="227.7" transform="matrix(-1 -4.304969e-11 4.304969e-11 -1 1199 462.3262)" class="st14" width="3" height="7"/>
		<rect x="594" y="227.7" transform="matrix(-1 -4.365587e-11 4.365587e-11 -1 1191 462.3262)" class="st14" width="3" height="7"/>
		<rect x="590" y="227.7" transform="matrix(-1 -4.304969e-11 4.304969e-11 -1 1183 462.3262)" class="st14" width="3" height="7"/>
		<rect x="586" y="227.7" transform="matrix(-1 -4.304969e-11 4.304969e-11 -1 1175 462.3262)" class="st14" width="3" height="7"/>
		<rect x="582" y="227.7" transform="matrix(-1 -4.668766e-11 4.668766e-11 -1 1167 462.3262)" class="st14" width="3" height="7"/>
		<rect x="578" y="227.7" transform="matrix(-1 -4.668766e-11 4.668766e-11 -1 1159 462.3262)" class="st14" width="3" height="7"/>
		
			<rect x="671.8" y="242.7" transform="matrix(-1 -4.500679e-11 4.500679e-11 -1 1351.7551 501.3262)" class="st15" width="8.2" height="16"/>
		
			<rect x="661.4" y="242.7" transform="matrix(-1 -4.500679e-11 4.500679e-11 -1 1331.1428 501.3262)" class="st15" width="8.2" height="16"/>
		
			<rect x="651.1" y="242.7" transform="matrix(-1 -4.478607e-11 4.478607e-11 -1 1310.5306 501.3262)" class="st15" width="8.2" height="16"/>
		
			<rect x="640.8" y="242.7" transform="matrix(-1 -4.478607e-11 4.478607e-11 -1 1289.9183 501.3262)" class="st15" width="8.2" height="16"/>
		
			<rect x="630.5" y="242.7" transform="matrix(-1 -4.500679e-11 4.500679e-11 -1 1269.3062 501.3262)" class="st15" width="8.2" height="16"/>
		
			<rect x="620.2" y="242.7" transform="matrix(-1 -4.500679e-11 4.500679e-11 -1 1248.6938 501.3262)" class="st15" width="8.2" height="16"/>
		
			<rect x="609.9" y="242.7" transform="matrix(-1 -4.478607e-11 4.478607e-11 -1 1228.0817 501.3262)" class="st15" width="8.2" height="16"/>
		
			<rect x="599.6" y="242.7" transform="matrix(-1 -4.478607e-11 4.478607e-11 -1 1207.4694 501.3262)" class="st15" width="8.2" height="16"/>
		
			<rect x="589.3" y="242.7" transform="matrix(-1 -4.478607e-11 4.478607e-11 -1 1186.8572 501.3262)" class="st15" width="8.2" height="16"/>
		
			<rect x="579" y="242.7" transform="matrix(-1 -4.610990e-11 4.610990e-11 -1 1166.2449 501.3262)" class="st15" width="8.2" height="16"/>
		
			<rect x="676" y="261.7" transform="matrix(-1 -4.502011e-11 4.502011e-11 -1 1356 534.3262)" class="st16" width="4" height="11"/>
		
			<rect x="670" y="261.7" transform="matrix(-1 -4.502011e-11 4.502011e-11 -1 1344 534.3262)" class="st17" width="4" height="11"/>
		<rect x="673" y="262.7" transform="matrix(-1 -4.274637e-11 4.274637e-11 -1 1350 530.3262)" class="st18" width="4" height="5"/>
		<rect x="668" y="261.7" transform="matrix(-1 -4.668722e-11 4.668722e-11 -1 1339 530.3262)" class="st18" width="3" height="7"/>
		
			<rect x="662" y="261.7" transform="matrix(-1 -4.502011e-11 4.502011e-11 -1 1328 534.3262)" class="st16" width="4" height="11"/>
		
			<rect x="656" y="261.7" transform="matrix(-1 -4.502011e-11 4.502011e-11 -1 1316 534.3262)" class="st17" width="4" height="11"/>
		<rect x="659" y="262.7" transform="matrix(-1 -4.502011e-11 4.502011e-11 -1 1322 530.3262)" class="st18" width="4" height="5"/>
		<rect x="654" y="261.7" transform="matrix(-1 -4.668722e-11 4.668722e-11 -1 1311 530.3262)" class="st18" width="3" height="7"/>
		
			<rect x="648" y="261.7" transform="matrix(-1 -4.502011e-11 4.502011e-11 -1 1300 534.3262)" class="st16" width="4" height="11"/>
		
			<rect x="642" y="261.7" transform="matrix(-1 -4.547486e-11 4.547486e-11 -1 1288 534.3262)" class="st17" width="4" height="11"/>
		<rect x="645" y="262.7" transform="matrix(-1 -4.456536e-11 4.456536e-11 -1 1294 530.3262)" class="st18" width="4" height="5"/>
		<rect x="640" y="261.7" transform="matrix(-1 -4.668722e-11 4.668722e-11 -1 1283 530.3262)" class="st18" width="3" height="7"/>
		
			<rect x="632" y="261.7" transform="matrix(-1 -4.229163e-11 4.229163e-11 -1 1268 534.3262)" class="st16" width="4" height="11"/>
		
			<rect x="626" y="261.7" transform="matrix(-1 -4.274637e-11 4.274637e-11 -1 1256 534.3262)" class="st17" width="4" height="11"/>
		<rect x="629" y="262.7" transform="matrix(-1 -4.502011e-11 4.502011e-11 -1 1262 530.3262)" class="st18" width="4" height="5"/>
		<rect x="624" y="261.7" transform="matrix(-1 -4.304924e-11 4.304924e-11 -1 1251 530.3262)" class="st18" width="3" height="7"/>
		
			<rect x="616" y="261.7" transform="matrix(-1 -4.502011e-11 4.502011e-11 -1 1236 534.3262)" class="st16" width="4" height="11"/>
		
			<rect x="610" y="261.7" transform="matrix(-1 -4.502011e-11 4.502011e-11 -1 1224 534.3262)" class="st17" width="4" height="11"/>
		<rect x="613" y="262.7" transform="matrix(-1 -4.502011e-11 4.502011e-11 -1 1230 530.3262)" class="st18" width="4" height="5"/>
		<rect x="608" y="261.7" transform="matrix(-1 -4.304924e-11 4.304924e-11 -1 1219 530.3262)" class="st18" width="3" height="7"/>
		
			<rect x="600" y="261.7" transform="matrix(-1 -4.502011e-11 4.502011e-11 -1 1204 534.3262)" class="st16" width="4" height="11"/>
		
			<rect x="594" y="261.7" transform="matrix(-1 -4.547486e-11 4.547486e-11 -1 1192 534.3262)" class="st17" width="4" height="11"/>
		<rect x="597" y="262.7" transform="matrix(-1 -4.502011e-11 4.502011e-11 -1 1198 530.3262)" class="st18" width="4" height="5"/>
		<rect x="592" y="261.7" transform="matrix(-1 -4.304924e-11 4.304924e-11 -1 1187 530.3262)" class="st18" width="3" height="7"/>
		
			<rect x="586" y="261.7" transform="matrix(-1 -4.502011e-11 4.502011e-11 -1 1176 534.3262)" class="st16" width="4" height="11"/>
		
			<rect x="580" y="261.7" transform="matrix(-1 -4.502011e-11 4.502011e-11 -1 1164 534.3262)" class="st17" width="4" height="11"/>
		<rect x="583" y="262.7" transform="matrix(-1 -4.502011e-11 4.502011e-11 -1 1170 530.3262)" class="st18" width="4" height="5"/>
		<rect x="578" y="261.7" transform="matrix(-1 -4.668722e-11 4.668722e-11 -1 1159 530.3262)" class="st18" width="3" height="7"/>
		<circle class="st19" cx="655" cy="248.7" r="4"/>
	</g>
	<g>
		<rect x="71" y="277.3" class="st20" width="789" height="50.3"/>
	</g>
	<path class="st21" d="M226.3,233.5c-1.3-2.2-2.1-4.8-2.1-7.6c0-8.1,6.6-14.7,14.7-14.7c5.9,0,11,3.5,13.3,8.5
		c2.9-5.1,8.4-8.5,14.7-8.5c1.1,0,2.2,0.1,3.2,0.3c0.4-12.5,8.7-22.4,18.9-22.4c10.4,0,18.9,10.5,18.9,23.5c0,5.2-1.4,10-3.7,13.9
		v48.2h-72.8v0c-0.3,0-0.6,0-0.9,0c-15.3,0-27.6-9.3-27.6-20.7C203,243.6,213.1,235,226.3,233.5z"/>
	<path class="st21" d="M851.2,248.3c1-1.6,1.5-3.4,1.5-5.4c0-5.8-4.7-10.5-10.5-10.5c-4.2,0-7.8,2.5-9.5,6.1
		c-2.1-3.6-6-6.1-10.5-6.1c-0.8,0-1.6,0.1-2.3,0.2c-0.3-8.9-6.2-16-13.4-16c-7.4,0-13.4,7.5-13.4,16.7c0,3.7,1,7.1,2.6,9.9v34.4
		h51.8v0c0.2,0,0.4,0,0.7,0c10.9,0,19.7-6.6,19.7-14.8C867.8,255.5,860.6,249.4,851.2,248.3z"/>
	<g>
		<g>
			<path class="st22" d="M826.5,234.3l1.5,7.6l-14.2-0.9l-1.8-1.2c0,0,2.9-1.3,2.9-5.1c0-0.1,0-0.2,0-0.3H826.5z"/>
			<path class="st22" d="M822,234.3l-1.5,7.6l14.2-0.9l1.8-1.2c0,0-2.9-1.3-2.9-5.1c0-0.1,0-0.2,0-0.3H822z"/>
		</g>
		<g>
			<path class="st2" d="M812.4,251.6c0,0-0.3-1.6,1.4-1.6c1.7,0,15.2-0.9,15.2-0.9l-0.8,4.3L812.4,251.6z"/>
			<path class="st2" d="M836.1,251.6c0,0,0.3-1.6-1.4-1.6c-1.7,0-15.2-0.9-15.2-0.9l0.8,4.3L836.1,251.6z"/>
		</g>
		<g>
			<path class="st22" d="M840.5,260.5c0,0,0.1-0.6-0.8-1.2c-0.9-0.6-24.1,0-24.1,0l1.1,1.7L840.5,260.5z"/>
			<path class="st22" d="M815.7,256c0,0,23.2,0.6,24.1,0c0.9-0.6,0.8-1.2,0.8-1.2h-24.1L815.7,256z"/>
			<rect x="820.3" y="255.8" class="st22" width="19.4" height="3.8"/>
			<path class="st22" d="M807.9,260.5c0,0-0.1-0.6,0.8-1.2c0.9-0.6,24.1,0,24.1,0l-1.1,1.7L807.9,260.5z"/>
			<path class="st22" d="M832.8,256c0,0-23.2,0.6-24.1,0c-0.9-0.6-0.8-1.2-0.8-1.2H832L832.8,256z"/>
			<rect x="808.7" y="255.8" class="st22" width="19.4" height="3.8"/>
		</g>
		<rect x="799.3" y="265.5" class="st4" width="49.8" height="6.7"/>
		<rect x="798.5" y="263" class="st4" width="51.5" height="2.5"/>
		<rect x="807.5" y="260.5" class="st2" width="33.5" height="2.5"/>
		<rect x="812.4" y="251.6" class="st5" width="23.7" height="3.3"/>
		<rect x="813.7" y="241" class="st5" width="21" height="9"/>
		<g>
			<path class="st22" d="M817.3,234.5c0,0,1.9-2.1,2-3.6c0.1-1.6,0.5-62.4,0.5-62.4l5-0.7v66.7H817.3z"/>
			<path class="st22" d="M831.1,234.5c0,0-1.9-2.1-2-3.6c-0.1-1.6-0.5-62.4-0.5-62.4l-5-0.7v66.7H831.1z"/>
		</g>
		<g>
			<path class="st2" d="M824.5,168.5h-4.7l-0.8-1.1v-1.3c-0.1-2.6-1.1-2.5-3-2.6c0.2-1.2-1-2.9-1-2.9l0.6-0.1h8.5L824.5,168.5z"/>
			<path class="st2" d="M824,168.5h4.7l0.8-1.1v-1.3c0.1-2.6,1.1-2.5,3-2.6c-0.2-1.2,1-2.9,1-2.9l-0.6-0.1h-8.5L824,168.5z"/>
		</g>
		<g>
			<path class="st22" d="M833.4,157.9c0,0-7.1,0.2-9.3-1.4c-2,1.8-9,1.4-9,1.4v2.7h18.3V157.9z"/>
			<rect x="820.7" y="154.5" class="st22" width="6.8" height="5.2"/>
			<path class="st22" d="M820.7,155.2c0,0-1.4-0.8,0.3-1.8c1.7-1,3.1-2,3.1-2l1,3.8H820.7z"/>
			<path class="st22" d="M827.5,155.2c0,0,1.4-0.8-0.3-1.8s-3.1-2-3.1-2l-1,3.8H827.5z"/>
			<rect x="822.4" y="151.2" class="st22" width="3.3" height="1.8"/>
		</g>
		<g>
			<circle class="st3" cx="824" cy="149.7" r="2.2"/>
			<path class="st3" d="M818.9,134.1c0,0-0.4,0.5,0.3,0.6c0.6,0.1,1.1,0.8,1.8,1.2c0.7,0.4,0.5,0.6,0.5,0.6s-0.6,0.6,0.3,2.3
				c0.9,1.7,0.5,2.2,0.7,3.7c0.2,1.5,1.6,2.5,1.5,4.2c0,0.2-0.3,0.8-0.6,0.9c0,0.8,1.3,0.6,1.5,0.1c-0.2-0.2-0.2-0.6-0.2-0.8
				c0.1-0.8-0.2-1.2-0.3-1.6c-0.4-1.7-0.8-1.8-0.8-2.3c0-0.5,0.2-2,0.2-2s1.1,0.8,1.7,1.3c0.6,0.5,0.7,0.6,1.3,0.2
				c0.6-0.4,1.2-0.6,1.6-0.4c0.4,0.2,1.7,0.4,0.8-0.4c-0.8-0.8-1.5-0.6-1.5-0.6s0,0.1-0.3,0.2c-0.3,0.1-0.8-0.2-1.3,0.2
				c-0.3-0.3-0.7-0.9-1.2-1.2c0,0,0-1.2-1.3-1.6c-0.2-0.4-0.3-1.2-0.3-1.2s1.3-0.3,1.6-1.2c0.3-0.9,0.9-2.7,2-3.6
				c1.1-0.9,1.3-1.2,1.2-1.4c-0.1-0.3-2.1,0.5-3.2,1.3c-0.6,0.6-0.5,0.1-0.6-0.2c0,0-0.3-1.1-0.7-1.3c-0.3-0.3-0.1,0.6-0.3,0.8
				c-0.2,0.3-1.1,2-1.1,2.2c-0.1,0.2-0.6-0.5-0.2-1.1c0.3-0.6,0.6-0.8,0.2-0.9c-0.4-0.1-0.9,0-0.8,1.4c0.1,1.4-0.7,0.2-1,0.1
				C820.1,133.5,819.2,133.7,818.9,134.1z"/>
		</g>
		<rect x="822.4" y="151.2" class="st22" width="3.3" height="1.8"/>
		<g>
			<circle class="st5" cx="811.4" cy="257.5" r="1.1"/>
			<circle class="st5" cx="815.7" cy="257.5" r="1.1"/>
			<circle class="st5" cx="819.9" cy="257.5" r="1.1"/>
			<circle class="st5" cx="824.2" cy="257.5" r="1.1"/>
			<circle class="st5" cx="828.5" cy="257.5" r="1.1"/>
			<circle class="st5" cx="832.8" cy="257.5" r="1.1"/>
			<circle class="st5" cx="837.1" cy="257.5" r="1.1"/>
		</g>
	</g>
	<g>
		<rect x="78" y="277.7" class="st23" width="782" height="6"/>
	</g>
	<g>
		<ellipse class="st24" cx="216.5" cy="253.6" rx="13.5" ry="13.2"/>
		<path class="st25" d="M216.5,240.4c0.1,0,0.2,0,0.3,0v26.3c-0.1,0-0.2,0-0.3,0c-7.5,0-13.5-5.9-13.5-13.2S209,240.4,216.5,240.4z"
			/>
		
			<rect x="215.5" y="257.7" transform="matrix(-1 -4.663704e-11 4.663704e-11 -1 433.6923 531.4031)" class="st26" width="2.8" height="15.9"/>
	</g>
	<g>
		<ellipse class="st24" cx="238.5" cy="244.7" rx="19.5" ry="19"/>
		<path class="st25" d="M238.5,225.7c0.2,0,0.3,0,0.5,0v38c-0.2,0-0.3,0-0.5,0c-10.8,0-19.5-8.5-19.5-19S227.7,225.7,238.5,225.7z"
			/>
		<rect x="237" y="250.7" transform="matrix(-1 -4.502011e-11 4.502011e-11 -1 478 524.3262)" class="st26" width="4" height="23"/>
	</g>
	<g>
		<rect x="71" y="271.8" class="st27" width="789" height="6.6"/>
	</g>
	<g>
		<g class="st28">
			<rect x="170" y="271.7" class="st29" width="23" height="7"/>
		</g>
		<g class="st28">
			<rect x="166" y="278.7" class="st29" width="29" height="49"/>
		</g>
		<g>
			
				<rect x="173" y="247.7" transform="matrix(-1 -4.497881e-11 4.497881e-11 -1 368 528.3262)" class="st30" width="22" height="33"/>
			
				<rect x="190" y="247.7" transform="matrix(-1 -4.583857e-11 4.583857e-11 -1 385 528.3262)" class="st31" width="5" height="33"/>
			
				<rect x="172" y="247.7" transform="matrix(-1 -4.583857e-11 4.583857e-11 -1 349 528.3262)" class="st32" width="5" height="33"/>
			<g>
				<rect x="180" y="257.7" class="st33" width="7" height="10"/>
			</g>
			<circle class="st33" cx="183.5" cy="258.2" r="3.5"/>
			<g>
				<polygon class="st34" points="195,246.7 183,246.7 183,231.7 				"/>
				<polygon class="st35" points="171,246.7 183,246.7 183,231.7 				"/>
				
					<rect x="170" y="244.7" transform="matrix(-1 -4.498503e-11 4.498503e-11 -1 366 492.3262)" class="st36" width="26" height="3"/>
			</g>
			<g>
				<rect x="172" y="278.7" class="st37" width="23" height="2"/>
			</g>
			
				<rect x="184" y="280.7" transform="matrix(-1 -4.490642e-11 4.490642e-11 -1 384 608.3262)" class="st38" width="16" height="47"/>
			
				<rect x="168" y="280.7" transform="matrix(-1 -4.502011e-11 4.502011e-11 -1 352 608.3262)" class="st39" width="16" height="47"/>
		</g>
	</g>
	<g>
		<g class="st28">
			<rect x="66" y="270.7" class="st29" width="23" height="8"/>
		</g>
		<g class="st28">
			<rect x="64" y="278.7" class="st29" width="29" height="49"/>
		</g>
		<g>
			
				<rect x="64" y="212.7" transform="matrix(-1 -4.506141e-11 4.506141e-11 -1 150 491.3262)" class="st30" width="22" height="66"/>
			<rect x="81" y="212.7" transform="matrix(-1 -4.401958e-11 4.401958e-11 -1 167 491.3262)" class="st31" width="5" height="66"/>
			<rect x="63" y="212.7" transform="matrix(-1 -4.401958e-11 4.401958e-11 -1 131 491.3262)" class="st32" width="5" height="66"/>
			<path class="st33" d="M71.1,222.7c0.2-1.7,1.7-3,3.4-3s3.2,1.3,3.4,3H78v10h-7L71.1,222.7L71.1,222.7z"/>
			<g>
				<polygon class="st34" points="86,211.7 74,211.7 74,196.7 				"/>
				<polygon class="st35" points="62,211.7 74,211.7 74,196.7 				"/>
				
					<rect x="61" y="209.7" transform="matrix(-1 -4.498503e-11 4.498503e-11 -1 148 422.3262)" class="st36" width="26" height="3"/>
			</g>
			<g>
				<rect x="63" y="278.7" class="st37" width="23" height="2"/>
			</g>
			
				<rect x="75" y="280.7" transform="matrix(-1 -4.502011e-11 4.502011e-11 -1 166 608.3262)" class="st38" width="16" height="47"/>
			
				<rect x="59" y="280.7" transform="matrix(-1 -4.502011e-11 4.502011e-11 -1 134 608.3262)" class="st39" width="16" height="47"/>
		</g>
	</g>
	<path class="st19" d="M204,35.7"/>
	<g>
		<path class="st40" d="M689,265.7c0,0,5-2,5-5s-2-34-3-39s-2-18-3-19s-2-1-2-1v64H689z"/>
		<path class="st41" d="M683,265.7c0,0-5-2-5-5s2-34,3-39s2-18,3-19s2-1,2-1v64H683z"/>
		<rect x="684" y="265.7" transform="matrix(-1 -4.456536e-11 4.456536e-11 -1 1372 537.3262)" class="st42" width="4" height="6"/>
		
			<rect x="683" y="270.7" transform="matrix(-1 -4.486867e-11 4.486867e-11 -1 1372 544.0762)" class="st43" width="6" height="2.8"/>
		<circle class="st44" cx="686.5" cy="220.2" r="1.5"/>
		<circle class="st44" cx="688.5" cy="214.2" r="1.5"/>
		<circle class="st44" cx="688.5" cy="224.2" r="1.5"/>
		<circle class="st44" cx="686.5" cy="230.2" r="1.5"/>
		<circle class="st44" cx="690.5" cy="236.2" r="1.5"/>
		<circle class="st44" cx="688.5" cy="208.2" r="1.5"/>
		<circle class="st44" cx="688.5" cy="252.2" r="1.5"/>
		<circle class="st44" cx="692.5" cy="248.2" r="1.5"/>
		<circle class="st44" cx="688.5" cy="242.2" r="1.5"/>
		<circle class="st44" cx="688.5" cy="258.2" r="1.5"/>
		<circle class="st45" cx="680.5" cy="256.2" r="1.5"/>
		<circle class="st45" cx="682.5" cy="250.2" r="1.5"/>
		<circle class="st45" cx="684.5" cy="242.2" r="1.5"/>
		<circle class="st45" cx="682.5" cy="236.2" r="1.5"/>
		<circle class="st45" cx="684.5" cy="226.2" r="1.5"/>
	</g>
	<g>
		<path class="st40" d="M673.6,268.1c0,0,3.4-1.4,3.4-3.4s-1.4-23.4-2.1-26.8s-1.4-12.4-2.1-13.1s-1.4-0.7-1.4-0.7v44H673.6z"/>
		<path class="st41" d="M669.4,268.1c0,0-3.4-1.4-3.4-3.4s1.4-23.4,2.1-26.8s1.4-12.4,2.1-13.1s1.4-0.7,1.4-0.7v44H669.4z"/>
		
			<rect x="670.1" y="268.1" transform="matrix(-1 -4.365587e-11 4.365587e-11 -1 1343 540.2949)" class="st42" width="2.8" height="4.1"/>
		
			<rect x="669.4" y="271.5" transform="matrix(-1 -4.365587e-11 4.365587e-11 -1 1343 544.9355)" class="st43" width="4.1" height="1.9"/>
		<circle class="st44" cx="671.8" cy="236.8" r="1"/>
		<circle class="st44" cx="673.2" cy="232.7" r="1"/>
		<circle class="st44" cx="673.2" cy="239.6" r="1"/>
		<circle class="st44" cx="671.8" cy="243.7" r="1"/>
		<circle class="st44" cx="674.6" cy="247.8" r="1"/>
		<circle class="st44" cx="673.2" cy="228.6" r="1"/>
		<circle class="st44" cx="673.2" cy="258.8" r="1"/>
		<circle class="st44" cx="676" cy="256.1" r="1"/>
		<circle class="st44" cx="673.2" cy="251.9" r="1"/>
		<circle class="st44" cx="673.2" cy="262.9" r="1"/>
		<circle class="st45" cx="667.7" cy="261.6" r="1"/>
		<circle class="st45" cx="669.1" cy="257.4" r="1"/>
		<circle class="st45" cx="670.5" cy="251.9" r="1"/>
		<circle class="st45" cx="669.1" cy="247.8" r="1"/>
		<circle class="st45" cx="670.5" cy="240.9" r="1"/>
	</g>
	<g>
		<g>
			<polygon class="st46" points="771,234.7 717,234.7 721,218.7 771,218.7 			"/>
			<path class="st47" d="M716.8,236.7h52.4c0.4,0,0.8-0.3,0.8-0.8v-0.4c0-0.4-0.3-0.8-0.8-0.8h-52.4c-0.4,0-0.8,0.3-0.8,0.8v0.4
				C716,236.3,716.3,236.7,716.8,236.7z"/>
			
				<rect x="720" y="220.7" transform="matrix(-1 -4.480117e-11 4.480117e-11 -1 1494 443.3262)" class="st48" width="54" height="2"/>
		</g>
		
			<rect x="717" y="236.7" transform="matrix(-1 -4.489443e-11 4.489443e-11 -1 1481 509.3262)" class="st49" width="47" height="36"/>
		<path class="st50" d="M742,250.7c0.3-2.8,2.6-5,5.5-5s5.2,2.2,5.5,5h0v17h-11L742,250.7L742,250.7z"/>
		<path class="st51" d="M751,252.7L751,252.7c-0.3-2.8-2.6-5-5.5-5c-1,0-1.9,0.3-2.7,0.7c1-1.6,2.7-2.7,4.7-2.7c2.9,0,5.2,2.2,5.5,5
			h0v17h-2V252.7z"/>
		<path class="st50" d="M727,250.7c0.3-2.8,2.6-5,5.5-5s5.2,2.2,5.5,5h0v17h-11L727,250.7L727,250.7z"/>
		<path class="st51" d="M736,252.7L736,252.7c-0.3-2.8-2.6-5-5.5-5c-1,0-1.9,0.3-2.7,0.7c1-1.6,2.7-2.7,4.7-2.7c2.9,0,5.2,2.2,5.5,5
			h0v17h-2V252.7z"/>
		
			<rect x="759" y="207.7" transform="matrix(-1 -4.475676e-11 4.475676e-11 -1 1556 481.3262)" class="st52" width="38" height="66"/>
		
			<rect x="796" y="207.7" transform="matrix(-1 -4.304969e-11 4.304969e-11 -1 1595 481.3262)" class="st52" width="3" height="66"/>
		
			<rect x="796" y="207.7" transform="matrix(-1 -4.304969e-11 4.304969e-11 -1 1595 481.3262)" class="st53" width="3" height="66"/>
		
			<rect x="758" y="207.7" transform="matrix(-1 -4.668766e-11 4.668766e-11 -1 1519 481.3262)" class="st54" width="3" height="66"/>
		<path class="st50" d="M773,217.7c0.3-2.8,2.6-5,5.5-5s5.2,2.2,5.5,5h0v17h-11L773,217.7L773,217.7z"/>
		<path class="st51" d="M782,219.7L782,219.7c-0.3-2.8-2.6-5-5.5-5c-1,0-1.9,0.3-2.7,0.7c1-1.6,2.7-2.7,4.7-2.7c2.9,0,5.2,2.2,5.5,5
			h0v17h-2V219.7z"/>
		<path class="st50" d="M773,250.7c0.3-2.8,2.6-5,5.5-5s5.2,2.2,5.5,5h0v17h-11L773,250.7L773,250.7z"/>
		<path class="st51" d="M782,252.7L782,252.7c-0.3-2.8-2.6-5-5.5-5c-1,0-1.9,0.3-2.7,0.7c1-1.6,2.7-2.7,4.7-2.7c2.9,0,5.2,2.2,5.5,5
			h0v17h-2V252.7z"/>
		
			<rect x="787.3" y="189.7" transform="matrix(-1 -4.389701e-11 4.389701e-11 -1 1581.4419 394.3262)" class="st55" width="6.8" height="15"/>
		<polygon class="st56" points="799,205.7 783.4,188.7 780.5,185.7 774.6,185.7 772.7,188.7 758,206.7 800,206.7 		"/>
		<polygon class="st46" points="777.5,206.7 758,206.7 772.7,188.7 774.6,185.7 777.5,185.7 		"/>
		<path class="st47" d="M757.8,207.7h42.5c0.4,0,0.8-0.3,0.8-0.8v-0.5c0-0.4-0.3-0.8-0.8-0.8h-42.5c-0.4,0-0.8,0.3-0.8,0.8v0.5
			C757,207.3,757.3,207.7,757.8,207.7z"/>
		<path class="st57" d="M787,189.7h7.4c0.4,0,0.7-0.3,0.7-0.7v-1.6c0-0.4-0.3-0.7-0.7-0.7H787c-0.4,0-0.7,0.3-0.7,0.7v1.6
			C786.3,189.4,786.6,189.7,787,189.7z"/>
		<path class="st57" d="M774.7,186.7h5.6c0.4,0,0.7-0.3,0.7-0.7l0,0c0-0.4-0.3-0.7-0.7-0.7h-5.6c-0.4,0-0.7,0.3-0.7,0.7l0,0
			C774,186.4,774.3,186.7,774.7,186.7z"/>
		<rect x="766" y="197.7" transform="matrix(-1 -4.426205e-11 4.426205e-11 -1 1541 397.3262)" class="st58" width="9" height="2"/>
		<rect x="779" y="191.7" transform="matrix(-1 -4.456536e-11 4.456536e-11 -1 1562 385.3262)" class="st59" width="4" height="2"/>
		<rect x="787" y="199.7" transform="matrix(-1 -4.502011e-11 4.502011e-11 -1 1578 401.3262)" class="st59" width="4" height="2"/>
		<g>
			<g>
				<g>
					
						<rect x="736" y="265.7" transform="matrix(-1 -4.517154e-11 4.517154e-11 -1 1478 540.3262)" class="st60" width="6" height="9"/>
					
						<rect x="736" y="262.7" transform="matrix(-1 -4.517154e-11 4.517154e-11 -1 1478 528.3262)" class="st61" width="6" height="3"/>
					<circle class="st62" cx="739" cy="259.7" r="3"/>
					
						<rect x="736" y="269.7" transform="matrix(-1 -4.668722e-11 4.668722e-11 -1 1475 540.3262)" class="st63" width="3" height="1"/>
					
						<rect x="737" y="268.7" transform="matrix(-1 -4.304924e-11 4.304924e-11 -1 1477 538.3262)" class="st64" width="3" height="1"/>
					
						<rect x="738" y="272.7" transform="matrix(-1 -4.668722e-11 4.668722e-11 -1 1479 546.3262)" class="st63" width="3" height="1"/>
					
						<rect x="740" y="266.7" transform="matrix(-1 -4.547486e-11 4.547486e-11 -1 1482 534.3262)" class="st63" width="2" height="1"/>
					
						<rect x="734" y="265.7" transform="matrix(-1 -4.456536e-11 4.456536e-11 -1 1470 540.3262)" class="st65" width="2" height="9"/>
					
						<rect x="721" y="265.7" transform="matrix(-1 -4.463553e-11 4.463553e-11 -1 1455 540.3262)" class="st66" width="13" height="9"/>
					
						<rect x="721" y="265.7" transform="matrix(-1 -4.463553e-11 4.463553e-11 -1 1455 533.3262)" class="st67" width="13" height="2"/>
					
						<rect x="731" y="267.7" transform="matrix(-1 -4.304969e-11 4.304969e-11 -1 1465 537.3262)" class="st68" width="3" height="2"/>
					
						<rect x="726" y="267.7" transform="matrix(-1 -4.304969e-11 4.304969e-11 -1 1455 537.3262)" class="st69" width="3" height="2"/>
					
						<rect x="723" y="269.7" transform="matrix(-1 -4.668766e-11 4.668766e-11 -1 1449 541.3262)" class="st69" width="3" height="2"/>
					
						<rect x="729" y="269.7" transform="matrix(-1 -4.365587e-11 4.365587e-11 -1 1461 541.3262)" class="st69" width="3" height="2"/>
					
						<rect x="721" y="267.7" transform="matrix(-1 -4.365587e-11 4.365587e-11 -1 1445 537.3262)" class="st68" width="3" height="2"/>
					
						<rect x="721" y="271.7" transform="matrix(-1 -4.365587e-11 4.365587e-11 -1 1445 545.3262)" class="st68" width="3" height="2"/>
					
						<rect x="726" y="271.7" transform="matrix(-1 -4.304969e-11 4.304969e-11 -1 1455 545.3262)" class="st68" width="3" height="2"/>
					
						<rect x="731" y="271.7" transform="matrix(-1 -4.304969e-11 4.304969e-11 -1 1465 545.3262)" class="st68" width="3" height="2"/>
					
						<rect x="734" y="265.7" transform="matrix(-1 -4.456536e-11 4.456536e-11 -1 1470 533.3262)" class="st70" width="2" height="2"/>
				</g>
				<g>
					
						<rect x="778" y="265.7" transform="matrix(-1 -4.486867e-11 4.486867e-11 -1 1562 540.3262)" class="st60" width="6" height="9"/>
					
						<rect x="778" y="262.7" transform="matrix(-1 -4.486867e-11 4.486867e-11 -1 1562 528.3262)" class="st61" width="6" height="3"/>
					<circle class="st62" cx="781" cy="259.7" r="3"/>
					
						<rect x="778" y="269.7" transform="matrix(-1 -4.304924e-11 4.304924e-11 -1 1559 540.3262)" class="st63" width="3" height="1"/>
					
						<rect x="779" y="268.7" transform="matrix(-1 -4.608104e-11 4.608104e-11 -1 1561 538.3262)" class="st64" width="3" height="1"/>
					
						<rect x="780" y="272.7" transform="matrix(-1 -4.304924e-11 4.304924e-11 -1 1563 546.3262)" class="st63" width="3" height="1"/>
					
						<rect x="782" y="266.7" transform="matrix(-1 -4.547486e-11 4.547486e-11 -1 1566 534.3262)" class="st63" width="2" height="1"/>
					
						<rect x="776" y="265.7" transform="matrix(-1 -4.547486e-11 4.547486e-11 -1 1554 540.3262)" class="st65" width="2" height="9"/>
					
						<rect x="763" y="265.7" transform="matrix(-1 -4.463553e-11 4.463553e-11 -1 1539 540.3262)" class="st66" width="13" height="9"/>
					
						<rect x="763" y="265.7" transform="matrix(-1 -4.463553e-11 4.463553e-11 -1 1539 533.3262)" class="st67" width="13" height="2"/>
					
						<rect x="773" y="267.7" transform="matrix(-1 -4.365587e-11 4.365587e-11 -1 1549 537.3262)" class="st68" width="3" height="2"/>
					
						<rect x="768" y="267.7" transform="matrix(-1 -4.365587e-11 4.365587e-11 -1 1539 537.3262)" class="st69" width="3" height="2"/>
					
						<rect x="765" y="269.7" transform="matrix(-1 -4.304969e-11 4.304969e-11 -1 1533 541.3262)" class="st69" width="3" height="2"/>
					
						<rect x="771" y="269.7" transform="matrix(-1 -4.608104e-11 4.608104e-11 -1 1545 541.3262)" class="st69" width="3" height="2"/>
					
						<rect x="763" y="267.7" transform="matrix(-1 -4.365587e-11 4.365587e-11 -1 1529 537.3262)" class="st68" width="3" height="2"/>
					
						<rect x="763" y="271.7" transform="matrix(-1 -4.365587e-11 4.365587e-11 -1 1529 545.3262)" class="st68" width="3" height="2"/>
					
						<rect x="768" y="271.7" transform="matrix(-1 -4.365587e-11 4.365587e-11 -1 1539 545.3262)" class="st68" width="3" height="2"/>
					
						<rect x="773" y="271.7" transform="matrix(-1 -4.365587e-11 4.365587e-11 -1 1549 545.3262)" class="st68" width="3" height="2"/>
					
						<rect x="776" y="265.7" transform="matrix(-1 -4.547486e-11 4.547486e-11 -1 1554 533.3262)" class="st70" width="2" height="2"/>
				</g>
				<g>
					
						<rect x="757" y="265.7" transform="matrix(-1 -4.486867e-11 4.486867e-11 -1 1520 540.3262)" class="st60" width="6" height="9"/>
					
						<rect x="757" y="262.7" transform="matrix(-1 -4.486867e-11 4.486867e-11 -1 1520 528.3262)" class="st61" width="6" height="3"/>
					<circle class="st62" cx="760" cy="259.7" r="3"/>
					
						<rect x="757" y="269.7" transform="matrix(-1 -4.304924e-11 4.304924e-11 -1 1517 540.3262)" class="st63" width="3" height="1"/>
					
						<rect x="758" y="268.7" transform="matrix(-1 -4.668722e-11 4.668722e-11 -1 1519 538.3262)" class="st64" width="3" height="1"/>
					
						<rect x="759" y="272.7" transform="matrix(-1 -4.365587e-11 4.365587e-11 -1 1521 546.3262)" class="st63" width="3" height="1"/>
					
						<rect x="761" y="266.7" transform="matrix(-1 -4.456536e-11 4.456536e-11 -1 1524 534.3262)" class="st63" width="2" height="1"/>
					
						<rect x="755" y="265.7" transform="matrix(-1 -4.547486e-11 4.547486e-11 -1 1512 540.3262)" class="st65" width="2" height="9"/>
					
						<rect x="742" y="265.7" transform="matrix(-1 -4.533497e-11 4.533497e-11 -1 1497 540.3262)" class="st66" width="13" height="9"/>
					
						<rect x="742" y="265.7" transform="matrix(-1 -4.533497e-11 4.533497e-11 -1 1497 533.3262)" class="st67" width="13" height="2"/>
					
						<rect x="752" y="267.7" transform="matrix(-1 -4.668766e-11 4.668766e-11 -1 1507 537.3262)" class="st68" width="3" height="2"/>
					
						<rect x="747" y="267.7" transform="matrix(-1 -4.365587e-11 4.365587e-11 -1 1497 537.3262)" class="st69" width="3" height="2"/>
					
						<rect x="744" y="269.7" transform="matrix(-1 -4.668766e-11 4.668766e-11 -1 1491 541.3262)" class="st69" width="3" height="2"/>
					
						<rect x="750" y="269.7" transform="matrix(-1 -4.668766e-11 4.668766e-11 -1 1503 541.3262)" class="st69" width="3" height="2"/>
					
						<rect x="742" y="267.7" transform="matrix(-1 -4.668766e-11 4.668766e-11 -1 1487 537.3262)" class="st68" width="3" height="2"/>
					
						<rect x="742" y="271.7" transform="matrix(-1 -4.668766e-11 4.668766e-11 -1 1487 545.3262)" class="st68" width="3" height="2"/>
					
						<rect x="747" y="271.7" transform="matrix(-1 -4.365587e-11 4.365587e-11 -1 1497 545.3262)" class="st68" width="3" height="2"/>
					
						<rect x="752" y="271.7" transform="matrix(-1 -4.668766e-11 4.668766e-11 -1 1507 545.3262)" class="st68" width="3" height="2"/>
					
						<rect x="755" y="265.7" transform="matrix(-1 -4.547486e-11 4.547486e-11 -1 1512 533.3262)" class="st70" width="2" height="2"/>
					
						<rect x="716" y="265.7" transform="matrix(-1 -4.517154e-11 4.517154e-11 -1 1438 540.3262)" class="st60" width="6" height="9"/>
					
						<rect x="716" y="262.7" transform="matrix(-1 -4.517154e-11 4.517154e-11 -1 1438 528.3262)" class="st61" width="6" height="3"/>
					<circle class="st62" cx="719" cy="259.7" r="3"/>
					
						<rect x="716" y="269.7" transform="matrix(-1 -4.365587e-11 4.365587e-11 -1 1435 540.3262)" class="st63" width="3" height="1"/>
					
						<rect x="717" y="268.7" transform="matrix(-1 -4.668722e-11 4.668722e-11 -1 1437 538.3262)" class="st64" width="3" height="1"/>
					
						<rect x="718" y="272.7" transform="matrix(-1 -4.304924e-11 4.304924e-11 -1 1439 546.3262)" class="st63" width="3" height="1"/>
					
						<rect x="720" y="266.7" transform="matrix(-1 -4.547486e-11 4.547486e-11 -1 1442 534.3262)" class="st63" width="2" height="1"/>
				</g>
			</g>
			
				<rect x="763" y="262.7" transform="matrix(-1 -4.474744e-11 4.474744e-11 -1 1541 526.3262)" class="st48" width="15" height="1"/>
			
				<rect x="742" y="262.7" transform="matrix(-1 -4.535362e-11 4.535362e-11 -1 1499 526.3262)" class="st48" width="15" height="1"/>
			
				<rect x="722" y="262.7" transform="matrix(-1 -4.417545e-11 4.417545e-11 -1 1458 526.3262)" class="st48" width="14" height="1"/>
		</g>
		<g>
			<g>
				<g>
					
						<rect x="822" y="265.7" transform="matrix(-1 -4.517154e-11 4.517154e-11 -1 1650 540.3262)" class="st60" width="6" height="9"/>
					
						<rect x="822" y="262.7" transform="matrix(-1 -4.517154e-11 4.517154e-11 -1 1650 528.3262)" class="st61" width="6" height="3"/>
					<circle class="st62" cx="825" cy="259.7" r="3"/>
					
						<rect x="822" y="269.7" transform="matrix(-1 -4.365587e-11 4.365587e-11 -1 1647 540.3262)" class="st63" width="3" height="1"/>
					
						<rect x="823" y="268.7" transform="matrix(-1 -4.668722e-11 4.668722e-11 -1 1649 538.3262)" class="st64" width="3" height="1"/>
					
						<rect x="824" y="272.7" transform="matrix(-1 -4.304924e-11 4.304924e-11 -1 1651 546.3262)" class="st63" width="3" height="1"/>
					
						<rect x="826" y="266.7" transform="matrix(-1 -4.547486e-11 4.547486e-11 -1 1654 534.3262)" class="st63" width="2" height="1"/>
					
						<rect x="820" y="265.7" transform="matrix(-1 -4.456536e-11 4.456536e-11 -1 1642 540.3262)" class="st65" width="2" height="9"/>
					
						<rect x="807" y="265.7" transform="matrix(-1 -4.547486e-11 4.547486e-11 -1 1627 540.3262)" class="st66" width="13" height="9"/>
					
						<rect x="807" y="265.7" transform="matrix(-1 -4.547486e-11 4.547486e-11 -1 1627 533.3262)" class="st67" width="13" height="2"/>
					
						<rect x="817" y="267.7" transform="matrix(-1 -4.668766e-11 4.668766e-11 -1 1637 537.3262)" class="st68" width="3" height="2"/>
					
						<rect x="812" y="267.7" transform="matrix(-1 -4.304969e-11 4.304969e-11 -1 1627 537.3262)" class="st69" width="3" height="2"/>
					
						<rect x="809" y="269.7" transform="matrix(-1 -4.304969e-11 4.304969e-11 -1 1621 541.3262)" class="st69" width="3" height="2"/>
					
						<rect x="815" y="269.7" transform="matrix(-1 -4.668766e-11 4.668766e-11 -1 1633 541.3262)" class="st69" width="3" height="2"/>
					
						<rect x="807" y="267.7" transform="matrix(-1 -4.729385e-11 4.729385e-11 -1 1617 537.3262)" class="st68" width="3" height="2"/>
					
						<rect x="807" y="271.7" transform="matrix(-1 -4.729385e-11 4.729385e-11 -1 1617 545.3262)" class="st68" width="3" height="2"/>
					
						<rect x="812" y="271.7" transform="matrix(-1 -4.304969e-11 4.304969e-11 -1 1627 545.3262)" class="st68" width="3" height="2"/>
					
						<rect x="817" y="271.7" transform="matrix(-1 -4.668766e-11 4.668766e-11 -1 1637 545.3262)" class="st68" width="3" height="2"/>
					
						<rect x="820" y="265.7" transform="matrix(-1 -4.456536e-11 4.456536e-11 -1 1642 533.3262)" class="st70" width="2" height="2"/>
				</g>
				<g>
					
						<rect x="864" y="265.7" transform="matrix(-1 -4.486867e-11 4.486867e-11 -1 1734 540.3262)" class="st60" width="6" height="9"/>
					
						<rect x="864" y="262.7" transform="matrix(-1 -4.486867e-11 4.486867e-11 -1 1734 528.3262)" class="st61" width="6" height="3"/>
					<circle class="st62" cx="867" cy="259.7" r="3"/>
					
						<rect x="864" y="269.7" transform="matrix(-1 -4.668722e-11 4.668722e-11 -1 1731 540.3262)" class="st63" width="3" height="1"/>
					
						<rect x="865" y="268.7" transform="matrix(-1 -4.365587e-11 4.365587e-11 -1 1733 538.3262)" class="st64" width="3" height="1"/>
					
						<rect x="866" y="272.7" transform="matrix(-1 -4.668722e-11 4.668722e-11 -1 1735 546.3262)" class="st63" width="3" height="1"/>
					
						<rect x="868" y="266.7" transform="matrix(-1 -4.456536e-11 4.456536e-11 -1 1738 534.3262)" class="st63" width="2" height="1"/>
					
						<rect x="862" y="265.7" transform="matrix(-1 -4.547486e-11 4.547486e-11 -1 1726 540.3262)" class="st65" width="2" height="9"/>
					
						<rect x="849" y="265.7" transform="matrix(-1 -4.449520e-11 4.449520e-11 -1 1711 540.3262)" class="st66" width="13" height="9"/>
					
						<rect x="849" y="265.7" transform="matrix(-1 -4.449520e-11 4.449520e-11 -1 1711 533.3262)" class="st67" width="13" height="2"/>
					
						<rect x="859" y="267.7" transform="matrix(-1 -4.304969e-11 4.304969e-11 -1 1721 537.3262)" class="st68" width="3" height="2"/>
					
						<rect x="854" y="267.7" transform="matrix(-1 -4.729385e-11 4.729385e-11 -1 1711 537.3262)" class="st69" width="3" height="2"/>
					
						<rect x="851" y="269.7" transform="matrix(-1 -4.304969e-11 4.304969e-11 -1 1705 541.3262)" class="st69" width="3" height="2"/>
					
						<rect x="857" y="269.7" transform="matrix(-1 -4.608104e-11 4.608104e-11 -1 1717 541.3262)" class="st69" width="3" height="2"/>
					
						<rect x="849" y="267.7" transform="matrix(-1 -4.608104e-11 4.608104e-11 -1 1701 537.3262)" class="st68" width="3" height="2"/>
					
						<rect x="849" y="271.7" transform="matrix(-1 -4.608104e-11 4.608104e-11 -1 1701 545.3262)" class="st68" width="3" height="2"/>
					
						<rect x="854" y="271.7" transform="matrix(-1 -4.729385e-11 4.729385e-11 -1 1711 545.3262)" class="st68" width="3" height="2"/>
					
						<rect x="859" y="271.7" transform="matrix(-1 -4.304969e-11 4.304969e-11 -1 1721 545.3262)" class="st68" width="3" height="2"/>
					
						<rect x="862" y="265.7" transform="matrix(-1 -4.547486e-11 4.547486e-11 -1 1726 533.3262)" class="st70" width="2" height="2"/>
				</g>
				<g>
					
						<rect x="843" y="265.7" transform="matrix(-1 -4.517154e-11 4.517154e-11 -1 1692 540.3262)" class="st60" width="6" height="9"/>
					
						<rect x="843" y="262.7" transform="matrix(-1 -4.517154e-11 4.517154e-11 -1 1692 528.3262)" class="st61" width="6" height="3"/>
					<circle class="st62" cx="846" cy="259.7" r="3"/>
					
						<rect x="843" y="269.7" transform="matrix(-1 -4.668722e-11 4.668722e-11 -1 1689 540.3262)" class="st63" width="3" height="1"/>
					
						<rect x="844" y="268.7" transform="matrix(-1 -4.304924e-11 4.304924e-11 -1 1691 538.3262)" class="st64" width="3" height="1"/>
					
						<rect x="845" y="272.7" transform="matrix(-1 -4.668722e-11 4.668722e-11 -1 1693 546.3262)" class="st63" width="3" height="1"/>
					
						<rect x="847" y="266.7" transform="matrix(-1 -4.547486e-11 4.547486e-11 -1 1696 534.3262)" class="st63" width="2" height="1"/>
					
						<rect x="841" y="265.7" transform="matrix(-1 -4.456536e-11 4.456536e-11 -1 1684 540.3262)" class="st65" width="2" height="9"/>
					
						<rect x="828" y="265.7" transform="matrix(-1 -4.463553e-11 4.463553e-11 -1 1669 540.3262)" class="st66" width="13" height="9"/>
					
						<rect x="828" y="265.7" transform="matrix(-1 -4.463553e-11 4.463553e-11 -1 1669 533.3262)" class="st67" width="13" height="2"/>
					
						<rect x="838" y="267.7" transform="matrix(-1 -4.365587e-11 4.365587e-11 -1 1679 537.3262)" class="st68" width="3" height="2"/>
					
						<rect x="833" y="267.7" transform="matrix(-1 -4.668766e-11 4.668766e-11 -1 1669 537.3262)" class="st69" width="3" height="2"/>
					
						<rect x="830" y="269.7" transform="matrix(-1 -4.365587e-11 4.365587e-11 -1 1663 541.3262)" class="st69" width="3" height="2"/>
					
						<rect x="836" y="269.7" transform="matrix(-1 -4.304969e-11 4.304969e-11 -1 1675 541.3262)" class="st69" width="3" height="2"/>
					
						<rect x="828" y="267.7" transform="matrix(-1 -4.304969e-11 4.304969e-11 -1 1659 537.3262)" class="st68" width="3" height="2"/>
					
						<rect x="828" y="271.7" transform="matrix(-1 -4.304969e-11 4.304969e-11 -1 1659 545.3262)" class="st68" width="3" height="2"/>
					
						<rect x="833" y="271.7" transform="matrix(-1 -4.668766e-11 4.668766e-11 -1 1669 545.3262)" class="st68" width="3" height="2"/>
					
						<rect x="838" y="271.7" transform="matrix(-1 -4.365587e-11 4.365587e-11 -1 1679 545.3262)" class="st68" width="3" height="2"/>
					
						<rect x="841" y="265.7" transform="matrix(-1 -4.456536e-11 4.456536e-11 -1 1684 533.3262)" class="st70" width="2" height="2"/>
					
						<rect x="802" y="265.7" transform="matrix(-1 -4.486867e-11 4.486867e-11 -1 1610 540.3262)" class="st60" width="6" height="9"/>
					
						<rect x="802" y="262.7" transform="matrix(-1 -4.486867e-11 4.486867e-11 -1 1610 528.3262)" class="st61" width="6" height="3"/>
					<circle class="st62" cx="805" cy="259.7" r="3"/>
					
						<rect x="802" y="269.7" transform="matrix(-1 -4.608104e-11 4.608104e-11 -1 1607 540.3262)" class="st63" width="3" height="1"/>
					
						<rect x="803" y="268.7" transform="matrix(-1 -4.304924e-11 4.304924e-11 -1 1609 538.3262)" class="st64" width="3" height="1"/>
					
						<rect x="804" y="272.7" transform="matrix(-1 -4.304924e-11 4.304924e-11 -1 1611 546.3262)" class="st63" width="3" height="1"/>
					
						<rect x="806" y="266.7" transform="matrix(-1 -4.547486e-11 4.547486e-11 -1 1614 534.3262)" class="st63" width="2" height="1"/>
				</g>
			</g>
			
				<rect x="849" y="262.7" transform="matrix(-1 -4.462620e-11 4.462620e-11 -1 1713 526.3262)" class="st48" width="15" height="1"/>
			
				<rect x="828" y="262.7" transform="matrix(-1 -4.462620e-11 4.462620e-11 -1 1671 526.3262)" class="st48" width="15" height="1"/>
			
				<rect x="808" y="262.7" transform="matrix(-1 -4.495527e-11 4.495527e-11 -1 1630 526.3262)" class="st48" width="14" height="1"/>
		</g>
		<path class="st47" d="M799.5,243.7h-82c-0.8,0-1.5-0.7-1.5-1.5v0c0-0.8,0.7-1.5,1.5-1.5h82c0.8,0,1.5,0.7,1.5,1.5v0
			C801,243,800.3,243.7,799.5,243.7z"/>
	</g>
	<g>
		<ellipse class="st24" cx="708.5" cy="244.7" rx="19.5" ry="19"/>
		<path class="st25" d="M708.5,225.7c0.2,0,0.3,0,0.5,0v38c-0.2,0-0.3,0-0.5,0c-10.8,0-19.5-8.5-19.5-19S697.7,225.7,708.5,225.7z"
			/>
		
			<rect x="707" y="250.7" transform="matrix(-1 -4.502011e-11 4.502011e-11 -1 1418 524.3262)" class="st26" width="4" height="23"/>
	</g>
	<g>
		<g>
			<path class="st71" d="M834,252.7"/>
			<line class="st71" x1="836" y1="256.7" x2="834" y2="256.7"/>
		</g>
		<line class="st72" x1="812" y1="250.7" x2="812" y2="252.7"/>
		<line class="st72" x1="821" y1="252.7" x2="821" y2="250.7"/>
	</g>
	
		<rect x="149" y="252.2" transform="matrix(-1 -4.547486e-11 4.547486e-11 -1 300 523.8525)" class="st73" width="2" height="19.5"/>
	
		<rect x="142" y="252.2" transform="matrix(-1 -5.093182e-11 5.093182e-11 -1 286 523.8525)" class="st73" width="2" height="19.5"/>
	
		<rect x="135" y="251.2" transform="matrix(-1 -4.547486e-11 4.547486e-11 -1 272 522.8788)" class="st73" width="2" height="20.4"/>
	
		<rect x="128" y="249.3" transform="matrix(-1 -4.456536e-11 4.456536e-11 -1 258 520.9315)" class="st73" width="2" height="22.4"/>
	<rect x="121" y="244.7" transform="matrix(-1 -4.456536e-11 4.456536e-11 -1 244 516.3262)" class="st73" width="2" height="27"/>
	
		<rect x="114" y="240.5" transform="matrix(-1 -4.547486e-11 4.547486e-11 -1 230 512.1683)" class="st73" width="2" height="31.2"/>
	<rect x="107" y="234.7" transform="matrix(-1 -4.547486e-11 4.547486e-11 -1 216 506.3262)" class="st73" width="2" height="37"/>
	<path class="st74" d="M172,248.7c0,0-23.8,6-39.4,2c-15.5-4-46.6-38-46.6-38"/>
	<g>
		<polygon class="st22" points="644,272.5 456.7,272.5 457,272.1 458.9,270.1 468.3,259.9 469.8,258.2 472.7,255.1 474.5,253.1 
			479.9,247.2 481.5,245.5 487.9,238.5 489.7,236.5 490.8,235.4 492.3,233.7 501.5,223.8 502.9,222.2 503.3,221.8 505.2,219.8 
			511.6,212.7 513.1,211.1 518.8,204.9 520.7,202.9 521.5,202 523,200.4 530.9,191.8 532.3,190.2 534.2,188.2 536,186.2 
			540.1,181.8 541.6,180.2 550,171 550.3,170.6 550.8,171.1 558.9,179.9 560.4,181.6 564.8,186.4 566.7,188.4 568.1,189.9 
			569.6,191.5 577.4,200.1 578.9,201.7 580.1,203 582,205 587.3,210.8 588.8,212.4 595.7,219.9 597.4,221.8 597.5,221.9 
			598.9,223.4 607.9,233.2 609.4,234.9 611.1,236.7 612.9,238.7 618.7,245 620.2,246.6 626.3,253.2 628.1,255.2 630.3,257.5 
			631.8,259.2 641.9,270.3 643.8,272.3 		"/>
		<polygon class="st1" points="517.3,273.4 530.4,257.1 570.1,257.7 582.6,273.1 		"/>
		<g>
			<polygon class="st2" points="560.4,181.6 551.6,191.3 550.1,193 542.3,201.6 540.9,203.3 532.9,212.2 531.4,213.8 523.1,223 
				521.7,224.7 513,234.3 511.5,235.9 502,246.5 500.5,248.2 491,258.8 489.5,260.4 479.3,271.8 478.6,272.5 477.8,273.4 
				477.1,272.5 475.7,272.5 476.5,271.6 478,269.9 488.2,258.6 489.7,256.9 499.2,246.4 500.6,244.7 510.1,234.2 511.6,232.6 
				520.2,223 521.7,221.3 530,212.1 531.5,210.5 539.4,201.6 540.9,200 548.7,191.3 550.1,189.7 558.9,179.9 			"/>
			<polygon class="st2" points="569.6,191.5 560.8,201.6 559.4,203.2 551.5,212.2 550.1,213.9 542.1,223.1 540.6,224.7 532.5,234.1 
				531,235.8 522.4,245.7 520.9,247.4 511.2,258.6 509.7,260.3 500,271.4 499,272.5 498.6,273.1 498.2,272.5 496.1,272.5 
				497.3,271.2 498.7,269.5 508.3,258.5 509.8,256.8 519.5,245.7 521,244 529.6,234.1 531.1,232.4 539.2,223 540.7,221.4 
				548.6,212.2 550.1,210.5 557.9,201.6 559.3,199.9 568.1,189.9 			"/>
			<path class="st2" d="M578.9,201.7l-8.7,10.3l-1.4,1.7l-7.8,9.3l-1.4,1.7l-8,9.5l-1.4,1.7l-8,9.5l-1.4,1.7l-8.6,10.2
				c0,0-1.4,1.7-1.4,1.7l-10.1,11.9l-1.3,1.6l-0.1,0.1l-0.1-0.1h-2.7l1.4-1.7l1.5-1.7l10-11.8l1.4-1.7l8.6-10.2l1.4-1.7l8-9.5
				l1.4-1.7l8-9.5l1.4-1.7l7.8-9.3l1.4-1.7l8.7-10.3L578.9,201.7z"/>
			<polygon class="st2" points="588.8,212.4 580,222.9 578.5,224.6 570.5,234 569.1,235.7 560.9,245.4 559.5,247.1 551.5,256.6 
				550,258.3 548.6,256.6 550,254.9 558.1,245.4 559.5,243.7 567.6,234 569.1,232.3 577,222.9 578.5,221.2 587.3,210.8 			"/>
			<polygon class="st2" points="598.9,223.4 590.1,234.1 588.7,235.8 580.6,245.6 579.2,247.3 571,257.2 569.5,259 568.1,257.3 
				569.5,255.5 577.7,245.6 579.1,243.9 587.2,234.2 588.6,232.5 597.4,221.8 597.5,221.9 			"/>
			<polygon class="st2" points="609.4,234.9 600.9,246.1 599.5,247.9 591.7,258.3 590.3,260.1 582.3,270.7 580.9,272.5 580.9,272.5 
				578.1,272.5 579.5,270.7 580.8,268.9 588.8,258.4 590.2,256.6 598,246.2 599.4,244.5 607.9,233.2 			"/>
			<polygon class="st2" points="620.2,246.6 611.8,258.3 610.5,260.1 602.7,270.9 601.5,272.5 601.4,272.8 601.1,272.5 598.8,272.5 
				599.9,271.1 601.2,269.2 609,258.4 610.3,256.6 618.7,245 			"/>
			<polygon class="st2" points="631.8,259.2 623.4,271.2 622.7,272.3 622.5,272.5 622.4,272.5 622,272.9 621.7,272.5 619.8,272.5 
				620.6,271.4 621.9,269.5 630.3,257.5 			"/>
		</g>
		<g>
			<polygon class="st4" points="625.1,272.9 623.5,273.2 622.4,272.5 622,272.9 621.7,272.5 620.6,271.4 610.5,260.1 609,258.4 
				599.5,247.9 598,246.2 588.7,235.8 587.2,234.2 578.5,224.6 577,222.9 568.8,213.7 567.3,212.1 559.4,203.2 557.9,201.6 
				550.1,193 548.7,191.3 540.1,181.8 541.6,180.2 550.1,189.7 551.6,191.3 559.3,199.9 560.8,201.6 568.7,210.4 570.2,212 
				578.5,221.2 580,222.9 588.6,232.5 590.1,234.1 599.4,244.5 600.9,246.1 610.3,256.6 611.8,258.3 621.9,269.5 623.4,271.2 			"/>
			<polygon class="st4" points="604,272.5 601.5,272.5 601.4,272.8 601.1,272.5 599.9,271.1 590.3,260.1 588.8,258.4 579.2,247.3 
				577.7,245.6 569.1,235.7 567.6,234 559.5,224.7 558,223 550.1,213.9 548.6,212.2 540.9,203.3 539.4,201.6 530.9,191.8 
				532.3,190.2 540.9,200 542.3,201.6 550.1,210.5 551.5,212.2 559.5,221.3 560.9,223 569.1,232.3 570.5,234 579.1,243.9 
				580.6,245.6 590.2,256.6 591.7,258.3 601.2,269.2 602.7,270.9 			"/>
			<polygon class="st4" points="583.9,272.5 581,272.5 580.9,272.5 579.5,270.7 569.5,259 568.1,257.3 559.5,247.1 558.1,245.4 
				550,235.9 548.6,234.2 540.6,224.7 539.2,223 531.4,213.8 530,212.1 521.5,202 523,200.4 531.5,210.5 532.9,212.2 540.7,221.4 
				542.1,223.1 550,232.5 551.5,234.2 559.5,243.7 560.9,245.4 569.5,255.5 571,257.2 580.8,268.9 582.3,270.7 			"/>
			<polygon class="st4" points="551.5,256.6 550,258.3 548.6,256.6 540.6,247.1 539.2,245.4 531,235.8 529.6,234.1 521.7,224.7 
				520.2,223 511.6,212.8 513.1,211.1 521.7,221.3 523.1,223 531.1,232.4 532.5,234.1 540.6,243.7 542,245.4 550,254.9 			"/>
			<path class="st4" d="M532,257.3c0,0-1.4,1.7-1.4,1.7l-1.4-1.7l-8.2-9.9l-1.4-1.7l-8-9.7l-1.4-1.7l-8.6-10.4l1.5-1.6l8.6,10.4
				l1.4,1.7l8,9.7l1.4,1.7l8.2,9.9L532,257.3z"/>
			<polygon class="st4" points="520.5,270.9 519.1,272.5 519,272.6 518.9,272.5 517.7,270.8 509.7,260.3 508.3,258.5 500.5,248.2 
				499.2,246.4 490.8,235.4 492.3,233.7 500.6,244.7 502,246.5 509.8,256.8 511.2,258.6 519.1,269.1 			"/>
			<polygon class="st4" points="500,271.4 500.9,272.5 499,272.5 498.6,273.1 498.2,272.5 497.3,271.2 489.5,260.4 488.2,258.6 
				479.9,247.2 481.5,245.5 489.7,256.9 491,258.8 498.7,269.5 			"/>
			<polygon class="st4" points="479.8,272.5 478.6,272.5 477.8,273.4 477.1,272.5 476.5,271.6 468.3,259.9 469.8,258.2 478,269.9 
				479.3,271.8 			"/>
		</g>
		<rect x="535.3" y="256.6" class="st5" width="2.6" height="17.9"/>
		<rect x="548.8" y="256.6" class="st5" width="2.6" height="17.9"/>
		<rect x="562.3" y="256.6" class="st5" width="2.6" height="17.9"/>
		<rect x="530.4" y="256.4" class="st4" width="39.1" height="2.6"/>
		<path class="st4" d="M530.5,255.6l1.4,1.7c0,0-1.4,1.7-1.4,1.7l-10.1,11.9l-1.3,1.6l-0.1,0.1l-0.1-0.1h-2.7l1.4-1.7l1.5-1.7
			l10-11.8L530.5,255.6z"/>
	</g>
</g>
<g>
	<path class="st2" d="M266.5,241.2c0,0,18.7-11,28.3-10.6c9.5,0.4,27.5,8.2,28.9,10.6c1.4,2.4-5.2-14.1-5.2-14.1l-46.5-0.9
		L266.5,241.2z"/>
	<path class="st5" d="M326.2,242c-0.6-0.5-13.6-12.6-28.2-12.9v-2h-5.7v1h-0.2v1c-14.3,0.7-27,12.4-27.6,12.9l0.4,0.5
		c-0.3,0.3-0.5,0.5-0.6,0.5l1.5,1.8c0.1-0.1,13-12,26.8-12.3h0.9c0.2,0,0.4,0,0.6,0c0,0,2,0,2,0c0.2,0,0.4,0,0.6,0h0.9
		c13.9,0.3,26.7,12.2,26.8,12.3l1.5-1.8c0,0-0.2-0.2-0.4-0.3L326.2,242z"/>
	<g>
		<path class="st5" d="M313.1,210.3c0.7,1.1,1.5,2.2,2.2,3.3l4.1-8.4l1.5-3.1l2.9-6c-0.7-1.2-1.5-2.3-2.2-3.4l-4,8.2l-1.5,3.1
			L313.1,210.3z"/>
		<path class="st5" d="M305.5,191.5c0.6,1.8,1.2,3.6,1.8,5.5l8.4,5.9l2.8,2l12.3,8.7l0,0c0,0,0,0,0,0c-0.7-1.9-1.4-3.8-2-5.6
			c0,0-8.1-5.7-8.1-5.7l-2.8-2L305.5,191.5z"/>
		<path class="st5" d="M306.9,192.7c0.7,1,1.5,2.1,2.3,3.2l3.5-7.3l1.5-3.1l3.3-7c-0.9-1.3-1.7-2.4-2.3-3.2l-4.3,9.1l-1.5,3.1
			L306.9,192.7z"/>
		<path class="st5" d="M300.6,173.5L300.6,173.5c0.2,1,0.7,3.7,0.8,4.5c0,0.2,0.1,0.3,0.1,0.5c0,0,0,0.1,0,0.1l5.3,4.3l1.6,1.3
			l2.7,2.2l13.9,11.1c-0.7-2.1-1.3-4.1-2-6l-9.5-7.6l-2.7-2.2l-2.3-1.8l-1.7-1.3l-4.8-3.9l-1.1-0.9
			C301,173.9,300.6,173.5,300.6,173.5z"/>
		<g>
			<path class="st5" d="M333.9,271.3c0,0,0,0.3,0,0.3l0.1-0.1l0.1-0.2l6.2-10.8l1.7-3l4.3-7.4c-0.6-1.2-1.2-2.5-1.8-3.7l-5.4,9.4
				l-1.7,3l-4.9,8.5C333.2,269.3,333.7,270.7,333.9,271.3z"/>
			<path class="st5" d="M325.3,247.9c0.6,1.7,1.2,3.4,1.8,5l10.2,5.9l3,1.7l18.2,10.5c-1.4-2-2.9-4.1-4.3-6.5l-12.1-7l-3-1.7
				L325.3,247.9z"/>
			<path class="st5" d="M325.4,247.2c0.6,1.6,1.2,3.2,1.7,4.7l1.7-3.9c0,0,0.7-1.7,0.7-1.7l2.7-6.2l1.4-3.3l1.2-2.8l1.4-3.3l0.7-1.6
				c-0.6-1.5-1.2-3-1.8-4.5l-0.9,2.1l-1.7,4l-1.4,3.3l-0.3,0.6l-1.4,3.3l-2.7,6.2l-1,2.3L325.4,247.2z"/>
			<path class="st5" d="M317.2,224.3c0.3,0.8,0.6,1.6,0.9,2.5c0.4,1.2,0.8,2.3,1.2,3.5l0.7,0.5l4.4,3.3l5.1,3.9l2.8,2.1l14.1,10.8
				c-1-2.2-2-4.4-3-6.6l-9.7-7.4l-2.8-2.2L330,234l-4.4-3.3l-5.3-4L317.2,224.3z"/>
		</g>
	</g>
	<path class="st5" d="M358.7,271.3c-0.1-0.1-0.1-0.1-0.2-0.2c-1.4-2-2.9-4.2-4.3-6.5c-2.7-4.4-5.3-9.2-7.9-14.4
		c-0.6-1.2-1.2-2.5-1.8-3.7c-0.1-0.2-0.2-0.5-0.4-0.7c-1-2.2-2-4.4-3-6.6c-1.5-3.3-2.9-6.7-4.2-10c0,0,0-0.1-0.1-0.1
		c-0.6-1.5-1.2-2.9-1.8-4.4c-0.1-0.2-0.2-0.4-0.3-0.7c-0.3-0.8-0.6-1.5-0.9-2.3l-0.1-0.3c-0.3-0.7-0.5-1.3-0.8-2
		c-0.7-1.9-1.5-3.9-2.2-5.8c0,0,0,0,0,0c-0.7-1.9-1.4-3.8-2-5.6c-1.3-3.7-2.6-7.3-3.8-10.8c-0.4-1.3-0.9-2.6-1.3-3.8
		c-0.1-0.2-0.1-0.3-0.2-0.5c-0.7-2.1-1.3-4.1-2-6c-1.7-5.3-3.1-9.8-4.1-13.2c0-0.1-0.1-0.3-0.1-0.4c-0.4-1.3-0.7-2.5-1-3.4
		c-0.1-0.4-0.2-0.7-0.3-1c-0.3-1.2-0.5-1.8-0.5-1.8s-1-0.7-2.5-1.7c-2.7-1.8-7.2-4.3-10.8-4.3c-2.6,0-4.8,1.3-5.4,5.1
		c0,0.2-0.1,0.5-0.1,0.8c-0.1,0.6-0.1,1.2-0.1,1.9c1,0,1.5-0.4,1.9-0.5c0.1,0,0.1,0,0.2,0c0.1,0,0.2,0,0.3,0c0,0,0,0.2,0.1,0.4
		c0,0,0,0,0,0c0.2,1,0.7,3.4,0.8,4.4c0,0.1,0,0.1,0,0.2c0,0.2,0.1,0.3,0.1,0.5c0,0,0,0.1,0,0.1c0.3,1.1,0.7,2.6,1.1,4.3
		c0.5,1.6,1,3.5,1.7,5.6c0.4,1.2,0.8,2.4,1.2,3.7c0.4,1.3,0.8,2.6,1.3,3.9c0.6,1.8,1.2,3.6,1.8,5.5c1.2,3.6,2.5,7.4,3.9,11.2
		c0.4,1.2,0.9,2.5,1.3,3.8c0.2,0.5,0.4,1,0.5,1.5c0.7,1.9,1.3,3.8,2,5.7c0.3,0.8,0.6,1.6,0.9,2.5c0.4,1.2,0.8,2.3,1.2,3.5
		c0.1,0.2,0.1,0.3,0.2,0.5c0.4,1.1,0.8,2.2,1.2,3.3c1,2.7,1.9,5.3,2.8,7.9c0.5,1.3,0.9,2.6,1.4,3.9c0.2,0.5,0.3,1,0.5,1.4
		c0.6,1.6,1.2,3.2,1.7,4.7c0.1,0.4,0.3,0.7,0.4,1c0.6,1.7,1.2,3.4,1.8,5c2.2,6,4,11.1,5.3,14.4c0.7,2,1.2,3.4,1.5,4
		c0,0.1,0.1,0.1,0.1,0.2c0,0.1,0.1,0.2,0.1,0.2h3.9c-0.8-2-2.1-5-2.3-5.5c-1.3-3.6-3.4-9.3-5.3-14.4c-0.6-1.6-1.2-3.3-1.8-5
		c-0.1-0.2-0.1-0.3-0.2-0.4c-0.1-0.2-0.1-0.4-0.2-0.5l0-0.1c-0.6-1.5-1.1-3.1-1.7-4.7c-0.1-0.3-0.2-0.6-0.3-0.8c0,0-0.2-0.6-0.2-0.6
		c-0.4-1.1-0.8-2.2-1.2-3.3c0,0-0.2-0.6-0.2-0.6l-1-2.8c-0.5-1.3-1-2.6-1.4-4c-0.1-0.2-0.1-0.4-0.2-0.6c0,0-0.2-0.6-0.2-0.6
		c-0.4-1.1-0.8-2.2-1.2-3.3c0-0.1-0.1-0.3-0.1-0.4l-0.1-0.2c-0.2-0.6-0.4-1.2-0.6-1.8c-0.1-0.2-0.1-0.4-0.2-0.6
		c-0.1-0.4-0.3-0.8-0.4-1.1c-0.3-0.8-0.6-1.6-0.9-2.4c-0.6-1.8-1.3-3.6-1.9-5.3l-0.1-0.4c-0.2-0.5-0.3-1-0.5-1.5
		c-0.2-0.6-0.4-1.3-0.7-1.9l-0.6-1.8c-1.6-4.5-2.8-8.1-3.9-11.2c-0.6-1.7-1.2-3.4-1.7-5l-0.1-0.4c-0.4-1.3-0.9-2.6-1.3-3.9
		c-0.4-1.3-0.8-2.5-1.2-3.7c-0.6-1.9-1.2-3.7-1.7-5.5c-0.5-1.7-0.9-3.1-1.1-4.1l0,0c0,0,0-0.1,0-0.1l0-0.2c0,0,0-0.1,0-0.1
		c-0.1-0.9-0.5-2.7-0.7-4c-0.1-0.3-0.1-0.5-0.2-0.7c-0.1-0.3-0.1-0.5-0.1-0.5l-0.4-1.9l-1.3-0.4c0.4-0.9,1.1-0.9,1.7-0.9
		c2.1,0,5.3,1.3,9,3.7c0.4,0.2,0.7,0.5,1,0.7c0.1,0.1,0.2,0.2,0.3,0.2c0.1,0.2,0.1,0.4,0.2,0.7c0,0.1,0.1,0.3,0.1,0.4
		c0.1,0.2,0.1,0.3,0.2,0.5c0.2,0.7,0.5,1.5,0.7,2.5c0,0.1,0.1,0.2,0.1,0.3l0.3,1.1c0.9,2.9,2.3,7.6,4.1,13.3
		c0.6,1.7,1.2,3.6,1.8,5.5v0.1l0.2,0.6l0.1,0.2c0,0.1,0.1,0.2,0.1,0.2c0.3,1.1,0.7,2.2,1.1,3.3c0,0,0.2,0.5,0.2,0.5
		c1.2,3.4,2.4,6.8,3.6,10.3l0.2,0.6c0.7,1.9,1.3,3.6,1.8,5.1v0.2l0.3,0.6c0.7,1.9,1.4,3.8,2.1,5.7l0.4,1l0,0.1l0.3,0.9l0.1,0.3
		c0.3,0.7,0.6,1.5,0.9,2.3c0.1,0.2,0.2,0.4,0.2,0.6l0.1,0.1c0.4,1,0.8,2.1,1.2,3.1c0.2,0.4,0.3,0.9,0.5,1.3l0,0.1
		c1.3,3.2,2.7,6.5,4.3,10.1c1,2.2,2,4.5,3.1,6.7c0.1,0.2,0.2,0.5,0.4,0.7c0.5,1.1,1.1,2.4,1.8,3.8c2.8,5.6,5.5,10.5,8,14.7
		c0.3,0.5,2.6,3.8,3.6,5.3h4C358.9,271.6,358.8,271.5,358.7,271.3z"/>
	<g>
		<path class="st5" d="M308.3,132.3l-1.9-1.9l-2-2l-9-8.8l-2.5-2.5l-5.3-5.2l-3.1-3c0-0.2,0.1-0.4,0.1-0.7c0.1-1.3,0.3-2.5,0.4-3.8
			l1.8,1.7l1.3,1.3l7.4,7.2l2.5,2.5l5.8,5.6l3.9,3.8c0.2,1.5,0.4,2.9,0.6,4.3C308.2,131.4,308.3,131.9,308.3,132.3z"/>
		<path class="st5" d="M305.6,109.8l-3.1,3l-4.6,4.4l-2.5,2.4l-10,9.6l-1.1,1.1l-2.5,2.4l-0.3,0.3c0-0.2,0.1-0.4,0.1-0.6
			c0-0.1,0-0.3,0.1-0.4c0.2-1.6,0.4-3.1,0.7-4.7l3.9-3.7l6.7-6.4l2.5-2.4l6.7-6.4l2.1-2l1-1c0.1,0.7,0.2,1.5,0.2,2.2
			C305.4,108.4,305.5,109.1,305.6,109.8z"/>
	</g>
	<g>
		<path class="st5" d="M314.8,164.8C314.8,164.8,314.7,164.9,314.8,164.8l-4.7-4.4L295.3,146l-2.5-2.5l-8.3-8.1l-2.7-2.7l-0.2-0.2
			c0-0.1,0-0.3,0.1-0.4l2.2-2.3l0.5,0.5l0.8,0.8l10.2,10l2.5,2.5l10.8,10.5l4.4,4.3C313.7,160.6,314.2,162.8,314.8,164.8z"/>
		<path class="st5" d="M308.5,133.3c0,0-3,2.9-3,2.9l-7.6,7.3l-2.5,2.4l-15.8,15.2c0,0-3.7,3.6-3.7,3.6l-0.6-0.6
			c0.4-1.6,0.9-3.3,1.3-5l4.5-4.3c0,0,11.8-11.4,11.8-11.4l2.5-2.4l9.5-9.2c0,0,1.5-1.5,1.5-1.5l0.6-0.6l1.1,1.1
			c0.1,0.5,0.1,0.9,0.2,1.4C308.4,132.7,308.4,133,308.5,133.3z"/>
	</g>
	<g>
		<rect x="293.9" class="st3" width="2.2" height="8.8"/>
		<rect x="293.6" y="8.8" class="st4" width="2.8" height="31.4"/>
	</g>
	<g>
		<rect x="286.9" y="27" class="st22" width="15.9" height="7.8"/>
		<ellipse class="st22" cx="294.9" cy="27" rx="8" ry="7.6"/>
	</g>
	<rect x="287.4" y="82.9" class="st1" width="15.6" height="6.1"/>
	<g>
		<g>
			<path class="st5" d="M301.9,50.1l-1.4,1.5l-2-1.9l-3.5-3.3l-1.9-1.8l-1.6-1.5l-3.4-3.1l-0.4-0.4l0.5-0.5l0.6-0.6l0.7-0.7l5.5,5.1
				l1.9,1.8l1.6,1.5l3.4,3.2C301.9,49.6,301.9,49.9,301.9,50.1z"/>
			<path class="st5" d="M302.3,39.7l-0.5,0.4c0,0-3.3,3.1-3.3,3.1l-1.5,1.5l-1.9,1.8l-3.6,3.4l-1.9,1.8L288,50c0-0.2,0-0.4,0-0.6
				l3.4-3.2l1.7-1.6l1.9-1.8l3.4-3.2l0.2-0.2c0,0,1.9-1.8,1.9-1.8l1.1,1.2l0.1,0.1C301.7,39.1,302.3,39.7,302.3,39.7z"/>
		</g>
		<path class="st5" d="M303.6,87.5l-0.6-0.7l-0.1-0.2l-3-3.4c0,0-1-1.1-1-1.1l-3.6-4.1l-1.9-2.2l-2.8-3.3c0,0-3.2-3.7-3.2-3.7
			c0-0.6,0.1-1.2,0.1-1.7c0-0.2,0-0.3,0-0.4l1-0.9l1.3,1.5l1,1.1l4.6,5.3l1.9,2.2l2.3,2.7l3.1,3.6l0.3,0.3l0.3,0.3
			c0.1,1.1,0.2,2.2,0.2,3.4C303.5,86.5,303.6,87,303.6,87.5z"/>
		<path class="st5" d="M302.5,69.8l-3.2,3.7l-2,2.3l-1.9,2.2l-3.6,4.1l-1.8,2.1l-2.1,2.4l-0.4,0.4l-1,1.1l-0.2,0.2
			c0.1-0.7,0.1-1.4,0.2-2.1c0-0.3,0-0.7,0.1-1c0-0.5,0.1-1.1,0.1-1.6l0.9-1l0.5-0.6l2.3-2.6l3.2-3.7l1.9-2.2l3.7-4.2l1.5-1.7l1.7-2
			l0,0c0,0,0,0.1,0,0.1c0,0.4,0,0.9,0.1,1.3C302.4,68,302.5,68.9,302.5,69.8z"/>
		<path class="st5" d="M302.4,67.1l-1.2,1.2l-0.6-0.6l-1.6-1.6c0,0-4-4-4-4l-1.8-1.8l-1.9-1.9l-3.3-3.3c0-0.2,0-0.3,0-0.4l1.6-1.6
			l1.8,1.8l3.6,3.6l1.8,1.8l2,2l3.5,3.5l0,0C302.3,66.2,302.4,66.6,302.4,67.1z"/>
		<path class="st5" d="M302,55l-3.3,3.3c0,0-1.9,1.9-1.9,1.9l-1.8,1.8l-4,4l-1.1,1.1l-1.1,1.1l-1.2-1.2c0-0.2,0-0.3,0-0.4
			c0-0.3,0-0.5,0-0.8c0,0,3.5-3.6,3.5-3.6l2-2l1.8-1.8l3.6-3.6l1.8-1.8l1.6,1.6C301.9,54.7,302,54.8,302,55z"/>
	</g>
	<polygon class="st5" points="272.9,168.8 272,168.8 272,167.8 	"/>
	<path class="st5" d="M293.6,168.8c-1,0-1.5-0.4-1.9-0.5l1.8-1.5C293.6,167.5,293.6,168.1,293.6,168.8z"/>
	<g>
		<path class="st5" d="M277.2,210.3c-0.7,1.1-1.5,2.2-2.2,3.3l-4.1-8.4l-1.5-3.1l-2.9-6c0.7-1.2,1.5-2.3,2.2-3.4l4,8.2l1.5,3.1
			L277.2,210.3z"/>
		<path class="st5" d="M284.8,191.5c-0.6,1.8-1.2,3.6-1.8,5.5l-8.4,5.9l-2.8,2l-12.3,8.7l0,0c0,0,0,0,0,0c0.7-1.9,1.4-3.8,2-5.6
			c0,0,8.1-5.7,8.1-5.7l2.8-2L284.8,191.5z"/>
		<path class="st5" d="M283.3,192.7c-0.7,1-1.5,2.1-2.3,3.2l-3.5-7.3l-1.5-3.1l-3.3-7c0.9-1.3,1.7-2.4,2.3-3.2l4.3,9.1l1.5,3.1
			L283.3,192.7z"/>
		<path class="st5" d="M289.7,173.5L289.7,173.5c-0.2,1-0.7,3.7-0.8,4.5c0,0.2-0.1,0.3-0.1,0.5c0,0,0,0.1,0,0.1l-5.3,4.3l-1.6,1.3
			l-2.7,2.2l-13.9,11.1c0.7-2.1,1.3-4.1,2-6l9.5-7.6l2.7-2.2l2.3-1.8l1.7-1.3l4.8-3.9l1.1-0.9C289.3,173.9,289.7,173.5,289.7,173.5z
			"/>
		<g>
			<path class="st5" d="M256.4,271.3c0,0,0,0.3,0,0.3l-0.1-0.1l-0.1-0.2l-6.2-10.8l-1.7-3l-4.3-7.4c0.6-1.2,1.2-2.5,1.8-3.7l5.4,9.4
				l1.7,3l4.9,8.5C257.1,269.3,256.6,270.7,256.4,271.3z"/>
			<path class="st5" d="M264.9,247.9c-0.6,1.7-1.2,3.4-1.8,5l-10.2,5.9l-3,1.7l-18.2,10.5c1.4-2,2.9-4.1,4.3-6.5l12.1-7l3-1.7
				L264.9,247.9z"/>
			<path class="st5" d="M264.9,247.2c-0.6,1.6-1.2,3.2-1.7,4.7l-1.7-3.9c0,0-0.7-1.7-0.7-1.7l-2.7-6.2l-1.4-3.3l-1.2-2.8l-1.4-3.3
				l-0.7-1.6c0.6-1.5,1.2-3,1.8-4.5l0.9,2.1l1.7,4l1.4,3.3l0.3,0.6l1.4,3.3l2.7,6.2l1,2.3L264.9,247.2z"/>
			<path class="st5" d="M273.1,224.3c-0.3,0.8-0.6,1.6-0.9,2.5c-0.4,1.2-0.8,2.3-1.2,3.5l-0.7,0.5L266,234l-5.1,3.9l-2.8,2.1
				L244,250.8c1-2.2,2-4.4,3-6.6l9.7-7.4l2.8-2.2l0.8-0.6l4.4-3.3l5.3-4L273.1,224.3z"/>
		</g>
	</g>
	<g>
		<path class="st5" d="M305.3,107.6l-1.3-1.2l-2.5-2.4l-6.3-6.1l-2.1-2l-3.9-3.8l-3.2-3.1c0-0.2,0-0.4,0.1-0.6
			c0.1-0.7,0.1-1.4,0.2-2.1c0-0.3,0-0.7,0.1-1l1,1l0.4,0.4l1.6,1.6l0.2,0.2l5.7,5.6l2.1,2l3.8,3.7c0,0,3.7,3.6,3.7,3.6
			c0.1,0.7,0.1,1.5,0.2,2.2C305.2,106.1,305.3,106.9,305.3,107.6z"/>
		<path class="st5" d="M303.8,89.8l-3.2,3l-3.2,3.1l-2.1,2l-7.1,6.8l-1.6,1.6l-2.2,2.1c0.1-1.3,0.3-2.5,0.4-3.8c0-0.2,0-0.4,0.1-0.6
			l3.7-3.6c0,0,4.6-4.5,4.6-4.5l2.1-2l5-4.8l1-1l1.6-1.5l0.1-0.1l0.5-0.5c0,0.5,0.1,1,0.1,1.4c0,0.4,0.1,0.8,0.1,1.1
			C303.7,89,303.7,89.4,303.8,89.8z"/>
	</g>
	<path class="st5" d="M315.4,166.9l-18.7,1l0,0.2l-1.7-0.1l-1.7,0.1l0-0.2l-18.7-1l0.6-2.1c0.1-0.2,0.1-0.4,0.2-0.6
		c0.4-1.6,0.9-3.3,1.3-5c1.8-7.5,3.5-16.5,4.9-26.1c0-0.2,0.1-0.4,0.1-0.6c0-0.1,0-0.3,0.1-0.4c0.2-1.6,0.4-3.1,0.7-4.7
		c0.8-6,1.5-12.2,2.2-18.4c0-0.2,0.1-0.4,0.1-0.7c0.1-1.3,0.3-2.5,0.4-3.8c0-0.2,0-0.4,0.1-0.6c0.5-5,0.9-10,1.3-14.9
		c0-0.2,0-0.4,0.1-0.6c0.1-0.7,0.1-1.4,0.2-2.1c0-0.3,0-0.7,0.1-1c0-0.5,0.1-1.1,0.1-1.6c0-0.5,0.1-1,0.1-1.5
		c0.3-4.6,0.6-9,0.8-13.3c0-0.6,0.1-1.2,0.1-1.7c0-0.2,0-0.3,0-0.4c0-0.3,0-0.5,0-0.8c0.2-3.8,0.3-7.4,0.4-10.8c0-0.2,0-0.3,0-0.4
		c0-1.6,0.1-3.1,0.1-4.5c0-0.2,0-0.4,0-0.6c0-2,0-3.9,0-5.8v-0.2l0-0.2c0,0,0-0.1,0-0.1c0-0.3,0-1,0-1.6c0-0.6,0-1.1,0-1.5
		c0-0.4,0-0.7,0.1-0.9c0.1-0.3,0.2-0.4,0.5-0.7l0,0.1l2.1,2.6l-1-1.3l1.7,0.1c0,0.1,0,0.9,0,1.7c0,0.7,0,1.2,0,1.6
		c0,0.3,0,0.5-0.1,0.7c0,0,0,0,0,0.1c0,0.8,0,1.5,0,2.3c0,1.2,0,2.3,0,3.6c0,1.6-0.1,3.2-0.1,4.9c0,1.2-0.1,2.4-0.1,3.6
		c0,1.3-0.1,2.6-0.1,3.9c-0.1,1.3-0.1,2.5-0.2,3.8c0,0.7-0.1,1.5-0.1,2.2c-0.1,1.4-0.1,2.8-0.2,4.2c-0.1,2.3-0.3,4.6-0.4,7
		c-0.1,0.9-0.1,1.8-0.2,2.6c0,0.7-0.1,1.4-0.1,2.1c-0.1,1.3-0.2,2.7-0.3,4c0,0.1,0,0.1,0,0.2c-0.1,1.2-0.2,2.5-0.3,3.7
		c-0.2,2.7-0.4,5.5-0.7,8.3c-0.1,1.5-0.3,2.9-0.4,4.4c-0.1,1-0.2,1.9-0.3,2.9c-0.2,1.5-0.3,3-0.5,4.5c-0.4,3.9-0.9,7.8-1.4,11.6
		c-0.2,1.9-0.5,3.8-0.7,5.6c-0.1,0.6-0.2,1.2-0.3,1.9c-0.2,1.4-0.4,2.9-0.6,4.3c-1,7-2.2,13.5-3.5,19.5c-0.5,2.2-1,4.3-1.5,6.3
		c-0.2,0.8-0.4,1.7-0.6,2.5l16.1,0.8l0.2,0l15.9-0.8c-0.3-1.1-0.6-2.2-0.8-3.3c-0.5-2-1-4.1-1.4-6.3c-1.2-5.5-2.2-11.5-3.2-17.9
		c-0.2-1.4-0.4-2.8-0.6-4.3c-0.2-1.1-0.3-2.3-0.5-3.4c-0.3-1.9-0.5-3.7-0.7-5.6c-0.4-3.3-0.8-6.7-1.2-10c-0.2-1.5-0.3-3-0.5-4.4
		c-0.1-1.5-0.3-2.9-0.4-4.4c-0.1-1.5-0.3-2.9-0.4-4.4c-0.2-2.3-0.4-4.5-0.6-6.8c-0.1-1.2-0.2-2.5-0.3-3.7c0-0.3-0.1-0.6-0.1-1
		c-0.1-1.7-0.2-3.3-0.3-4.9c0-0.4-0.1-0.8-0.1-1.1c-0.1-1.2-0.2-2.4-0.2-3.6c-0.1-1.7-0.2-3.3-0.3-5c-0.1-1.4-0.1-2.8-0.2-4.1
		c-0.1-1.1-0.1-2.2-0.2-3.3c-0.1-1.3-0.1-2.6-0.2-3.8c-0.1-1.3-0.1-2.6-0.1-3.9c0-1.2-0.1-2.4-0.1-3.6c0-1.7-0.1-3.4-0.1-5
		c0-1.2,0-2.4,0-3.6c0-0.8,0-1.6,0-2.4c0-0.1,0-0.3,0-0.5c0-0.3,0-0.8,0-1.6c0-0.7,0-1.5,0-1.8c0-0.1,0-0.1,0-0.2l0.2,0
		c0,0,1.2-0.1,1.2-0.1l1.8-0.5l0.1,0c0,0,0,0.1,0,0.1c0,0.1,0.1,0.3,0.1,1c0,0.3,0,0.8,0,1.4c0,0.8,0,1.6,0,1.9l0,0.1v0.2
		c0,1.8,0,3.7,0,5.7c0,0.3,0,0.5,0,0.8c0,1.4,0,2.9,0.1,4.4c0,0.1,0,0.3,0,0.4c0.1,3.4,0.2,7,0.4,10.7v0.1c0,0.4,0,0.9,0.1,1.3
		c0,0.9,0.1,1.8,0.1,2.8c0.2,4.2,0.5,8.5,0.8,12.9c0.1,1.1,0.2,2.2,0.2,3.4c0,0.5,0.1,1,0.1,1.4c0,0.4,0.1,0.8,0.1,1.1
		c0,0.4,0.1,0.8,0.1,1.1c0.3,4.4,0.7,8.9,1.1,13.4c0.1,0.7,0.1,1.5,0.2,2.2c0.1,0.7,0.2,1.5,0.2,2.2c0.1,0.7,0.1,1.5,0.2,2.2
		c0.6,5.7,1.3,11.3,2,16.8c0.2,1.5,0.4,2.9,0.6,4.3c0.1,0.5,0.1,0.9,0.2,1.4c0,0.3,0.1,0.7,0.1,1c1.3,9.2,2.9,17.7,4.6,25.1
		c0.5,2.3,1.1,4.4,1.7,6.4C314.8,164.8,315.4,166.9,315.4,166.9z"/>
	<polygon class="st5" points="301.5,32.7 293.6,32.7 285.5,32.7 287.7,40.9 294,40.9 301.5,40.9 302,40.9 304.2,32.7 	"/>
	<rect x="285.3" y="31.1" class="st5" width="19.1" height="3.5"/>
	<path class="st5" d="M293.5,166.9c0-0.3-0.1-0.5-0.1-0.8c-0.7-3.8-2.8-5.1-5.4-5.1c-3.6,0-8.1,2.5-10.8,4.3c-1.5,1-2.5,1.7-2.5,1.7
		s-0.2,0.6-0.5,1.8c-0.1,0.3-0.2,0.6-0.3,1c-0.3,0.9-0.6,2.1-1,3.4c0,0.1-0.1,0.3-0.1,0.4c-1,3.4-2.4,7.9-4.1,13.2
		c-0.6,1.9-1.3,3.9-2,6c-0.1,0.2-0.1,0.3-0.2,0.5c-0.4,1.2-0.8,2.5-1.3,3.8c-1.2,3.5-2.4,7.1-3.8,10.8c-0.7,1.9-1.3,3.7-2,5.6
		c0,0,0,0,0,0c-0.7,1.9-1.4,3.9-2.2,5.8c-0.3,0.7-0.5,1.3-0.8,2l-0.1,0.3c-0.3,0.8-0.6,1.5-0.9,2.3c-0.1,0.2-0.2,0.4-0.3,0.7
		c-0.6,1.5-1.2,2.9-1.8,4.4c0,0,0,0.1-0.1,0.1c-1.4,3.4-2.8,6.7-4.2,10c-1,2.2-2,4.5-3,6.6c-0.1,0.3-0.2,0.5-0.4,0.7
		c-0.6,1.3-1.2,2.5-1.8,3.7c-2.3,4.6-4.6,9-7,13c-0.3,0.5-0.6,1-0.9,1.4c-0.3,0.5-0.7,1.1-1,1.6c-1.1,1.7-2.2,3.4-3.3,4.9
		c-0.1,0.1-0.1,0.2-0.2,0.2c-0.1,0.1-0.2,0.2-0.3,0.4h4c0.1-0.1,0.2-0.2,0.3-0.4c1.1-1.6,3.1-4.4,3.4-4.9c0-0.1,0.1-0.1,0.1-0.2
		c0.6-1,1.2-2,1.8-3c2-3.4,4-7.3,6.1-11.5c0.7-1.4,1.3-2.6,1.8-3.8c0.1-0.3,0.2-0.5,0.4-0.7c1.1-2.2,2.1-4.5,3.1-6.7
		c1.6-3.6,3-6.9,4.3-10.1l0-0.1c0.6-1.5,1.2-3,1.8-4.4l0.1-0.1c0.1-0.2,0.2-0.4,0.2-0.6c0.3-0.8,0.6-1.5,0.9-2.3l0.1-0.3l0.4-1
		l0.4-1c0.7-1.9,1.4-3.8,2.1-5.7l0.3-0.6v-0.2c0.6-1.5,1.2-3.1,1.8-5.1l0.2-0.6c1.2-3.4,2.4-6.9,3.6-10.3l0.2-0.5
		c0.4-1.1,0.8-2.2,1.1-3.3c0-0.1,0.1-0.2,0.1-0.2l0.1-0.2l0.2-0.6v-0.1c0.6-1.9,1.2-3.7,1.8-5.5c1.8-5.7,3.3-10.4,4.1-13.3l0.3-1.1
		c0-0.1,0.1-0.2,0.1-0.3c0.3-0.9,0.5-1.7,0.7-2.5c0.1-0.2,0.1-0.4,0.2-0.5c0-0.2,0.1-0.3,0.1-0.4c0.1-0.3,0.1-0.5,0.2-0.7
		c0.1-0.1,0.2-0.2,0.3-0.2c0.3-0.2,0.6-0.4,1-0.7c3.6-2.4,6.9-3.7,9-3.7c0.6,0,1.2,0,1.7,0.9l-1.3,0.4l-0.4,1.9c0,0,0,0.2-0.1,0.5
		c-0.1,0.2-0.1,0.5-0.2,0.7c-0.3,1.3-0.6,3.1-0.7,4c0,0,0,0.1,0,0.1l0,0.2l0,0.1c0,0,0,0.1,0,0.1c-0.2,1-0.6,2.3-1.1,4.1
		c-0.5,1.7-1.1,3.6-1.7,5.5c-0.4,1.2-0.8,2.4-1.2,3.7c-0.4,1.3-0.8,2.6-1.3,3.9l-0.1,0.4c-0.5,1.6-1.1,3.3-1.7,5
		c-1.1,3.2-2.3,6.7-3.9,11.2l-0.6,1.8c-0.2,0.7-0.5,1.3-0.7,1.9c-0.2,0.5-0.4,1-0.5,1.5l-0.1,0.4c-0.6,1.7-1.2,3.5-1.9,5.3
		c-0.3,0.8-0.6,1.6-0.9,2.4c-0.2,0.6-0.4,1.2-0.6,1.7c-0.2,0.6-0.4,1.2-0.6,1.8l-0.1,0.2c-0.1,0.1-0.1,0.3-0.1,0.4
		c-0.4,1.1-0.8,2.2-1.2,3.3l-0.2,0.6c-0.5,1.5-1.1,3.1-1.6,4.5l-1,2.8l-0.2,0.6c-0.4,1.1-0.8,2.2-1.2,3.3l-0.2,0.6
		c-0.1,0.3-0.2,0.6-0.3,0.9c-0.6,1.6-1.2,3.2-1.7,4.7l0,0.1c-0.1,0.2-0.1,0.4-0.2,0.5c-0.1,0.1-0.1,0.3-0.2,0.4
		c-0.6,1.7-1.2,3.4-1.8,5c-1.4,3.8-2.9,8-4.2,11.4c-0.4,1.1-0.8,2.1-1.1,3c0,0,0,0,0,0.1c-0.2,0.6-1.3,3.2-2.1,5.1
		c-0.1,0.1-0.1,0.3-0.2,0.4h3.9c0,0,0-0.1,0.1-0.2c0-0.1,0-0.1,0.1-0.2c0.2-0.6,0.7-2,1.5-4c0.1-0.3,0.3-0.7,0.4-1.1
		c0.3-0.9,0.7-1.9,1.1-3c1.1-2.9,2.3-6.4,3.8-10.3c0.6-1.6,1.2-3.3,1.8-5c0.1-0.3,0.2-0.7,0.4-1c0.6-1.5,1.1-3.1,1.7-4.7
		c0.2-0.5,0.3-0.9,0.5-1.4c0.5-1.3,0.9-2.6,1.4-3.9c0.9-2.6,1.9-5.2,2.8-7.9c0.4-1.1,0.8-2.2,1.2-3.3c0.1-0.2,0.1-0.3,0.2-0.5
		c0.4-1.2,0.8-2.3,1.2-3.5c0.3-0.8,0.6-1.6,0.9-2.5c0.7-1.9,1.3-3.8,2-5.7c0.2-0.5,0.3-1,0.5-1.5c0.4-1.3,0.9-2.5,1.3-3.8
		c1.4-3.9,2.7-7.7,3.9-11.2c0.6-1.9,1.3-3.7,1.8-5.5c0.4-1.4,0.9-2.7,1.3-3.9c0.4-1.3,0.8-2.5,1.2-3.7c0.7-2.1,1.2-3.9,1.7-5.6
		c0.5-1.7,0.9-3.1,1.1-4.3c0,0,0-0.1,0-0.1c0-0.2,0.1-0.4,0.1-0.5c0-0.1,0-0.1,0-0.2c0.1-1,0.6-3.4,0.8-4.4c0,0,0,0,0,0
		c0.1-0.3,0.1-0.4,0.1-0.4c0.1,0,0.2,0,0.3,0c0.1,0,0.1,0,0.2,0c0.4,0.1,0.9,0.5,1.9,0.5C293.6,168.1,293.6,167.5,293.5,166.9z"/>
	<path class="st1" d="M336.9,228.9h-83.5c0.6-1.5,1.2-2.9,1.8-4.4c0.1-0.2,0.2-0.4,0.3-0.7c0.3-0.8,0.6-1.5,0.9-2.3H334
		c0.3,0.8,0.6,1.5,0.9,2.3c0.1,0.2,0.2,0.4,0.3,0.7C335.7,226,336.3,227.5,336.9,228.9z"/>
	<path class="st1" d="M317.4,173.2h-44.6c0.4-1.3,0.7-2.5,1-3.4c0.1-0.4,0.2-0.7,0.3-1h42c0.1,0.3,0.2,0.6,0.3,1
		C316.7,170.7,317,171.8,317.4,173.2z"/>
	<rect x="256.5" y="213.5" class="st22" width="77.6" height="8.1"/>
	<path class="st22" d="M258.2,266.2c-0.1,0.4-0.3,0.8-0.4,1.1c-0.7,2-1.2,3.4-1.5,4h-24.7c0.1-0.1,0.1-0.1,0.2-0.2
		c1.1-1.5,2.2-3.2,3.3-4.9H258.2z"/>
	<rect x="272" y="160.7" class="st22" width="46.5" height="8.1"/>
	<path class="st22" d="M332.1,266.2c0.1,0.4,0.3,0.8,0.4,1.1c0.7,2,1.2,3.4,1.5,4h24.7c-0.1-0.1-0.1-0.1-0.2-0.2
		c-1.1-1.5-2.2-3.2-3.3-4.9H332.1z"/>
</g>
<g>
	<path class="st40" d="M475.6,268.1c0,0,3.4-1.4,3.4-3.4s-1.4-23.4-2.1-26.8s-1.4-12.4-2.1-13.1s-1.4-0.7-1.4-0.7v44H475.6z"/>
	<path class="st41" d="M471.4,268.1c0,0-3.4-1.4-3.4-3.4s1.4-23.4,2.1-26.8s1.4-12.4,2.1-13.1s1.4-0.7,1.4-0.7v44H471.4z"/>
	
		<rect x="472.1" y="268.1" transform="matrix(-1 -4.365587e-11 4.365587e-11 -1 947 540.2949)" class="st42" width="2.8" height="4.1"/>
	
		<rect x="471.4" y="271.5" transform="matrix(-1 -4.365587e-11 4.365587e-11 -1 947 544.9355)" class="st43" width="4.1" height="1.9"/>
	<circle class="st44" cx="473.8" cy="236.8" r="1"/>
	<circle class="st44" cx="475.2" cy="232.7" r="1"/>
	<circle class="st44" cx="475.2" cy="239.6" r="1"/>
	<circle class="st44" cx="473.8" cy="243.7" r="1"/>
	<circle class="st44" cx="476.6" cy="247.8" r="1"/>
	<circle class="st44" cx="475.2" cy="228.6" r="1"/>
	<circle class="st44" cx="475.2" cy="258.8" r="1"/>
	<circle class="st44" cx="478" cy="256.1" r="1"/>
	<circle class="st44" cx="475.2" cy="251.9" r="1"/>
	<circle class="st44" cx="475.2" cy="262.9" r="1"/>
	<circle class="st45" cx="469.7" cy="261.6" r="1"/>
	<circle class="st45" cx="471.1" cy="257.4" r="1"/>
	<circle class="st45" cx="472.5" cy="251.9" r="1"/>
	<circle class="st45" cx="471.1" cy="247.8" r="1"/>
	<circle class="st45" cx="472.5" cy="240.9" r="1"/>
</g>
<g>
	<path class="st40" d="M465,265.7c0,0,5-2,5-5s-2-34-3-39s-2-18-3-19s-2-1-2-1v64H465z"/>
	<path class="st41" d="M459,265.7c0,0-5-2-5-5s2-34,3-39s2-18,3-19s2-1,2-1v64H459z"/>
	<rect x="460" y="265.7" transform="matrix(-1 -4.456536e-11 4.456536e-11 -1 924 537.3262)" class="st42" width="4" height="6"/>
	<rect x="459" y="270.7" transform="matrix(-1 -4.486867e-11 4.486867e-11 -1 924 544.0762)" class="st43" width="6" height="2.8"/>
	<circle class="st44" cx="462.5" cy="220.2" r="1.5"/>
	<circle class="st44" cx="464.5" cy="214.2" r="1.5"/>
	<circle class="st44" cx="464.5" cy="224.2" r="1.5"/>
	<circle class="st44" cx="462.5" cy="230.2" r="1.5"/>
	<circle class="st44" cx="466.5" cy="236.2" r="1.5"/>
	<circle class="st44" cx="464.5" cy="208.2" r="1.5"/>
	<circle class="st44" cx="464.5" cy="252.2" r="1.5"/>
	<circle class="st44" cx="468.5" cy="248.2" r="1.5"/>
	<circle class="st44" cx="464.5" cy="242.2" r="1.5"/>
	<circle class="st44" cx="464.5" cy="258.2" r="1.5"/>
	<circle class="st45" cx="456.5" cy="256.2" r="1.5"/>
	<circle class="st45" cx="458.5" cy="250.2" r="1.5"/>
	<circle class="st45" cx="460.5" cy="242.2" r="1.5"/>
	<circle class="st45" cx="458.5" cy="236.2" r="1.5"/>
	<circle class="st45" cx="460.5" cy="226.2" r="1.5"/>
</g>
<g>
	<polygon class="st75" points="522,201.7 525,198.7 525,145.7 522,145.7 	"/>
	<rect x="463" y="98.7" class="st76" width="63" height="47"/>
	<rect x="521" y="98.7" class="st77" width="2" height="47"/>
	<rect x="522" y="93.7" class="st75" width="3" height="5"/>
	<polygon class="st76" points="492,104.7 494,106.7 499,104.7 495,103.7 	"/>
	<polygon class="st76" points="494.1,115.7 490.6,113.9 491.5,113.1 494.1,114.8 	"/>
	<rect x="480" y="107.7" class="st78" width="11" height="23"/>
	<path class="st79" d="M492,107.7v23c0,0,13,1,13-4c0-5-3-8-7-8c4-1,7-7,4-9S492,107.7,492,107.7z"/>
	<path class="st76" d="M491,107.7c0,0-2,24-3,25s5,0,5,0L491,107.7z"/>
	<path class="st76" d="M478,128.7c0,0,3-2,5-7s4-13,4-13s-7,16-8,16S478,128.7,478,128.7z"/>
	<path class="st76" d="M498,130.7c0,0-4-5-4-10s0-10,0-10s1,17,7,20C507,133.7,498,130.7,498,130.7z"/>
	<path class="st76" d="M480,132.7c0,0,5-7,6-11s2-14,2-14s1,12,0,16c-0.9,3.5-4,10-4,10L480,132.7z"/>
	<path class="st76" d="M495,109.7c0,0,1,11,4,15c3,4,6,6,6,6l2-3c0,0-4.7-3.2-6-5C498,118.7,495,109.7,495,109.7z"/>
	<g>
		<text transform="matrix(1 0 0 1 477 138.0537)" class="st78 st80 st81">BORDEAUX</text>
	</g>
</g>
<g>
	<path class="st82" d="M58,282.7l-11,12c0,0-15-22-22-30s-25-25-25-25l6-6L58,282.7z"/>
	<polygon class="st83" points="3,234.7 55,285.7 59,281.7 5,232.7 	"/>
</g>
<g>
	<rect x="312" y="98.7" class="st76" width="63" height="47"/>
	<rect x="370" y="98.7" class="st77" width="2" height="47"/>
	<rect x="371" y="145.7" class="st75" width="3" height="127"/>
	<rect x="371" y="93.7" class="st75" width="3" height="5"/>
	<polygon class="st76" points="341,104.7 343,106.7 348,104.7 344,103.7 	"/>
	<polygon class="st76" points="343.1,115.7 339.6,113.9 340.5,113.1 343.1,114.8 	"/>
	<path class="st76" d="M340,107.7c0,0-2,24-3,25s5,0,5,0L340,107.7z"/>
	<path class="st76" d="M347,130.7c0,0-4-5-4-10s0-10,0-10s1,17,7,20C356,133.7,347,130.7,347,130.7z"/>
	<path class="st76" d="M344,109.7c0,0,1,11,4,15c3,4,6,6,6,6l2-3c0,0-4.7-3.2-6-5C347,118.7,344,109.7,344,109.7z"/>
	<g>
		<text transform="matrix(1 0 0 1 324.6709 139.6748)" class="st84 st80 st85">SORBONNE</text>
	</g>
	<path class="st84" d="M353.1,105.6v15.2c0,6-4.9,10.9-10.9,10.9h-2.9c-6,0-10.9-4.9-10.9-10.9v-15.2"/>
	<g>
		<text transform="matrix(1 0 0 1 332.0938 127.6348)" class="st76 st80 st86">S</text>
	</g>
</g>
<g>
	<ellipse class="st24" cx="359.1" cy="247.3" rx="17.1" ry="16.6"/>
	<path class="st25" d="M359.1,230.7c0.1,0,0.3,0,0.4,0v33.2c-0.1,0-0.3,0-0.4,0c-9.4,0-17.1-7.4-17.1-16.6
		C342,238.1,349.6,230.7,359.1,230.7z"/>
	
		<rect x="357.8" y="252.5" transform="matrix(-1 -4.573465e-11 4.573465e-11 -1 719 525.2012)" class="st26" width="3.5" height="20.1"/>
</g>
</svg>
