<?xml version="1.0" encoding="utf-8"?>
<!-- Generator: Adobe Illustrator 21.0.2, SVG Export Plug-In . SVG Version: 6.00 Build 0)  -->
<svg version="1.1" id="Layer_1" xmlns="http://www.w3.org/2000/svg" xmlns:xlink="http://www.w3.org/1999/xlink" x="0px" y="0px"
	 width="2966px" height="74.3px" viewBox="0 0 2966 74.3" style="enable-background:new 0 0 2966 74.3;" xml:space="preserve">
<style type="text/css">
	.st0{fill:#FFFFFF;}
</style>
<g>
	<path class="st0" d="M806.4,20.8c0-4.3-3.5-7.7-7.7-7.7c-0.4,0-0.7,0-1.1,0.1c0.3-1,0.5-2,0.5-3.1C798.1,4.5,793.5,0,788,0
		c-2.8,0-5.4,1.2-7.2,3.1c-2.4-1.9-5.5-3.1-8.8-3.1c-6.3,0-11.6,4.1-13.5,9.7c-0.6-0.1-1.3-0.2-1.9-0.2c-5.2,0-9.5,4.3-9.5,9.5
		c0,4.8,3.6,8.8,8.3,9.4v0.1h45.1v-0.2C803.8,27.5,806.4,24.4,806.4,20.8z"/>
	<path class="st0" d="M968,60.8c0-3-3.6-5.5-8-5.5c-0.4,0-0.7,0-1,0.1c-0.4-2.3-3.3-4.1-7-4.1c0,0,0,0,0,0c0-0.2,0-0.3,0-0.5
		c0-3.6-3.1-6.5-7-6.5c-2.5,0-4.7,1.2-5.9,3.1c-1-0.7-2.2-1.1-3.6-1.1c-3.3,0-6.1,2.5-6.5,5.8c-0.7-0.5-1.6-0.8-2.5-0.8
		c-1.7,0-3.2,1-3.9,2.3c-0.7-0.2-1.3-0.3-2.1-0.3c-3.6,0-6.5,2.9-6.5,6.5c0,3.4,2.6,6.2,6,6.5v0h41v0C964.9,65.9,968,63.6,968,60.8z
		 M941.1,56.1c0.1,0,0.2,0.1,0.2,0.1H941C941,56.2,941,56.2,941.1,56.1z"/>
	<path class="st0" d="M1194,30.3c-0.6,0-1.1,0.2-1.6,0.6c-1-0.2-2.2-0.4-3.4-0.5c-0.2-1.2-1.5-2.1-2.9-2.1c-0.8,0-1.6,0.3-2.1,0.7
		c-0.4-1.6-1.7-2.7-3.4-2.7c-1.4,0-2.6,0.8-3.2,2.1c-0.3,0-0.5-0.1-0.8-0.1c-3,0-5.5,2-5.5,4.5c0,1.7,1.2,3.3,3,4v0.5h20
		c1.7,0,3-1.6,3-3.5S1195.7,30.3,1194,30.3z"/>
	<path class="st0" d="M1362,71.3h6.6h17.7c1-1.1,1.7-2.5,1.7-4c0-3.3-2.9-6-6.5-6c-0.6,0-1.3,0.1-1.8,0.2c-0.9-3.6-3.5-6.2-6.7-6.2
		c-3.1,0-5.6,2.5-6.6,6c-0.1,0-0.3,0-0.4,0c-2.6,0-4.7,1.8-5,4.1c-2.9,0.4-5,1.5-5,2.9C1356,69.8,1358.6,71,1362,71.3L1362,71.3z"/>
</g>
<g>
	<path class="st0" d="M59.4,23.8c0-4.3-3.5-7.7-7.7-7.7c-0.4,0-0.7,0-1.1,0.1c0.3-1,0.5-2,0.5-3.1C51.1,7.5,46.5,3,41,3
		c-2.8,0-5.4,1.2-7.2,3.1C31.3,4.1,28.3,3,24.9,3c-6.3,0-11.6,4.1-13.5,9.7c-0.6-0.1-1.3-0.2-1.9-0.2C4.3,12.5,0,16.8,0,22
		c0,4.8,3.6,8.8,8.3,9.4v0.1h45.1v-0.2C56.8,30.5,59.4,27.4,59.4,23.8z"/>
	<path class="st0" d="M221,63.8c0-3-3.6-5.5-8-5.5c-0.4,0-0.7,0-1,0.1c-0.4-2.3-3.3-4.1-7-4.1c0,0,0,0,0,0c0-0.2,0-0.3,0-0.5
		c0-3.6-3.1-6.5-7-6.5c-2.5,0-4.7,1.2-5.9,3.1c-1-0.7-2.2-1.1-3.6-1.1c-3.3,0-6.1,2.5-6.5,5.8c-0.7-0.5-1.6-0.8-2.5-0.8
		c-1.7,0-3.2,1-3.9,2.3c-0.7-0.2-1.3-0.3-2.1-0.3c-3.6,0-6.5,2.9-6.5,6.5c0,3.4,2.6,6.2,6,6.5v0h41v0C217.9,68.9,221,66.6,221,63.8z
		 M194.1,59.1c0.1,0,0.2,0.1,0.2,0.1H194C194,59.2,194,59.2,194.1,59.1z"/>
	<path class="st0" d="M447,33.3c-0.6,0-1.1,0.2-1.6,0.6c-1-0.2-2.2-0.4-3.4-0.5c-0.2-1.2-1.5-2.1-2.9-2.1c-0.8,0-1.6,0.3-2.1,0.7
		c-0.4-1.6-1.7-2.7-3.4-2.7c-1.4,0-2.6,0.8-3.2,2.1c-0.3,0-0.5-0.1-0.8-0.1c-3,0-5.5,2-5.5,4.5c0,1.7,1.2,3.3,3,4v0.5h20
		c1.7,0,3-1.6,3-3.5S448.7,33.3,447,33.3z"/>
	<path class="st0" d="M615,74.3h6.6h17.7c1-1.1,1.7-2.5,1.7-4c0-3.3-2.9-6-6.5-6c-0.6,0-1.3,0.1-1.8,0.2c-0.9-3.6-3.5-6.2-6.7-6.2
		c-3.1,0-5.6,2.5-6.6,6c-0.1,0-0.3,0-0.4,0c-2.6,0-4.7,1.8-5,4.1c-2.9,0.4-5,1.5-5,2.9C609,72.8,611.6,74,615,74.3L615,74.3z"/>
</g>
<g>
	<path class="st0" d="M2384.4,20.8c0-4.3-3.5-7.7-7.7-7.7c-0.4,0-0.7,0-1.1,0.1c0.3-1,0.5-2,0.5-3.1c0-5.6-4.5-10.1-10.1-10.1
		c-2.8,0-5.4,1.2-7.2,3.1c-2.4-1.9-5.5-3.1-8.8-3.1c-6.3,0-11.6,4.1-13.5,9.7c-0.6-0.1-1.3-0.2-1.9-0.2c-5.2,0-9.5,4.3-9.5,9.5
		c0,4.8,3.6,8.8,8.3,9.4v0.1h45.1v-0.2C2381.8,27.5,2384.4,24.4,2384.4,20.8z"/>
	<path class="st0" d="M2546,60.8c0-3-3.6-5.5-8-5.5c-0.4,0-0.7,0-1,0.1c-0.4-2.3-3.3-4.1-7-4.1c0,0,0,0,0,0c0-0.2,0-0.3,0-0.5
		c0-3.6-3.1-6.5-7-6.5c-2.5,0-4.7,1.2-5.9,3.1c-1-0.7-2.2-1.1-3.6-1.1c-3.3,0-6.1,2.5-6.5,5.8c-0.7-0.5-1.6-0.8-2.5-0.8
		c-1.7,0-3.2,1-3.9,2.3c-0.7-0.2-1.3-0.3-2.1-0.3c-3.6,0-6.5,2.9-6.5,6.5c0,3.4,2.6,6.2,6,6.5v0h41v0
		C2542.9,65.9,2546,63.6,2546,60.8z M2519.1,56.1c0.1,0,0.2,0.1,0.2,0.1h-0.3C2519,56.2,2519,56.2,2519.1,56.1z"/>
	<path class="st0" d="M2772,30.3c-0.6,0-1.1,0.2-1.6,0.6c-1-0.2-2.2-0.4-3.4-0.5c-0.2-1.2-1.5-2.1-2.9-2.1c-0.8,0-1.6,0.3-2.1,0.7
		c-0.4-1.6-1.7-2.7-3.4-2.7c-1.4,0-2.6,0.8-3.2,2.1c-0.3,0-0.5-0.1-0.8-0.1c-3,0-5.5,2-5.5,4.5c0,1.7,1.2,3.3,3,4v0.5h20
		c1.7,0,3-1.6,3-3.5S2773.7,30.3,2772,30.3z"/>
	<path class="st0" d="M2940,71.3h6.6h17.7c1-1.1,1.7-2.5,1.7-4c0-3.3-2.9-6-6.5-6c-0.6,0-1.3,0.1-1.8,0.2c-0.9-3.6-3.5-6.2-6.7-6.2
		c-3.1,0-5.6,2.5-6.6,6c-0.1,0-0.3,0-0.4,0c-2.6,0-4.7,1.8-5,4.1c-2.9,0.4-5,1.5-5,2.9C2934,69.8,2936.6,71,2940,71.3L2940,71.3z"/>
</g>
<g>
	<path class="st0" d="M1637.4,23.8c0-4.3-3.5-7.7-7.7-7.7c-0.4,0-0.7,0-1.1,0.1c0.3-1,0.5-2,0.5-3.1c0-5.6-4.5-10.1-10.1-10.1
		c-2.8,0-5.4,1.2-7.2,3.1c-2.4-1.9-5.5-3.1-8.8-3.1c-6.3,0-11.6,4.1-13.5,9.7c-0.6-0.1-1.3-0.2-1.9-0.2c-5.2,0-9.5,4.3-9.5,9.5
		c0,4.8,3.6,8.8,8.3,9.4v0.1h45.1v-0.2C1634.8,30.5,1637.4,27.4,1637.4,23.8z"/>
	<path class="st0" d="M1799,63.8c0-3-3.6-5.5-8-5.5c-0.4,0-0.7,0-1,0.1c-0.4-2.3-3.3-4.1-7-4.1c0,0,0,0,0,0c0-0.2,0-0.3,0-0.5
		c0-3.6-3.1-6.5-7-6.5c-2.5,0-4.7,1.2-5.9,3.1c-1-0.7-2.2-1.1-3.6-1.1c-3.3,0-6.1,2.5-6.5,5.8c-0.7-0.5-1.6-0.8-2.5-0.8
		c-1.7,0-3.2,1-3.9,2.3c-0.7-0.2-1.3-0.3-2.1-0.3c-3.6,0-6.5,2.9-6.5,6.5c0,3.4,2.6,6.2,6,6.5v0h41v0
		C1795.9,68.9,1799,66.6,1799,63.8z M1772.1,59.1c0.1,0,0.2,0.1,0.2,0.1h-0.3C1772,59.2,1772,59.2,1772.1,59.1z"/>
	<path class="st0" d="M2025,33.3c-0.6,0-1.1,0.2-1.6,0.6c-1-0.2-2.2-0.4-3.4-0.5c-0.2-1.2-1.5-2.1-2.9-2.1c-0.8,0-1.6,0.3-2.1,0.7
		c-0.4-1.6-1.7-2.7-3.4-2.7c-1.4,0-2.6,0.8-3.2,2.1c-0.3,0-0.5-0.1-0.8-0.1c-3,0-5.5,2-5.5,4.5c0,1.7,1.2,3.3,3,4v0.5h20
		c1.7,0,3-1.6,3-3.5S2026.7,33.3,2025,33.3z"/>
	<path class="st0" d="M2193,74.3h6.6h17.7c1-1.1,1.7-2.5,1.7-4c0-3.3-2.9-6-6.5-6c-0.6,0-1.3,0.1-1.8,0.2c-0.9-3.6-3.5-6.2-6.7-6.2
		c-3.1,0-5.6,2.5-6.6,6c-0.1,0-0.3,0-0.4,0c-2.6,0-4.7,1.8-5,4.1c-2.9,0.4-5,1.5-5,2.9C2187,72.8,2189.6,74,2193,74.3L2193,74.3z"/>
</g>
</svg>
