<?xml version="1.0" encoding="utf-8"?>
<!-- Generator: Adobe Illustrator 21.0.2, SVG Export Plug-In . SVG Version: 6.00 Build 0)  -->
<svg version="1.1" id="Layer_1" xmlns="http://www.w3.org/2000/svg" xmlns:xlink="http://www.w3.org/1999/xlink" x="0px" y="0px"
	 width="74px" height="202.5px" viewBox="0 0 74 202.5" style="enable-background:new 0 0 74 202.5;" xml:space="preserve">
<style type="text/css">
	.st0{fill:#1C326C;}
	.st1{fill:#588DFF;}
	.st2{fill:#4076E0;}
	.st3{fill:#FAA376;}
	.st4{fill:#808D9E;}
	.st5{fill:#3E4977;}
	.st6{fill:#F89669;}
	.st7{fill:#FF4A43;}
	.st8{fill:#FF9914;}
	.st9{fill:#FFC21C;}
	.st10{fill:#283138;}
	.st11{fill:#424C55;}
	.st12{fill:#FDF4E5;}
	.st13{fill:#FFB288;}
	.st14{fill:#F98C6D;}
	.st15{fill:#FFD0BE;}
	.st16{fill:#F9A17B;}
	.st17{fill:#432C26;}
	.st18{fill:#FFFFFF;}
	.st19{fill:#FDA17C;}
	.st20{fill:#FDA276;}
	.st21{fill:#A4412E;}
	.st22{fill:#FC8C26;}
	.st23{fill:#FC9E22;}
	.st24{fill:#FACA5C;}
	.st25{fill:#E84651;}
	.st26{fill:#F28163;}
	.st27{fill:#C72240;}
	.st28{fill:#D32B45;}
	.st29{fill:#C02342;}
	.st30{fill:#EA5C70;}
	.st31{fill:#FFFEFD;}
</style>
<g>
	<g>
		<g>
			<path class="st0" d="M14,141c0,0-2.3,10.1-2.3,14.8s0.8,7.8,0.8,7.8h3.9l3.9-19.5L14,141z"/>
			<path class="st1" d="M25.7,125.4l-7.8,18.7c0,0-7.8-3.1-7.8-6.2c0-3.1,4.7-10.9,7-12.5c2.3-1.6,6.2-2.3,6.2-2.3L25.7,125.4z"/>
			<polygon class="st2" points="11.7,139.4 15.6,133.2 10.9,139.4 			"/>
			<path class="st3" d="M16.4,163.6v11.7c0,0-1.6,0.8-2.3-2.3c-0.8-3.1-1.6-5.5-1.6-7s0-2.3,0-2.3H16.4z"/>
		</g>
		<g>
			<path class="st0" d="M58.4,141c0,0,2.3,10.1,2.3,14.8s-0.8,7.8-0.8,7.8h-3.9l-3.9-19.5L58.4,141z"/>
			<path class="st1" d="M46.7,125.4l7.8,18.7c0,0,7.8-3.1,7.8-6.2c0-3.1-4.7-10.9-7-12.5c-2.3-1.6-6.2-2.3-6.2-2.3L46.7,125.4z"/>
			<polygon class="st2" points="60.8,139.4 56.9,133.2 61.5,139.4 			"/>
			<path class="st3" d="M56.1,163.6v11.7c0,0,1.6,0.8,2.3-2.3c0.8-3.1,1.6-5.5,1.6-7s0-2.3,0-2.3H56.1z"/>
		</g>
		<path class="st4" d="M17.1,165.9v18.7l16.4,0.8l0.8-8.1c0,0,0.8-4.1,2.3-4.1s2.3,4.1,2.3,4.1l0.8,8.1h15.6v-19.5H17.1L17.1,165.9z
			"/>
		<path class="st5" d="M16.4,165.9c0,0,0-27.3,2.3-32.7c2.3-5.5,7.8-11.7,10.1-11.7s13.2-0.8,15.6,0c2.3,0.8,7.8,8.6,9.3,12.5
			c1.6,3.9,2.3,7.8,2.3,7.8v24.1c0,0-10.1,3.9-18.7,3.9C25.7,169.8,16.4,165.9,16.4,165.9z"/>
		<path class="st3" d="M41.4,124.6H31c-1.6,0-3-1.3-3-3v-7.2c0-1.7,1.4-3,3-3h10.4c1.6,0,3,1.3,3,3v7.2
			C44.4,123.3,43,124.6,41.4,124.6z"/>
		<path class="st6" d="M37.8,120h-3.1c-3.6,0-6.6-3-6.6-6.6v0c0-3.6,3-6.6,6.6-6.6h3.1c3.6,0,6.6,3,6.6,6.6v0
			C44.4,117,41.4,120,37.8,120z"/>
		<path class="st7" d="M28,121.5c0,0,3.9,2.3,7,2.3s-0.8,3.1-3.1,3.1s-7.8,0-9.3-2.3c-1.6-2.3-2.3-2.3-2.3-2.3L28,121.5z"/>
		<path class="st7" d="M44.8,121.5c0,0-3.9,2.3-7,2.3s0.8,3.1,3.1,3.1c2.3,0,7.8,0,9.3-2.3c1.6-2.3,2.3-2.3,2.3-2.3L44.8,121.5z"/>
		<path class="st0" d="M16.4,163.6c0,0,12.5,3.1,18.7,3.1s21-2.3,21-2.3v1.6c0,0-10.9,3.9-21,3.9s-18.7-3.9-18.7-3.9V163.6z"/>
		<g>
			<rect x="29.6" y="136.3" class="st8" width="13.2" height="2.3"/>
			<circle class="st9" cx="29.2" cy="137.5" r="1.9"/>
			<circle class="st9" cx="43.2" cy="137.5" r="1.9"/>
		</g>
		<g>
			<rect x="29.6" y="142.5" class="st8" width="13.2" height="2.3"/>
			<circle class="st9" cx="29.2" cy="143.7" r="1.9"/>
			<circle class="st9" cx="43.2" cy="143.7" r="1.9"/>
		</g>
		<g>
			<rect x="29.6" y="148.8" class="st8" width="13.2" height="2.3"/>
			<circle class="st9" cx="29.2" cy="149.9" r="1.9"/>
			<circle class="st9" cx="43.2" cy="149.9" r="1.9"/>
		</g>
		<g>
			<path class="st10" d="M17.9,196.3l-3.1-10.9c0,0,1.6-1.6,9.3-1.6s10.1,1.6,10.1,1.6l-2.3,11.7L17.9,196.3z"/>
			<path class="st11" d="M33.4,199.4c0-0.3,0.1-0.5,0.1-0.8c0-3.4-3.7-6.2-8.2-6.2s-8.2,2.8-8.2,6.2c0,0.3,0,0.5,0.1,0.8H33.4z"/>
			<polygon class="st12" points="17.1,199.4 18,202.5 32.7,202.5 33.5,199.4 			"/>
		</g>
		<g>
			<path class="st10" d="M40.5,196.3l-3.1-10.9c0,0,1.6-1.6,9.3-1.6s10.1,1.6,10.1,1.6l-2.3,11.7L40.5,196.3z"/>
			<path class="st11" d="M56,199.4c0-0.3,0.1-0.5,0.1-0.8c0-3.4-3.7-6.2-8.2-6.2s-8.2,2.8-8.2,6.2c0,0.3,0,0.5,0.1,0.8H56z"/>
			<polygon class="st12" points="39.7,199.4 40.5,202.5 55.3,202.5 56.1,199.4 			"/>
		</g>
	</g>
	<g>
		<g>
			<ellipse class="st13" cx="37" cy="83.3" rx="30.8" ry="34.3"/>
			<circle class="st13" cx="5.5" cy="91.1" r="5.5"/>
			<path class="st14" d="M5.5,88c-1.1,0-2,0.5-2.6,1.3C3.4,89,4,88.8,4.7,88.8c1.7,0,3.1,1.4,3.1,3.1c0,0.7-0.2,1.3-0.6,1.8
				c0.8-0.6,1.3-1.5,1.3-2.6C8.6,89.4,7.2,88,5.5,88z"/>
			<circle class="st13" cx="68.5" cy="91.1" r="5.5"/>
			<path class="st14" d="M69.1,88c1.1,0,2,0.5,2.6,1.3c-0.5-0.4-1.1-0.6-1.8-0.6c-1.7,0-3.1,1.4-3.1,3.1c0,0.7,0.2,1.3,0.6,1.8
				c-0.8-0.6-1.3-1.5-1.3-2.6C66,89.4,67.4,88,69.1,88z"/>
			<path class="st14" d="M36.6,95.8c-1.6,0-2.9-0.4-3.1-1.9c0,0.1,0,0.3,0,0.4c0,1.7,1.4,3.1,3.1,3.1c1.7,0,3.1-1.4,3.1-3.1
				c0-0.1,0-0.3,0-0.4C39.5,95.4,38.2,95.8,36.6,95.8z"/>
			<g>
				<ellipse class="st15" cx="36.6" cy="92.3" rx="1.6" ry="1.2"/>
				<circle class="st16" cx="31.5" cy="92.3" r="0.4"/>
				<circle class="st16" cx="28.4" cy="92.3" r="0.4"/>
				<circle class="st16" cx="30" cy="93.9" r="0.4"/>
				<circle class="st16" cx="43.2" cy="93.9" r="0.4"/>
				<circle class="st16" cx="41.7" cy="92.3" r="0.4"/>
				<circle class="st16" cx="44.8" cy="93.9" r="0.4"/>
				<ellipse class="st16" cx="21.8" cy="95.4" rx="3.9" ry="1.9"/>
				<ellipse class="st16" cx="51.4" cy="95.4" rx="3.9" ry="1.9"/>
				<path class="st17" d="M22.2,84.1c-3.2,0-5.8,1.9-5.8,4.2c0,0.2,0,0.3,0,0.5c0.3-1.8,2.1-3.2,4.5-3.6c-0.4,0.7-0.6,1.7-0.6,2.8
					c0,2.2,0.9,3.9,1.9,3.9c1.1,0,1.9-1.7,1.9-3.9c0-1.1-0.2-2.1-0.6-2.8c2.4,0.4,4.2,1.8,4.5,3.6c0-0.2,0-0.3,0-0.5
					C28,86,25.4,84.1,22.2,84.1z"/>
				<path class="st17" d="M51,84.1c-3.2,0-5.8,1.9-5.8,4.2c0,0.2,0,0.3,0,0.5c0.3-1.8,2.1-3.2,4.5-3.6c-0.4,0.7-0.6,1.7-0.6,2.8
					c0,2.2,0.9,3.9,1.9,3.9c1.1,0,1.9-1.7,1.9-3.9c0-1.1-0.2-2.1-0.6-2.8c2.4,0.4,4.2,1.8,4.5,3.6c0-0.2,0-0.3,0-0.5
					C56.9,86,54.2,84.1,51,84.1z"/>
				<path class="st18" d="M31.2,100.5c0,0,3.1,0.8,5.5,0.8s5.5-0.8,5.5-0.8s-0.8,5.5-5.5,5.5S31.2,100.5,31.2,100.5z"/>
				<path class="st19" d="M35.1,107.5c0,0,0.9,0.2,1.6,0.2c0.7,0,1.6-0.2,1.6-0.2s-0.2,1.6-1.6,1.6S35.1,107.5,35.1,107.5z"/>
			</g>
			<path class="st20" d="M11.8,77.1c0,0,5.6-4.7,6.4-6.2c0.8-1.6,2.4-5.5,2.4-5.5s9.6,5.5,13.6,6.2c4,0.8,19.3,2.3,19.3,2.3l9.6-0.8
				l-4.8-3.1L19,62.3l-8,8.6l-1.6,6.2H11.8z"/>
			<path class="st21" d="M5.5,85.7v-21l-1.6,0.8c0,0,0.8-3.9,3.9-8.6c0.9-1.4,3.9-5.5,3.9-5.5s10.9-5.5,24.9-4.7
				c14,0.8,25.7,4.7,25.7,4.7s1.6,0.8,4.7,4.7c3.1,3.9,3.9,7,3.9,7l-2.3-0.8c0,0,2.3,6.2,2.3,8.6c0,2.3,0.8,5.5,0.8,5.5L69.3,74
				v11.7c0,0-3.1-0.8-3.1,1.6c0,2.3-0.8,5.5-0.8,5.5l-2.3-0.8V75.6c0,0-1.6-1.6-2.3-2.3c-0.8-0.8-1.6-2.3-1.6-2.3
				s-14.8,0.8-23.4-1.6c-8.6-2.3-16.4-6.2-16.4-6.2s-0.8,3.1-2.3,5.5c-1.6,2.3-5.5,6.2-5.5,6.2l-0.8,17.9H9.3c0,0,0-5.5-1.6-6.2
				S5.5,85.7,5.5,85.7z"/>
		</g>
		<g>
			<polygon class="st22" points="11.7,52.2 9.3,6.2 23.4,36.6 36.6,7 38.2,7 51.4,36.6 65.4,6.2 63.1,53 			"/>
			<polygon class="st23" points="11.7,52.2 10.1,19.5 23.4,43.6 36.6,19.5 38.2,19.5 51.4,43.6 64.7,21 63.1,53 38.2,50.6 			"/>
			<path class="st24" d="M10.9,54.1c0.8,1.2,3.9,1.2,3.9,1.2s9.3-2.5,21.8-2.5s24.1,2.5,24.1,2.5s2.3,0,2.3-1.2
				c0-1.2-1.6-1.9-1.6-1.9S46,49.1,36.6,49.1s-23.4,2.5-23.4,2.5S10.1,52.8,10.9,54.1z"/>
			<circle class="st22" cx="37.4" cy="5.5" r="3.1"/>
			<path class="st22" d="M37.4,5.5L37.4,5.5c-0.9,0-1.6-0.7-1.6-1.6V1.6c0-0.9,0.7-1.6,1.6-1.6h0c0.9,0,1.6,0.7,1.6,1.6v2.3
				C38.9,4.8,38.2,5.5,37.4,5.5z"/>
			<circle class="st22" cx="9.7" cy="6.6" r="1.9"/>
			<circle class="st22" cx="65.8" cy="6.6" r="1.9"/>
			<polygon class="st23" points="37.4,17.1 36.6,19.5 38.2,19.5 			"/>
			<path class="st24" d="M11.7,45.2c0,0-1.6,0.8-0.8,1.6c0.8,0.8,1.6,0,1.6,0s11.7-3.1,24.1-3.1c13.3,0,26.5,3.9,26.5,3.9
				s0.8,0,0.8-0.8c0-0.8-1.6-1.6-1.6-1.6S46,42.1,37.4,42.1C26.5,42.1,11.7,45.2,11.7,45.2z"/>
			<polygon class="st25" points="33.5,37.4 36.6,40.5 39.7,40.5 42.8,37.4 42.8,33.5 39.7,30.4 35.8,30.4 33.5,33.5 			"/>
			<polygon class="st26" points="35.8,36.4 37.4,38 38.9,38 40.5,36.4 40.5,34.5 38.9,32.9 37,32.9 35.8,34.5 			"/>
			<polygon class="st27" points="33.5,37.4 35.8,36.6 35.8,34.3 33.5,33.5 			"/>
			<polygon class="st28" points="38.9,38.2 39.7,40.5 42.8,37.4 40.5,36.6 			"/>
			<polygon class="st29" points="42.8,33.5 40.5,34.3 40.5,36.6 42.8,37.4 			"/>
			<polygon class="st30" points="35.8,30.4 37.4,32.7 38.9,32.7 39.7,30.4 			"/>
			<path class="st31" d="M32.8,33.6c0,0,2.5,0,2.5-1.3s-1.3,1.3,0,1.3s-1.3,0-1.3,1.3S35.3,33.6,32.8,33.6z"/>
		</g>
	</g>
</g>
</svg>
