<?xml version="1.0" encoding="utf-8"?>
<!-- Generator: Adobe Illustrator 21.0.2, SVG Export Plug-In . SVG Version: 6.00 Build 0)  -->
<svg version="1.1" id="Слой_1" xmlns="http://www.w3.org/2000/svg" xmlns:xlink="http://www.w3.org/1999/xlink" x="0px" y="0px"
	 width="858px" height="347px" viewBox="0 0 858 347" style="enable-background:new 0 0 858 347;" xml:space="preserve">
<style type="text/css">
	.st0{fill:#53A1BC;}
	.st1{fill:#554051;}
	.st2{fill:#311A39;}
	.st3{fill:#FDE1C5;}
	.st4{fill:#CD414E;}
	.st5{fill:#392720;}
	.st6{fill:#EDA69D;}
	.st7{fill:#EDA2A2;}
	.st8{fill:#C51C36;}
	.st9{fill:#B06B37;}
	.st10{fill:#E5ABA1;}
	.st11{fill:#2E2126;}
	.st12{fill:#EFBFB9;}
	.st13{fill:#FFC03F;}
	.st14{fill:#D8A481;}
	.st15{fill:#74AA41;}
	.st16{fill:#6F9B3A;}
	.st17{fill:#9E7553;}
	.st18{fill:#6D9738;}
	.st19{fill:#82B93A;}
	.st20{fill:#597C25;}
	.st21{opacity:0.72;fill:#3A511A;}
	.st22{fill:#A87F62;}
	.st23{fill:#D8A284;}
	.st24{fill:#9E6D4F;}
	.st25{fill:#715338;}
	.st26{fill:#E2BB9A;}
	.st27{fill:#805B41;}
	.st28{fill:#FCAD79;}
	.st29{fill:none;stroke:#000000;stroke-miterlimit:10;}
	.st30{fill:#FA9C56;}
	.st31{fill:#A47D64;}
	.st32{opacity:0.56;fill:#B58369;}
	.st33{fill:#DDAB8B;}
	.st34{fill:#C49174;}
	.st35{fill:#FCEFCF;}
	.st36{fill:#DDCFB1;}
	.st37{fill:#834F2F;}
	.st38{fill:#B18765;}
	.st39{fill:#684432;}
	.st40{fill:#4C3725;}
	.st41{fill:#875D45;}
	.st42{fill:#DBB08E;}
	.st43{fill:#BF8A6F;}
	.st44{fill:#A0705C;}
	.st45{fill:#C69B7B;}
	.st46{fill:#BE8C71;}
	.st47{fill:#C6987B;}
	.st48{opacity:0.64;fill:#B77F69;}
	.st49{opacity:0.63;}
	.st50{fill:#84624C;}
	.st51{fill:#EDC9AE;}
	.st52{fill:#DBA682;}
	.st53{fill:#A27353;}
	.st54{fill:#CC9872;}
	.st55{fill:#BE8665;}
	.st56{fill:#80A41C;}
	.st57{fill:#81841F;}
	.st58{fill:#AF750A;}
	.st59{fill:#92B257;}
	.st60{fill:#82B41C;}
	.st61{fill:#737B12;}
	.st62{fill:#A67863;}
	.st63{fill:#976A53;}
	.st64{fill:#B4866E;}
	.st65{fill:#DFAC94;}
	.st66{fill:#D29D87;}
	.st67{fill:#BC8B73;}
	.st68{fill:#DDAB92;}
	.st69{fill:#FEBFA2;}
	.st70{fill:#D29B84;}
	.st71{fill:#A9735C;}
	.st72{fill:#B68871;}
	.st73{fill:#A4562D;}
	.st74{fill:#9E684E;}
	.st75{fill:#C9A08F;}
	.st76{fill:#E07253;}
	.st77{fill:#AD472C;}
	.st78{fill:#FDE8B9;}
	.st79{fill:#CC6145;}
	.st80{fill:#E26D4C;}
	.st81{fill:#8F391F;}
	.st82{fill:#AF5542;}
	.st83{fill:#994D31;}
	.st84{fill:#A74E3B;}
	.st85{fill:#BA6254;}
	.st86{fill:#702513;}
	.st87{fill:#FBB75E;}
	.st88{fill:#D98539;}
	.st89{fill:#505528;}
	.st90{fill:#FAD8B4;}
	.st91{fill:#7F4B45;}
	.st92{fill:#915839;}
	.st93{fill:#B77241;}
	.st94{fill:#935D32;}
	.st95{fill:#9E5D2D;}
	.st96{fill:#8E553B;}
	.st97{fill:#A2705C;}
	.st98{fill:#E8531B;}
	.st99{fill:#E0B799;}
	.st100{fill:#8D5C46;}
	.st101{fill:#AA5F29;}
	.st102{fill:#844D2E;}
	.st103{fill:#60392C;}
	.st104{fill:#A0683F;}
	.st105{fill:#8E8814;}
	.st106{fill:#7A7C06;}
	.st107{fill:#EFE0DC;}
	.st108{fill:#5D3A29;}
	.st109{fill:#E28364;}
	.st110{fill:#B5B4B1;}
	.st111{fill:none;stroke:#AB7E60;stroke-width:2;stroke-linecap:round;stroke-miterlimit:10;}
	.st112{fill:#C28C67;}
	.st113{fill:#D2A480;}
	.st114{fill:#725A52;}
	.st115{fill:#AFAC9B;}
	.st116{fill:#B76948;}
	.st117{fill:#D1AF9D;}
	.st118{fill:#E5C6B5;}
	.st119{fill:#AA8779;}
	.st120{fill:#C6764E;}
	.st121{fill:#BC9D8E;}
	.st122{fill:#DDBFB1;}
	.st123{opacity:0.43;fill:#664D44;}
	.st124{fill:#E0855C;}
	.st125{opacity:0.58;fill:#964F2F;}
	.st126{fill:#3D3522;}
	.st127{fill:#964F2F;}
	.st128{fill:#EAD9D3;}
	.st129{fill:#C6A99D;}
	.st130{fill:#C5C9B9;}
	.st131{opacity:0.5;fill:#AD8776;}
	.st132{fill:#CCB3AA;}
	.st133{fill:#D8BAAB;}
	.st134{fill:#E6301D;}
	.st135{fill:#E5E3DF;}
	.st136{fill:#999AA1;}
	.st137{fill:#686B7A;}
	.st138{fill:#002147;}
	.st139{fill:#FFFFFF;}
	.st140{fill:#EFF2F4;}
	.st141{fill:#E5E5E5;}
	.st142{fill:#D80022;}
	.st143{fill:#0F3C68;}
	.st144{fill:none;stroke:#FFFFFF;stroke-miterlimit:10;}
</style>
<g>
	<path class="st0" d="M272.2,155.8v96.5H212V132h-1.1V129h2.3c0-1,0.4-4.5,4.1-7.4c4.4-3.5,7-5.1,7-9.2v-3.5H224
		c0,0-2.2-0.9-0.5-2.9c1.2-1.4,1.4-1.9,1.4-2.4h-0.3v-3.9h-3.1v-1.6h3.1v-7.3c-0.7-0.3-1.2-1-1.2-1.8c0-1.1,0.9-2,2-2
		c1.1,0,2,0.9,2,2c0,0.8-0.5,1.5-1.2,1.8v7.3h3.1v1.6h-3.1v3.9h-0.3c0,0.5,0.2,1,1.4,2.4c1.7,2-0.5,2.9-0.5,2.9h-0.3v3.5
		c0,4.1,2.6,5.8,7,9.2c3.7,2.9,4,6.3,4.1,7.4h2.3v3.1h-1.1v23.8h7.6v6.8h8.3v-6.8h7.6v6.8h8.3v-6.8H272.2z"/>
	<path class="st0" d="M216.4,162.5V270H114V132h-1.1v-3.1h2.3c0-1,0.4-4.5,4.1-7.4c4.4-3.5,7-5.1,7-9.2v-3.5H126
		c0,0-2.2-0.9-0.5-2.9c1.2-1.4,1.4-1.9,1.4-2.4h-0.3v-3.9h-3.1V98h3.1v-7.3c-0.7-0.3-1.2-1-1.2-1.8c0-1.1,0.9-2,2-2c1.1,0,2,0.9,2,2
		c0,0.8-0.5,1.5-1.2,1.8V98h3.1v1.6h-3.1v3.9h-0.3c0,0.5,0.3,1,1.4,2.4c1.7,2-0.5,2.9-0.5,2.9h-0.3v3.5c0,4.1,2.6,5.8,7,9.2
		c3.7,2.9,4,6.3,4.1,7.4h2.3v3.1h-1.1v23.8h7.6v6.8h8.3v-6.8h7.6v6.8h8.3v-6.8h7.6v6.8h8.3v-6.8h7.6v6.8h8.3v-6.8h7.6v6.8H216.4z"/>
	<path class="st0" d="M267.9,162.5V303h102.4V132h1.1v-3.1h-2.3c0-1-0.4-4.5-4.1-7.4c-4.4-3.5-7-5.1-7-9.2v-3.5h0.3
		c0,0,2.2-0.9,0.5-2.9c-1.2-1.4-1.4-1.9-1.4-2.4h0.3v-3.9h3.1V98h-3.1v-7.3c0.7-0.3,1.2-1,1.2-1.8c0-1.1-0.9-2-2-2c-1.1,0-2,0.9-2,2
		c0,0.8,0.5,1.5,1.2,1.8V98H353v1.6h3.1v3.9h0.3c0,0.5-0.3,1-1.4,2.4c-1.7,2,0.5,2.9,0.5,2.9h0.3v3.5c0,4.1-2.6,5.8-7,9.2
		c-3.7,2.9-4,6.3-4.1,7.4h-2.3v3.1h1.1v23.8h-7.6v6.8h-8.3v-6.8H320v6.8h-8.3v-6.8h-7.6v6.8h-8.3v-6.8h-7.6v6.8h-8.3v-6.8h-7.6v6.8
		H267.9z"/>
</g>
<path class="st0" d="M569.5,287.8v-24.3h2.2v-2.9h-2.2v-47.7H567v-17.3h1.2v-1.8h-0.9c-0.2-0.9-1.2-4.9-4.7-6.7c0,0,0,0-0.1,0v-5
	c0,0-0.2-4.3-2.5-6c0-0.3,0-1,0-2.6c0-1.5-1-2.2-1.7-2.6v-7.1h-1.6v7.1c-0.7,0.4-1.7,1.1-1.7,2.6c0,1.6,0,2.3,0,2.6
	c-2.3,1.7-2.5,6-2.5,6c0,0,0,4.9,0,4.9l0,0.1c0,0,0,0-0.1,0c-3.5,1.8-4.5,5.8-4.7,6.7H547v1.8h1.2v17.3h-2.6v14.9h-71.1v-3.1
	c0,0,0-8.8,0-8.8v-0.2v-22.2c0-1.8,0.4-1.5,1.6-2.8c0.1-0.1,0.1-0.2,0.2-0.2h0.1v-1.2h-1.9v-4.6h-8.8v-12.7h1.8v-2.1h-2.4
	c0,0-0.4-16.8-12.2-26.5c-4.6-2.9-7.6-4.1-10-4.8h0.2v-6.8h-2.1v-12.9h-2.2V112h0.7v-1.6h-0.7c0-0.1,0-0.3,0-0.4
	c0-1.9-1.3-3.4-3.1-3.8v-6c1-0.3,1.7-1.3,1.7-2.4c0-1.1-0.7-2-1.7-2.4v-6.5h-1.6v6.5c-1,0.3-1.7,1.3-1.7,2.4c0,1.1,0.7,2,1.7,2.4v6
	c-1.8,0.4-3.1,1.9-3.1,3.8c0,0.1,0,0.3,0,0.4h-0.7v1.6h0.7v6.9h-2.2v12.9h-2.1v6.8h0.2c-2.4,0.6-5.4,1.9-10,4.8
	c-11.7,9.7-12.2,26.5-12.2,26.5h-2.4v2.1h1.8v12.7h-8.8v4.6h-1.9v1.2h0.1c0,0.1,0.1,0.2,0.2,0.2c1.2,1.3,1.5,1,1.5,2.8
	c0,0,0,22.2,0,22.2v0.2v9.4c0,0,0,2.6,0,2.6h-34.6v-22.7h-23.8v22.7h-13v0.7c0,0,0,4,0,4h-1.9v2.9h1.9v25.3h-1.9v2.9h1.9v24.3h-1.9
	v5.4h1.9h71.4h0.1h78.8h0.1h71.2h0.1h23.8h2.5v-5.4H569.5z M328.9,230.6h8.2v1.8h-8.2V230.6z M520.6,232.4h-15.7v-1.8h15.7V232.4z"
	/>
<g>
	<g>
		<rect x="178" y="236" class="st1" width="105" height="58"/>
		<rect x="178" y="234" class="st2" width="105" height="3"/>
		<rect x="178" y="244" class="st3" width="105" height="3"/>
		<rect x="178" y="256" class="st4" width="105" height="3"/>
		<line class="st5" x1="283" y1="261" x2="178" y2="261"/>
		<rect x="178" y="254" class="st6" width="105" height="3"/>
		<rect x="178" y="247" class="st7" width="105" height="7"/>
		<rect x="178" y="242" class="st2" width="105" height="1"/>
		<rect x="179" y="247" class="st8" width="3" height="7"/>
		<rect x="183" y="247" class="st8" width="3" height="7"/>
		<rect x="187" y="247" class="st8" width="3" height="7"/>
		<rect x="191" y="247" class="st8" width="3" height="7"/>
		<rect x="195" y="247" class="st8" width="3" height="7"/>
		<rect x="199" y="247" class="st8" width="3" height="7"/>
		<rect x="203" y="247" class="st8" width="3" height="7"/>
		<rect x="207" y="247" class="st8" width="3" height="7"/>
		<rect x="211" y="247" class="st8" width="3" height="7"/>
		<rect x="215" y="247" class="st8" width="3" height="7"/>
		<rect x="219" y="247" class="st8" width="3" height="7"/>
		<rect x="223" y="247" class="st8" width="3" height="7"/>
		<rect x="227" y="247" class="st8" width="3" height="7"/>
		<rect x="231" y="247" class="st8" width="3" height="7"/>
		<rect x="235" y="247" class="st8" width="3" height="7"/>
		<rect x="239" y="247" class="st8" width="3" height="7"/>
		<rect x="243" y="247" class="st8" width="3" height="7"/>
		<rect x="247" y="247" class="st8" width="3" height="7"/>
		<rect x="251" y="247" class="st8" width="3" height="7"/>
		<rect x="255" y="247" class="st8" width="3" height="7"/>
		<rect x="259" y="247" class="st8" width="3" height="7"/>
		<rect x="263" y="247" class="st8" width="3" height="7"/>
		<rect x="267" y="247" class="st8" width="3" height="7"/>
		<rect x="271" y="247" class="st8" width="3" height="7"/>
		<rect x="275" y="247" class="st8" width="3" height="7"/>
		<rect x="279" y="247" class="st8" width="3" height="7"/>
		<rect x="180" y="262" class="st9" width="8.2" height="16"/>
		<rect x="190.3" y="262" class="st9" width="8.2" height="16"/>
		<rect x="200.6" y="262" class="st9" width="8.2" height="16"/>
		<rect x="210.9" y="262" class="st9" width="8.2" height="16"/>
		<rect x="221.2" y="262" class="st9" width="8.2" height="16"/>
		<rect x="231.5" y="262" class="st9" width="8.2" height="16"/>
		<rect x="241.8" y="262" class="st9" width="8.2" height="16"/>
		<rect x="252.1" y="262" class="st9" width="8.2" height="16"/>
		<rect x="262.4" y="262" class="st9" width="8.2" height="16"/>
		<rect x="272.8" y="262" class="st9" width="8.2" height="16"/>
		<rect x="180" y="281" class="st10" width="4" height="11"/>
		<rect x="186" y="281" class="st11" width="4" height="11"/>
		<rect x="183" y="282" class="st12" width="4" height="5"/>
		<rect x="189" y="281" class="st12" width="3" height="7"/>
		<rect x="194" y="281" class="st10" width="4" height="11"/>
		<rect x="200" y="281" class="st11" width="4" height="11"/>
		<rect x="197" y="282" class="st12" width="4" height="5"/>
		<rect x="203" y="281" class="st12" width="3" height="7"/>
		<rect x="208" y="281" class="st10" width="4" height="11"/>
		<rect x="214" y="281" class="st11" width="4" height="11"/>
		<rect x="211" y="282" class="st12" width="4" height="5"/>
		<rect x="217" y="281" class="st12" width="3" height="7"/>
		<rect x="224" y="281" class="st10" width="4" height="11"/>
		<rect x="230" y="281" class="st11" width="4" height="11"/>
		<rect x="227" y="282" class="st12" width="4" height="5"/>
		<rect x="233" y="281" class="st12" width="3" height="7"/>
		<rect x="240" y="281" class="st10" width="4" height="11"/>
		<rect x="246" y="281" class="st11" width="4" height="11"/>
		<rect x="243" y="282" class="st12" width="4" height="5"/>
		<rect x="249" y="281" class="st12" width="3" height="7"/>
		<rect x="256" y="281" class="st10" width="4" height="11"/>
		<rect x="262" y="281" class="st11" width="4" height="11"/>
		<rect x="259" y="282" class="st12" width="4" height="5"/>
		<rect x="265" y="281" class="st12" width="3" height="7"/>
		<rect x="270" y="281" class="st10" width="4" height="11"/>
		<rect x="276" y="281" class="st11" width="4" height="11"/>
		<rect x="273" y="282" class="st12" width="4" height="5"/>
		<rect x="279" y="281" class="st12" width="3" height="7"/>
		<circle class="st13" cx="205" cy="268" r="4"/>
	</g>
	<g>
		<rect y="296.7" class="st14" width="789" height="50.3"/>
	</g>
	<g>
		<ellipse class="st15" cx="395.5" cy="264" rx="19.5" ry="19"/>
		<path class="st16" d="M395.5,245c-0.2,0-0.3,0-0.5,0v38c0.2,0,0.3,0,0.5,0c10.8,0,19.5-8.5,19.5-19S406.3,245,395.5,245z"/>
		<rect x="393" y="270" class="st17" width="4" height="23"/>
	</g>
	<path class="st18" d="M685.7,251.8c1.3-2.2,2.1-4.8,2.1-7.6c0-8.1-6.6-14.7-14.7-14.7c-5.9,0-11,3.5-13.3,8.5
		c-2.9-5.1-8.4-8.5-14.7-8.5c-1.1,0-2.2,0.1-3.2,0.3c-0.4-12.5-8.7-22.4-18.9-22.4c-10.4,0-18.9,10.5-18.9,23.5
		c0,5.2,1.4,10,3.7,13.9V293h72.8v0c0.3,0,0.6,0,0.9,0c15.3,0,27.6-9.3,27.6-20.7C709,261.9,698.9,253.4,685.7,251.8z"/>
	<path class="st19" d="M622.8,245c-17.8,0-32.2,12.8-32.2,28.5c0,11.2,7.3,20.8,17.8,25.5h28.8c10.6-4.7,17.8-14.3,17.8-25.5
		C655,257.8,640.6,245,622.8,245z"/>
	<path class="st20" d="M608.8,299h26.1c5-3.4,8.1-8.8,8.1-14.8c0-10.4-9.5-18.8-21.2-18.8s-21.2,8.4-21.2,18.8
		C600.6,290.2,603.8,295.6,608.8,299z"/>
	<path class="st21" d="M611,293h6v-84.5c-2.2,0.9-4.2,2.3-6,4.1V293z"/>
	<g>
		<rect y="297" class="st22" width="782" height="6"/>
	</g>
	<g>
		<g>
			<rect x="410" y="215" class="st23" width="160.3" height="79"/>
		</g>
		<g>
			<rect x="410" y="215" class="st24" width="162.5" height="18"/>
		</g>
		<g>
			<rect x="410" y="229" class="st25" width="167" height="4"/>
		</g>
		<g>
			<rect x="568.3" y="197" class="st26" width="43" height="90"/>
			<rect x="567" y="141" class="st26" width="46" height="8"/>
			<path class="st27" d="M602.1,128H578c-3.2,2.5-5.4,6-5.9,10H608C607.5,134,605.3,130.5,602.1,128z"/>
			<g>
				<rect x="578" y="121" class="st28" width="24" height="7"/>
			</g>
			<polyline class="st27" points="588,81 592.5,81 602,121 578,121 588.5,81 			"/>
			<path class="st29" d="M590,79.5"/>
			<g>
				<rect x="589" y="67" class="st30" width="3" height="14"/>
			</g>
			<g>
				<g>
					<path class="st23" d="M574.8,282L574.8,282c-0.8,0-1.5-0.7-1.5-1.5v-78c0-0.8,0.7-1.5,1.5-1.5l0,0c0.8,0,1.5,0.7,1.5,1.5v78
						C576.3,281.3,575.6,282,574.8,282z"/>
				</g>
				<g>
					<path class="st23" d="M580.8,282L580.8,282c-0.8,0-1.5-0.7-1.5-1.5v-78c0-0.8,0.7-1.5,1.5-1.5l0,0c0.8,0,1.5,0.7,1.5,1.5v78
						C582.3,281.3,581.6,282,580.8,282z"/>
				</g>
				<g>
					<path class="st23" d="M586.8,282L586.8,282c-0.8,0-1.5-0.7-1.5-1.5v-78c0-0.8,0.7-1.5,1.5-1.5l0,0c0.8,0,1.5,0.7,1.5,1.5v78
						C588.3,281.3,587.6,282,586.8,282z"/>
				</g>
				<g>
					<path class="st23" d="M592.8,282L592.8,282c-0.8,0-1.5-0.7-1.5-1.5v-78c0-0.8,0.7-1.5,1.5-1.5l0,0c0.8,0,1.5,0.7,1.5,1.5v78
						C594.3,281.3,593.6,282,592.8,282z"/>
				</g>
				<g>
					<path class="st23" d="M598.8,282L598.8,282c-0.8,0-1.5-0.7-1.5-1.5v-78c0-0.8,0.7-1.5,1.5-1.5l0,0c0.8,0,1.5,0.7,1.5,1.5v78
						C600.3,281.3,599.6,282,598.8,282z"/>
				</g>
				<g>
					<path class="st23" d="M604.8,282L604.8,282c-0.8,0-1.5-0.7-1.5-1.5v-78c0-0.8,0.7-1.5,1.5-1.5l0,0c0.8,0,1.5,0.7,1.5,1.5v78
						C606.3,281.3,605.6,282,604.8,282z"/>
				</g>
			</g>
			<g>
				<rect x="565" y="286" class="st23" width="49" height="9"/>
			</g>
			<g>
				<rect x="566" y="137" class="st31" width="48" height="5.2"/>
			</g>
			<g>
				<path class="st23" d="M576.3,148v-2.1c0-0.5-0.7-0.9-1.5-0.9c-0.8,0-1.5,0.4-1.5,0.9v2.1H576.3z"/>
			</g>
			<g>
				<path class="st23" d="M582.3,148v-2.1c0-0.5-0.7-0.9-1.5-0.9c-0.8,0-1.5,0.4-1.5,0.9v2.1H582.3z"/>
			</g>
			<g>
				<path class="st23" d="M588.3,148v-2.1c0-0.5-0.7-0.9-1.5-0.9c-0.8,0-1.5,0.4-1.5,0.9v2.1H588.3z"/>
			</g>
			<g>
				<path class="st23" d="M594.3,148v-2.1c0-0.5-0.7-0.9-1.5-0.9c-0.8,0-1.5,0.4-1.5,0.9v2.1H594.3z"/>
			</g>
			<g>
				<path class="st23" d="M600.3,148v-2.1c0-0.5-0.7-0.9-1.5-0.9c-0.8,0-1.5,0.4-1.5,0.9v2.1H600.3z"/>
			</g>
			<g>
				<path class="st23" d="M606.3,148v-2.1c0-0.5-0.7-0.9-1.5-0.9c-0.8,0-1.5,0.4-1.5,0.9v2.1H606.3z"/>
			</g>
			<polygon class="st32" points="567,142 613,163 613,142 			"/>
			<g>
				<rect x="562" y="152" class="st33" width="56" height="42"/>
			</g>
			<polygon class="st34" points="562,153 618,193 618,153 			"/>
			<g>
				<circle class="st35" cx="590" cy="173" r="15"/>
			</g>
			<g>
				<path class="st36" d="M590,158c-5,0-9.5,2.5-12.2,6.3l24.4,17.4c1.8-2.5,2.8-5.5,2.8-8.7C605,164.7,598.3,158,590,158z"/>
			</g>
			<g>
				<circle class="st37" cx="590" cy="173" r="3"/>
			</g>
			<g>
				<rect x="559" y="193" class="st38" width="62" height="5"/>
			</g>
			<g>
				<rect x="559" y="148" class="st31" width="62" height="5"/>
			</g>
			<polygon class="st39" points="590,121 602,121 592.5,81 590,81 			"/>
		</g>
		<g>
			<g>
				<rect x="560" y="229" class="st40" width="2" height="4"/>
			</g>
			<g>
				<rect x="560" y="215" class="st41" width="2" height="14"/>
			</g>
			<g>
				<rect x="542" y="215" class="st41" width="2" height="14"/>
			</g>
			<g>
				<rect x="539" y="206.5" class="st42" width="3" height="21"/>
			</g>
			<g>
				<rect x="548" y="233" class="st43" width="20" height="61"/>
			</g>
			<g>
				<rect x="548" y="233" class="st44" width="14" height="61"/>
			</g>
			<g>
				<rect x="557" y="206.5" class="st42" width="3" height="21.5"/>
			</g>
			<polyline class="st26" points="557.1,295 539,295 539,227.6 549.5,216.5 560,227.6 560,295 554.3,295 			"/>
			<g>
				<rect x="538" y="251" class="st45" width="23" height="2"/>
			</g>
			<g>
				<rect x="545" y="259" class="st46" width="5.1" height="19"/>
			</g>
			<g>
				<rect x="548.9" y="259" class="st47" width="5.1" height="19"/>
			</g>
			<g>
				<rect x="545" y="228" class="st46" width="5.1" height="19"/>
			</g>
			<g>
				<rect x="548.9" y="228" class="st47" width="5.1" height="19"/>
			</g>
		</g>
		<g>
			<g>
				<rect x="530" y="229" class="st40" width="2" height="4"/>
			</g>
			<g>
				<rect x="530" y="215" class="st41" width="2" height="14"/>
			</g>
			<g>
				<rect x="512" y="215" class="st41" width="2" height="14"/>
			</g>
			<g>
				<rect x="509" y="206.5" class="st42" width="3" height="21"/>
			</g>
			<g>
				<rect x="518" y="233" class="st43" width="14" height="61"/>
			</g>
			<g>
				<rect x="527" y="206.5" class="st42" width="3" height="21.5"/>
			</g>
			<polyline class="st26" points="527.1,295 509,295 509,227.6 519.5,216.5 530,227.6 530,295 524.3,295 			"/>
			<g>
				<rect x="508" y="251" class="st45" width="23" height="2"/>
			</g>
			<g>
				<rect x="515" y="259" class="st46" width="5.1" height="19"/>
			</g>
			<g>
				<rect x="518.9" y="259" class="st47" width="5.1" height="19"/>
			</g>
			<g>
				<rect x="515" y="228" class="st46" width="5.1" height="19"/>
			</g>
			<g>
				<rect x="518.9" y="228" class="st47" width="5.1" height="19"/>
			</g>
		</g>
		<g>
			<g>
				<rect x="499" y="229" class="st40" width="2" height="4"/>
			</g>
			<g>
				<rect x="499" y="215" class="st41" width="2" height="14"/>
			</g>
			<g>
				<rect x="481" y="215" class="st41" width="2" height="14"/>
			</g>
			<g>
				<rect x="478" y="206.5" class="st42" width="3" height="21"/>
			</g>
			<g>
				<rect x="487" y="233" class="st43" width="14" height="61"/>
			</g>
			<g>
				<rect x="496" y="206.5" class="st42" width="3" height="21.5"/>
			</g>
			<polyline class="st26" points="496.1,295 478,295 478,227.6 488.5,216.5 499,227.6 499,295 493.3,295 			"/>
			<g>
				<rect x="477" y="251" class="st45" width="23" height="2"/>
			</g>
			<g>
				<rect x="484" y="259" class="st46" width="5.1" height="19"/>
			</g>
			<g>
				<rect x="487.9" y="259" class="st47" width="5.1" height="19"/>
			</g>
			<g>
				<rect x="484" y="228" class="st46" width="5.1" height="19"/>
			</g>
			<g>
				<rect x="487.9" y="228" class="st47" width="5.1" height="19"/>
			</g>
		</g>
		<path class="st39" d="M590,138h18c-0.4-4-2.6-7.5-5.9-10H590V138z"/>
		<g>
			<g>
				<rect x="469" y="229" class="st40" width="2" height="4"/>
			</g>
			<g>
				<rect x="469" y="215" class="st41" width="2" height="14"/>
			</g>
			<g>
				<rect x="451" y="215" class="st41" width="2" height="14"/>
			</g>
			<g>
				<rect x="448" y="206.5" class="st42" width="3" height="21"/>
			</g>
			<g>
				<rect x="457" y="233" class="st43" width="14" height="61"/>
			</g>
			<g>
				<rect x="466" y="206.5" class="st42" width="3" height="21.5"/>
			</g>
			<polyline class="st26" points="466.1,295 448,295 448,227.6 458.5,216.5 469,227.6 469,295 463.3,295 			"/>
			<g>
				<rect x="447" y="251" class="st45" width="23" height="2"/>
			</g>
			<g>
				<rect x="454" y="259" class="st46" width="5.1" height="19"/>
			</g>
			<g>
				<rect x="457.9" y="259" class="st47" width="5.1" height="19"/>
			</g>
			<g>
				<rect x="454" y="228" class="st46" width="5.1" height="19"/>
			</g>
			<g>
				<rect x="457.9" y="228" class="st47" width="5.1" height="19"/>
			</g>
		</g>
		<g>
			<g>
				<rect x="440" y="229" class="st40" width="2" height="4"/>
			</g>
			<g>
				<rect x="440" y="215" class="st41" width="2" height="14"/>
			</g>
			<g>
				<rect x="422" y="215" class="st41" width="2" height="14"/>
			</g>
			<g>
				<rect x="419" y="206.5" class="st42" width="3" height="21"/>
			</g>
			<g>
				<rect x="428" y="233" class="st43" width="14" height="61"/>
			</g>
			<g>
				<rect x="437" y="206.5" class="st42" width="3" height="21.5"/>
			</g>
			<polyline class="st26" points="437.1,295 419,295 419,227.6 429.5,216.5 440,227.6 440,295 434.3,295 			"/>
			<g>
				<rect x="418" y="251" class="st45" width="23" height="2"/>
			</g>
			<g>
				<rect x="425" y="259" class="st46" width="5.1" height="19"/>
			</g>
			<g>
				<rect x="428.9" y="259" class="st47" width="5.1" height="19"/>
			</g>
			<g>
				<rect x="425" y="228" class="st46" width="5.1" height="19"/>
			</g>
			<g>
				<rect x="428.9" y="228" class="st47" width="5.1" height="19"/>
			</g>
		</g>
		<polygon class="st48" points="571,198 577,205 611,205 611,198 		"/>
		<g>
			<rect x="566" y="137" class="st31" width="48" height="5.2"/>
		</g>
	</g>
	<g>
		<ellipse class="st15" cx="643.5" cy="272.9" rx="13.5" ry="13.2"/>
		<path class="st16" d="M643.5,259.8c-0.1,0-0.2,0-0.3,0v26.3c0.1,0,0.2,0,0.3,0c7.5,0,13.5-5.9,13.5-13.2
			C657,265.7,651,259.8,643.5,259.8z"/>
		<rect x="641.8" y="277.1" class="st17" width="2.8" height="15.9"/>
	</g>
	<g>
		<ellipse class="st15" cx="621.5" cy="264" rx="19.5" ry="19"/>
		<path class="st16" d="M621.5,245c-0.2,0-0.3,0-0.5,0v38c0.2,0,0.3,0,0.5,0c10.8,0,19.5-8.5,19.5-19S632.3,245,621.5,245z"/>
		<rect x="619" y="270" class="st17" width="4" height="23"/>
	</g>
	<g>
		<rect y="291.2" class="st43" width="789" height="6.6"/>
	</g>
	<g>
		<g class="st49">
			<rect x="667" y="291" class="st50" width="23" height="7"/>
		</g>
		<g class="st49">
			<rect x="665" y="298" class="st50" width="29" height="49"/>
		</g>
		<g>
			<rect x="665" y="267" class="st26" width="22" height="33"/>
			<rect x="665" y="267" class="st51" width="5" height="33"/>
			<rect x="683" y="267" class="st52" width="5" height="33"/>
			<g>
				<rect x="673" y="277" class="st46" width="7" height="10"/>
			</g>
			<circle class="st46" cx="676.5" cy="277.5" r="3.5"/>
			<g>
				<polygon class="st27" points="665,266 677,266 677,251 				"/>
				<polygon class="st39" points="689,266 677,266 677,251 				"/>
				<rect x="664" y="264" class="st53" width="26" height="3"/>
			</g>
			<g>
				<rect x="665" y="298" class="st38" width="23" height="2"/>
			</g>
			<rect x="660" y="300" class="st54" width="16" height="47"/>
			<rect x="676" y="300" class="st55" width="16" height="47"/>
		</g>
	</g>
	<g>
		<g class="st49">
			<rect x="771" y="290" class="st50" width="23" height="8"/>
		</g>
		<g class="st49">
			<rect x="767" y="298" class="st50" width="29" height="49"/>
		</g>
		<g>
			<rect x="774" y="232" class="st26" width="22" height="66"/>
			<rect x="774" y="232" class="st51" width="5" height="66"/>
			<rect x="792" y="232" class="st52" width="5" height="66"/>
			<path class="st46" d="M788.9,242c-0.2-1.7-1.7-3-3.4-3s-3.2,1.3-3.4,3H782v10h7L788.9,242L788.9,242z"/>
			<g>
				<polygon class="st27" points="774,231 786,231 786,216 				"/>
				<polygon class="st39" points="798,231 786,231 786,216 				"/>
				<rect x="773" y="229" class="st53" width="26" height="3"/>
			</g>
			<g>
				<rect x="774" y="298" class="st38" width="23" height="2"/>
			</g>
			<rect x="769" y="300" class="st54" width="16" height="47"/>
			<rect x="785" y="300" class="st55" width="16" height="47"/>
		</g>
	</g>
	<path class="st13" d="M656,0"/>
	<g>
		<path class="st56" d="M171,285c0,0-5-2-5-5s2-34,3-39s2-18,3-19s2-1,2-1v64H171z"/>
		<path class="st57" d="M177,285c0,0,5-2,5-5s-2-34-3-39s-2-18-3-19s-2-1-2-1v64H177z"/>
		<rect x="172" y="285" class="st58" width="4" height="6"/>
		<rect x="171" y="290" class="st59" width="6" height="2.8"/>
		<circle class="st60" cx="173.5" cy="239.5" r="1.5"/>
		<circle class="st60" cx="171.5" cy="233.5" r="1.5"/>
		<circle class="st60" cx="171.5" cy="243.5" r="1.5"/>
		<circle class="st60" cx="173.5" cy="249.5" r="1.5"/>
		<circle class="st60" cx="169.5" cy="255.5" r="1.5"/>
		<circle class="st60" cx="171.5" cy="227.5" r="1.5"/>
		<circle class="st60" cx="171.5" cy="271.5" r="1.5"/>
		<circle class="st60" cx="167.5" cy="267.5" r="1.5"/>
		<circle class="st60" cx="171.5" cy="261.5" r="1.5"/>
		<circle class="st60" cx="171.5" cy="277.5" r="1.5"/>
		<circle class="st61" cx="179.5" cy="275.5" r="1.5"/>
		<circle class="st61" cx="177.5" cy="269.5" r="1.5"/>
		<circle class="st61" cx="175.5" cy="261.5" r="1.5"/>
		<circle class="st61" cx="177.5" cy="255.5" r="1.5"/>
		<circle class="st61" cx="175.5" cy="245.5" r="1.5"/>
	</g>
	<g>
		<path class="st56" d="M186.4,287.4c0,0-3.4-1.4-3.4-3.4s1.4-23.4,2.1-26.8s1.4-12.4,2.1-13.1s1.4-0.7,1.4-0.7v44H186.4z"/>
		<path class="st57" d="M190.6,287.4c0,0,3.4-1.4,3.4-3.4s-1.4-23.4-2.1-26.8s-1.4-12.4-2.1-13.1s-1.4-0.7-1.4-0.7v44H190.6z"/>
		<rect x="187.1" y="287.4" class="st58" width="2.8" height="4.1"/>
		<rect x="186.4" y="290.9" class="st59" width="4.1" height="1.9"/>
		<circle class="st60" cx="188.2" cy="256.1" r="1"/>
		<circle class="st60" cx="186.8" cy="252" r="1"/>
		<circle class="st60" cx="186.8" cy="258.9" r="1"/>
		<circle class="st60" cx="188.2" cy="263" r="1"/>
		<circle class="st60" cx="185.4" cy="267.1" r="1"/>
		<circle class="st60" cx="186.8" cy="247.9" r="1"/>
		<circle class="st60" cx="186.8" cy="278.1" r="1"/>
		<circle class="st60" cx="184" cy="275.4" r="1"/>
		<circle class="st60" cx="186.8" cy="271.3" r="1"/>
		<circle class="st60" cx="186.8" cy="282.3" r="1"/>
		<circle class="st61" cx="192.3" cy="280.9" r="1"/>
		<circle class="st61" cx="190.9" cy="276.8" r="1"/>
		<circle class="st61" cx="189.5" cy="271.3" r="1"/>
		<circle class="st61" cx="190.9" cy="267.1" r="1"/>
		<circle class="st61" cx="189.5" cy="260.3" r="1"/>
	</g>
	<g>
		<g>
			<polygon class="st62" points="89,254 143,254 139,238 89,238 			"/>
			<path class="st63" d="M143.2,256H90.8c-0.4,0-0.8-0.3-0.8-0.8v-0.4c0-0.4,0.3-0.8,0.8-0.8h52.4c0.4,0,0.8,0.3,0.8,0.8v0.4
				C144,255.7,143.7,256,143.2,256z"/>
			<rect x="86" y="240" class="st64" width="54" height="2"/>
		</g>
		<rect x="96" y="256" class="st65" width="47" height="36"/>
		<path class="st66" d="M118,270c-0.3-2.8-2.6-5-5.5-5s-5.2,2.2-5.5,5h0v17h11L118,270L118,270z"/>
		<path class="st67" d="M109,272L109,272c0.3-2.8,2.6-5,5.5-5c1,0,1.9,0.3,2.7,0.7c-1-1.6-2.7-2.7-4.7-2.7c-2.9,0-5.2,2.2-5.5,5h0
			v17h2V272z"/>
		<path class="st66" d="M133,270c-0.3-2.8-2.6-5-5.5-5s-5.2,2.2-5.5,5h0v17h11L133,270L133,270z"/>
		<path class="st67" d="M124,272L124,272c0.3-2.8,2.6-5,5.5-5c1,0,1.9,0.3,2.7,0.7c-1-1.6-2.7-2.7-4.7-2.7c-2.9,0-5.2,2.2-5.5,5h0
			v17h2V272z"/>
		<rect x="63" y="227" class="st68" width="38" height="66"/>
		<rect x="61" y="227" class="st68" width="3" height="66"/>
		<rect x="61" y="227" class="st69" width="3" height="66"/>
		<rect x="99" y="227" class="st70" width="3" height="66"/>
		<path class="st66" d="M87,237c-0.3-2.8-2.6-5-5.5-5s-5.2,2.2-5.5,5h0v17h11L87,237L87,237z"/>
		<path class="st67" d="M78,239L78,239c0.3-2.8,2.6-5,5.5-5c1,0,1.9,0.3,2.7,0.7c-1-1.6-2.7-2.7-4.7-2.7c-2.9,0-5.2,2.2-5.5,5h0v17
			h2V239z"/>
		<path class="st66" d="M87,270c-0.3-2.8-2.6-5-5.5-5s-5.2,2.2-5.5,5h0v17h11L87,270L87,270z"/>
		<path class="st67" d="M78,272L78,272c0.3-2.8,2.6-5,5.5-5c1,0,1.9,0.3,2.7,0.7c-1-1.6-2.7-2.7-4.7-2.7c-2.9,0-5.2,2.2-5.5,5h0v17
			h2V272z"/>
		<rect x="65.9" y="209" class="st71" width="6.8" height="15"/>
		<polygon class="st72" points="61,225 76.6,208 79.5,205 85.4,205 87.3,208 102,226 60,226 		"/>
		<polygon class="st62" points="82.5,226 102,226 87.3,208 85.4,205 82.5,205 		"/>
		<path class="st63" d="M102.2,227H59.8c-0.4,0-0.8-0.3-0.8-0.8v-0.5c0-0.4,0.3-0.8,0.8-0.8h42.5c0.4,0,0.8,0.3,0.8,0.8v0.5
			C103,226.7,102.7,227,102.2,227z"/>
		<path class="st73" d="M73,209h-7.4c-0.4,0-0.7-0.3-0.7-0.7v-1.6c0-0.4,0.3-0.7,0.7-0.7H73c0.4,0,0.7,0.3,0.7,0.7v1.6
			C73.7,208.7,73.4,209,73,209z"/>
		<path class="st73" d="M85.3,206h-5.6c-0.4,0-0.7-0.3-0.7-0.7v0c0-0.4,0.3-0.7,0.7-0.7h5.6c0.4,0,0.7,0.3,0.7,0.7v0
			C86,205.7,85.7,206,85.3,206z"/>
		<rect x="85" y="217" class="st74" width="9" height="2"/>
		<rect x="77" y="211" class="st75" width="4" height="2"/>
		<rect x="69" y="219" class="st75" width="4" height="2"/>
		<g>
			<g>
				<g>
					<rect x="118" y="285" class="st76" width="6" height="9"/>
					<rect x="118" y="282" class="st77" width="6" height="3"/>
					<circle class="st78" cx="121" cy="279" r="3"/>
					<rect x="121" y="289" class="st79" width="3" height="1"/>
					<rect x="120" y="288" class="st80" width="3" height="1"/>
					<rect x="119" y="292" class="st79" width="3" height="1"/>
					<rect x="118" y="286" class="st79" width="2" height="1"/>
					<rect x="124" y="285" class="st81" width="2" height="9"/>
					<rect x="126" y="285" class="st82" width="13" height="9"/>
					<rect x="126" y="285" class="st83" width="13" height="2"/>
					<rect x="126" y="287" class="st84" width="3" height="2"/>
					<rect x="131" y="287" class="st85" width="3" height="2"/>
					<rect x="134" y="289" class="st85" width="3" height="2"/>
					<rect x="128" y="289" class="st85" width="3" height="2"/>
					<rect x="136" y="287" class="st84" width="3" height="2"/>
					<rect x="136" y="291" class="st84" width="3" height="2"/>
					<rect x="131" y="291" class="st84" width="3" height="2"/>
					<rect x="126" y="291" class="st84" width="3" height="2"/>
					<rect x="124" y="285" class="st86" width="2" height="2"/>
				</g>
				<g>
					<rect x="76" y="285" class="st76" width="6" height="9"/>
					<rect x="76" y="282" class="st77" width="6" height="3"/>
					<circle class="st78" cx="79" cy="279" r="3"/>
					<rect x="79" y="289" class="st79" width="3" height="1"/>
					<rect x="78" y="288" class="st80" width="3" height="1"/>
					<rect x="77" y="292" class="st79" width="3" height="1"/>
					<rect x="76" y="286" class="st79" width="2" height="1"/>
					<rect x="82" y="285" class="st81" width="2" height="9"/>
					<rect x="84" y="285" class="st82" width="13" height="9"/>
					<rect x="84" y="285" class="st83" width="13" height="2"/>
					<rect x="84" y="287" class="st84" width="3" height="2"/>
					<rect x="89" y="287" class="st85" width="3" height="2"/>
					<rect x="92" y="289" class="st85" width="3" height="2"/>
					<rect x="86" y="289" class="st85" width="3" height="2"/>
					<rect x="94" y="287" class="st84" width="3" height="2"/>
					<rect x="94" y="291" class="st84" width="3" height="2"/>
					<rect x="89" y="291" class="st84" width="3" height="2"/>
					<rect x="84" y="291" class="st84" width="3" height="2"/>
					<rect x="82" y="285" class="st86" width="2" height="2"/>
				</g>
				<g>
					<rect x="97" y="285" class="st76" width="6" height="9"/>
					<rect x="97" y="282" class="st77" width="6" height="3"/>
					<circle class="st78" cx="100" cy="279" r="3"/>
					<rect x="100" y="289" class="st79" width="3" height="1"/>
					<rect x="99" y="288" class="st80" width="3" height="1"/>
					<rect x="98" y="292" class="st79" width="3" height="1"/>
					<rect x="97" y="286" class="st79" width="2" height="1"/>
					<rect x="103" y="285" class="st81" width="2" height="9"/>
					<rect x="105" y="285" class="st82" width="13" height="9"/>
					<rect x="105" y="285" class="st83" width="13" height="2"/>
					<rect x="105" y="287" class="st84" width="3" height="2"/>
					<rect x="110" y="287" class="st85" width="3" height="2"/>
					<rect x="113" y="289" class="st85" width="3" height="2"/>
					<rect x="107" y="289" class="st85" width="3" height="2"/>
					<rect x="115" y="287" class="st84" width="3" height="2"/>
					<rect x="115" y="291" class="st84" width="3" height="2"/>
					<rect x="110" y="291" class="st84" width="3" height="2"/>
					<rect x="105" y="291" class="st84" width="3" height="2"/>
					<rect x="103" y="285" class="st86" width="2" height="2"/>
					<rect x="138" y="285" class="st76" width="6" height="9"/>
					<rect x="138" y="282" class="st77" width="6" height="3"/>
					<circle class="st78" cx="141" cy="279" r="3"/>
					<rect x="141" y="289" class="st79" width="3" height="1"/>
					<rect x="140" y="288" class="st80" width="3" height="1"/>
					<rect x="139" y="292" class="st79" width="3" height="1"/>
					<rect x="138" y="286" class="st79" width="2" height="1"/>
				</g>
			</g>
			<rect x="82" y="282" class="st64" width="15" height="1"/>
			<rect x="103" y="282" class="st64" width="15" height="1"/>
			<rect x="124" y="282" class="st64" width="14" height="1"/>
		</g>
		<path class="st63" d="M60.5,263h82c0.8,0,1.5-0.7,1.5-1.5l0,0c0-0.8-0.7-1.5-1.5-1.5h-82c-0.8,0-1.5,0.7-1.5,1.5l0,0
			C59,262.3,59.7,263,60.5,263z"/>
	</g>
	<g>
		<ellipse class="st15" cx="151.5" cy="264" rx="19.5" ry="19"/>
		<path class="st16" d="M151.5,245c-0.2,0-0.3,0-0.5,0v38c0.2,0,0.3,0,0.5,0c10.8,0,19.5-8.5,19.5-19S162.3,245,151.5,245z"/>
		<rect x="149" y="270" class="st17" width="4" height="23"/>
	</g>
	<g>
		<rect x="11" y="265" class="st87" width="66" height="27"/>
		<polygon class="st88" points="30,269 53.8,286 57,288 57,268 		"/>
		<g>
			<rect x="52" y="271" class="st89" width="20" height="12"/>
			<rect x="56" y="271" class="st90" width="12" height="12"/>
			<rect x="57" y="272" class="st91" width="10" height="4"/>
			<rect x="61" y="272" class="st90" width="2" height="4"/>
			<rect x="57" y="281" class="st91" width="10" height="1"/>
			<rect x="61" y="281" class="st90" width="2" height="1"/>
			<rect x="57" y="279" class="st91" width="10" height="1"/>
			<rect x="61" y="279" class="st90" width="2" height="1"/>
			<rect x="57" y="277" class="st91" width="10" height="1"/>
			<rect x="61" y="277" class="st90" width="2" height="1"/>
		</g>
		<g>
			<rect x="15" y="271" class="st89" width="20" height="12"/>
			<rect x="19" y="271" class="st90" width="12" height="12"/>
			<rect x="20" y="272" class="st91" width="10" height="4"/>
			<rect x="24" y="272" class="st90" width="2" height="4"/>
			<rect x="20" y="281" class="st91" width="10" height="1"/>
			<rect x="24" y="281" class="st90" width="2" height="1"/>
			<rect x="20" y="279" class="st91" width="10" height="1"/>
			<rect x="24" y="279" class="st90" width="2" height="1"/>
			<rect x="20" y="277" class="st91" width="10" height="1"/>
			<rect x="24" y="277" class="st90" width="2" height="1"/>
		</g>
		<rect x="38" y="269" class="st92" width="11" height="23"/>
		<rect x="39" y="270" class="st93" width="9" height="22"/>
		<rect x="39" y="270" class="st94" width="9" height="7"/>
		<rect x="39" y="270" class="st95" width="9" height="2"/>
		<rect x="47" y="283" class="st96" width="1" height="1"/>
		<rect x="11" y="291" class="st97" width="66" height="2"/>
		<rect x="28" y="235" class="st98" width="8" height="14"/>
		<rect x="36" y="291" class="st99" width="15" height="2"/>
		<rect x="11" y="263" class="st88" width="66" height="3"/>
		<polygon class="st100" points="80,264 9,264 13,246 76,246 		"/>
		<rect x="36" y="268" class="st101" width="1" height="3"/>
		<rect x="50" y="268" class="st101" width="1" height="3"/>
		<path class="st102" d="M79.5,264h-70c-0.3,0-0.5-0.2-0.5-0.5l0,0c0-0.3,0.2-0.5,0.5-0.5h70c0.3,0,0.5,0.2,0.5,0.5l0,0
			C80,263.8,79.8,264,79.5,264z"/>
		<polygon class="st101" points="30,268 57,268 55.6,266.5 52.3,266.5 43.7,257.3 34.7,267 30.9,267 		"/>
		<polygon class="st103" points="43,259 43,267 36,267 		"/>
		<polygon class="st103" points="44,259 44,267 51,267 		"/>
		<rect x="30" y="268" class="st104" width="27" height="1"/>
		<ellipse class="st105" cx="36" cy="289" rx="2" ry="4"/>
		<ellipse class="st106" cx="51" cy="289" rx="2" ry="4"/>
		<path class="st107" d="M65.6,259c0.3-0.9,0.4-1.9,0.4-3c0-4.4-2.7-8-6-8s-6,3.6-6,8c0,1.1,0.2,2.1,0.4,3H65.6z"/>
		<path class="st108" d="M63.4,257c0.2-0.6,0.3-1.2,0.3-1.9c0-2.8-1.7-5.1-3.8-5.1c-2.1,0-3.8,2.3-3.8,5.1c0,0.7,0.1,1.3,0.3,1.9
			H63.4z"/>
		<rect x="59" y="249" class="st107" width="2" height="9"/>
		<path class="st107" d="M32.6,259c0.3-0.9,0.4-1.9,0.4-3c0-4.4-2.7-8-6-8s-6,3.6-6,8c0,1.1,0.2,2.1,0.4,3H32.6z"/>
		<path class="st108" d="M30.4,257c0.2-0.6,0.3-1.2,0.3-1.9c0-2.8-1.7-5.1-3.8-5.1s-3.8,2.3-3.8,5.1c0,0.7,0.1,1.3,0.3,1.9H30.4z"/>
		<rect x="26" y="249" class="st107" width="2" height="9"/>
		<rect x="27" y="233" class="st109" width="10" height="3"/>
	</g>
	<rect x="709" y="271.5" class="st110" width="2" height="19.5"/>
	<rect x="716" y="271.5" class="st110" width="2" height="19.5"/>
	<rect x="723" y="270.6" class="st110" width="2" height="20.4"/>
	<rect x="730" y="268.6" class="st110" width="2" height="22.4"/>
	<rect x="737" y="264" class="st110" width="2" height="27"/>
	<rect x="744" y="259.8" class="st110" width="2" height="31.2"/>
	<rect x="751" y="254" class="st110" width="2" height="37"/>
	<path class="st111" d="M688,268c0,0,23.8,6,39.4,2c15.5-4,46.6-38,46.6-38"/>
</g>
<g>
	<path class="st112" d="M800,302l11,12c0,0,15-22,22-30s25-25,25-25l-6-6L800,302z"/>
	<polygon class="st113" points="855,254 803,305 799,301 853,252 	"/>
</g>
<g>
	<g>
		<rect x="253" y="213.8" class="st114" width="97.7" height="12.3"/>
	</g>
	<g>
		<rect x="253" y="212" class="st115" width="97.7" height="12.3"/>
	</g>
	<rect x="253" y="226.1" class="st116" width="102.8" height="65"/>
	<rect x="253" y="286.7" class="st117" width="93.5" height="4.4"/>
	<rect x="253" y="257.7" class="st117" width="93.5" height="21.1"/>
	<g>
		<path class="st107" d="M282,277.1v-14.3c0-1.3,1.2-2.4,2.6-2.4h6.2c1.5,0,2.6,1.1,2.6,2.4v14.3"/>
		<path class="st108" d="M282.9,277.1v-13.6c0-1.2,1-2.3,2.2-2.3h5.2c1.2,0,2.2,1,2.2,2.3v13.6"/>
		<rect x="282.9" y="268.3" class="st107" width="10.5" height="0.9"/>
		<rect x="282" y="276.2" class="st107" width="11.4" height="0.9"/>
	</g>
	<g>
		<path class="st107" d="M294.3,277.1v-14.3c0-1.3,1.2-2.4,2.6-2.4h6.2c1.5,0,2.6,1.1,2.6,2.4v14.3"/>
		<path class="st108" d="M295.2,277.1v-13.6c0-1.2,1-2.3,2.2-2.3h5.2c1.2,0,2.2,1,2.2,2.3v13.6"/>
		<rect x="295.2" y="268.3" class="st107" width="10.5" height="0.9"/>
		<rect x="294.3" y="276.2" class="st107" width="11.4" height="0.9"/>
	</g>
	<g>
		<path class="st107" d="M310.1,277.1v-14.3c0-1.3,1.2-2.4,2.6-2.4h15.8c1.5,0,2.6,1.1,2.6,2.4v14.3"/>
		<path class="st108" d="M311,277.1v-13.6c0-1.2,1-2.3,2.2-2.3h14.9c1.2,0,2.2,1,2.2,2.3v13.6"/>
		<rect x="311" y="268.3" class="st107" width="20.2" height="0.9"/>
		<rect x="310.1" y="276.2" class="st107" width="21.1" height="0.9"/>
	</g>
	<rect x="319.8" y="261.2" class="st107" width="1.8" height="15.8"/>
	<path class="st118" d="M370.8,162.9h-12.4c-3.4,0-6.1-2.8-6.1-6.1v-3.7c0-3.4,2.8-6.1,6.1-6.1h12.4c3.4,0,6.1,2.8,6.1,6.1v3.7
		C376.9,160.2,374.2,162.9,370.8,162.9z"/>
	<path class="st119" d="M370.8,165.6h-12.4c-3.4,0-6.1-2.8-6.1-6.1v-3.7c0-3.4,2.8-6.1,6.1-6.1h12.4c3.4,0,6.1,2.8,6.1,6.1v3.7
		C376.9,162.8,374.2,165.6,370.8,165.6z"/>
	<path class="st118" d="M375.2,186.5H354c-3.4,0-6.1-2.8-6.1-6.1v-20.3c0-3.4,2.8-6.1,6.1-6.1h21.1c3.4,0,6.1,2.8,6.1,6.1v20.3
		C381.3,183.8,378.5,186.5,375.2,186.5z"/>
	<path class="st120" d="M375.2,188.3H354c-3.4,0-6.1-2.8-6.1-6.1v-20.3c0-3.4,2.8-6.1,6.1-6.1h21.1c3.4,0,6.1,2.8,6.1,6.1v20.3
		C381.3,185.5,378.5,188.3,375.2,188.3z"/>
	<path class="st121" d="M375.2,193.6H354c-3.4,0-6.1-2.8-6.1-6.1v-20.3c0-3.4,2.8-6.1,6.1-6.1h21.1c3.4,0,6.1,2.8,6.1,6.1v20.3
		C381.3,190.8,378.5,193.6,375.2,193.6z"/>
	<path class="st120" d="M375.2,195.3H354c-3.4,0-6.1-2.8-6.1-6.1v-20.3c0-3.4,2.8-6.1,6.1-6.1h21.1c3.4,0,6.1,2.8,6.1,6.1v20.3
		C381.3,192.6,378.5,195.3,375.2,195.3z"/>
	<path class="st121" d="M375.2,200.6H354c-3.4,0-6.1-2.8-6.1-6.1v-20.3c0-3.4,2.8-6.1,6.1-6.1h21.1c3.4,0,6.1,2.8,6.1,6.1v20.3
		C381.3,197.8,378.5,200.6,375.2,200.6z"/>
	<path class="st120" d="M375.2,202.4H354c-3.4,0-6.1-2.8-6.1-6.1V176c0-3.4,2.8-6.1,6.1-6.1h21.1c3.4,0,6.1,2.8,6.1,6.1v20.3
		C381.3,199.6,378.5,202.4,375.2,202.4z"/>
	<path class="st121" d="M375.2,207.6H354c-3.4,0-6.1-2.8-6.1-6.1v-20.3c0-3.4,2.8-6.1,6.1-6.1h21.1c3.4,0,6.1,2.8,6.1,6.1v20.3
		C381.3,204.9,378.5,207.6,375.2,207.6z"/>
	<path class="st120" d="M375.2,209.4H354c-3.4,0-6.1-2.8-6.1-6.1V183c0-3.4,2.8-6.1,6.1-6.1h21.1c3.4,0,6.1,2.8,6.1,6.1v20.3
		C381.3,206.6,378.5,209.4,375.2,209.4z"/>
	<rect x="253" y="256" class="st122" width="87" height="3.5"/>
	<rect x="253" y="244.5" class="st117" width="86.1" height="1.8"/>
	<g>
		<path class="st118" d="M350.9,173.5h-0.7c-3.4,0-6.1-2.8-6.1-6.1v-3.7c0-3.4,2.8-6.1,6.1-6.1h0.7c3.4,0,6.1,2.8,6.1,6.1v3.7
			C357,170.7,354.3,173.5,350.9,173.5z"/>
		<path class="st119" d="M350.9,176.1h-0.7c-3.4,0-6.1-2.8-6.1-6.1v-3.7c0-3.4,2.8-6.1,6.1-6.1h0.7c3.4,0,6.1,2.8,6.1,6.1v3.7
			C357,173.4,354.3,176.1,350.9,176.1z"/>
		<path class="st118" d="M353.2,197.1h-5.3c-3.4,0-6.1-2.8-6.1-6.1v-20.3c0-3.4,2.8-6.1,6.1-6.1h5.3c3.4,0,6.1,2.8,6.1,6.1V191
			C359.3,194.3,356.6,197.1,353.2,197.1z"/>
		<path class="st120" d="M353.2,198.8h-5.3c-3.4,0-6.1-2.8-6.1-6.1v-20.3c0-3.4,2.8-6.1,6.1-6.1h5.3c3.4,0,6.1,2.8,6.1,6.1v20.3
			C359.3,196.1,356.6,198.8,353.2,198.8z"/>
		<path class="st121" d="M353.2,204.1h-5.3c-3.4,0-6.1-2.8-6.1-6.1v-20.3c0-3.4,2.8-6.1,6.1-6.1h5.3c3.4,0,6.1,2.8,6.1,6.1V198
			C359.3,201.4,356.6,204.1,353.2,204.1z"/>
		<path class="st120" d="M353.2,205.9h-5.3c-3.4,0-6.1-2.8-6.1-6.1v-20.3c0-3.4,2.8-6.1,6.1-6.1h5.3c3.4,0,6.1,2.8,6.1,6.1v20.3
			C359.3,203.1,356.6,205.9,353.2,205.9z"/>
		<path class="st121" d="M353.2,211.2h-5.3c-3.4,0-6.1-2.8-6.1-6.1v-20.3c0-3.4,2.8-6.1,6.1-6.1h5.3c3.4,0,6.1,2.8,6.1,6.1V205
			C359.3,208.4,356.6,211.2,353.2,211.2z"/>
		<path class="st120" d="M353.2,212.9h-5.3c-3.4,0-6.1-2.8-6.1-6.1v-20.3c0-3.4,2.8-6.1,6.1-6.1h5.3c3.4,0,6.1,2.8,6.1,6.1v20.3
			C359.3,210.2,356.6,212.9,353.2,212.9z"/>
		<path class="st121" d="M353.2,218.2h-5.3c-3.4,0-6.1-2.8-6.1-6.1v-20.3c0-3.4,2.8-6.1,6.1-6.1h5.3c3.4,0,6.1,2.8,6.1,6.1v20.3
			C359.3,215.4,356.6,218.2,353.2,218.2z"/>
		<path class="st120" d="M353.2,219.9h-5.3c-3.4,0-6.1-2.8-6.1-6.1v-20.3c0-3.4,2.8-6.1,6.1-6.1h5.3c3.4,0,6.1,2.8,6.1,6.1v20.3
			C359.3,217.2,356.6,219.9,353.2,219.9z"/>
		<path class="st118" d="M346.8,164.6L346.8,164.6c-0.3,0-0.5-0.2-0.5-0.5v-4.3c0-0.3,0.2-0.5,0.5-0.5l0,0c0.3,0,0.5,0.2,0.5,0.5
			v4.3C347.3,164.4,347.1,164.6,346.8,164.6z"/>
		<path class="st118" d="M348.7,164.6L348.7,164.6c-0.3,0-0.5-0.2-0.5-0.5v-4.3c0-0.3,0.2-0.5,0.5-0.5l0,0c0.3,0,0.5,0.2,0.5,0.5
			v4.3C349.2,164.4,348.9,164.6,348.7,164.6z"/>
		<path class="st118" d="M350.5,164.6L350.5,164.6c-0.3,0-0.5-0.2-0.5-0.5v-4.3c0-0.3,0.2-0.5,0.5-0.5l0,0c0.3,0,0.5,0.2,0.5,0.5
			v4.3C351,164.4,350.8,164.6,350.5,164.6z"/>
		<path class="st118" d="M352.4,164.6L352.4,164.6c-0.3,0-0.5-0.2-0.5-0.5v-4.3c0-0.3,0.2-0.5,0.5-0.5l0,0c0.3,0,0.5,0.2,0.5,0.5
			v4.3C352.9,164.4,352.6,164.6,352.4,164.6z"/>
		<path class="st118" d="M354.2,164.6L354.2,164.6c-0.3,0-0.5-0.2-0.5-0.5v-4.3c0-0.3,0.2-0.5,0.5-0.5l0,0c0.3,0,0.5,0.2,0.5,0.5
			v4.3C354.7,164.4,354.5,164.6,354.2,164.6z"/>
	</g>
	<g>
		<path class="st118" d="M377.3,173.5h-0.7c-3.4,0-6.1-2.8-6.1-6.1v-3.7c0-3.4,2.8-6.1,6.1-6.1h0.7c3.4,0,6.1,2.8,6.1,6.1v3.7
			C383.4,170.7,380.6,173.5,377.3,173.5z"/>
		<path class="st119" d="M377.3,176.1h-0.7c-3.4,0-6.1-2.8-6.1-6.1v-3.7c0-3.4,2.8-6.1,6.1-6.1h0.7c3.4,0,6.1,2.8,6.1,6.1v3.7
			C383.4,173.4,380.6,176.1,377.3,176.1z"/>
		<path class="st118" d="M379.6,197.1h-5.3c-3.4,0-6.1-2.8-6.1-6.1v-20.3c0-3.4,2.8-6.1,6.1-6.1h5.3c3.4,0,6.1,2.8,6.1,6.1V191
			C385.7,194.3,382.9,197.1,379.6,197.1z"/>
		<path class="st120" d="M379.6,198.8h-5.3c-3.4,0-6.1-2.8-6.1-6.1v-20.3c0-3.4,2.8-6.1,6.1-6.1h5.3c3.4,0,6.1,2.8,6.1,6.1v20.3
			C385.7,196.1,382.9,198.8,379.6,198.8z"/>
		<path class="st121" d="M379.6,204.1h-5.3c-3.4,0-6.1-2.8-6.1-6.1v-20.3c0-3.4,2.8-6.1,6.1-6.1h5.3c3.4,0,6.1,2.8,6.1,6.1V198
			C385.7,201.4,382.9,204.1,379.6,204.1z"/>
		<path class="st120" d="M379.6,205.9h-5.3c-3.4,0-6.1-2.8-6.1-6.1v-20.3c0-3.4,2.8-6.1,6.1-6.1h5.3c3.4,0,6.1,2.8,6.1,6.1v20.3
			C385.7,203.1,382.9,205.9,379.6,205.9z"/>
		<path class="st121" d="M379.6,211.2h-5.3c-3.4,0-6.1-2.8-6.1-6.1v-20.3c0-3.4,2.8-6.1,6.1-6.1h5.3c3.4,0,6.1,2.8,6.1,6.1V205
			C385.7,208.4,382.9,211.2,379.6,211.2z"/>
		<path class="st120" d="M379.6,212.9h-5.3c-3.4,0-6.1-2.8-6.1-6.1v-20.3c0-3.4,2.8-6.1,6.1-6.1h5.3c3.4,0,6.1,2.8,6.1,6.1v20.3
			C385.7,210.2,382.9,212.9,379.6,212.9z"/>
		<path class="st121" d="M379.6,218.2h-5.3c-3.4,0-6.1-2.8-6.1-6.1v-20.3c0-3.4,2.8-6.1,6.1-6.1h5.3c3.4,0,6.1,2.8,6.1,6.1v20.3
			C385.7,215.4,382.9,218.2,379.6,218.2z"/>
		<path class="st120" d="M379.6,219.9h-5.3c-3.4,0-6.1-2.8-6.1-6.1v-20.3c0-3.4,2.8-6.1,6.1-6.1h5.3c3.4,0,6.1,2.8,6.1,6.1v20.3
			C385.7,217.2,382.9,219.9,379.6,219.9z"/>
		<path class="st118" d="M373.2,164.6L373.2,164.6c-0.3,0-0.5-0.2-0.5-0.5v-4.3c0-0.3,0.2-0.5,0.5-0.5l0,0c0.3,0,0.5,0.2,0.5,0.5
			v4.3C373.7,164.4,373.5,164.6,373.2,164.6z"/>
		<path class="st118" d="M375.1,164.6L375.1,164.6c-0.3,0-0.5-0.2-0.5-0.5v-4.3c0-0.3,0.2-0.5,0.5-0.5l0,0c0.3,0,0.5,0.2,0.5,0.5
			v4.3C375.5,164.4,375.3,164.6,375.1,164.6z"/>
		<path class="st118" d="M376.9,164.6L376.9,164.6c-0.3,0-0.5-0.2-0.5-0.5v-4.3c0-0.3,0.2-0.5,0.5-0.5l0,0c0.3,0,0.5,0.2,0.5,0.5
			v4.3C377.4,164.4,377.2,164.6,376.9,164.6z"/>
		<path class="st118" d="M378.8,164.6L378.8,164.6c-0.3,0-0.5-0.2-0.5-0.5v-4.3c0-0.3,0.2-0.5,0.5-0.5h0c0.3,0,0.5,0.2,0.5,0.5v4.3
			C379.2,164.4,379,164.6,378.8,164.6z"/>
		<path class="st118" d="M380.6,164.6L380.6,164.6c-0.3,0-0.5-0.2-0.5-0.5v-4.3c0-0.3,0.2-0.5,0.5-0.5l0,0c0.3,0,0.5,0.2,0.5,0.5
			v4.3C381.1,164.4,380.9,164.6,380.6,164.6z"/>
	</g>
	<rect x="336.5" y="212" class="st123" width="11.4" height="14.1"/>
	<rect x="340.9" y="181.3" class="st120" width="46.6" height="109"/>
	<rect x="350.5" y="192.7" class="st124" width="27.2" height="97.5"/>
	<rect x="336.5" y="226.1" class="st125" width="11.4" height="65"/>
	<rect x="350.5" y="192.7" class="st121" width="27.2" height="2.6"/>
	<rect x="350.5" y="192.7" class="st126" width="27.2" height="0.9"/>
	<rect x="340" y="180.4" class="st126" width="47.5" height="1.8"/>
	<rect x="340.9" y="230.5" class="st121" width="46.6" height="20.2"/>
	<path class="st121" d="M349.4,290.2v-22.6c0-8.3,6.8-15.2,15.2-15.2h0c8.3,0,15.2,6.8,15.2,15.2v22.6"/>
	<rect x="340" y="246.3" class="st124" width="10.5" height="24.6"/>
	<rect x="350.5" y="246.3" class="st127" width="1.8" height="24.6"/>
	<rect x="376" y="246.3" class="st127" width="1.8" height="24.6"/>
	<path class="st126" d="M351.4,290.2v-22c0-7.2,5.9-13.2,13.2-13.2h0c7.3,0,13.2,5.9,13.2,13.2v22"/>
	<path class="st107" d="M353.2,230.5v-18.9c0-6.2,5.1-11.3,11.4-11.3h0c6.3,0,11.4,5.1,11.4,11.3v18.9"/>
	<path class="st108" d="M354.9,228.4v-16.1c0-5.3,4.4-9.7,9.7-9.7h0c5.3,0,9.7,4.3,9.7,9.7v16.1"/>
	<path class="st117" d="M260,245.4v-9c0-3,3-5.4,6.6-5.4l0,0c3.6,0,6.6,2.4,6.6,5.4v9"/>
	<path class="st127" d="M261,244.4v-7.7c0-2.5,2.5-4.6,5.6-4.6l0,0c3.1,0,5.6,2.1,5.6,4.6v7.7"/>
	<path class="st117" d="M273.2,245.4v-9c0-3,3-5.4,6.6-5.4h0c3.6,0,6.6,2.4,6.6,5.4v9"/>
	<path class="st107" d="M274.2,244.4v-7.7c0-2.5,2.5-4.6,5.6-4.6l0,0c3.1,0,5.6,2.1,5.6,4.6v7.7"/>
	<path class="st108" d="M275.1,243.7V237c0-2.2,2.1-4,4.8-4l0,0c2.6,0,4.8,1.8,4.8,4v6.7"/>
	<path class="st117" d="M286.4,245.4v-9c0-3,3-5.4,6.6-5.4h0c3.6,0,6.6,2.4,6.6,5.4v9"/>
	<path class="st108" d="M287.4,244.4v-7.7c0-2.5,2.5-4.6,5.6-4.6h0c3.1,0,5.6,2.1,5.6,4.6v7.7"/>
	<path class="st117" d="M299.6,245.4v-9c0-3,3-5.4,6.6-5.4h0c3.6,0,6.6,2.4,6.6,5.4v9"/>
	<path class="st108" d="M300.6,244.4v-7.7c0-2.5,2.5-4.6,5.6-4.6h0c3.1,0,5.6,2.1,5.6,4.6v7.7"/>
	<path class="st117" d="M312.8,245.4v-9c0-3,3-5.4,6.6-5.4l0,0c3.6,0,6.6,2.4,6.6,5.4v9"/>
	<path class="st127" d="M313.8,244.4v-7.7c0-2.5,2.5-4.6,5.6-4.6l0,0c3.1,0,5.6,2.1,5.6,4.6v7.7"/>
	<rect x="350.5" y="286.7" class="st117" width="27.2" height="1.8"/>
	<rect x="350.5" y="288.5" class="st122" width="27.2" height="1.8"/>
	<rect x="350.5" y="290.2" class="st128" width="27.2" height="1.8"/>
	<rect x="338.2" y="269.2" class="st118" width="14.1" height="22.8"/>
	<rect x="339.1" y="230.5" class="st129" width="14.1" height="14.9"/>
	<rect x="375.2" y="230.5" class="st129" width="14.1" height="14.9"/>
	<rect x="341.8" y="253.3" class="st130" width="7.9" height="7.9"/>
	<rect x="339.1" y="245.4" class="st118" width="14.1" height="1.8"/>
	<rect x="339.1" y="230.5" class="st128" width="14.1" height="1.8"/>
	<rect x="375.2" y="230.5" class="st128" width="14.1" height="1.8"/>
	<rect x="352.3" y="286.7" class="st131" width="0.9" height="5.3"/>
	<rect x="338.2" y="269.2" class="st128" width="1.8" height="22.8"/>
	<rect x="377.8" y="246.3" class="st124" width="10.5" height="24.6"/>
	<rect x="376" y="269.2" class="st118" width="14.1" height="22.8"/>
	<rect x="376" y="269.2" class="st128" width="1.8" height="22.8"/>
	<rect x="375.2" y="245.4" class="st118" width="14.1" height="1.8"/>
	<rect x="378.7" y="253.3" class="st130" width="7.9" height="7.9"/>
	<rect x="362" y="249.5" class="st118" width="4.4" height="8.8"/>
	<rect x="362" y="229.6" class="st132" width="4.4" height="19.9"/>
	<rect x="354.1" y="210.3" class="st107" width="21.1" height="1.8"/>
	<rect x="363.7" y="201.5" class="st107" width="1.8" height="28.1"/>
	<rect x="354.1" y="216.4" class="st107" width="20.2" height="1.8"/>
	<rect x="354.1" y="221.7" class="st107" width="20.2" height="7.9"/>
	<rect x="369" y="203.2" class="st107" width="1.8" height="25.5"/>
	<rect x="358.5" y="203.2" class="st107" width="1.8" height="25.5"/>
	<g>
		<path class="st118" d="M339.1,230.5c0,0,0.7-2.6,2.7-2.6s8.6-2.6,8.6-4.4c0-1.8,2.9-3.5,4.8-0.9s-1.9,3.5-1.9,3.5v4.4H339.1z"/>
		<path class="st129" d="M340.9,230.5c0,0,0.7-2.3,2.4-2.3s7.6-2.3,7.6-3.8s2.5-3,4.2-0.8s-2,3-2,3v3.8H340.9z"/>
		<circle class="st118" cx="352.7" cy="223.9" r="3.1"/>
		<circle class="st133" cx="352.7" cy="223.9" r="2.2"/>
		<circle class="st128" cx="352.7" cy="223.9" r="1.3"/>
	</g>
	<g>
		<path class="st118" d="M389.2,230.5c0,0-0.7-2.6-2.7-2.6s-8.6-2.6-8.6-4.4c0-1.8-2.9-3.5-4.8-0.9s1.9,3.5,1.9,3.5v4.4H389.2z"/>
		<path class="st129" d="M387.5,230.5c0,0-0.7-2.3-2.4-2.3s-7.6-2.3-7.6-3.8s-2.5-3-4.2-0.8c-1.7,2.3,2,3,2,3v3.8H387.5z"/>
		<circle class="st118" cx="375.6" cy="223.9" r="3.1"/>
		<circle class="st133" cx="375.6" cy="223.9" r="2.2"/>
		<circle class="st128" cx="375.6" cy="223.9" r="1.3"/>
	</g>
	<rect x="366.4" y="230.5" class="st119" width="1.8" height="20.2"/>
	<g>
		<path class="st118" d="M340.2,245.4c0,0,2.1-2.1,1.1-3.2c-1.1-1.1-1.1,0-1.1,0s-2.1-2.1,0-2.1c2.1,0,2.1,3.2,2.1,3.2
			s0,2.1-1.1,2.1C340.2,245.4,340.2,245.4,340.2,245.4z"/>
		<path class="st118" d="M340.2,234.9c0,0,2.1,2.1,1.1,3.2c-1.1,1.1-1.1,0-1.1,0s-2.1,2.1,0,2.1c2.1,0,2.1-3.2,2.1-3.2
			s0-2.1-1.1-2.1C340.2,234.9,340.2,234.9,340.2,234.9z"/>
		<path class="st118" d="M344.3,233.4c0,0-2.1,2.1-3.2,1c-1.1-1.1,0-1.1,0-1.1s-2.1-2.1-2.1,0s3.2,2.1,3.2,2.1s2.1,0,2.1-1
			C344.3,233.4,344.3,233.4,344.3,233.4z"/>
		<path class="st118" d="M352.2,233.4c0,0-2.1,2.1-3.2,1c-1.1-1.1,0-1.1,0-1.1s-2.1-2.1-2.1,0s3.2,2.1,3.2,2.1s2.1,0,2.1-1
			C352.2,233.4,352.2,233.4,352.2,233.4z"/>
		<circle class="st118" cx="340" cy="243.7" r="0.9"/>
		<circle class="st118" cx="340" cy="236.6" r="0.9"/>
		<circle class="st118" cx="344.4" cy="236.6" r="0.9"/>
		<circle class="st118" cx="352.3" cy="236.6" r="0.9"/>
		<circle class="st118" cx="352.3" cy="240.2" r="0.9"/>
		<circle class="st118" cx="346.2" cy="234" r="0.9"/>
		<path class="st118" d="M341.8,241c0,0,2.6,0.9,1.8-0.9c-0.9-1.8-1.8-1.8-1.8-1.8h0.9c0,0,1.8,0.9,1.8,1.8c0,0.9-0.9,1.8-0.9,1.8
			L341.8,241z"/>
		<path class="st118" d="M345.3,237.5v0.9c0,0,1.8,2.6,1.8,1.8c0-0.9,0.9-0.9,0.9,0c0,0.9-1.8,1.8-1.8,1.8l-1.8-0.9
			c0,0-1.8,1.8-0.9,1.8c0.9,0,3.5,0,3.5,0l0.9,0.9l-0.9,1.8c0,0,0,0,0.9,0s0.9-1.8,0.9-1.8h1.8v1.8c0,0,2.6,0.9,2.6,0
			s0.9-1.8-0.9-2.6c-1.8-0.9,0-0.9,0-1.8s-1.8-0.9-1.8-1.8c0-0.9-0.9-2.6-0.9-2.6H347L345.3,237.5z"/>
		<path class="st118" d="M344.3,245.4h-0.6c-0.5,0-1-0.4-1-1v-0.6c0-0.5,0.5-1,1-1h0.6c0.5,0,1,0.5,1,1v0.6
			C345.3,245,344.8,245.4,344.3,245.4z"/>
		<path class="st118" d="M348.8,235.8c0-0.9,2.6-2.6,2.6-1.8s0,1.8,0,2.6c0,0.9-0.9,0-0.9,0l-0.9-0.9H348.8z"/>
	</g>
	<g>
		<path class="st118" d="M376.2,245.4c0,0,2.1-2.1,1.1-3.2c-1.1-1.1-1.1,0-1.1,0s-2.1-2.1,0-2.1c2.1,0,2.1,3.2,2.1,3.2
			s0,2.1-1.1,2.1C376.2,245.4,376.2,245.4,376.2,245.4z"/>
		<path class="st118" d="M376.2,234.9c0,0,2.1,2.1,1.1,3.2c-1.1,1.1-1.1,0-1.1,0s-2.1,2.1,0,2.1c2.1,0,2.1-3.2,2.1-3.2
			s0-2.1-1.1-2.1C376.2,234.9,376.2,234.9,376.2,234.9z"/>
		<path class="st118" d="M380.3,233.4c0,0-2.1,2.1-3.2,1c-1.1-1.1,0-1.1,0-1.1s-2.1-2.1-2.1,0s3.2,2.1,3.2,2.1s2.1,0,2.1-1
			C380.3,233.4,380.3,233.4,380.3,233.4z"/>
		<path class="st118" d="M388.2,233.4c0,0-2.1,2.1-3.2,1c-1.1-1.1,0-1.1,0-1.1s-2.1-2.1-2.1,0s3.2,2.1,3.2,2.1s2.1,0,2.1-1
			C388.2,233.4,388.2,233.4,388.2,233.4z"/>
		<circle class="st118" cx="376" cy="243.7" r="0.9"/>
		<circle class="st118" cx="376" cy="236.6" r="0.9"/>
		<circle class="st118" cx="380.4" cy="236.6" r="0.9"/>
		<circle class="st118" cx="388.3" cy="236.6" r="0.9"/>
		<circle class="st118" cx="388.3" cy="240.2" r="0.9"/>
		<circle class="st118" cx="382.2" cy="234" r="0.9"/>
		<path class="st118" d="M377.8,241c0,0,2.6,0.9,1.8-0.9c-0.9-1.8-1.8-1.8-1.8-1.8h0.9c0,0,1.8,0.9,1.8,1.8c0,0.9-0.9,1.8-0.9,1.8
			L377.8,241z"/>
		<path class="st118" d="M381.3,237.5v0.9c0,0,1.8,2.6,1.8,1.8c0-0.9,0.9-0.9,0.9,0c0,0.9-1.8,1.8-1.8,1.8l-1.8-0.9
			c0,0-1.8,1.8-0.9,1.8c0.9,0,3.5,0,3.5,0l0.9,0.9l-0.9,1.8c0,0,0,0,0.9,0s0.9-1.8,0.9-1.8h1.8v1.8c0,0,2.6,0.9,2.6,0
			s0.9-1.8-0.9-2.6c-1.8-0.9,0-0.9,0-1.8s-1.8-0.9-1.8-1.8c0-0.9-0.9-2.6-0.9-2.6h-2.6L381.3,237.5z"/>
		<path class="st118" d="M380.3,245.4h-0.6c-0.5,0-1-0.4-1-1v-0.6c0-0.5,0.5-1,1-1h0.6c0.5,0,1,0.5,1,1v0.6
			C381.3,245,380.9,245.4,380.3,245.4z"/>
		<path class="st118" d="M384.8,235.8c0-0.9,2.6-2.6,2.6-1.8s0,1.8,0,2.6c0,0.9-0.9,0-0.9,0l-0.9-0.9H384.8z"/>
	</g>
	<rect x="375.2" y="244.5" class="st128" width="14.1" height="0.9"/>
	<rect x="339.1" y="244.5" class="st128" width="14.1" height="0.9"/>
	<path class="st118" d="M357.6,154L357.6,154c-0.5,0-0.9-0.4-0.9-0.9v-3.5c0-0.5,0.4-0.9,0.9-0.9l0,0c0.5,0,0.9,0.4,0.9,0.9v3.5
		C358.5,153.6,358.1,154,357.6,154z"/>
	<path class="st118" d="M361.1,154L361.1,154c-0.5,0-0.9-0.4-0.9-0.9v-3.5c0-0.5,0.4-0.9,0.9-0.9l0,0c0.5,0,0.9,0.4,0.9,0.9v3.5
		C362,153.6,361.6,154,361.1,154z"/>
	<path class="st118" d="M364.6,154L364.6,154c-0.5,0-0.9-0.4-0.9-0.9v-3.5c0-0.5,0.4-0.9,0.9-0.9l0,0c0.5,0,0.9,0.4,0.9,0.9v3.5
		C365.5,153.6,365.1,154,364.6,154z"/>
	<path class="st118" d="M368.1,154L368.1,154c-0.5,0-0.9-0.4-0.9-0.9v-3.5c0-0.5,0.4-0.9,0.9-0.9l0,0c0.5,0,0.9,0.4,0.9,0.9v3.5
		C369,153.6,368.6,154,368.1,154z"/>
	<path class="st118" d="M371.6,154L371.6,154c-0.5,0-0.9-0.4-0.9-0.9v-3.5c0-0.5,0.4-0.9,0.9-0.9l0,0c0.5,0,0.9,0.4,0.9,0.9v3.5
		C372.5,153.6,372.1,154,371.6,154z"/>
	<path class="st118" d="M259.2,291.1v-30.8c0-1.5,1.2-2.6,2.6-2.6h14.9c1.5,0,2.6,1.2,2.6,2.6v30.8"/>
	<path class="st126" d="M260.9,291.1v-29c0-1.5,1.2-2.6,2.6-2.6H275c1.5,0,2.6,1.2,2.6,2.6v29"/>
	<rect x="279.4" y="232.2" class="st107" width="0.9" height="12.3"/>
	<path class="st107" d="M287.4,244.4v-7.7c0-2.5,2.5-4.6,5.6-4.6h0c3.1,0,5.6,2.1,5.6,4.6v7.7"/>
	<path class="st108" d="M288.3,243.7V237c0-2.2,2.1-4,4.8-4h0c2.6,0,4.8,1.8,4.8,4v6.7"/>
	<rect x="292.5" y="232.2" class="st107" width="0.9" height="12.3"/>
	<path class="st107" d="M300.6,244.4v-7.7c0-2.5,2.5-4.6,5.6-4.6h0c3.1,0,5.6,2.1,5.6,4.6v7.7"/>
	<path class="st108" d="M301.5,243.7V237c0-2.2,2.1-4,4.8-4h0c2.6,0,4.8,1.8,4.8,4v6.7"/>
	<rect x="305.7" y="232.2" class="st107" width="0.9" height="12.3"/>
</g>
<g>
	<path class="st134" d="M379.4,288.3v1.4h61.9c1.4,0,1.7-0.6,1.8-0.9l0-0.3l0-0.3l-0.2-2.3c0,0,0.7-0.7,0.6-1
		c-0.1-0.9-0.1-1.1-0.1-1.5c0-0.4-0.2-0.5-0.4-0.6c-0.2-0.1-0.3-0.1-0.4-0.4l0-0.6c-0.1-0.2-0.3-0.3-0.6-0.4
		c-0.2-2.1-0.4-5.6-0.4-5.6s-0.1-0.5,0.5-0.6l0,0h0.3l1,0.1c0.8,0.1,0.3-0.6-0.3-1.3c-0.5-0.6-1.1-1.3-1.4-1.6c0,0,0,0,0-0.1
		c-0.1-0.6-1.2-5.9-1.8-8.6c-0.5-2.9-0.2-4.4-2.9-4.4c-2.6,0-48.4-0.1-48.4-0.1s-5.2-0.2-6.1,4.4c-0.9,4.6-1.8,8.5-1.8,8.5v2.4
		c0,3.1-0.2,9.8-1.1,13.6C379.5,288.1,379.5,288.2,379.4,288.3z"/>
	<path class="st135" d="M421.1,279c0,0.8,0.7,1.5,1.5,1.5h5.7c0.8,0,1.5-0.7,1.5-1.5v-0.8c0-0.8-0.7-1.5-1.5-1.5h-5.7
		c-0.8,0-1.5,0.7-1.5,1.5V279z"/>
	<path class="st135" d="M410.6,279c0,0.8,0.7,1.5,1.5,1.5h5.7c0.8,0,1.5-0.7,1.5-1.5v-0.8c0-0.8-0.7-1.5-1.5-1.5h-5.7
		c-0.8,0-1.5,0.7-1.5,1.5V279z"/>
	<path class="st135" d="M400,279c0,0.8,0.7,1.5,1.5,1.5h5.7c0.8,0,1.5-0.7,1.5-1.5v-0.8c0-0.8-0.7-1.5-1.5-1.5h-5.7
		c-0.8,0-1.5,0.7-1.5,1.5V279z"/>
	<g>
		<path class="st135" d="M428.9,263.2c0,0.8,0.7,1.5,1.5,1.5h5.7c0.8,0,1.5-0.7,1.5-1.5v-0.8c0-0.8-0.7-1.5-1.5-1.5h-5.7
			c-0.8,0-1.5,0.7-1.5,1.5V263.2z"/>
		<path class="st135" d="M418.4,263.2c0,0.8,0.7,1.5,1.5,1.5h5.7c0.8,0,1.5-0.7,1.5-1.5v-0.8c0-0.8-0.7-1.5-1.5-1.5h-5.7
			c-0.8,0-1.5,0.7-1.5,1.5V263.2z"/>
		<path class="st135" d="M407.9,263.2c0,0.8,0.7,1.5,1.5,1.5h5.7c0.8,0,1.5-0.7,1.5-1.5v-0.8c0-0.8-0.7-1.5-1.5-1.5h-5.7
			c-0.8,0-1.5,0.7-1.5,1.5V263.2z"/>
		<path class="st135" d="M397.4,263.2c0,0.8,0.7,1.5,1.5,1.5h5.7c0.8,0,1.5-0.7,1.5-1.5v-0.8c0-0.8-0.7-1.5-1.5-1.5h-5.7
			c-0.8,0-1.5,0.7-1.5,1.5V263.2z"/>
		<path class="st135" d="M387,263.2c0,0.8,0.7,1.5,1.5,1.5h5.7c0.8,0,1.5-0.7,1.5-1.5v-0.8c0-0.8-0.7-1.5-1.5-1.5h-5.7
			c-0.8,0-1.5,0.7-1.5,1.5V263.2z"/>
	</g>
	<path class="st135" d="M432.4,279c0,0.7,0.6,1.3,1.2,1.3l4.8,0.3c0.7,0,1.2-0.5,1.2-1.2v-1.9c0-0.7-0.6-1.2-1.2-1.2h-4.8
		c-0.7,0-1.2,0.6-1.2,1.2V279z"/>
	<path class="st135" d="M385,288c0,0.8,0.7,1.5,1.5,1.5h1.3c0.8,0,1.5-0.7,1.5-1.5v-8.9c0-0.8-0.7-1.5-1.5-1.5h-1.3
		c-0.8,0-1.5,0.7-1.5,1.5V288z"/>
	<path class="st135" d="M380.6,272.1v1.6h62.4c-0.5-0.6-1.1-1.3-1.4-1.6c0,0,0,0,0-0.1H380.6z"/>
	<rect x="379.4" y="288" class="st136" width="63.8" height="1.6"/>
	<g>
		<circle class="st137" cx="436.2" cy="288.4" r="4.4"/>
		<circle class="st135" cx="436.2" cy="288.4" r="2.5"/>
	</g>
	<g>
		<circle class="st137" cx="396.2" cy="288.4" r="4.4"/>
		<circle class="st135" cx="396.2" cy="288.4" r="2.5"/>
	</g>
</g>
<g>
	<rect x="441" y="118" class="st138" width="63" height="47"/>
	<rect x="500" y="165" class="st139" width="3" height="50"/>
	<rect x="500" y="113" class="st139" width="3" height="5"/>
</g>
<g>
	<rect x="258" y="118" class="st140" width="63" height="47"/>
	<rect x="316" y="118" class="st141" width="2" height="47"/>
	<rect x="317" y="165" class="st139" width="3" height="47"/>
	<rect x="317" y="113" class="st139" width="3" height="5"/>
	<g>
		<path class="st142" d="M289.2,157.3c0,0-9.6-5.3-10.1-14.3c-0.4-6.3,0-7.1,0-7.1s3.7-2.7,10.1-2.7s12,2.7,12,2.7s-0.2,3.2-0.9,7.1
			C298.4,152.9,288.2,158.8,289.2,157.3z"/>
		<path class="st140" d="M289.6,155.6c0,0-8.4-4.5-8.4-12.2c0-5.8,0-6.1,0-6.1s3-2.3,8.4-2.3s9.9,2.3,9.9,2.3s-0.2,2.7-0.8,6.1
			C297.2,151.8,288.7,156.9,289.6,155.6z"/>
		<path class="st142" d="M285.2,135.2c0,0,0,5.3,0.5,8.7s3,7.4,3,7.4s-0.8-5.1-1.2-7.7c-0.4-2.7-0.5-8.7-0.5-8.7L285.2,135.2z"/>
		<path class="st142" d="M280.4,139.3c0,0,6.1-0.9,8.7-0.9c2.6,0,10.4,1.7,10.4,1.7v1.7c0,0-7.8-1.7-10.4-1.7
			c-2.6,0-8.7,1.7-8.7,1.7"/>
	</g>
	<path class="st142" d="M284.7,133.3l4.3,2.6l6.1-2.6c0,0-0.9,1.7-1.7-0.9c-0.9-2.6,0-4.3,0-4.3h-6.9c0,0,0.9,0,0.9,1.7
		S284.7,133.3,284.7,133.3z"/>
	<path class="st140" d="M293.4,133.5c0,0-2.6-0.5-3.5,0c-0.9,0.5-0.9,0.5-0.9,0.5v1c0,0,0.9-1,1.7-1S293.4,133.5,293.4,133.5z"/>
	<polygon class="st140" points="287,124 289,126 294,124 290,123 	"/>
	<polygon class="st142" points="289.1,127.2 288.2,128.1 289.1,128.9 	"/>
	<polygon class="st142" points="289.9,127.2 289.9,128.9 290.8,128.1 290.8,127.2 	"/>
	<polygon class="st142" points="291.7,127.2 291.7,128.9 292.5,128.1 292.5,127.2 	"/>
	<polygon class="st142" points="287.3,127.2 289.1,126.3 293.4,127.2 293.4,126.3 289.1,125.5 286.5,127.2 	"/>
	<polygon class="st140" points="289.1,135 285.6,133.3 286.5,132.4 289.1,134.1 	"/>
	<path class="st142" d="M276.1,136.7c0,0-3.5,3.5-1.7,4.3s2.6-0.9,2.6-0.9s0.9,0.9,0,1.7c-0.9,0.9-2.6,0.9-2.6,0.9s3.5-0.9,3.5,0.9
		c0,1.7-4.3,5.2-2.6,6.1c1.7,0.9,1.7,0,1.7,0s-1.7,1.7-2.6,0c-0.9-1.7,0-3.5,0-4.3c0-0.9-1.7-2.6-1.7-2.6s0.9,0.9,0,1.7
		c-0.6,0.6-2.6,0.9-2.6,0.9s1.7-1.7,0.9-4.3s6.1-5.2,6.1-5.2L276.1,136.7z"/>
	<path class="st142" d="M273.5,147.1c0,0,0,0.9-0.9,0.9s0,1.7,0,1.7v-0.9c0,0,0.9,0,0.9-0.9S273.5,147.1,273.5,147.1z"/>
	<path class="st142" d="M302.9,136.7c0,0,3.5,3.5,1.7,4.3s-2.6-0.9-2.6-0.9s-0.9,0.9,0,1.7c0.9,0.9,2.6,0.9,2.6,0.9
		s-3.5-0.9-3.5,0.9c0,1.7,4.3,5.2,2.6,6.1c-1.7,0.9-1.7,0-1.7,0s1.7,1.7,2.6,0c0.9-1.7,0-3.5,0-4.3c0-0.9,1.7-2.6,1.7-2.6
		s-0.9,0.9,0,1.7c0.6,0.6,2.6,0.9,2.6,0.9s-1.7-1.7-0.9-4.3s-6.1-5.2-6.1-5.2L302.9,136.7z"/>
	<path class="st142" d="M305.5,147.1c0,0,0,0.9,0.9,0.9s0,1.7,0,1.7v-0.9c0,0-0.9,0-0.9-0.9S305.5,147.1,305.5,147.1z"/>
</g>
<rect x="500" y="118" class="st143" width="2" height="47"/>
<g>
	<path class="st139" d="M461,139.8v-10h6.5c0,0,2.4,0,3,1.2c0.6,1.2,0.6,1.8,0.6,1.8v10l-1.8-1.2H461V139.8z"/>
	<polygon class="st139" points="464.3,128 468.4,128 469.7,124.7 467.7,126.7 466.4,124 465,126.7 463,124.7 	"/>
	<path class="st139" d="M482.4,139.8v-10h-6.5c0,0-2.4,0-3,1.2c-0.6,1.2-0.6,1.8-0.6,1.8v10l1.8-1.2h8.3V139.8z"/>
	<polygon class="st139" points="479.8,128 475.7,128 474.4,124.7 476.4,126.7 477.7,124 479.1,126.7 481.1,124.7 	"/>
	<polyline class="st144" points="459.4,131 459.4,143.4 468.8,143.4 471.9,145 474.2,143.4 483.6,143.4 483.6,131 	"/>
	<g>
		<path class="st139" d="M453.8,149.6c0.9,0,1.6,0.3,2.3,1s1,1.5,1,2.5c0,1-0.3,1.9-1,2.6c-0.7,0.7-1.4,1-2.4,1
			c-0.9,0-1.7-0.3-2.4-1s-1-1.5-1-2.6c0-1.1,0.4-2,1.1-2.6C452.1,149.9,452.9,149.6,453.8,149.6z M453.7,149.9
			c-0.6,0-1.1,0.2-1.5,0.7c-0.5,0.6-0.7,1.4-0.7,2.5c0,1.1,0.2,2,0.7,2.6c0.4,0.5,0.8,0.7,1.4,0.7c0.6,0,1.2-0.2,1.6-0.7
			c0.4-0.5,0.6-1.3,0.6-2.4c0-1.2-0.2-2-0.7-2.6C454.8,150.2,454.3,149.9,453.7,149.9z"/>
		<path class="st139" d="M461.6,152.8l1.5,2.2c0.4,0.6,0.7,1,0.9,1.1c0.2,0.2,0.4,0.2,0.7,0.3v0.2h-2.9v-0.2c0.2,0,0.3,0,0.4-0.1
			c0.1,0,0.1-0.1,0.2-0.1c0-0.1,0.1-0.1,0.1-0.2c0-0.1,0-0.2,0-0.2c0-0.1-0.1-0.2-0.3-0.4l-1.2-1.7l-1.4,1.8
			c-0.2,0.2-0.2,0.3-0.3,0.4c0,0.1,0,0.1,0,0.2c0,0.1,0,0.2,0.1,0.3c0.1,0.1,0.3,0.1,0.5,0.1v0.2h-2.4v-0.2c0.2,0,0.3-0.1,0.4-0.1
			c0.2-0.1,0.4-0.2,0.6-0.4c0.2-0.1,0.4-0.4,0.6-0.7l1.6-2l-1.3-2c-0.4-0.5-0.7-0.9-0.9-1s-0.5-0.3-0.9-0.3v-0.2h3.1v0.2
			c-0.3,0-0.5,0.1-0.5,0.1s-0.1,0.2-0.1,0.3c0,0.1,0.1,0.3,0.2,0.5l1,1.6l1.2-1.5c0.1-0.2,0.2-0.3,0.3-0.4c0-0.1,0-0.1,0-0.2
			c0-0.1,0-0.1-0.1-0.2c0-0.1-0.1-0.1-0.2-0.1c-0.1,0-0.2,0-0.5,0v-0.2h2.4v0.2c-0.2,0-0.3,0-0.5,0.1c-0.2,0.1-0.3,0.2-0.5,0.3
			c-0.2,0.1-0.4,0.4-0.6,0.7L461.6,152.8z"/>
		<path class="st139" d="M466.9,150.1v2.7h1.2c0.3,0,0.5-0.1,0.6-0.2c0.1-0.1,0.2-0.4,0.3-0.7h0.2v2.3h-0.2c0-0.3,0-0.5-0.1-0.6
			c-0.1-0.1-0.2-0.2-0.3-0.3c-0.1-0.1-0.3-0.1-0.5-0.1h-1.2v2.1c0,0.3,0,0.6,0.1,0.7c0,0.1,0.1,0.2,0.2,0.2c0.1,0.1,0.3,0.1,0.5,0.1
			h0.2v0.2H465v-0.2h0.2c0.3,0,0.5-0.1,0.6-0.2c0.1-0.1,0.1-0.4,0.1-0.8v-4.4c0-0.3,0-0.6-0.1-0.7c0-0.1-0.1-0.2-0.2-0.2
			c-0.1-0.1-0.3-0.1-0.5-0.1H465v-0.2h5.1l0.1,1.5h-0.2c-0.1-0.3-0.2-0.6-0.3-0.7s-0.3-0.3-0.4-0.3c-0.2-0.1-0.4-0.1-0.8-0.1H466.9z
			"/>
		<path class="st139" d="M474.3,149.6c0.9,0,1.6,0.3,2.3,1s1,1.5,1,2.5c0,1-0.3,1.9-1,2.6c-0.7,0.7-1.4,1-2.4,1
			c-0.9,0-1.7-0.3-2.4-1s-1-1.5-1-2.6c0-1.1,0.4-2,1.1-2.6C472.6,149.9,473.4,149.6,474.3,149.6z M474.2,149.9
			c-0.6,0-1.1,0.2-1.5,0.7c-0.5,0.6-0.7,1.4-0.7,2.5c0,1.1,0.2,2,0.7,2.6c0.4,0.5,0.8,0.7,1.4,0.7c0.6,0,1.2-0.2,1.6-0.7
			c0.4-0.5,0.6-1.3,0.6-2.4c0-1.2-0.2-2-0.7-2.6C475.4,150.2,474.8,149.9,474.2,149.9z"/>
		<path class="st139" d="M484.9,156.5h-1.8l-2.3-3.2c-0.2,0-0.3,0-0.4,0c0,0-0.1,0-0.1,0c0,0-0.1,0-0.2,0v2c0,0.4,0,0.7,0.1,0.8
			c0.1,0.1,0.3,0.2,0.6,0.2h0.3v0.2h-2.9v-0.2h0.3c0.3,0,0.5-0.1,0.6-0.3c0.1-0.1,0.1-0.3,0.1-0.7v-4.4c0-0.4,0-0.7-0.1-0.8
			c-0.1-0.1-0.3-0.2-0.6-0.2h-0.3v-0.2h2.5c0.7,0,1.3,0.1,1.6,0.2c0.3,0.1,0.6,0.3,0.9,0.6c0.2,0.3,0.4,0.6,0.4,1
			c0,0.4-0.1,0.8-0.4,1.1s-0.7,0.5-1.3,0.7l1.4,2c0.3,0.4,0.6,0.7,0.8,0.9c0.2,0.1,0.5,0.2,0.9,0.3V156.5z M480.1,153
			c0.1,0,0.1,0,0.2,0s0.1,0,0.1,0c0.6,0,1.1-0.1,1.5-0.4c0.3-0.3,0.5-0.6,0.5-1.1c0-0.4-0.1-0.8-0.4-1s-0.6-0.4-1.1-0.4
			c-0.2,0-0.5,0-0.8,0.1V153z"/>
		<path class="st139" d="M485,156.5v-0.2h0.3c0.3,0,0.5-0.1,0.6-0.3c0.1-0.1,0.1-0.4,0.1-0.7v-4.4c0-0.4,0-0.7-0.1-0.8
			c-0.1-0.1-0.3-0.2-0.6-0.2H485v-0.2h2.8c1,0,1.8,0.1,2.3,0.3s1,0.6,1.3,1.2c0.3,0.5,0.5,1.2,0.5,1.9c0,0.9-0.3,1.7-0.9,2.4
			c-0.6,0.7-1.6,1.1-2.9,1.1H485z M486.9,156c0.4,0.1,0.8,0.1,1.1,0.1c0.8,0,1.4-0.3,1.9-0.8c0.5-0.5,0.8-1.3,0.8-2.2
			c0-0.9-0.3-1.7-0.8-2.2c-0.5-0.5-1.2-0.8-2-0.8c-0.3,0-0.6,0-1,0.1V156z"/>
	</g>
</g>
</svg>
