<?xml version="1.0" encoding="utf-8"?>
<!-- Generator: Adobe Illustrator 21.0.2, SVG Export Plug-In . SVG Version: 6.00 Build 0)  -->
<svg version="1.1" id="Layer_1" xmlns="http://www.w3.org/2000/svg" xmlns:xlink="http://www.w3.org/1999/xlink" x="0px" y="0px"
	 width="132px" height="132px" viewBox="0 0 132 132" style="enable-background:new 0 0 132 132;" xml:space="preserve">
<style type="text/css">
	.st0{fill:#FF9400;}
	.st1{fill:#FFFEFF;}
	.st2{font-family:'Calibri-Bold';}
	.st3{font-size:54.2447px;}
	.st4{fill:#CF142B;}
	.st5{fill:#00247D;}
</style>
<g>
	<g>
		<path class="st0" d="M52.3,127H5c-2.8,0-5-2.3-5-5V71.8c0-2.8,2.3-5,5-5h47.3c2.8,0,5,2.3,5,5V122C57.3,124.8,55.1,127,52.3,127z"
			/>
		<g>
			<text transform="matrix(1 0 0 1 13.4632 113.0613)" class="st1 st2 st3">B</text>
		</g>
	</g>
	<g>
		<path class="st4" d="M127,127H79.6c-2.8,0-5-2.3-5-5V71.8c0-2.8,2.3-5,5-5H127c2.8,0,5,2.3,5,5V122C132,124.8,129.7,127,127,127z"
			/>
		<g>
			<text transform="matrix(1 0 0 1 88.1009 113.0613)" class="st1 st2 st3">C</text>
		</g>
	</g>
	<g>
		<path class="st5" d="M107.4,57.5l-45,14.8c-2.6,0.9-5.5-0.6-6.3-3.2L40.4,21.4c-0.9-2.6,0.6-5.5,3.2-6.3l45-14.8
			c2.6-0.9,5.5,0.6,6.3,3.2l15.7,47.7C111.4,53.8,110,56.6,107.4,57.5z"/>
		<g>
			<text transform="matrix(0.9499 -0.3125 0.3125 0.9499 66.0272 56.3297)" class="st1 st2 st3">A</text>
		</g>
	</g>
</g>
</svg>
