<?xml version="1.0" encoding="utf-8"?>
<!-- Generator: Adobe Illustrator 21.0.2, SVG Export Plug-In . SVG Version: 6.00 Build 0)  -->
<svg version="1.1" id="Layer_1" xmlns="http://www.w3.org/2000/svg" xmlns:xlink="http://www.w3.org/1999/xlink" x="0px" y="0px"
	 width="141.7px" height="247px" viewBox="0 0 141.7 247" style="enable-background:new 0 0 141.7 247;" xml:space="preserve">
<style type="text/css">
	.st0{fill:#588DFF;}
	.st1{fill:#FAA376;}
	.st2{fill:#1C326C;}
	.st3{fill:#4076E0;}
	.st4{fill:#808D9E;}
	.st5{fill:#3E4977;}
	.st6{fill:#F89669;}
	.st7{fill:#FF4A43;}
	.st8{fill:#FF9914;}
	.st9{fill:#FFC21C;}
	.st10{fill:#283138;}
	.st11{fill:#424C55;}
	.st12{fill:#FDF4E5;}
	.st13{fill:#FFB288;}
	.st14{fill:#F98C6D;}
	.st15{fill:#FFD0BE;}
	.st16{fill:#F9A17B;}
	.st17{fill:#432C26;}
	.st18{fill:#FFFFFF;}
	.st19{fill:#FDA17C;}
	.st20{fill:#FDA276;}
	.st21{fill:#A4412E;}
</style>
<g>
	<g>
		<g>
			<path class="st0" d="M52.7,125c0,0,5-2,11,0s9,18,5,20s-17,6-25,5s-5-14-5-14s2-6,6-7S52.7,125,52.7,125z"/>
			<g>
				<g>
					<g>
						<path class="st1" d="M30.7,120l-8.6-16.8l3.4-1.7c0,0,2.2-1.1,1.9-3c-0.2-1.4-1.9-1.6-2.9-1.7c-0.4,0-0.9,0.1-1.3,0.3L21.5,98
							c0,0-1.1,0.5-2.2-0.3c-1.1-0.8,0.3-5,0.3-5l1.1-3.3c0,0,0.6-1.7-1.6-1.9c-2.2-0.3-3,2.2-3,2.2l-1.3,3.8c0,0,0,1-0.6,0.6
							c-0.7-0.5-0.8-3-0.8-3s0.3-3.6-1.9-3.9C10,87,9.3,88,8.9,88.9c-0.3,0.6-0.3,1.2-0.2,1.8l0.5,2.8c0.1,0.5,0,0.7-0.4,0.9
							c0,0-0.9,0.2-1.2-0.4c-0.5-1.1-2.8-3.7-4.5-2.9c0,0,0,0,0,0c-1.2,0.6-1.4,2.3-0.5,3.3c0.9,0.9,3,3.2,2.3,3.5
							c-1.1,0.5-2.7-0.4-2.7-0.4s-1.7-0.6-2.2,1.1c-0.6,1.7,1.9,2.7,1.9,2.7s2.8,1.6,3.6,3.2c0.8,1.7,6.2,17.5,6.2,17.5L30.7,120z"
							/>
					</g>
				</g>
			</g>
			<path class="st2" d="M11.7,122c0,0,6,21,18,24c7.8,2,21,3,21,3l-2-18c0,0-10,0-13-3c-1-1-7-12-7-12L11.7,122z"/>
			<path class="st0" d="M43.7,130c0,0,2.4,5.8,2,8c-1,5-4,11-4,11h10c0,0,1-10,1-11s-2-9-3-9S43.7,130,43.7,130z"/>
		</g>
		<g>
			<path class="st2" d="M121.7,149c0,0,2,18.8,2,26s-3.6,11.8-3.6,11.8h-6l-6-30.1L121.7,149z"/>
			<path class="st0" d="M99.6,127.8l12,28.9c0,0,12-4.8,12-9.6c0-4.8-7.2-16.9-10.8-19.3c-3.6-2.4-9.6-3.6-9.6-3.6L99.6,127.8z"/>
			<polygon class="st3" points="121.3,149.5 115.3,139.9 122.5,149.5 			"/>
			<path class="st1" d="M114.1,186.8v18.1c0,0,2.4,1.2,3.6-3.6s2.4-8.4,2.4-10.8c0-2.4,0-3.6,0-3.6H114.1z"/>
		</g>
		<path class="st4" d="M53.9,190.4v28.8l25.3,1.3l1.2-12.5c0,0,1.2-6.3,3.6-6.3c2.4,0,3.6,6.3,3.6,6.3l1.2,12.5h24.1v-30.1H53.9
			L53.9,190.4z"/>
		<path class="st5" d="M52.7,190.4c0,0,0-42.1,3.6-50.6c3.6-8.4,12-18.1,15.6-18.1s20.5-1.2,24.1,0c3.6,1.2,12,13.2,14.4,19.3
			c2.4,6,3.6,12,3.6,12v37.3c0,0-15.6,6-28.9,6C67.1,196.4,52.7,190.4,52.7,190.4z"/>
		<path class="st1" d="M93,126.6H73.7c-1.7,0-3-1.3-3-3v-14.5c0-1.6,1.3-3,3-3H93c1.7,0,3,1.4,3,3v14.5
			C96,125.3,94.7,126.6,93,126.6z"/>
		<path class="st6" d="M87.5,119.4h-8.3c-4.7,0-8.5-3.8-8.5-8.5v-3.5c0-4.7,3.8-8.5,8.5-8.5h8.3c4.7,0,8.5,3.8,8.5,8.5v3.5
			C96,115.6,92.2,119.4,87.5,119.4z"/>
		<path class="st7" d="M70.7,121.8c0,0,6,3.6,10.8,3.6s-1.2,4.8-4.8,4.8s-12,0-14.4-3.6c-2.4-3.6-3.6-3.6-3.6-3.6L70.7,121.8z"/>
		<path class="st7" d="M96.6,121.8c0,0-6,3.6-10.8,3.6c-4.8,0,1.2,4.8,4.8,4.8c3.6,0,12,0,14.4-3.6c2.4-3.6,3.6-3.6,3.6-3.6
			L96.6,121.8z"/>
		<path class="st2" d="M52.7,186.8c0,0,19.3,4.8,28.9,4.8s32.5-3.6,32.5-3.6v2.4c0,0-16.9,6-32.5,6s-28.9-6-28.9-6V186.8z"/>
		<g>
			<rect x="73.1" y="144.7" class="st8" width="20.5" height="3.6"/>
			<circle class="st9" cx="72.5" cy="146.5" r="3"/>
			<circle class="st9" cx="94.2" cy="146.5" r="3"/>
		</g>
		<g>
			<rect x="73.1" y="154.3" class="st8" width="20.5" height="3.6"/>
			<circle class="st9" cx="72.5" cy="156.1" r="3"/>
			<circle class="st9" cx="94.2" cy="156.1" r="3"/>
		</g>
		<g>
			<rect x="73.1" y="163.9" class="st8" width="20.5" height="3.6"/>
			<circle class="st9" cx="72.5" cy="165.8" r="3"/>
			<circle class="st9" cx="94.2" cy="165.8" r="3"/>
		</g>
		<g>
			<path class="st10" d="M55.1,237.4l-4.8-16.9c0,0,2.4-2.4,14.4-2.4s15.6,2.4,15.6,2.4l-3.6,18.1L55.1,237.4z"/>
			<path class="st11" d="M79,242.2c0.1-0.4,0.1-0.8,0.1-1.2c0-5.3-5.7-9.6-12.6-9.6c-7,0-12.6,4.3-12.6,9.6c0,0.4,0,0.8,0.1,1.2H79z
				"/>
			<polygon class="st12" points="53.9,242.2 55.1,247 77.9,247 79.2,242.2 			"/>
		</g>
		<g>
			<path class="st10" d="M90,237.4l-4.8-16.9c0,0,2.4-2.4,14.4-2.4s15.6,2.4,15.6,2.4l-3.6,18.1L90,237.4z"/>
			<path class="st11" d="M114,242.2c0.1-0.4,0.1-0.8,0.1-1.2c0-5.3-5.7-9.6-12.6-9.6c-7,0-12.6,4.3-12.6,9.6c0,0.4,0,0.8,0.1,1.2
				H114z"/>
			<polygon class="st12" points="88.8,242.2 90.1,247 112.8,247 114.1,242.2 			"/>
		</g>
	</g>
	<g>
		<g>
			<ellipse class="st13" cx="84.6" cy="62.8" rx="47.5" ry="53"/>
			<circle class="st13" cx="35.8" cy="74.9" r="8.4"/>
			<path class="st14" d="M35.8,70.1c-1.6,0-3.1,0.8-3.9,2.1c0.8-0.5,1.7-0.9,2.7-0.9c2.7,0,4.8,2.2,4.8,4.8c0,1-0.3,2-0.9,2.7
				c1.2-0.9,2.1-2.3,2.1-3.9C40.6,72.2,38.5,70.1,35.8,70.1z"/>
			<circle class="st13" cx="133.3" cy="74.9" r="8.4"/>
			<path class="st14" d="M134.2,70.1c1.6,0,3.1,0.8,3.9,2.1c-0.8-0.5-1.7-0.9-2.7-0.9c-2.7,0-4.8,2.2-4.8,4.8c0,1,0.3,2,0.9,2.7
				c-1.2-0.9-2.1-2.3-2.1-3.9C129.4,72.2,131.5,70.1,134.2,70.1z"/>
			<path class="st14" d="M84,82.1c-2.5,0-4.5-0.6-4.8-3c0,0.2-0.1,0.4-0.1,0.6c0,2.7,2.2,4.8,4.8,4.8c2.7,0,4.8-2.2,4.8-4.8
				c0-0.2,0-0.4-0.1-0.6C88.4,81.5,86.4,82.1,84,82.1z"/>
			<g>
				<ellipse class="st15" cx="84" cy="76.7" rx="2.4" ry="1.8"/>
				<circle class="st16" cx="76.1" cy="76.7" r="0.6"/>
				<circle class="st16" cx="71.3" cy="76.7" r="0.6"/>
				<circle class="st16" cx="73.7" cy="79.1" r="0.6"/>
				<circle class="st16" cx="94.2" cy="79.1" r="0.6"/>
				<circle class="st16" cx="91.8" cy="76.7" r="0.6"/>
				<circle class="st16" cx="96.6" cy="79.1" r="0.6"/>
				<ellipse class="st16" cx="61.1" cy="81.5" rx="6" ry="3"/>
				<ellipse class="st16" cx="106.8" cy="81.5" rx="6" ry="3"/>
				<path class="st17" d="M61.7,64c-5,0-9,2.9-9,6.5c0,0.2,0,0.5,0.1,0.7c0.4-2.8,3.2-5,6.9-5.6c-0.6,1.1-1,2.7-1,4.4
					c0,3.3,1.3,6,3,6c1.7,0,3-2.7,3-6c0-1.7-0.4-3.3-1-4.4c3.7,0.6,6.5,2.8,6.9,5.6c0-0.2,0.1-0.5,0.1-0.7C70.7,67,66.7,64,61.7,64z
					"/>
				<path class="st17" d="M106.2,64c-5,0-9,2.9-9,6.5c0,0.2,0,0.5,0.1,0.7c0.4-2.8,3.2-5,6.9-5.6c-0.6,1.1-1,2.7-1,4.4
					c0,3.3,1.3,6,3,6c1.7,0,3-2.7,3-6c0-1.7-0.4-3.3-1-4.4c3.7,0.6,6.5,2.8,6.9,5.6c0-0.2,0.1-0.5,0.1-0.7
					C115.3,67,111.2,64,106.2,64z"/>
				<path class="st18" d="M75.5,89.3c0,0,4.8,1.2,8.4,1.2c3.6,0,8.4-1.2,8.4-1.2s-1.2,8.4-8.4,8.4S75.5,89.3,75.5,89.3z"/>
				<path class="st19" d="M81.6,100.2c0,0,1.4,0.3,2.4,0.3s2.4-0.3,2.4-0.3s-0.3,2.4-2.4,2.4S81.6,100.2,81.6,100.2z"/>
			</g>
			<path class="st20" d="M45.6,53.2c0,0,8.7-7.2,9.9-9.6c1.2-2.4,3.7-8.4,3.7-8.4s14.9,8.4,21.1,9.6c6.2,1.2,29.7,3.6,29.7,3.6
				l14.9-1.2l-7.4-4.8l-60.7-12L44.3,43.6l-2.5,9.6H45.6z"/>
			<path class="st21" d="M35.8,66.5V34l-2.4,1.2c0,0,1.2-6,6-13.2c1.4-2.2,6-8.4,6-8.4S55.2,2.6,84,0.3
				c30.1-2.4,39.7,13.2,39.7,13.2s2.4,1.2,7.2,7.2c4.8,6,6,10.8,6,10.8l-3.6-1.2c0,0,3.6,9.6,3.6,13.2c0,3.6,1.2,8.4,1.2,8.4
				l-3.6-3.6v18.1c0,0-4.8-1.2-4.8,2.4s-1.2,8.4-1.2,8.4l-3.6-1.2V50.8c0,0-2.4-2.4-3.6-3.6c-1.2-1.2-2.4-3.6-2.4-3.6
				S96,44.8,82.8,41.2c-13.2-3.6-25.3-9.6-25.3-9.6s-1.2,4.8-3.6,8.4s-8.4,9.6-8.4,9.6l-1.2,27.7h-2.4c0,0,0-8.4-2.4-9.6
				S35.8,66.5,35.8,66.5z"/>
		</g>
	</g>
</g>
<polygon class="st3" points="47.7,141 52.7,142 46.7,142 "/>
</svg>
