<?xml version="1.0" encoding="utf-8"?>
<!-- Generator: Adobe Illustrator 21.0.2, SVG Export Plug-In . SVG Version: 6.00 Build 0)  -->
<svg version="1.1" id="Isolation_Mode" xmlns="http://www.w3.org/2000/svg" xmlns:xlink="http://www.w3.org/1999/xlink" x="0px"
	 y="0px" width="410.1px" height="741.5px" viewBox="0 0 410.1 741.5" style="enable-background:new 0 0 410.1 741.5;"
	 xml:space="preserve">
<style type="text/css">
	.st0{fill:#0C3A3A;}
	.st1{fill:#8E929B;}
	.st2{fill:#FFB288;}
	.st3{fill:#F98C6D;}
	.st4{fill:#F2F5FA;}
	.st5{fill:#808D9E;}
	.st6{fill:#195357;}
	.st7{fill:#CED5DD;}
	.st8{fill:#844319;}
	.st9{fill:#283138;}
	.st10{fill:#424C55;}
	.st11{fill:#FDF4E5;}
	.st12{fill:#90949D;}
	.st13{fill:#F0F2F8;}
	.st14{fill:#FFD0BE;}
	.st15{fill:#F9A17B;}
	.st16{fill:#432C26;}
	.st17{fill:#FDA17C;}
	.st18{fill:#FDA276;}
	.st19{fill:#A4412E;}
	.st20{fill:#A54C3E;}
	.st21{fill:#FFFFFF;}
	.st22{fill:none;stroke:#FFFFFF;stroke-width:6;stroke-miterlimit:10;}
	.st23{fill:#842A1F;}
	.st24{fill:#48D2D6;}
	.st25{fill:#EAD5B8;}
	.st26{fill:#E4C49E;}
	.st27{fill:#00247D;}
	.st28{fill:#FF6E43;}
	.st29{fill:#1E0C08;}
	.st30{opacity:0.72;fill:#7F6852;}
	.st31{fill:#002395;}
	.st32{fill:#ED2939;}
	.st33{fill:#FEFDFE;}
	.st34{fill:#CF142B;}
	.st35{fill:#874019;}
</style>
<g>
	<ellipse class="st0" cx="203.3" cy="461.5" rx="105.3" ry="111"/>
	<g>
		<polygon class="st1" points="272,413.5 315.1,418 316.5,461.5 280,461.5 		"/>
		<path class="st2" d="M322.2,418l43.6,1.4v-8.6c0,0,0-5.6,4.2-7c3-1,5.2,2.2,6.3,4.2c0.5,0.9,0.7,1.8,0.7,2.8v4.5
			c0,0,0,2.8,2.8,4.2c2.8,1.4,9.8-5.6,9.8-5.6l5.6-5.6c0,0,2.8-2.8,5.6,1.4c2.8,4.2-1.4,8.4-1.4,8.4l-6.4,6.5c0,0-2,1-0.6,1.9
			c1.7,1.1,7-1.4,7-1.4s7-4.2,9.8,0c1.7,2.5,0.3,5.1-1,6.7c-0.9,1.1-2.2,1.8-3.5,2.2l-6.3,1.8c-1.1,0.3-1.4,0.8-1.4,1.8
			c0,0,0.6,2,2,2c2.8,0,10.5,1.9,10.5,6.2c0,0,0,0.1,0,0.1c0,3.1-3.2,5.2-6.2,4.2c-2.8-1-9.5-2.8-9.5-1.1c0,2.8,3.6,5,3.6,5
			s2.8,2.8,0,5.6c-2.8,2.8-7.4-1-7.4-1s-6-4-10.2-4c-4.2,0-50.6,4.2-50.6,4.2L322.2,418z"/>
		<path class="st3" d="M345.1,418.7l-15.5-0.5c0,0.1,0,0.1,0,0.1l1.9,40.2c3.1-0.3,8.9-0.8,15.4-1.4L345.1,418.7z"/>
		<path class="st4" d="M309.6,465l29.1-1.4c1.6-0.1,2.9-1.5,2.9-3.1l-2.3-48.7c-0.1-1.6-1.5-2.9-3.1-2.9l-29.1,1.4
			c-1.6,0.1-2.9,1.5-2.9,3.1l2.3,48.7C306.5,463.8,308,465.1,309.6,465z"/>
	</g>
	<g>
		<polygon class="st1" points="138.1,413.5 94.9,418 93.5,461.5 130.1,461.5 		"/>
		<path class="st2" d="M87.9,418l-43.6,1.4v-8.6c0,0,0-5.6-4.2-7c-3-1-5.2,2.2-6.3,4.2c-0.5,0.9-0.7,1.8-0.7,2.8v4.5
			c0,0,0,2.8-2.8,4.2c-2.8,1.4-9.8-5.6-9.8-5.6l-5.6-5.6c0,0-2.8-2.8-5.6,1.4c-2.8,4.2,1.4,8.4,1.4,8.4l6.4,6.5c0,0,2,1,0.6,1.9
			c-1.7,1.1-7-1.4-7-1.4s-7-4.2-9.8,0c-1.7,2.5-0.3,5.1,1,6.7c0.9,1.1,2.2,1.8,3.5,2.2l6.3,1.8c1.1,0.3,1.4,0.8,1.4,1.8
			c0,0-0.6,2-2,2c-2.8,0-10.5,1.9-10.5,6.2c0,0,0,0.1,0,0.1c0,3.1,3.2,5.2,6.2,4.2c2.8-1,9.5-2.8,9.5-1.1c0,2.8-3.6,5-3.6,5
			s-2.8,2.8,0,5.6c2.8,2.8,7.4-1,7.4-1s6-4,10.2-4s50.6,4.2,50.6,4.2L87.9,418z"/>
		<path class="st3" d="M65,418.7l15.5-0.5c0,0.1,0,0.1,0,0.1l-1.9,40.2c-3.1-0.3-8.9-0.8-15.4-1.4L65,418.7z"/>
		<path class="st4" d="M100.5,465l-29.1-1.4c-1.6-0.1-2.9-1.5-2.9-3.1l2.3-48.7c0.1-1.6,1.5-2.9,3.1-2.9l29.1,1.4
			c1.6,0.1,2.9,1.5,2.9,3.1l-2.3,48.7C103.5,463.8,102.1,465.1,100.5,465z"/>
	</g>
	<g>
		<g>
			<path class="st5" d="M122.5,588.4v78l68.4,3.4l3.3-33.9c0,0,3.3-17,9.8-17c6.5,0,9.8,17,9.8,17l3.3,33.9h65.2v-81.4H122.5
				L122.5,588.4z"/>
			<path class="st6" d="M122.5,509.1c0,0-9.8-22.9-5.4-63.6s36.9-54.7,36.9-54.7l106.3,3.8c0,0,31.5,26.7,33.6,52.1
				S283.1,514,283.1,514L122.5,509.1z"/>
			<path class="st7" d="M123.3,588.4c0,0-4-114,5.8-136.8c9.8-22.8,32.6-48.9,42.3-48.9c9.8,0,55.4-3.3,65.2,0
				c9.8,3.3,32.6,35.8,39.1,52.1c6.5,16.3,9.8,32.6,9.8,32.6l-4,101c0,0-38.2,16.3-74.2,16.3C158.4,604.7,123.3,588.4,123.3,588.4z"
				/>
			<path class="st8" d="M119.3,574.6c0,0,52.1,13,78.2,13s88-15.8,88-15.8v18.5c0,0-45.6,22.3-88,22.3s-78.2-22.3-78.2-22.3V574.6z"
				/>
			<g>
				<path class="st9" d="M125.8,715.4l-13-45.6c0,0,6.5-6.5,39.1-6.5s42.3,6.5,42.3,6.5l-9.8,48.9L125.8,715.4z"/>
				<path class="st10" d="M190.7,728.5c0.2-1.1,0.3-2.2,0.3-3.3c0-14.4-15.3-26.1-34.2-26.1s-34.2,11.7-34.2,26.1
					c0,1.1,0.1,2.2,0.3,3.3H190.7z"/>
				<polygon class="st11" points="122.5,728.5 126,741.5 187.5,741.5 190.9,728.5 				"/>
			</g>
			<g>
				<path class="st9" d="M220.3,715.4l-13-45.6c0,0,6.5-6.5,39.1-6.5s42.3,6.5,42.3,6.5l-9.8,48.9L220.3,715.4z"/>
				<path class="st10" d="M285.1,728.5c0.2-1.1,0.3-2.2,0.3-3.3c0-14.4-15.3-26.1-34.2-26.1S217,710.8,217,725.2
					c0,1.1,0.1,2.2,0.3,3.3H285.1z"/>
				<polygon class="st11" points="217,728.5 220.4,741.5 282,741.5 285.4,728.5 				"/>
			</g>
			<path class="st12" d="M200,421.5c23.5,0,39-4.6,48.4-8.8c-4.6-5.2-8.8-9-11.8-10c-9.8-3.3-55.4,0-65.2,0
				c-4.3,0-11.2,5.1-18.4,12.8C161.4,418.3,176.2,421.5,200,421.5z"/>
			<rect x="193" y="407.5" class="st13" width="22" height="190"/>
		</g>
		<g>
			<g>
				<ellipse class="st2" cx="205.6" cy="265.1" rx="128.7" ry="143.3"/>
				<circle class="st2" cx="79.7" cy="330.6" r="22.8"/>
				<path class="st3" d="M79.7,317.6c-4.4,0-8.3,2.2-10.7,5.6c2.1-1.5,4.7-2.3,7.4-2.3c7.2,0,13,5.8,13,13c0,2.8-0.9,5.3-2.3,7.4
					c3.4-2.4,5.6-6.3,5.6-10.7C92.7,323.5,86.9,317.6,79.7,317.6z"/>
				<circle class="st2" cx="336.5" cy="329.6" r="22.8"/>
				<path class="st3" d="M338.9,316.6c4.4,0,8.3,2.2,10.7,5.6c-2.1-1.5-4.7-2.3-7.4-2.3c-7.2,0-13,5.8-13,13c0,2.8,0.9,5.3,2.3,7.4
					c-3.4-2.4-5.6-6.3-5.6-10.7C325.9,322.5,331.7,316.6,338.9,316.6z"/>
				<path class="st3" d="M204,317.2c-6.6,0-12.1-1.7-12.9-8.1c-0.1,0.5-0.2,1.1-0.2,1.6c0,7.2,5.8,13,13,13c7.2,0,13-5.8,13-13
					c0-0.6-0.1-1.1-0.2-1.6C216,315.5,210.6,317.2,204,317.2z"/>
				<g>
					<ellipse class="st14" cx="204" cy="302.5" rx="6.5" ry="4.9"/>
					<circle class="st15" cx="182.8" cy="302.5" r="1.6"/>
					<circle class="st15" cx="169.8" cy="302.5" r="1.6"/>
					<circle class="st15" cx="176.3" cy="309.1" r="1.6"/>
					<circle class="st15" cx="231.7" cy="309.1" r="1.6"/>
					<circle class="st15" cx="225.2" cy="302.5" r="1.6"/>
					<circle class="st15" cx="238.2" cy="309.1" r="1.6"/>
					<ellipse class="st15" cx="142.1" cy="315.6" rx="16.3" ry="8.1"/>
					<ellipse class="st15" cx="265.9" cy="315.6" rx="16.3" ry="8.1"/>
					<ellipse class="st16" cx="152" cy="264" rx="8" ry="12.5"/>
					<ellipse class="st16" cx="256" cy="264" rx="8" ry="12.5"/>
					<path class="st17" d="M197.5,366.1c0,0,3.7,0.9,6.5,0.9c2.8,0,6.5-0.9,6.5-0.9s-0.9,6.5-6.5,6.5
						C198.4,372.6,197.5,366.1,197.5,366.1z"/>
				</g>
				<path class="st18" d="M100,239c0,0,23.5-19.5,26.8-26.1c3.4-6.5,10.1-22.8,10.1-22.8s40.3,22.8,57,26.1s80.5,9.8,80.5,9.8
					l40.3-3.3l-20.1-13l-164.4-32.6l-33.5,35.8L90,239H100z"/>
				<path class="st19" d="M92,287.5c0,9-12,19-12,19s-8.5-28.3-9-37c-1.1-21.2,2.7-82.6,2.7-82.6l-6.5,3.3c0,0,3.3-16.3,16.3-35.8
					c3.9-5.8,16.3-22.8,16.3-22.8S145.3,108.7,204,112s107.5,19.5,107.5,19.5s6.5,3.3,19.5,19.5c13,16.3,16.3,29.3,16.3,29.3
					l-9.8-3.3c0,0,9.8,26.1,9.8,35.8c0,9.8,3.3,22.8,3.3,22.8l-9.8-9.8v48.9c0,0-3,11.7-6.8,20.7c-3,7-7,13-7,13
					c0.8,3.8-7.5-8.4-11-25c-2.6-12.5-1.3-51-1.3-51s-6.5-6.5-9.8-9.8s-6.5-9.8-6.5-9.8s-61.9,3.3-97.7-6.5
					c-35.8-9.8-68.4-26.1-68.4-26.1s-3.3,13-9.8,22.8c-6.5,9.8-22.8,26.1-22.8,26.1"/>
			</g>
			<path class="st20" d="M166,340.2c0,0,22.7,15.2,40,14.1c17.3-1.1,39-16.2,39-16.2s-28.1-3.2-40-3.2
				C192,334.8,166,340.2,166,340.2z"/>
			<path class="st21" d="M178.2,337.4c7.6,3.5,18.5,7.5,27.8,7c8.9-0.5,19-4.6,26.2-8.2c-8.5-0.8-20.6-1.8-27.2-1.8
				C197.8,334.5,186.2,336.1,178.2,337.4z"/>
		</g>
	</g>
	<ellipse class="st21" cx="153" cy="257" rx="2" ry="3.5"/>
	<ellipse class="st21" cx="257" cy="257" rx="2" ry="3.5"/>
	<circle class="st22" cx="151.5" cy="282" r="38.5"/>
	<circle class="st22" cx="255.5" cy="282" r="38.5"/>
	<path class="st22" d="M190,288.5c0,0,6-10,14-10s13,9,13,9"/>
	<path class="st22" d="M190,288.5c0,0,6-10,14-10c11,0,13,9,13,9"/>
	<path class="st23" d="M301,130.5H119c-1.7,0-3-1.4-3-3v-5c0-1.7,1.3-3,3-3h182c1.6,0,3,1.3,3,3v5C304,129.1,302.6,130.5,301,130.5z
		"/>
	<line class="st22" x1="114" y1="290.5" x2="81" y2="305.5"/>
	<path class="st24" d="M311,120.5v-69h3v-5H121c-19.8,0-36,16.2-36,36v7c0,19.8,16.2,36,36,36h193v-5H311z"/>
	<path class="st25" d="M311,120.5H121.3c-17.2,0-31.3-14.1-31.3-31.4V83c0-17.3,14.1-31.4,31.3-31.4H311"/>
	<line class="st22" x1="294" y1="286.5" x2="328" y2="307.5"/>
	<polygon class="st23" points="136,130.5 136,162.5 155,149.5 176.5,165 176.5,129.5 	"/>
	<path class="st26" d="M104.4,119.5c4.9,3.2,10.7,5,16.9,5H311v-5H104.4z"/>
	<polygon class="st27" points="130,104.5 130,153.5 151,138.5 170.5,154 170.5,104.5 	"/>
	<path class="st26" d="M94.1,104.5H311v-6H91.4C92.1,100.6,93,102.6,94.1,104.5z"/>
	<path class="st26" d="M311,86.5v-6H90.1C90,81.3,90,82.1,90,83v3.5H311z"/>
	<path class="st26" d="M93.5,68.5H311v-6H97.6C96,64.3,94.7,66.3,93.5,68.5z"/>
	<path class="st26" d="M113.6,52.5H311v-1H121.3C118.7,51.5,116.1,51.9,113.6,52.5z"/>
	<path class="st28" d="M300.5,43h-10c-1.6,0-3-1.4-3-3V7c0-1.7,1.4-3,3-3h10c0.4,0,0.7,0.1,1,0.2V0H121.7
		c-12.8,0-23.2,10.4-23.2,23.2v0c0,12.8,10.4,23.2,23.2,23.2h179.8v-3.6C301.2,42.9,300.9,43,300.5,43z"/>
	<path class="st25" d="M300.3,42.9H122.9c-10.7,0-19.4-8.7-19.4-19.4v0c0-10.7,8.7-19.4,19.4-19.4h177.4"/>
	<path class="st26" d="M112.6,7h187.7V4H122.9C119.1,4,115.6,5.1,112.6,7z"/>
	<path class="st26" d="M104.3,18h196v-5H106.6C105.6,14.5,104.8,16.2,104.3,18z"/>
	<path class="st26" d="M104.7,30h195.6v-5H103.6C103.7,26.7,104.1,28.4,104.7,30z"/>
	<path class="st26" d="M110.1,38c3.4,3,7.9,4.9,12.8,4.9h177.4V38H110.1z"/>
	<path class="st29" d="M203,411.5l-17,10c0,0-5,3-5-3s-1-21-1-21s-1-5,2-5s20,13,22,13s16-11,16-11s5-5,7-1s1,22,1,22s0,4-3,4
		s-18-8-18-8S206,410.5,203,411.5z"/>
	<rect x="274" y="29.5" class="st30" width="7" height="17"/>
	<polygon class="st31" points="249,29.5 249,62.2 264,52.2 278,62.5 278,29.5 	"/>
	<polygon class="st32" points="264,52.2 264,52.2 278,62.5 278,29.5 264,29.5 	"/>
	<polygon class="st33" points="258,56.2 264,52.2 269,55.8 269,29.5 258,29.5 	"/>
	<path class="st21" d="M130,104.5"/>
	<polygon class="st21" points="131,104.5 130,104.5 130,110.5 141,121.5 130,121.5 130,129.5 143.5,129.5 130,143 130,150 146,134 
		146,142.1 151,138.5 154,140.9 154,134.5 170.5,151 170.5,144 156,129.5 170.5,129.5 170.5,121.5 158.5,121.5 170.5,109.5 
		170.5,104.5 168.5,104.5 154,119 154,104.5 146,104.5 146,119.5 	"/>
	<polygon class="st34" points="151,138.5 153,140.1 153,104.5 147,104.5 147,141.4 	"/>
	<rect x="130" y="122.5" class="st34" width="40.5" height="6"/>
	<circle class="st35" cx="204" cy="432.5" r="6"/>
	<circle class="st35" cx="204" cy="468.5" r="6"/>
	<circle class="st35" cx="204" cy="507.5" r="6"/>
	<circle class="st35" cx="204" cy="543.5" r="6"/>
</g>
</svg>
