<?xml version="1.0" encoding="utf-8"?>
<!-- Generator: Adobe Illustrator 21.0.2, SVG Export Plug-In . SVG Version: 6.00 Build 0)  -->
<svg version="1.1" id="Слой_1" xmlns="http://www.w3.org/2000/svg" xmlns:xlink="http://www.w3.org/1999/xlink" x="0px" y="0px"
	 width="54px" height="22px" viewBox="0 0 54 22" style="enable-background:new 0 0 54 22;" xml:space="preserve">
<style type="text/css">
	.st0{fill:#FFFFFF;}
</style>
<path class="st0" d="M54,16.5c0-3-3.6-5.5-8-5.5c-0.4,0-0.7,0-1,0.1C44.6,8.8,41.6,7,38,7c0,0,0,0,0,0c0-0.2,0-0.3,0-0.5
	C38,2.9,34.9,0,31,0c-2.5,0-4.7,1.2-5.9,3.1C24,2.4,22.8,2,21.5,2c-3.3,0-6.1,2.5-6.5,5.8C14.3,7.3,13.4,7,12.5,7
	c-1.7,0-3.2,1-3.9,2.3C7.9,9.1,7.2,9,6.5,9C2.9,9,0,11.9,0,15.5c0,3.4,2.6,6.2,6,6.5v0h41v0C50.9,21.6,54,19.3,54,16.5z M27.1,11.9
	c0.1,0,0.2,0.1,0.2,0.1H27C27,12,27,11.9,27.1,11.9z"/>
</svg>
