<?xml version="1.0" encoding="utf-8"?>
<!-- Generator: Adobe Illustrator 21.0.2, SVG Export Plug-In . SVG Version: 6.00 Build 0)  -->
<svg version="1.1" id="Слой_1" xmlns="http://www.w3.org/2000/svg" xmlns:xlink="http://www.w3.org/1999/xlink" x="0px" y="0px"
	 width="32px" height="16px" viewBox="0 0 32 16" style="enable-background:new 0 0 32 16;" xml:space="preserve">
<style type="text/css">
	.st0{fill:#FFFFFF;}
</style>
<path class="st0" d="M6,16h6.6h17.7c1-1.1,1.7-2.5,1.7-4c0-3.3-2.9-6-6.5-6c-0.6,0-1.3,0.1-1.8,0.2C22.8,2.6,20.1,0,17,0
	c-3.1,0-5.6,2.5-6.6,6c-0.1,0-0.3,0-0.4,0c-2.6,0-4.7,1.8-5,4.1c-2.9,0.4-5,1.5-5,2.9C0,14.5,2.6,15.8,6,16L6,16z"/>
</svg>
