<?xml version="1.0" encoding="utf-8"?>
<!-- Generator: Adobe Illustrator 21.0.2, SVG Export Plug-In . SVG Version: 6.00 Build 0)  -->
<svg version="1.1" id="Layer_1" xmlns="http://www.w3.org/2000/svg" xmlns:xlink="http://www.w3.org/1999/xlink" x="0px" y="0px" width="2110" height="30" viewBox="0 0 2110 30" preserveAspectRatio="none">
<style type="text/css">
	.st0{fill:#17A5DD;}
</style>
<path class="st0" d="M2105.2,5.6l-2.4-3.4h-4.4c-1.7,1.4-4.4,2.2-7.3,2.2c-3.2,0-6-1-7.7-2.6c-1.7-1.2-4.1-1.9-6.8-1.9
	c-2.7,0-5.1,0.7-6.8,1.9c-1.7,1.6-4.5,2.6-7.7,2.6c-3.2,0-6-1-7.7-2.6c-1.7-1.2-4.1-1.9-6.8-1.9c-3.3,0-6.2,1.1-7.9,2.7
	c-1.7,1.1-4.1,1.8-6.7,1.8c-3.2,0-6-1-7.7-2.6c-1.7-1.2-4.1-1.9-6.8-1.9c-2.7,0-5.1,0.7-6.8,1.9c-1.7,1.6-4.5,2.6-7.7,2.6
	s-6-1-7.7-2.6c-1.7-1.2-4.1-1.9-6.8-1.9c-3.3,0-6.1,1.1-7.8,2.7c-1.7,1.1-4.1,1.8-6.7,1.8c-3.2,0-6-1-7.7-2.6
	c-1.7-1.2-4.1-1.9-6.8-1.9c-2.7,0-5.1,0.7-6.8,1.9c-1.7,1.6-4.5,2.6-7.7,2.6s-6-1-7.7-2.6c-1.7-1.2-4.1-1.9-6.8-1.9
	c-3.3,0-6.2,1.1-7.9,2.7c-1.7,1.1-4.1,1.8-6.7,1.8c-3.2,0-6-1-7.7-2.6c-1.7-1.2-4.1-1.9-6.8-1.9c-2.7,0-5.1,0.7-6.8,1.9
	c-1.7,1.6-4.5,2.6-7.7,2.6c-3.2,0-6-1-7.7-2.6c-1.7-1.2-4.1-1.9-6.8-1.9c-3.3,0-6.1,1.1-7.8,2.7c-1.7,1.1-4.1,1.8-6.7,1.8
	c-3.2,0-6-1-7.7-2.6c-1.7-1.2-4.1-1.9-6.8-1.9c-2.7,0-5.1,0.7-6.8,1.9c-1.7,1.6-4.5,2.6-7.7,2.6c-3.2,0-6-1-7.7-2.6
	c-1.7-1.2-4.1-1.9-6.8-1.9c-3.3,0-6.2,1.1-7.9,2.7c-1.7,1.1-4.1,1.8-6.7,1.8c-3.2,0-6-1-7.7-2.6c-1.7-1.2-4.1-1.9-6.8-1.9
	c-2.7,0-5.1,0.7-6.8,1.9c-1.7,1.6-4.5,2.6-7.7,2.6s-6-1-7.7-2.6c-1.7-1.2-4.1-1.9-6.8-1.9c-3.3,0-6.1,1.1-7.8,2.7
	c-1.7,1.1-4.1,1.8-6.7,1.8c-3.2,0-6-1-7.7-2.6c-1.7-1.2-4.1-1.9-6.8-1.9c-2.7,0-5.1,0.7-6.8,1.9c-1.7,1.6-4.5,2.6-7.7,2.6
	c-3.2,0-6-1-7.7-2.6c-1.7-1.2-4.1-1.9-6.8-1.9c-3.3,0-6.2,1.1-7.9,2.7c-1.7,1.1-4.1,1.8-6.7,1.8c-3.2,0-6-1-7.7-2.6
	c-1.7-1.2-4.1-1.9-6.8-1.9c-2.7,0-5.1,0.7-6.8,1.9c-1.7,1.6-4.5,2.6-7.7,2.6c-3.2,0-6-1-7.7-2.6c-1.7-1.2-4.1-1.9-6.8-1.9
	c-3.3,0-6.1,1.1-7.8,2.7c-1.7,1.1-4.1,1.8-6.7,1.8c-3.2,0-6-1-7.7-2.6c-1.7-1.2-4.1-1.9-6.8-1.9c-2.7,0-5.1,0.7-6.8,1.9
	c-1.7,1.6-4.5,2.6-7.7,2.6s-6-1-7.7-2.6c-1.7-1.2-4.1-1.9-6.8-1.9c-3.3,0-6.2,1.1-7.9,2.7c-1.7,1.1-4.1,1.8-6.7,1.8
	c-3.2,0-6-1-7.7-2.6c-1.7-1.2-4.1-1.9-6.8-1.9c-2.7,0-5.1,0.7-6.8,1.9c-1.7,1.6-4.5,2.6-7.7,2.6s-6-1-7.7-2.6
	c-1.7-1.2-4.1-1.9-6.8-1.9c-3.3,0-6.1,1.1-7.8,2.7c-1.7,1.1-4.1,1.8-6.7,1.8c-3.2,0-6-1-7.7-2.6c-1.7-1.2-4.1-1.9-6.8-1.9
	c-2.7,0-5.1,0.7-6.8,1.9c-1.7,1.6-4.5,2.6-7.7,2.6c-3.2,0-6-1-7.7-2.6c-1.7-1.2-4.1-1.9-6.8-1.9c-3.3,0-6.2,1.1-7.9,2.7
	c-1.7,1.1-4.1,1.8-6.7,1.8c-3.2,0-6-1-7.7-2.6c-1.7-1.2-4.1-1.9-6.8-1.9c-2.7,0-5.1,0.7-6.8,1.9c-1.7,1.6-4.5,2.6-7.7,2.6
	c-3.2,0-6-1-7.7-2.6c-1.7-1.2-4.1-1.9-6.8-1.9c-3.3,0-6.1,1.1-7.8,2.7c-1.7,1.1-4.1,1.8-6.7,1.8c-3.2,0-6-1-7.7-2.6
	c-1.7-1.2-4.1-1.9-6.8-1.9c-2.7,0-5.1,0.7-6.8,1.9c-1.7,1.6-4.5,2.6-7.7,2.6s-6-1-7.7-2.6c-1.7-1.2-4.1-1.9-6.8-1.9
	c-3.3,0-6.2,1.1-7.9,2.7c-1.7,1.1-4.1,1.8-6.7,1.8c-3.2,0-6-1-7.7-2.6c-1.7-1.2-4.1-1.9-6.8-1.9c-2.7,0-5.1,0.7-6.8,1.9
	c-1.7,1.6-4.5,2.6-7.7,2.6s-6-1-7.7-2.6c-1.7-1.2-4.1-1.9-6.8-1.9c-3.3,0-6.1,1.1-7.8,2.7c-1.7,1.1-4.1,1.8-6.7,1.8
	c-3.2,0-6-1-7.7-2.6c-1.7-1.2-4.1-1.9-6.8-1.9c-2.7,0-5.1,0.7-6.8,1.9c-1.7,1.6-4.5,2.6-7.7,2.6c-3.2,0-6-1-7.7-2.6
	c-1.7-1.2-4.1-1.9-6.8-1.9c-3.3,0-6.2,1.1-7.9,2.7c-1.7,1.1-4.1,1.8-6.7,1.8c-3.2,0-6-1-7.7-2.6c-1.7-1.2-4.1-1.9-6.8-1.9
	c-2.7,0-5.1,0.7-6.8,1.9c-1.7,1.6-4.5,2.6-7.7,2.6c-3.2,0-6-1-7.7-2.6c-1.7-1.2-4.1-1.9-6.8-1.9c-3.3,0-6.1,1.1-7.8,2.7
	c-1.7,1.1-4.1,1.8-6.7,1.8c-3.2,0-6-1-7.7-2.6c-1.7-1.2-4.1-1.9-6.8-1.9c-2.7,0-5.1,0.7-6.8,1.9c-1.7,1.6-4.5,2.6-7.7,2.6
	s-6-1-7.7-2.6c-1.7-1.2-4.1-1.9-6.8-1.9c-3.3,0-6.2,1.1-7.9,2.7c-1.7,1.1-4.1,1.8-6.7,1.8c-3.2,0-6-1-7.7-2.6
	c-1.7-1.2-4.1-1.9-6.8-1.9c-2.7,0-5.1,0.7-6.8,1.9c-1.7,1.6-4.5,2.6-7.7,2.6s-6-1-7.7-2.6c-1.7-1.2-4.1-1.9-6.8-1.9
	c-3.3,0-6.1,1.1-7.8,2.7c-1.7,1.1-4.1,1.8-6.7,1.8c-3.2,0-6-1-7.7-2.6c-1.7-1.2-4.1-1.9-6.8-1.9c-2.7,0-5.1,0.7-6.8,1.9
	c-1.7,1.6-4.5,2.6-7.7,2.6c-3.2,0-6-1-7.7-2.6c-1.7-1.2-4.1-1.9-6.8-1.9c-3.3,0-6.2,1.1-7.9,2.7c-1.7,1.1-4.1,1.8-6.7,1.8
	c-3.2,0-6-1-7.7-2.6c-1.7-1.2-4.1-1.9-6.8-1.9c-2.7,0-5.1,0.7-6.8,1.9c-1.7,1.6-4.5,2.6-7.7,2.6c-3.2,0-6-1-7.7-2.6
	c-1.7-1.2-4.1-1.9-6.8-1.9c-3.3,0-6.1,1.1-7.8,2.7c-1.7,1.1-4.1,1.8-6.7,1.8c-3.2,0-6-1-7.7-2.6C917.1,0.7,914.7,0,912,0
	c-2.7,0-5.1,0.7-6.8,1.9c-1.7,1.6-4.5,2.6-7.7,2.6c-3.2,0-6-1-7.7-2.6C888,0.7,885.6,0,882.9,0c-3.3,0-6.2,1.1-7.9,2.7
	c-1.7,1.1-4.1,1.8-6.7,1.8c-3.2,0-6-1-7.7-2.6c-1.7-1.2-4.1-1.9-6.8-1.9c-2.7,0-5.1,0.7-6.8,1.9c-1.7,1.6-4.5,2.6-7.7,2.6
	c-3.2,0-6-1-7.7-2.6c-1.7-1.2-4.1-1.9-6.8-1.9c-3.3,0-6.1,1.1-7.8,2.7c-1.7,1.1-4.1,1.8-6.7,1.8c-3.2,0-6-1-7.7-2.6
	c-1.7-1.2-4.1-1.9-6.8-1.9c-2.7,0-5.1,0.7-6.8,1.9c-1.7,1.6-4.5,2.6-7.7,2.6c-3.2,0-6-1-7.7-2.6c-1.7-1.2-4.1-1.9-6.8-1.9
	c-3.3,0-6.2,1.1-7.9,2.7c-1.7,1.1-4.1,1.8-6.7,1.8c-3.2,0-6-1-7.7-2.6C742.4,0.7,740,0,737.3,0c-2.7,0-5.1,0.7-6.8,1.9
	c-1.7,1.6-4.5,2.6-7.7,2.6c-3.2,0-6-1-7.7-2.6c-1.7-1.2-4.1-1.9-6.8-1.9c-3.3,0-6.1,1.1-7.8,2.7c-1.7,1.1-4.1,1.8-6.7,1.8
	c-3.2,0-6-1-7.7-2.6c-1.7-1.2-4.1-1.9-6.8-1.9c-2.7,0-5.1,0.7-6.8,1.9c-1.7,1.6-4.5,2.6-7.7,2.6c-3.2,0-6-1-7.7-2.6
	C655.1,0.7,652.7,0,650,0c-3.3,0-6.2,1.1-7.9,2.7c-1.7,1.1-4.1,1.8-6.7,1.8c-3.2,0-6-1-7.7-2.6C626,0.7,623.6,0,620.9,0
	c-2.7,0-5.1,0.7-6.8,1.9c-1.7,1.6-4.5,2.6-7.7,2.6s-6-1-7.7-2.6c-1.7-1.2-4.1-1.9-6.8-1.9c-3.3,0-6.1,1.1-7.8,2.7
	c-1.7,1.1-4.1,1.8-6.7,1.8c-3.2,0-6-1-7.7-2.6c-1.7-1.2-4.1-1.9-6.8-1.9c-2.7,0-5.1,0.7-6.8,1.9c-1.7,1.6-4.5,2.6-7.7,2.6
	c-3.2,0-6-1-7.7-2.6c-1.7-1.2-4.1-1.9-6.8-1.9c-3.3,0-6.2,1.1-7.9,2.7c-1.7,1.1-4.1,1.8-6.7,1.8c-3.2,0-6-1-7.7-2.6
	c-1.7-1.2-4.1-1.9-6.8-1.9c-2.7,0-5.1,0.7-6.8,1.9c-1.7,1.6-4.5,2.6-7.7,2.6c-3.2,0-6-1-7.7-2.6C480.4,0.7,478,0,475.3,0
	c-3.3,0-6.1,1.1-7.8,2.7c-1.7,1.1-4.1,1.8-6.7,1.8c-3.2,0-6-1-7.7-2.6c-1.7-1.2-4.1-1.9-6.8-1.9c-2.7,0-5.1,0.7-6.8,1.9
	c-1.7,1.6-4.5,2.6-7.7,2.6c-3.2,0-6-1-7.7-2.6c-1.7-1.2-4.1-1.9-6.8-1.9c-3.3,0-6.2,1.1-7.9,2.7c-1.7,1.1-4.1,1.8-6.7,1.8
	c-3.2,0-6-1-7.7-2.6C393.1,0.7,390.7,0,388,0c-2.7,0-5.1,0.7-6.8,1.9c-1.7,1.6-4.5,2.6-7.7,2.6c-3.2,0-6-1-7.7-2.6
	C364,0.7,361.6,0,358.9,0c-3.3,0-6.1,1.1-7.8,2.7c-1.7,1.1-4.1,1.8-6.7,1.8c-3.2,0-6-1-7.7-2.6c-1.7-1.2-4.1-1.9-6.8-1.9
	c-2.7,0-5.1,0.7-6.8,1.9c-1.7,1.6-4.5,2.6-7.7,2.6c-3.2,0-6-1-7.7-2.6c-1.7-1.2-4.1-1.9-6.8-1.9c-3.3,0-6.2,1.1-7.9,2.7
	c-1.7,1.1-4.1,1.8-6.7,1.8c-3.2,0-6-1-7.7-2.6c-1.7-1.2-4.1-1.9-6.8-1.9c-2.7,0-5.1,0.7-6.8,1.9c-1.7,1.6-4.5,2.6-7.7,2.6
	c-3.2,0-6-1-7.7-2.6c-1.7-1.2-4.1-1.9-6.8-1.9c-3.3,0-6.1,1.1-7.8,2.7c-1.7,1.1-4.1,1.8-6.7,1.8c-3.2,0-6-1-7.7-2.6
	C218.4,0.7,216,0,213.3,0c-2.7,0-5.1,0.7-6.8,1.9c-1.7,1.6-4.5,2.6-7.7,2.6s-6-1-7.7-2.6c-1.7-1.2-4.1-1.9-6.8-1.9
	c-3.3,0-6.2,1.1-7.9,2.7c-1.7,1.1-4.1,1.8-6.7,1.8c-3.2,0-6-1-7.7-2.6c-1.7-1.2-4.1-1.9-6.8-1.9c-2.7,0-5.1,0.7-6.8,1.9
	c-1.7,1.6-4.5,2.6-7.7,2.6s-6-1-7.7-2.6C131.1,0.7,128.7,0,126,0c-3.3,0-6.1,1.1-7.8,2.7c-1.7,1.1-4.1,1.8-6.7,1.8
	c-3.2,0-6-1-7.7-2.6C101.9,0.7,99.5,0,96.9,0c-2.7,0-5.1,0.7-6.8,1.9c-1.7,1.6-4.5,2.6-7.7,2.6c-3.2,0-6-1-7.7-2.6
	C72.8,0.7,70.4,0,67.7,0c-3.3,0-6.2,1.1-7.9,2.7c-1.7,1.1-4.1,1.8-6.7,1.8c-3.2,0-6-1-7.7-2.6C43.7,0.7,41.3,0,38.6,0
	c-2.7,0-5.1,0.7-6.8,1.9c-1.7,1.6-4.5,2.6-7.7,2.6s-6-1-7.7-2.6C14.6,0.7,12.2,0,9.5,0c-5,0-9,2.5-9.5,5.6h0v24.6h116.4H131h101.9
	h14.6h101.9h14.6h101.9h14.6h101.9h14.6h101.9h14.6h101.9h14.6h101.9h14.6H1048h14.6h101.9h14.6h101.9h14.6h101.9h14.6h101.9h14.6
	h101.9h14.6h101.9h14.6h101.9h14.6h101.9h14.6h116.4V5.6H2105.2z"/>
</svg>
