<?xml version="1.0" encoding="utf-8"?>
<!-- Generator: Adobe Illustrator 21.0.2, SVG Export Plug-In . SVG Version: 6.00 Build 0)  -->
<svg version="1.1" id="Layer_1" xmlns="http://www.w3.org/2000/svg" xmlns:xlink="http://www.w3.org/1999/xlink" x="0px" y="0px"
	 width="1920px" height="768px" viewBox="0 0 1920 768" style="enable-background:new 0 0 1920 768;" xml:space="preserve">
<style type="text/css">
	.st0{fill:#FF835D;}
	.st1{fill:none;stroke:#FF835D;stroke-width:5;stroke-linecap:round;stroke-miterlimit:10;}
	.st2{fill:#FFA37E;}
	.st3{fill:#99604F;}
	.st4{fill:#FA805B;}
	.st5{fill:#FFD920;}
	.st6{fill:#FFB319;}
</style>
<g>
	<path class="st0" d="M5399,2129.5c0-46.1-45-83.5-100.5-83.5s-100.5,37.4-100.5,83.5c0,24.7,12.9,46.8,33.3,62.1l7.7,39.4h36
		l4-19.6c6.3,1,12.8,1.6,19.5,1.6c7.9,0,15.7-0.8,23.1-2.2l4.4,21.2h35l7-42.2C5387.1,2174.6,5399,2153.2,5399,2129.5z"/>
	<path class="st1" d="M5393,2106c0,0,13.4-9.7,12.2-17s-3.7-11-7.3-9.7s-4.9,8.5-1.2,12.2s7.3,4.9,12.2,3.7s10.7-9.5,10.7-9.5"/>
	<path class="st2" d="M5371.5,2123.3c0-36-27.1-66.6-64.6-77c-2.8-0.2-5.6-0.3-8.4-0.3c-55.5,0-100.5,37.4-100.5,83.5
		c0,24.7,12.9,46.8,33.3,62.1l0.2,1.2c13.8,7.1,30,11.2,47.2,11.2C5330,2204,5371.5,2167.8,5371.5,2123.3z"/>
	<path class="st2" d="M5203,2103c0,0,2,3-3,5s-13,3-13,3s-4,0-4,3s0,42,0,42s1,3,4,3s15,3,15,3s5,2,7,4s6-53,6-53L5203,2103z"/>
	<ellipse class="st3" cx="5229" cy="2091" rx="5" ry="7"/>
	<path class="st4" d="M5240,2065v-30c0,0,18,0,25,12c5.2,8.9,7.6,20.5,8.5,25.9c0.3,2-0.6,4-2.4,5c-1.4,0.8-3.1,1.5-4.1,1.1
		C5260.8,2077,5240,2065,5240,2065z"/>
	<path class="st2" d="M5240,2067v-32c0,0,9.1,3,14,15s6,30,6,30L5240,2067z"/>
	<path class="st3" d="M5277,2052l4,6c0,0,19-3,28-2s24,6,24,6l9-6c0,0-25-7-33-7S5277,2052,5277,2052z"/>
	<circle class="st5" cx="5309.5" cy="2025.5" r="25.5"/>
	<circle class="st6" cx="5309.5" cy="2025.5" r="20.5"/>
	<circle class="st5" cx="5310" cy="2026" r="16"/>
</g>
</svg>
