<?xml version="1.0" encoding="utf-8"?>
<!-- Generator: Adobe Illustrator 21.0.2, SVG Export Plug-In . SVG Version: 6.00 Build 0)  -->
<svg version="1.1" id="Isolation_Mode" xmlns="http://www.w3.org/2000/svg" xmlns:xlink="http://www.w3.org/1999/xlink" x="0px"
	 y="0px" width="266.1px" height="267.9px" viewBox="0 0 266.1 267.9" style="enable-background:new 0 0 266.1 267.9;"
	 xml:space="preserve">
<style type="text/css">
	.st0{fill:#08415C;}
	.st1{fill:#0D5279;}
	.st2{fill:#EAD5B8;}
	.st3{fill:#04303F;}
	.st4{fill:#043040;}
	.st5{fill:#61BBBB;}
	.st6{fill:#00247D;}
	.st7{fill:#FFFEFF;}
	.st8{fill:#CF142B;}
	.st9{fill:#133652;}
	.st10{fill:#7ACECC;}
	.st11{fill:#FEFDFE;}
	.st12{fill:#002395;}
	.st13{fill:#ED2939;}
	.st14{fill:#09354E;}
	.st15{fill:#EB1C24;}
	.st16{fill:#DBDBDB;}
	.st17{fill:#6B6B6B;}
	.st18{fill:#FCFCFC;}
	.st19{fill:#AFAFAF;}
	.st20{fill:#D8D8D8;}
	.st21{fill:#E4E5E7;}
	.st22{fill:#C4C4C4;}
	.st23{fill:#8DD5ED;stroke:#808080;stroke-miterlimit:10;}
</style>
<g>
	<path class="st0" d="M111,267.9L2.8,205.3c0,0-2.8-8.5-2.8-14.2c0-5.7,2.8-11.4,2.8-11.4l4.3-2.8L111,238.1l-5.7,14.2L111,267.9z"
		/>
	<polygon class="st1" points="265.1,173.7 260.8,172.3 106.7,260.8 112.4,265.1 	"/>
	<polygon class="st2" points="260.8,155.2 260.8,172.3 106.7,262.3 105.3,253.7 111,239.5 260.8,153.8 	"/>
	<polygon class="st3" points="265.1,178 111,267.9 111,263.7 265.1,173.7 	"/>
	<path class="st3" d="M111,263.7c0,0-4.3-1.4-4.3-7.1c0-10,4.3-14.2,4.3-14.2v-4.3c0,0-8.5,7.1-7.1,19.9c0.8,7.2,7.1,10,7.1,10
		V263.7z"/>
	<polygon class="st4" points="265.1,152.4 111,242.3 111,238.1 265.1,148.1 	"/>
	<polygon class="st1" points="7.1,176.9 111,238.1 265.1,148.1 161.2,86.9 	"/>
</g>
<g>
	<path class="st0" d="M149,216.9L40.8,154.3c0,0-2.8-8.5-2.8-14.2s2.8-11.4,2.8-11.4l4.3-2.8L149,187.1l-5.7,14.2L149,216.9z"/>
	<polygon class="st1" points="266.1,143.7 261.8,142.3 144.7,209.8 150.4,214.1 	"/>
	<polygon class="st2" points="261.8,125.2 261.8,142.3 144.7,211.3 143.3,202.7 149,188.5 261.8,123.8 	"/>
	<polygon class="st3" points="266.1,148 149,216.9 149,212.7 266.1,143.7 	"/>
	<path class="st3" d="M149,212.7c0,0-4.3-1.4-4.3-7.1c0-10,4.3-14.2,4.3-14.2v-4.3c0,0-8.5,7.1-7.1,19.9c0.8,7.2,7.1,10,7.1,10
		V212.7z"/>
	<polygon class="st4" points="266.1,122.4 149,191.3 149,187.1 266.1,118.1 	"/>
	<polygon class="st1" points="45.1,125.9 149,187.1 266.1,118.1 162.2,56.9 	"/>
</g>
<g>
	<path class="st0" d="M185,167.9L76.8,105.3c0,0-2.8-8.5-2.8-14.2c0-5.7,2.8-11.4,2.8-11.4l4.3-2.8L185,138.1l-5.7,14.2L185,167.9z"
		/>
	<polygon class="st1" points="266.1,116.7 261.8,115.3 180.7,160.8 186.4,165.1 	"/>
	<polygon class="st2" points="261.8,98.2 261.8,115.3 180.7,162.3 179.3,153.7 185,139.5 261.8,96.8 	"/>
	<polygon class="st3" points="266.1,121 185,167.9 185,163.7 266.1,116.7 	"/>
	<path class="st3" d="M185,163.7c0,0-4.3-1.4-4.3-7.1c0-10,4.3-14.2,4.3-14.2v-4.3c0,0-8.5,7.1-7.1,19.9c0.8,7.2,7.1,10,7.1,10
		V163.7z"/>
	<polygon class="st4" points="266.1,95.4 185,142.3 185,138.1 266.1,91.1 	"/>
	<polygon class="st1" points="81.1,76.9 185,138.1 266.1,91.1 162.2,29.9 	"/>
</g>
<g>
	<ellipse class="st5" cx="167.3" cy="48.3" rx="4.9" ry="3.5"/>
	<g>
		<g>
			<rect x="167.5" y="3.8" class="st6" width="40.5" height="25.9"/>
			<polygon class="st7" points="183.1,29.7 183.1,23.4 173.2,29.7 167.5,29.7 167.5,25.8 173.7,21.5 167.5,21.5 167.5,11.9 
				173.7,11.9 167.5,8.1 167.5,3.8 172.7,3.8 182.6,10 182.6,3.8 192.5,3.8 192.5,10 202.9,3.8 208,3.8 208,8.1 201.9,12.4 
				208,12.4 208,21.5 201.9,21.5 208,25.4 208,29.7 201.9,29.7 192.5,23.9 192.5,29.7 			"/>
			<rect x="184.5" y="3.8" class="st8" width="6.1" height="25.9"/>
			
				<rect x="184.7" y="-3.5" transform="matrix(-1.836970e-16 1 -1 -1.836970e-16 204.5084 -171.0641)" class="st8" width="6.1" height="40.5"/>
			<polygon class="st8" points="184,21.2 170.8,29.7 168,29.7 181.2,21.2 			"/>
			<polygon class="st8" points="207.1,3.8 193.9,12.2 191.1,12.2 204.3,3.8 			"/>
			<polygon class="st8" points="167.5,7.1 176.5,12.7 179.8,12.7 167.5,5.2 			"/>
			<polygon class="st8" points="195.3,21.2 208,29.2 208,26.4 199.1,21.2 			"/>
		</g>
		<rect x="166.6" y="2.8" class="st9" width="1.4" height="41.5"/>
		<circle class="st5" cx="167.3" cy="1.6" r="1.6"/>
		<polygon class="st5" points="162.8,47.1 164.2,44.7 169.9,44.3 172.2,47.6 		"/>
		<ellipse class="st10" cx="167.3" cy="45" rx="3.1" ry="2.1"/>
		<path class="st9" d="M167.4,45.2h-0.2c-0.3,0-0.6-0.3-0.6-0.6v-2.1c0-0.3,0.3-0.6,0.6-0.6h0.2c0.3,0,0.6,0.3,0.6,0.6v2.1
			C168,45,167.7,45.2,167.4,45.2z"/>
	</g>
</g>
<g>
	<ellipse class="st5" cx="190.1" cy="61.5" rx="5" ry="3.6"/>
	<g>
		<g>
			<rect x="190.3" y="16.5" class="st11" width="40.9" height="26.2"/>
			<rect x="190.3" y="16.5" class="st12" width="13" height="26.2"/>
			<rect x="217.9" y="16.5" class="st13" width="13.4" height="26.2"/>
		</g>
		<rect x="189.4" y="15.6" class="st9" width="1.4" height="41.9"/>
		<circle class="st5" cx="190.1" cy="14.4" r="1.7"/>
		<polygon class="st5" points="185.6,60.3 187,57.9 192.7,57.5 195.1,60.8 		"/>
		<ellipse class="st10" cx="190.1" cy="58.2" rx="3.1" ry="2.1"/>
		<path class="st9" d="M190.2,58.4H190c-0.3,0-0.6-0.3-0.6-0.6v-2.2c0-0.3,0.3-0.6,0.6-0.6h0.3c0.3,0,0.6,0.3,0.6,0.6v2.2
			C190.8,58.1,190.5,58.4,190.2,58.4z"/>
	</g>
</g>
<path class="st14" d="M199.1,107.9c0,0,8,6,5,7s-10,2-13-1s-21-14-21-14l-48,1l-10-6l39-7l-30-16c0,0-6-6-1-6s45,17,45,17l13,2l-7-5
	l14-14l10,2l-4,26L199.1,107.9z"/>
<g>
	<ellipse class="st5" cx="213.3" cy="73" rx="5" ry="3.6"/>
	<g>
		<g>
			<rect x="213.5" y="28" class="st7" width="40.9" height="26.2"/>
			<rect x="213.5" y="28" class="st8" width="11.8" height="26.2"/>
			<rect x="242.7" y="28" class="st8" width="11.8" height="26.2"/>
			<polygon class="st8" points="234.1,49.9 234.1,46.1 230.3,46.1 232.6,45 226.5,42.3 227.8,41.6 227.2,39.1 229.1,39.7 
				229.7,38.5 232.2,40.4 231,36 232.8,36.6 234.1,34.1 235.4,36.6 236.6,36 236,40.4 238.5,38.5 238.5,39.7 241.1,39.1 240.4,41.6 
				241.7,41.6 236.6,44.8 237.9,46.1 234.7,46.1 234.7,49.9 			"/>
		</g>
		<rect x="212.6" y="27.1" class="st9" width="1.4" height="41.9"/>
		<circle class="st5" cx="213.3" cy="25.9" r="1.7"/>
		<polygon class="st5" points="208.8,71.8 210.2,69.4 215.9,69 218.3,72.3 		"/>
		<ellipse class="st10" cx="213.3" cy="69.7" rx="3.1" ry="2.1"/>
		<path class="st9" d="M213.4,69.9h-0.3c-0.3,0-0.6-0.3-0.6-0.6v-2.2c0-0.3,0.3-0.6,0.6-0.6h0.3c0.3,0,0.6,0.3,0.6,0.6v2.2
			C214,69.6,213.8,69.9,213.4,69.9z"/>
	</g>
</g>
<g>
	<path class="st15" d="M160.5,105c0,0,0.6,1.8,1.8,3c1.2,1.2,3.7,3,3.7,3s1.8,0.6,3-1.8c1.2-2.4,0-3.7,0-3.7l-3.7-1.8h-3.7
		C161.7,103.8,161.1,103.8,160.5,105z"/>
	<polygon class="st16" points="160.5,100.7 162.9,103.8 166.6,106.2 167.2,105.6 163.5,100.7 	"/>
	
		<ellipse transform="matrix(0.3207 -0.9472 0.9472 0.3207 11.4158 232.3012)" class="st17" cx="167.7" cy="108.2" rx="2.5" ry="1.2"/>
	<path class="st18" d="M167.4,108.1c-0.1,0.3-0.1,0.6,0.1,0.6s0.8-0.4,0.9-0.7c0.1-0.3-0.4-0.4-0.6-0.4
		C167.7,107.6,167.5,107.8,167.4,108.1z"/>
	<polyline class="st19" points="162.9,100.7 160.5,100.7 162.9,103.8 166.6,106.2 	"/>
	<polygon class="st20" points="140.4,64.7 148.9,55 150.7,58 145.9,67.8 	"/>
	<path class="st15" d="M137.3,106.2c0,0,0.6,1.8,1.8,3c1.2,1.2,3.7,3,3.7,3s1.8,0.6,3-1.8c1.2-2.4,0-3.7,0-3.7l-3.7-1.8h-3.7
		C138.5,105,137.9,105,137.3,106.2z"/>
	<path class="st15" d="M193.4,86.7c0,0,0.6,1.8,1.8,3c1.2,1.2,3.7,3,3.7,3s1.8,0.6,3-1.8c1.2-2.4,0-3.7,0-3.7l-3.7-1.8h-3.7
		C194.6,85.5,194,85.5,193.4,86.7z"/>
	<path class="st15" d="M195.3,75.7c0,0,0.6,1.8,1.8,3c1.2,1.2,3.7,3,3.7,3s1.8,0.6,3-1.8c1.2-2.4,0-3.7,0-3.7l-3.7-1.8h-3.7
		C196.5,74.5,195.9,74.5,195.3,75.7z"/>
	<polygon class="st16" points="137.3,101.9 139.8,105 143.4,107.4 144,106.8 140.4,101.9 	"/>
	<polyline class="st19" points="139.8,101.9 137.3,101.9 139.8,105 143.4,107.4 	"/>
	<polygon class="st16" points="193.4,82.4 195.9,85.5 199.5,87.9 200.1,87.3 196.5,82.4 	"/>
	<polygon class="st16" points="195.3,71.5 197.7,74.5 201.4,76.9 202,76.3 198.3,71.5 	"/>
	<polyline class="st19" points="195.9,82.4 193.4,82.4 195.9,85.5 199.5,87.9 	"/>
	<polyline class="st19" points="197.7,71.5 195.3,71.5 197.7,74.5 201.4,76.9 	"/>
	<polygon class="st16" points="175.7,83 200.7,52.6 203.8,55.6 194.6,94 	"/>
	<polygon class="st18" points="203.8,55.6 194.6,92.8 193.4,91.6 	"/>
	<path class="st21" d="M217.7,113.7c-1.3,1.1-3,1.5-4.6,1.2l-11.1-2c-0.3,0-2-0.7-2.2-0.8l-62.4-36.4l-12.8-11.6c0,0-3-3-1.8-4.9
		c1.2-1.8,12.2,1.2,12.2,1.2l7.9,4.3l67.1,34.1c0,0,1.8,0.6,3,2.4s4.3,9.1,4.3,9.1s1.2,2.4,0.6,3
		C217.8,113.6,217.7,113.6,217.7,113.7z"/>
	<polygon class="st22" points="127.6,59.9 123.9,43.4 127.6,46.5 137.3,63.5 	"/>
	<path class="st15" d="M210.5,112.3l-27.4-15.2L126.6,66l10.7,9.7l62.8,36.6c0,0,4.9,3,7.3,3c8.1,0,7.9-0.6,7.9-0.6s0.1,0,0.1,0
		L210.5,112.3z"/>
	<polygon class="st21" points="183.1,101.3 114.2,103.8 109.9,101.3 163.5,87.9 183.7,100.1 	"/>
	<polygon class="st18" points="183.1,101.3 183.7,100.1 114.2,103.2 110.5,101.3 110.5,101.2 109.9,101.3 114.2,103.8 	"/>
	
		<ellipse transform="matrix(0.3207 -0.9472 0.9472 0.3207 -5.4811 211.1813)" class="st17" cx="144.5" cy="109.4" rx="2.5" ry="1.2"/>
	<path class="st18" d="M144.2,109.3c-0.1,0.3-0.1,0.6,0.1,0.6c0.2,0.1,0.8-0.4,0.9-0.7c0.1-0.3-0.4-0.4-0.6-0.4
		S144.3,109,144.2,109.3z"/>
	
		<ellipse transform="matrix(0.3207 -0.9472 0.9472 0.3207 51.1132 251.0636)" class="st17" cx="200.6" cy="89.9" rx="2.5" ry="1.2"/>
	<path class="st18" d="M200.3,89.8c-0.1,0.3-0.1,0.6,0.1,0.6c0.2,0.1,0.8-0.4,0.9-0.7c0.1-0.3-0.4-0.4-0.6-0.4
		S200.4,89.5,200.3,89.8z"/>
	
		<ellipse transform="matrix(0.3207 -0.9472 0.9472 0.3207 62.7526 245.3398)" class="st17" cx="202.4" cy="78.9" rx="2.5" ry="1.2"/>
	<path class="st18" d="M202.2,78.8c-0.1,0.3-0.1,0.6,0.1,0.6c0.2,0.1,0.8-0.4,0.9-0.7s-0.4-0.4-0.6-0.4S202.3,78.5,202.2,78.8z"/>
	<path class="st23" d="M208.1,103.2l-1.2,1.8c0,0,3,1.2,4.9,0.6c1.8-0.6,2.4-1.8,2.4-1.8l-1.2-1.8c0,0-0.6,1.2-1.2,1.2
		C211.1,103.2,208.1,103.2,208.1,103.2z"/>
	<polygon class="st16" points="134.9,72.7 115.4,70.2 111.7,67.2 130.6,67.8 	"/>
</g>
</svg>
