<?xml version="1.0" encoding="utf-8"?>
<!-- Generator: Adobe Illustrator 21.0.2, SVG Export Plug-In . SVG Version: 6.00 Build 0)  -->
<svg version="1.1" id="Isolation_Mode" xmlns="http://www.w3.org/2000/svg" xmlns:xlink="http://www.w3.org/1999/xlink" x="0px"
	 y="0px" width="1920px" height="768px" viewBox="0 0 1920 768" style="enable-background:new 0 0 1920 768;" xml:space="preserve">
<style type="text/css">
	.st0{fill:#FEA376;}
	.st1{fill:#FA9569;}
	.st2{fill:#FC3232;}
	.st3{fill:#FF4A43;}
	.st4{fill:#FFB288;}
	.st5{fill:#00A79D;}
	.st6{fill:#A4412E;}
	.st7{fill:#F98C6D;}
	.st8{fill:#FFD0BE;}
	.st9{fill:#F9A17B;}
	.st10{fill:#432C26;}
	.st11{fill:#FFFFFF;}
	.st12{fill:#FDA17C;}
	.st13{fill:#FDA276;}
	.st14{fill:#FCB831;}
	.st15{fill:#1394B3;}
	.st16{fill:#34A3BE;}
	.st17{fill:#82B131;}
	.st18{fill:#A9CD47;}
	.st19{opacity:0.51;fill:#5E230E;}
	.st20{fill:#BEC7D3;}
	.st21{fill:#808D9E;}
	.st22{fill:#CED5DD;}
	.st23{fill:#844319;}
	.st24{fill:#283138;}
	.st25{fill:#424C55;}
	.st26{fill:#FDF4E5;}
	.st27{fill:#90949D;}
	.st28{fill:#F0F2F8;}
	.st29{fill:#A54C3E;}
	.st30{fill:none;stroke:#FFFFFF;stroke-width:3;stroke-miterlimit:10;}
	.st31{fill:#1E0C08;}
	.st32{fill:#874019;}
	.st33{fill:#F04323;}
	.st34{fill:#EAD5B8;}
	.st35{fill:#E4C49E;}
</style>
<g>
	<g>
		<g>
			<polygon class="st0" points="4707,1488.9 4717,1484.5 4717,1474.5 4738.1,1475.6 4738.1,1484.5 4745.8,1488.9 4727,1501.1 			"/>
			<path class="st1" d="M4717,1480.1c2.5,1.3,6.3,2.1,10.5,2.1c4.2,0,8-0.8,10.5-2.1v-4.5l-21.1-1.1V1480.1z"/>
			<path class="st2" d="M4708.1,1512.2c0,0-17.5,13.9-24.4,26.6c-7.8,14.4-7.8,42.1-7.8,42.1l2.2,11.1c0,0,18.8,11.1,46.5,10
				s52.1-8.9,52.1-8.9l1.1-7.8c0,0,2.2-36.6-8.9-52.1c-11.1-15.5-23.3-19.9-23.3-19.9L4708.1,1512.2z"/>
			<path class="st3" d="M4753.6,1553.2c-2.5-11.9-10.3-31.5-13.8-40.1l-23.2-0.7l-5.2,0.9c0,0-13.3,18.8-14.4,42.1
				c-0.7,14.2,2.4,32.6,4.9,44.8c6.6,1.3,14.3,2.1,22.8,1.8c8.5-0.3,16.6-1.3,23.8-2.5C4751.8,1584.2,4755.6,1562.7,4753.6,1553.2z"
				/>
			<polygon class="st3" points="4704.8,1493.4 4705.9,1501.1 4692.6,1529.9 4681.5,1521.1 			"/>
			<path class="st4" d="M4684.9,1523.3l-5.5,8.9c0,0-1.1,2.2,0,1.1s3.3-3.3,3.3-3.3c1.1,0-2.2,4.4-2.2,4.4s0,1.1,1.1,0
				c1.1-1.1,2.2-3.3,2.2-3.3s1.1-1.1,1.1,0s-2.2,4.4-2.2,4.4s0,1.1,1.1,0s2.2-3.3,2.2-3.3s1.1,0,0,1.1c-1.1,1.1-2.2,4.4-2.2,4.4
				s0,1.1,1.1,0c1.1-1.1,3.3-6.6,3.3-6.6s0-2.2,1.1-1.1c1.1,1.1,2.2,2.2,2.2,1.1s-1.1-2.2-1.1-2.2l-1.1-2.2L4684.9,1523.3z"/>
			<polygon class="st3" points="4746.4,1493.4 4745.3,1501.1 4758.6,1529.9 4769.7,1521.1 			"/>
			<path class="st4" d="M4766.4,1523.3l5.5,8.9c0,0,1.1,2.2,0,1.1s-3.3-3.3-3.3-3.3c-1.1,0,2.2,4.4,2.2,4.4s0,1.1-1.1,0
				c-1.1-1.1-2.2-3.3-2.2-3.3s-1.1-1.1-1.1,0s2.2,4.4,2.2,4.4s0,1.1-1.1,0s-2.2-3.3-2.2-3.3s-1.1,0,0,1.1c1.1,1.1,2.2,4.4,2.2,4.4
				s0,1.1-1.1,0c-1.1-1.1-3.3-6.6-3.3-6.6s0-2.2-1.1-1.1c-1.1,1.1-2.2,2.2-2.2,1.1s1.1-2.2,1.1-2.2l1.1-2.2L4766.4,1523.3z"/>
			<path class="st5" d="M4698.2,1518.9c0,0-4.4-5.5-2.2-8.9c2.2-3.3,1.1-11.1,6.6-19.9c2.5-4,11.1-4.4,11.1-4.4s7.8,3.3,13.3,3.3
				c5.5,0,12.2-4.4,12.2-4.4s7.8-1.1,14.4,6.6c3.1,3.6,4.4,23.3,4.4,23.3s-3.3,13.3-5.5,12.2
				C4750.2,1525.5,4698.2,1518.9,4698.2,1518.9z"/>
		</g>
		<g>
			<g>
				<path class="st6" d="M4688.2,1414c0,0-33.6-20-44.3,4c-10.7,24,14.4,55.5,14.4,55.5s-3-29.5,7.8-42.3
					c6.9-8.2,16.6-11.3,16.6-11.3L4688.2,1414z"/>
				<ellipse class="st4" cx="4727.5" cy="1428" rx="43.8" ry="48.8"/>
				<circle class="st4" cx="4682.7" cy="1439.1" r="7.8"/>
				<path class="st7" d="M4682.7,1434.6c-1.5,0-2.8,0.8-3.6,1.9c0.7-0.5,1.6-0.8,2.5-0.8c2.4,0,4.4,2,4.4,4.4c0,0.9-0.3,1.8-0.8,2.5
					c1.1-0.8,1.9-2.1,1.9-3.6C4687.1,1436.6,4685.1,1434.6,4682.7,1434.6z"/>
				<circle class="st4" cx="4772.4" cy="1439.1" r="7.8"/>
				<path class="st7" d="M4773.2,1434.6c1.5,0,2.8,0.8,3.6,1.9c-0.7-0.5-1.6-0.8-2.5-0.8c-2.4,0-4.4,2-4.4,4.4
					c0,0.9,0.3,1.8,0.8,2.5c-1.1-0.8-1.9-2.1-1.9-3.6C4768.8,1436.6,4770.8,1434.6,4773.2,1434.6z"/>
				<path class="st7" d="M4727,1445.7c-2.3,0-4.1-0.6-4.4-2.8c0,0.2-0.1,0.4-0.1,0.6c0,2.4,2,4.4,4.4,4.4c2.4,0,4.4-2,4.4-4.4
					c0-0.2,0-0.4-0.1-0.6C4731.1,1445.1,4729.2,1445.7,4727,1445.7z"/>
				<g>
					<ellipse class="st8" cx="4727" cy="1440.7" rx="2.2" ry="1.7"/>
					<ellipse class="st9" cx="4705.9" cy="1445.2" rx="5.5" ry="2.8"/>
					<ellipse class="st9" cx="4748" cy="1445.2" rx="5.5" ry="2.8"/>
					<path class="st10" d="M4706.5,1429.1c-4.6,0-8.3,2.7-8.3,6c0,0.2,0,0.4,0.1,0.7c0.4-2.5,3-4.6,6.4-5.2c-0.5,1-0.9,2.4-0.9,4.1
						c0,3.1,1.2,5.5,2.8,5.5c1.5,0,2.8-2.5,2.8-5.5c0-1.6-0.3-3-0.9-4.1c3.4,0.6,6,2.6,6.4,5.2c0-0.2,0.1-0.4,0.1-0.7
						C4714.8,1431.8,4711.1,1429.1,4706.5,1429.1z"/>
					<path class="st10" d="M4747.5,1429.1c-4.6,0-8.3,2.7-8.3,6c0,0.2,0,0.4,0.1,0.7c0.4-2.5,3-4.6,6.4-5.2c-0.5,1-0.9,2.4-0.9,4.1
						c0,3.1,1.2,5.5,2.8,5.5c1.5,0,2.8-2.5,2.8-5.5c0-1.6-0.3-3-0.9-4.1c3.4,0.6,6,2.6,6.4,5.2c0-0.2,0.1-0.4,0.1-0.7
						C4755.8,1431.8,4752.1,1429.1,4747.5,1429.1z"/>
					<path class="st11" d="M4720.3,1453.5c0,0,3.8,0.9,6.6,0.9c2.8,0,6.6-0.9,6.6-0.9s-0.9,6.1-6.6,6.1
						C4721.3,1459.6,4720.3,1453.5,4720.3,1453.5z"/>
					<path class="st12" d="M4724.8,1462.3c0,0,1.3,0.3,2.2,0.3c0.9,0,2.2-0.3,2.2-0.3s-0.3,2.2-2.2,2.2
						C4725.1,1464.6,4724.8,1462.3,4724.8,1462.3z"/>
				</g>
				<path class="st13" d="M4687.1,1429.1c0,0,29.9,1.1,36.6-6.6c6.6-7.8,19.9-26.6,19.9-26.6s1.1,18.8,6.6,22.2
					c5.5,3.3,19.9,8.9,19.9,8.9l-16.6-22.2l-13.3-18.8l-31,31L4687.1,1429.1z"/>
				<path class="st6" d="M4682.7,1431.1c0,0,2.2-1.2,3.3,0c1.1,1.2,1.1-3.6,1.1-3.6s24.4,0,34.3-7.2c10-7.2,21.1-27.4,22.2-27.4
					s2.2,1.2,2.2,2.4s1.1,15.5,6.6,20.3c5.5,4.8,17.7,10.7,17.7,10.7v4.8h4.4c0,0,3.3-22.7-7.8-37c-11.1-14.3-17.7-21.5-38.8-20.3
					c-21.1,1.2-31,7.2-36.6,15.5c-5.5,8.3-8.9,22.7-8.9,28.6C4682.7,1424,4682.7,1431.1,4682.7,1431.1z"/>
				<path class="st14" d="M4678.2,1411.4c0,0-1.1,3.3-1.1,5.5s1.1,4.4,1.1,4.4l4.4-1.1c0,0-1.1-2.2,0-4.4s1.1-4.4,1.1-4.4l-5.5-1.1
					V1411.4z"/>
				<path class="st6" d="M4770.2,1412.6c0,0,33.6-20,44.3,4c10.7,24-6.6,55.5-6.6,55.5s-4.8-29.5-15.5-42.3
					c-6.9-8.2-16.6-11.3-16.6-11.3L4770.2,1412.6z"/>
				<path class="st14" d="M4780.2,1410.3c0,0,1.1,3.3,1.1,5.5s-1.1,4.4-1.1,4.4l-4.4-1.1c0,0,1.1-2.2,0-4.4s-1.1-4.4-1.1-4.4
					l5.5-1.1V1410.3z"/>
			</g>
		</g>
	</g>
	<circle class="st15" cx="4736.4" cy="1551.5" r="65.9"/>
	<path class="st16" d="M4736.4,1485.6c-36.4,0-65.9,29.5-65.9,65.9c0,10.7,2.6,20.8,7.1,29.7c11.6,10.1,26.7,16.3,43.3,16.3
		c36.4,0,65.9-29.5,65.9-65.9c0-10.7-2.6-20.8-7.1-29.7C4768.1,1491.8,4753,1485.6,4736.4,1485.6z"/>
	<path class="st17" d="M4717,1578.7c-1.1-6.6-12.2-11.1-15.5-17.7s2.2-7.8,1.1-21.1c-0.5-6.4-6.6-4.4-13.3-10
		c-3.8-3.1-9.6-3.4-14-3.1c-3.1,7.6-4.8,16-4.8,24.7c0,28.8,18.5,53.3,44.3,62.3c-2.8-4.4-5.5-9.7-5.5-13
		C4709.2,1594.2,4718.1,1585.3,4717,1578.7z"/>
	<path class="st18" d="M4670.6,1555.9c0.2,2.4,0.4,4.8,0.9,7.1c0,0.2,0.1,0.3,0.1,0.5c0.5,2.4,1,4.8,1.7,7.1c0,0,0,0.1,0,0.1
		c1.1,3.6,2.5,7.1,4.2,10.5c9,7.9,20.2,13.4,32.6,15.4c2.2-5.9,7.7-12.6,6.8-18c-1.1-6.6-12.2-11.1-15.5-17.7s2.2-7.8,1.1-21.1
		c-0.5-6.4-6.6-4.4-13.3-10c-3.8-3.1-9.6-3.4-14-3.1c-0.8,1.9-1.5,3.9-2.1,5.8c0,0,0,0,0,0c-0.3,1-0.6,2-0.8,3c0,0.1,0,0.1-0.1,0.2
		c-0.2,0.9-0.4,1.9-0.6,2.8c0,0.2-0.1,0.3-0.1,0.5c-0.2,0.9-0.3,1.7-0.4,2.6c0,0.3-0.1,0.6-0.1,0.9c-0.1,0.7-0.2,1.5-0.3,2.2
		c-0.1,0.5-0.1,1-0.1,1.6c0,0.6-0.1,1.1-0.1,1.7c-0.1,1.1-0.1,2.2-0.1,3.3c0,1.2,0,2.4,0.1,3.6
		C4670.6,1555.4,4670.6,1555.7,4670.6,1555.9z"/>
	<path class="st17" d="M4736.4,1485.6c-9.4,0-18.2,2-26.3,5.5c8.4,5.5,21.9,14.4,23.5,20c2.2,7.8-8.9,27.7-2.2,35.5
		c6.6,7.8,35.5,14.4,44.3,6.6c8.4-7.3,12.8-24.5,23.5-21.8C4790.7,1504.9,4765.8,1485.6,4736.4,1485.6z"/>
	<path class="st18" d="M4732.2,1485.8c-0.9,0.1-1.8,0.1-2.7,0.2c-0.2,0-0.4,0.1-0.6,0.1c-0.9,0.1-1.8,0.2-2.8,0.4
		c-0.1,0-0.3,0.1-0.4,0.1c-1,0.2-1.9,0.3-2.9,0.5c-0.1,0-0.2,0-0.3,0.1c-1,0.2-2,0.5-3,0.7c0,0-0.1,0-0.1,0
		c-3.2,0.9-6.3,1.9-9.3,3.3l0,0c8.4,5.5,21.9,14.4,23.5,20c2.2,7.8-8.9,27.7-2.2,35.5c6.6,7.8,35.5,14.4,44.3,6.6
		c4.1-3.6,7.3-9.6,10.7-14.4c0.3-2.4,0.4-4.8,0.4-7.2c0-10.7-2.6-20.8-7.1-29.7c-2.9-2.5-6-4.8-9.3-6.8c0,0,0,0-0.1,0
		c-0.8-0.5-1.6-0.9-2.4-1.4c0,0-0.1,0-0.1-0.1c-0.8-0.4-1.6-0.9-2.5-1.3c0,0-0.1,0-0.1,0c-3.4-1.7-7-3.1-10.8-4.1
		c-0.2-0.1-0.4-0.1-0.6-0.2c-0.7-0.2-1.4-0.4-2.2-0.6c-0.3-0.1-0.6-0.1-0.8-0.2c-0.6-0.1-1.3-0.3-1.9-0.4c-0.3-0.1-0.7-0.1-1-0.2
		c-0.6-0.1-1.2-0.2-1.8-0.3c-0.3-0.1-0.7-0.1-1-0.2c-0.6-0.1-1.2-0.2-1.9-0.2c-0.3,0-0.7-0.1-1-0.1c-0.7-0.1-1.3-0.1-2-0.1
		c-0.3,0-0.6,0-0.9-0.1c-1,0-2-0.1-2.9-0.1c-1.2,0-2.3,0-3.5,0.1C4732.7,1485.7,4732.5,1485.7,4732.2,1485.8z"/>
	<path class="st17" d="M4756.9,1598.6c-3.3,0,0-3.3,4.4-8.9s13.3-7.8,13.3-7.8s3.3,7.8,2.2,11.1c-1.1,3.3-3.3,8.9-6.6,10
		S4756.9,1598.6,4756.9,1598.6z"/>
	<path class="st19" d="M4685.4,1524.5c-0.3-0.5,0.4-1.2,0.4-1.2c0.4-0.2,0.6-0.2,1,0.2l1.9,2.1c0.4,0.4,0.9,0.8,1.5,0.9
		c0.9,0.2,2.1,0.2,2.8-0.9c1.1-1.9-1.9-3.8-1.9-3.8s-2-1.6-1.9-2.4c0.1-0.7,0.8-0.1,0.8-0.1l3.8,1.2c0,0,2.5,0.8,3.5-1.1
		c1.1-1.9-0.5-2.4-0.5-2.4l-3.3-1c0,0-4.1-1.3-4.1-2.7c0-1.4,1.1-1.9,1.1-1.9l1.7-0.9c0.4-0.2,0.7-0.5,1-0.8
		c0.6-0.8,1.4-2.3,0.4-3.2c-1.4-1.3-3.5-0.2-3.5-0.2l-3.4,1.7l-0.3-0.7c-1.2,0.4-4.4,1.7-6.3,4.3c-2.3,3.1-3.8,9.5-4,10
		c0.3,1.6,0,3.5,0,3.5s-0.6,2.5,1,3c1.6,0.5,2.2-1.1,2.2-1.1s0.2-1.8,1.3-2.4c0.7-0.3,1.2,2.6,1.4,3.8c0.2,1.3,1.6,2.1,2.8,1.5
		c0,0,0,0,0,0C4686.7,1528.9,4686,1525.6,4685.4,1524.5z"/>
	<path class="st4" d="M4685.4,1522.3c-0.3-0.5,0.4-1.2,0.4-1.2c0.4-0.2,0.6-0.2,1,0.2l1.9,2.1c0.4,0.4,0.9,0.8,1.5,0.9
		c0.9,0.2,2.1,0.2,2.8-0.9c1.1-1.9-1.9-3.8-1.9-3.8s-2-1.6-1.9-2.4c0.1-0.7,0.8-0.1,0.8-0.1l3.8,1.2c0,0,2.5,0.8,3.5-1.1
		c1.1-1.9-0.5-2.4-0.5-2.4l-3.3-1c0,0-4.1-1.3-4.1-2.7c0-1.4,1.1-1.9,1.1-1.9l1.7-0.9c0.4-0.2,0.7-0.5,1-0.8
		c0.6-0.8,1.4-2.3,0.4-3.2c-1.4-1.3-3.5-0.2-3.5-0.2l-3.4,1.7l-0.3-0.7c-1.2,0.4-4.4,1.7-6.3,4.3c-2.3,3.1-3.8,9.5-4,10
		c0.3,1.6,0,3.5,0,3.5s-0.6,2.5,1,3c1.6,0.5,2.2-1.1,2.2-1.1s0.2-1.8,1.3-2.4c0.7-0.3,1.2,2.6,1.4,3.8c0.2,1.3,1.6,2.1,2.8,1.5
		c0,0,0,0,0,0C4686.7,1526.7,4686,1523.3,4685.4,1522.3z"/>
	<path class="st19" d="M4783.9,1524.5c0.3-0.5-0.4-1.2-0.4-1.2c-0.4-0.2-0.6-0.2-1,0.2l-1.9,2.1c-0.4,0.4-0.9,0.8-1.5,0.9
		c-0.9,0.2-2.1,0.2-2.8-0.9c-1.1-1.9,1.9-3.8,1.9-3.8s2-1.6,1.9-2.4c-0.1-0.7-0.8-0.1-0.8-0.1l-3.8,1.2c0,0-2.5,0.8-3.5-1.1
		c-1.1-1.9,0.5-2.4,0.5-2.4l3.3-1c0,0,4.1-1.3,4.1-2.7c0-1.4-1.1-1.9-1.1-1.9l-1.7-0.9c-0.4-0.2-0.7-0.5-1-0.8
		c-0.6-0.8-1.4-2.3-0.4-3.2c1.4-1.3,3.5-0.2,3.5-0.2l3.4,1.7l0.3-0.7c1.2,0.4,4.4,1.7,6.3,4.3c2.3,3.1,3.8,9.5,4,10
		c-0.3,1.6,0,3.5,0,3.5s0.6,2.5-1,3c-1.6,0.5-2.2-1.1-2.2-1.1s-0.2-1.8-1.3-2.4c-0.7-0.3-1.2,2.6-1.4,3.8c-0.2,1.3-1.6,2.1-2.8,1.5
		c0,0,0,0,0,0C4782.6,1528.9,4783.3,1525.6,4783.9,1524.5z"/>
	<path class="st4" d="M4783.9,1522.3c0.3-0.5-0.4-1.2-0.4-1.2c-0.4-0.2-0.6-0.2-1,0.2l-1.9,2.1c-0.4,0.4-0.9,0.8-1.5,0.9
		c-0.9,0.2-2.1,0.2-2.8-0.9c-1.1-1.9,1.9-3.8,1.9-3.8s2-1.6,1.9-2.4c-0.1-0.7-0.8-0.1-0.8-0.1l-3.8,1.2c0,0-2.5,0.8-3.5-1.1
		c-1.1-1.9,0.5-2.4,0.5-2.4l3.3-1c0,0,4.1-1.3,4.1-2.7c0-1.4-1.1-1.9-1.1-1.9l-1.7-0.9c-0.4-0.2-0.7-0.5-1-0.8
		c-0.6-0.8-1.4-2.3-0.4-3.2c1.4-1.3,3.5-0.2,3.5-0.2l3.4,1.7l0.3-0.7c1.2,0.4,4.4,1.7,6.3,4.3c2.3,3.1,3.8,9.5,4,10
		c-0.3,1.6,0,3.5,0,3.5s0.6,2.5-1,3c-1.6,0.5-2.2-1.1-2.2-1.1s-0.2-1.8-1.3-2.4c-0.7-0.3-1.2,2.6-1.4,3.8c-0.2,1.3-1.6,2.1-2.8,1.5
		c0,0,0,0,0,0C4782.6,1526.7,4783.3,1523.3,4783.9,1522.3z"/>
</g>
<g>
	<path class="st4" d="M4653.9,1547.3c0,0,8.1-1.6,7.3,1.6c-0.8,3.3-0.8,17.1-4.1,16.3c-3.3-0.8-9-4.9-9-4.9L4653.9,1547.3z"/>
	<g>
		<path class="st20" d="M4606.7,1485.4c0,0-29.3,11.4-26.9,25.3c2.4,13.9,27.7,42.4,27.7,42.4l53.8-0.8c0,0,5.7-33.4,1.6-45.6
			c-6.1-18.4-25.3-22-25.3-22L4606.7,1485.4z"/>
		<g>
			<g>
				<path class="st21" d="M4591.6,1558.5v30.9l27,1.3l1.3-13.4c0,0,1.3-6.7,3.9-6.7c2.6,0,3.9,6.7,3.9,6.7l1.3,13.4h25.8v-32.2
					H4591.6L4591.6,1558.5z"/>
				<path class="st22" d="M4591.9,1558.5c0,0-1.6-45.1,2.3-54.1s12.9-19.3,16.7-19.3c3.9,0,21.9-1.3,25.8,0
					c3.9,1.3,12.9,14.2,15.5,20.6c2.6,6.4,3.9,12.9,3.9,12.9l-1.6,39.9c0,0-15.1,6.4-29.3,6.4
					C4605.7,1564.9,4591.9,1558.5,4591.9,1558.5z"/>
				<path class="st23" d="M4590.3,1553c0,0,20.6,5.2,30.9,5.2s34.8-6.2,34.8-6.2v7.3c0,0-18,8.8-34.8,8.8s-30.9-8.8-30.9-8.8V1553z"
					/>
				<g>
					<path class="st24" d="M4592.8,1608.7l-5.2-18c0,0,2.6-2.6,15.5-2.6s16.7,2.6,16.7,2.6l-3.9,19.3L4592.8,1608.7z"/>
					<path class="st25" d="M4618.5,1613.8c0.1-0.4,0.1-0.9,0.1-1.3c0-5.7-6.1-10.3-13.5-10.3s-13.5,4.6-13.5,10.3
						c0,0.4,0,0.9,0.1,1.3H4618.5z"/>
					<polygon class="st26" points="4591.6,1613.8 4592.9,1619 4617.3,1619 4618.6,1613.8 					"/>
				</g>
				<g>
					<path class="st24" d="M4630.2,1608.7l-5.2-18c0,0,2.6-2.6,15.5-2.6s16.7,2.6,16.7,2.6l-3.9,19.3L4630.2,1608.7z"/>
					<path class="st25" d="M4655.8,1613.8c0.1-0.4,0.1-0.9,0.1-1.3c0-5.7-6.1-10.3-13.5-10.3s-13.5,4.6-13.5,10.3
						c0,0.4,0,0.9,0.1,1.3H4655.8z"/>
					<polygon class="st26" points="4628.9,1613.8 4630.3,1619 4654.6,1619 4656,1613.8 					"/>
				</g>
				<path class="st27" d="M4622.2,1492.5c9.3,0,15.4-1.8,19.1-3.5c-1.8-2.1-3.5-3.5-4.7-3.9c-3.9-1.3-21.9,0-25.8,0
					c-1.7,0-4.4,2-7.3,5.1C4606.9,1491.2,4612.8,1492.5,4622.2,1492.5z"/>
				<rect x="4619.4" y="1486.9" class="st28" width="8.7" height="75.1"/>
			</g>
			<g>
				<g>
					<ellipse class="st4" cx="4624.4" cy="1430.6" rx="50.9" ry="56.7"/>
					<circle class="st4" cx="4574.6" cy="1456.6" r="9"/>
					<path class="st7" d="M4574.6,1451.4c-1.8,0-3.3,0.9-4.2,2.2c0.8-0.6,1.8-0.9,2.9-0.9c2.8,0,5.2,2.3,5.2,5.2
						c0,1.1-0.3,2.1-0.9,2.9c1.3-0.9,2.2-2.5,2.2-4.2C4579.8,1453.7,4577.5,1451.4,4574.6,1451.4z"/>
					<circle class="st4" cx="4676.2" cy="1456.2" r="9"/>
					<path class="st7" d="M4677.1,1451c1.8,0,3.3,0.9,4.2,2.2c-0.8-0.6-1.8-0.9-2.9-0.9c-2.8,0-5.2,2.3-5.2,5.2
						c0,1.1,0.3,2.1,0.9,2.9c-1.3-0.9-2.2-2.5-2.2-4.2C4671.9,1453.3,4674.3,1451,4677.1,1451z"/>
					<path class="st7" d="M4623.8,1451.2c-2.6,0-4.8-0.7-5.1-3.2c0,0.2-0.1,0.4-0.1,0.6c0,2.8,2.3,5.2,5.2,5.2
						c2.8,0,5.2-2.3,5.2-5.2c0-0.2,0-0.4-0.1-0.6C4628.5,1450.6,4626.4,1451.2,4623.8,1451.2z"/>
					<g>
						<ellipse class="st8" cx="4623.8" cy="1445.4" rx="2.6" ry="1.9"/>
						<circle class="st9" cx="4615.4" cy="1445.4" r="0.6"/>
						<circle class="st9" cx="4610.2" cy="1445.4" r="0.6"/>
						<circle class="st9" cx="4612.8" cy="1448" r="0.6"/>
						<circle class="st9" cx="4634.7" cy="1448" r="0.6"/>
						<circle class="st9" cx="4632.1" cy="1445.4" r="0.6"/>
						<circle class="st9" cx="4637.3" cy="1448" r="0.6"/>
						<ellipse class="st9" cx="4599.3" cy="1450.6" rx="6.4" ry="3.2"/>
						<ellipse class="st9" cx="4648.2" cy="1450.6" rx="6.4" ry="3.2"/>
						<ellipse class="st10" cx="4603.2" cy="1436.7" rx="3.2" ry="4.9"/>
						<ellipse class="st10" cx="4644.3" cy="1436.7" rx="3.2" ry="4.9"/>
						<path class="st12" d="M4621.2,1470.6c0,0,1.5,0.4,2.6,0.4s2.6-0.4,2.6-0.4s-0.4,2.6-2.6,2.6S4621.2,1470.6,4621.2,1470.6z"/>
					</g>
					<path class="st13" d="M4582.7,1420.3c0,0,9.3-7.7,10.6-10.3c1.3-2.6,4-9,4-9s15.9,9,22.5,10.3c6.6,1.3,31.8,3.9,31.8,3.9
						l15.9-1.3l-8-5.2l-65-12.9l-13.3,14.2l-2.7,10.3H4582.7z"/>
					<path class="st6" d="M4579.5,1439.5c0,3.6-4.7,7.5-4.7,7.5s-3.4-11.2-3.6-14.6c-0.4-8.4,1.1-32.7,1.1-32.7l-2.6,1.3
						c0,0,1.3-6.4,6.4-14.2c1.5-2.3,6.4-9,6.4-9s18-9,41.2-7.7c23.2,1.3,42.5,7.7,42.5,7.7s2.6,1.3,7.7,7.7
						c5.2,6.4,6.4,11.6,6.4,11.6l-3.9-1.3c0,0,3.9,10.3,3.9,14.2c0,3.9,1.3,9,1.3,9l-3.9-3.9v19.3c0,0-1.2,4.6-2.7,8.2
						c-1.2,2.8-2.8,5.1-2.8,5.1c0.3,1.5-3-3.3-4.3-9.9c-1-4.9-0.5-20.2-0.5-20.2s-2.6-2.6-3.9-3.9s-2.6-3.9-2.6-3.9
						s-24.5,1.3-38.6-2.6c-14.2-3.9-27-10.3-27-10.3s-1.3,5.2-3.9,9c-2.6,3.9-9,10.3-9,10.3"/>
				</g>
				<path class="st29" d="M4608.7,1460.3c0,0,9,6,15.8,5.6c6.8-0.4,15.4-6.4,15.4-6.4s-11.1-1.3-15.8-1.3
					C4619,1458.2,4608.7,1460.3,4608.7,1460.3z"/>
				<path class="st11" d="M4613.6,1459.2c3,1.4,7.3,3,11,2.8c3.5-0.2,7.5-1.8,10.4-3.2c-3.4-0.3-8.1-0.7-10.8-0.7
					C4621.3,1458.1,4616.7,1458.7,4613.6,1459.2z"/>
			</g>
		</g>
		<ellipse class="st11" cx="4603.6" cy="1437.2" rx="0.8" ry="1.4"/>
		<ellipse class="st11" cx="4644.7" cy="1437.2" rx="0.8" ry="1.4"/>
		<circle class="st30" cx="4603" cy="1437.3" r="15.2"/>
		<circle class="st30" cx="4644.1" cy="1437.3" r="15.2"/>
		<path class="st30" d="M4618.2,1439.9c0,0,2.4-4,5.5-4c3.2,0,5.1,3.6,5.1,3.6"/>
		<line class="st30" x1="4588.2" y1="1440.7" x2="4575.1" y2="1446.6"/>
		<line class="st30" x1="4659.4" y1="1439.1" x2="4672.8" y2="1447.4"/>
		<path class="st31" d="M4623.4,1488.5l-6.7,4c0,0-2,1.2-2-1.2c0-2.4-0.4-8.3-0.4-8.3s-0.4-2,0.8-2c1.2,0,7.9,5.1,8.7,5.1
			c0.8,0,6.3-4.3,6.3-4.3s2-2,2.8-0.4c0.8,1.6,0.4,8.7,0.4,8.7s0,1.6-1.2,1.6s-7.1-3.2-7.1-3.2S4624.6,1488.1,4623.4,1488.5z"/>
		<path class="st11" d="M4594.5,1367.1"/>
		<circle class="st32" cx="4623.8" cy="1496.8" r="2.4"/>
		<circle class="st32" cx="4623.8" cy="1511.1" r="2.4"/>
		<circle class="st32" cx="4623.8" cy="1526.5" r="2.4"/>
		<circle class="st32" cx="4623.8" cy="1540.7" r="2.4"/>
	</g>
	<g>
		<path class="st33" d="M4630.3,1502.5h-52.1c-1.4,0-2.5-1.1-2.5-2.4v-4.9c0-1.3,1.1-2.4,2.5-2.4l52.1,0.8c1.4,0,2.5,1.1,2.5,2.4
			v4.1C4632.7,1501.4,4631.6,1502.5,4630.3,1502.5z"/>
		<path class="st34" d="M4629.7,1502.5h-50.2c-1.6,0-3-1.3-3-3v-3c0-1.7,1.4-3,3-3h50.2c1.6,0,3,1.3,3,3v3
			C4632.7,1501.1,4631.4,1502.5,4629.7,1502.5z"/>
		<path class="st33" d="M4575,1555.7l0.7-60.5c0,0,0.2,5.5,4.8,5.5c4.6,0,52.2,0,52.2,0v60.5l-49.3-0.8c-2.3,0-6.1-1.2-7.3-3.1
			L4575,1555.7z"/>
		<rect x="4577.3" y="1495.2" class="st35" width="54.6" height="0.8"/>
		<rect x="4578.1" y="1497.6" class="st35" width="54.6" height="0.8"/>
		<path class="st4" d="M4583.9,1530.5c-0.5-0.2-0.4-1.1-0.4-1.1c0.2-0.4,0.4-0.5,0.8-0.4l2.6,0.4c0.6,0.1,1.2,0,1.7-0.3
			c0.8-0.4,1.7-1.1,1.5-2.3c-0.3-2-3.6-1.6-3.6-1.6s-2.4,0.1-2.8-0.6c-0.4-0.6,0.5-0.6,0.5-0.6l3.5-1.4c0,0,2.3-0.9,1.9-2.9
			c-0.3-2-1.8-1.4-1.8-1.4l-3,1.2c0,0-3.8,1.5-4.6,0.5c-0.8-1-0.3-2-0.3-2l0.7-1.7c0.2-0.4,0.2-0.8,0.2-1.2
			c-0.1-0.9-0.4-2.5-1.6-2.6c-1.8-0.2-2.7,1.9-2.7,1.9l-1.4,3.2l-0.7-0.3c-0.6,1.1-2.1,3.9-2,6.8c0.2,3.6,2.9,9.2,3.1,9.6
			c1.1,1,2.1,2.5,2.1,2.5s1.1,2.2,2.6,1.6c1.5-0.6,0.9-2.1,0.9-2.1s-1-1.4-0.5-2.5c0.3-0.6,2.4,1.1,3.3,2c0.9,0.9,2.4,0.6,3-0.6
			c0,0,0,0,0,0C4587.4,1532.9,4584.9,1530.9,4583.9,1530.5z"/>
	</g>
</g>
</svg>
